<?xml version="1.0" encoding="utf-8"?>
<!-- Generator: Adobe Illustrator 19.1.0, SVG Export Plug-In . SVG Version: 6.00 Build 0)  -->
<svg version="1.1" id="Layer_1" xmlns="http://www.w3.org/2000/svg" xmlns:xlink="http://www.w3.org/1999/xlink" x="0px" y="0px"
	 viewBox="0 0 512 512" style="enable-background:new 0 0 512 512;" xml:space="preserve">
<style type="text/css">
	.st0{display:none;}
	.st1{display:inline;}
	.st2{fill:none;stroke:#2B3990;stroke-width:0.25;stroke-miterlimit:10;stroke-dasharray:37.994;}
	.st3{fill:none;stroke:#2B3990;stroke-width:0.25;stroke-miterlimit:10;}
	.st4{fill:none;stroke:#2B3990;stroke-width:0.25;stroke-miterlimit:10;stroke-dasharray:4.5703,2.2852,10.2832,3.4277;}
	.st5{fill:none;stroke:#2B3990;stroke-width:0.25;stroke-miterlimit:10;stroke-dasharray:4.2875,2.1438,9.6469,3.2156;}
	.st6{fill:none;stroke:#2B3990;stroke-width:0.25;stroke-miterlimit:10;stroke-dasharray:4.0285,2.0143,9.0642,3.0214;}
	.st7{fill:none;stroke:#2B3990;stroke-width:0.25;stroke-miterlimit:10;stroke-dasharray:34.5327;}
	.st8{fill:none;stroke:#2B3990;stroke-width:0.25;stroke-miterlimit:10;stroke-dasharray:33.0441;}
	.st9{fill:none;stroke:#2B3990;stroke-width:0.25;stroke-miterlimit:10;stroke-dasharray:3.3715,1.6858,7.586,2.5287;}
	.st10{fill:none;stroke:#2B3990;stroke-width:0.25;stroke-miterlimit:10;stroke-dasharray:3.2092,1.6046,7.2207,2.4069;}
	.st11{fill:none;stroke:#2B3990;stroke-width:0.25;stroke-miterlimit:10;stroke-dasharray:30.477;}
	.st12{fill:none;stroke:#2B3990;stroke-width:0.25;stroke-miterlimit:10;stroke-dasharray:30.0505;}
	.st13{fill:none;stroke:#2B3990;stroke-width:0.25;stroke-miterlimit:10;stroke-dasharray:2.9515,1.4758,6.6409,2.2136;}
	.st14{fill:none;stroke:#2B3990;stroke-width:0.25;stroke-miterlimit:10;stroke-dasharray:2.9324,1.4662,6.598,2.1993;}
	.st15{fill:none;stroke:#2B3990;stroke-width:0.25;stroke-miterlimit:10;stroke-dasharray:29.6664;}
	.st16{fill:none;stroke:#2B3990;stroke-width:0.25;stroke-miterlimit:10;stroke-dasharray:30.183;}
	.st17{fill:none;stroke:#2B3990;stroke-width:0.25;stroke-miterlimit:10;stroke-dasharray:3.14,1.57,7.065,2.355;}
	.st18{fill:none;stroke:#2B3990;stroke-width:0.25;stroke-miterlimit:10;stroke-dasharray:3.2647,1.6324,7.3457,2.4486;}
	.st19{fill:none;stroke:#2B3990;stroke-width:0.25;stroke-miterlimit:10;stroke-dasharray:3.3984,1.6992,7.6464,2.5488;}
	.st20{fill:none;stroke:#2B3990;stroke-width:0.25;stroke-miterlimit:10;stroke-dasharray:3.5937,1.7968,8.0857,2.6953;}
	.st21{fill:none;stroke:#2B3990;stroke-width:0.25;stroke-miterlimit:10;stroke-dasharray:3.7397,1.8699,8.4143,2.8048;}
	.st22{fill:none;stroke:#2B3990;stroke-width:0.25;stroke-miterlimit:10;stroke-dasharray:33.6941;}
	.st23{fill:none;stroke:#2B3990;stroke-width:0.25;stroke-miterlimit:10;stroke-dasharray:3.3175,1.6588,7.4644,2.4881;}
	.st24{fill:none;stroke:#2B3990;stroke-width:0.25;stroke-miterlimit:10;stroke-dasharray:2.911,1.4555,6.5497,2.1832;}
	.st25{fill:none;stroke:#2B3990;stroke-width:0.25;stroke-miterlimit:10;stroke-dasharray:2.592,1.296,5.8319,1.944;}
	.st26{fill:none;stroke:#2B3990;stroke-width:0.25;stroke-miterlimit:10;stroke-dasharray:2.2853,1.1426,5.1419,1.714;}
	.st27{fill:none;stroke:#2B3990;stroke-width:0.25;stroke-miterlimit:10;stroke-dasharray:1.9892,0.9946,4.4758,1.4919;}
	.st28{fill:none;stroke:#2B3990;stroke-width:0.25;stroke-miterlimit:10;stroke-dasharray:1.7532,0.8766,3.9448,1.3149;}
	.st29{fill:none;stroke:#2B3990;stroke-width:0.25;stroke-miterlimit:10;stroke-dasharray:1.5529,0.7764,3.494,1.1647;}
	.st30{fill:none;stroke:#2B3990;stroke-width:0.25;stroke-miterlimit:10;stroke-dasharray:1.4402,0.7201,3.2405,1.0802;}
	.st31{fill:none;stroke:#2B3990;stroke-width:0.25;stroke-miterlimit:10;stroke-dasharray:1.3121,0.6561,2.9523,0.9841;}
	.st32{fill:none;stroke:#2B3990;stroke-width:0.25;stroke-miterlimit:10;stroke-dasharray:1.2233,0.6117,2.7525,0.9175;}
	.st33{fill:none;stroke:#2B3990;stroke-width:0.25;stroke-miterlimit:10;stroke-dasharray:1.1627,0.5813,2.6161,0.872;}
	.st34{fill:none;stroke:#2B3990;stroke-width:0.25;stroke-miterlimit:10;stroke-dasharray:1.1385,0.5693,2.5617,0.8539;}
	.st35{fill:none;stroke:#2B3990;stroke-width:0.25;stroke-miterlimit:10;stroke-dasharray:4.0208,2.0104,9.0467,3.0156;}
	.st36{fill:none;stroke:#2B3990;stroke-width:0.25;stroke-miterlimit:10;stroke-dasharray:34.298;}
	.st37{fill:none;stroke:#2B3990;stroke-width:0.25;stroke-miterlimit:10;stroke-dasharray:32.5189;}
	.st38{fill:none;stroke:#2B3990;stroke-width:0.25;stroke-miterlimit:10;stroke-dasharray:3.0846,1.5423,6.9403,2.3134;}
	.st39{fill:none;stroke:#2B3990;stroke-width:0.25;stroke-miterlimit:10;stroke-dasharray:2.9356,1.4678,6.605,2.2017;}
	
		.st40{fill:none;stroke:#2B3990;stroke-width:0.25;stroke-miterlimit:10;stroke-dasharray:1.3695,0.1956,2.5433,1.4673,1.9564,1.3695;}
	.st41{fill:none;stroke:#2B3990;stroke-width:0.25;stroke-miterlimit:10;stroke-dasharray:27.826;}
	.st42{fill:none;stroke:#2B3990;stroke-width:0.25;stroke-miterlimit:10;stroke-dasharray:2.6096,1.3048,5.8716,1.9572;}
	.st43{fill:none;stroke:#2B3990;stroke-width:0.25;stroke-miterlimit:10;stroke-dasharray:27.0074;}
	.st44{fill:none;stroke:#2B3990;stroke-width:0.25;stroke-miterlimit:10;stroke-dasharray:2.4808,1.2404,5.5818,1.8606;}
	.st45{fill:none;stroke:#2B3990;stroke-width:0.25;stroke-miterlimit:10;stroke-dasharray:29.0323;}
	.st46{fill:none;stroke:#2B3990;stroke-width:0.25;stroke-miterlimit:10;stroke-dasharray:2.6363,1.3182,5.9317,1.9772;}
	.st47{fill:none;stroke:#2B3990;stroke-width:0.25;stroke-miterlimit:10;stroke-dasharray:3.1408,1.5704,7.0669,2.3556;}
	.st48{fill:none;stroke:#2B3990;stroke-width:0.25;stroke-miterlimit:10;stroke-dasharray:3.2629,1.6314,7.3414,2.4471;}
	.st49{fill:none;stroke:#2B3990;stroke-width:0.25;stroke-miterlimit:10;stroke-dasharray:3.35,1.675,7.5375,2.5125;}
	.st50{fill:none;stroke:#2B3990;stroke-width:0.25;stroke-miterlimit:10;stroke-dasharray:3.4293,1.7147,7.716,2.572;}
	.st51{fill:none;stroke:#2B3990;stroke-width:0.25;stroke-miterlimit:10;stroke-dasharray:8.0921,1.7282,1.156011e-02,8.0863;}
	.st52{fill:none;stroke:#2B3990;stroke-width:0.25;stroke-miterlimit:10;stroke-dasharray:1.5331,0.7666,3.4495,1.1498;}
	.st53{fill:none;stroke:#2B3990;stroke-width:0.25;stroke-miterlimit:10;stroke-dasharray:1.901,0.9505,4.2772,1.4257;}
	.st54{fill:none;stroke:#2B3990;stroke-width:0.25;stroke-miterlimit:10;stroke-dasharray:22.6673;}
	.st55{fill:none;stroke:#2B3990;stroke-width:0.25;stroke-miterlimit:10;stroke-dasharray:27.0097;}
	.st56{fill:none;stroke:#2B3990;stroke-width:0.25;stroke-miterlimit:10;stroke-dasharray:10.3915,2.2193,1.484494e-02,10.384;}
	.st57{fill:none;stroke:#2B3990;stroke-width:0.25;stroke-miterlimit:10;stroke-dasharray:19.3793;}
	.st58{fill:none;stroke:#2B3990;stroke-width:0.25;stroke-miterlimit:10;stroke-dasharray:0.9777,0.4889,2.1999,0.7333;}
	.st59{fill:none;stroke:#2B3990;stroke-width:0.25;stroke-miterlimit:10;stroke-dasharray:0.6298,0.3149,1.417,0.4723;}
	.st60{fill:none;stroke:#2B3990;stroke-width:0.25;stroke-miterlimit:10;stroke-dasharray:1.0129,0.5065,2.2791,0.7597;}
	.st61{fill:none;stroke:#2B3990;stroke-width:0.25;stroke-miterlimit:10;stroke-dasharray:0.9989,0.4995,2.2476,0.7492;}
	.st62{fill:none;stroke:#2B3990;stroke-width:0.25;stroke-miterlimit:10;stroke-dasharray:3.0225,1.5112,6.8006,2.2669;}
	.st63{fill:none;stroke:#2B3990;stroke-width:0.25;stroke-miterlimit:10;stroke-dasharray:27.3532;}
	.st64{fill:none;stroke:#2B3990;stroke-width:0.25;stroke-miterlimit:10;stroke-dasharray:27.8257;}
	.st65{fill:none;stroke:#2B3990;stroke-width:0.25;stroke-miterlimit:10;stroke-dasharray:1.9794,0.9897,4.4537,1.4846;}
	.st66{fill:none;stroke:#2B3990;stroke-width:0.25;stroke-miterlimit:10;stroke-dasharray:0.9868,0.4934,2.2203,0.7401;}
	.st67{fill:none;stroke:#2B3990;stroke-width:0.25;stroke-miterlimit:10;stroke-dasharray:2.603,1.3015,5.8569,1.9523;}
	.st68{fill:none;stroke:#2B3990;stroke-width:0.25;stroke-miterlimit:10;stroke-dasharray:2.4591,1.2295,5.5329,1.8443;}
	.st69{fill:none;stroke:#2B3990;stroke-width:0.25;stroke-miterlimit:10;stroke-dasharray:2.777,1.3885,6.2482,2.0827;}
	.st70{fill:none;stroke:#2B3990;stroke-width:0.25;stroke-miterlimit:10;stroke-dasharray:28.2347;}
	.st71{fill:none;stroke:#2B3990;stroke-width:0.25;stroke-miterlimit:10;stroke-dasharray:11.565,2.47,1.652144e-02,11.5567;}
	.st72{fill:none;stroke:#2B3990;stroke-width:0.25;stroke-miterlimit:10;stroke-dasharray:2.5109,1.2554,5.6495,1.8832;}
	.st73{fill:none;stroke:#2B3990;stroke-width:0.25;stroke-miterlimit:10;stroke-dasharray:28.6019;}
	.st74{fill:none;stroke:#2B3990;stroke-width:0.25;stroke-miterlimit:10;stroke-dasharray:3.0213,1.5107,6.798,2.266;}
	.st75{fill:none;stroke:#2B3990;stroke-width:0.25;stroke-miterlimit:10;stroke-dasharray:2.7126,1.3563,6.1033,2.0344;}
	.st76{fill:none;stroke:#2B3990;stroke-width:0.25;stroke-miterlimit:10;stroke-dasharray:1.2173,4.0577,3.0433,1.2173;}
	.st77{fill:none;stroke:#2B3990;stroke-width:0.25;stroke-miterlimit:10;stroke-dasharray:12.9619,2.7683,1.851698e-02,12.9526;}
	.st78{fill:none;stroke:#2B3990;stroke-width:0.25;stroke-miterlimit:10;stroke-dasharray:14.5408,3.1055,2.077258e-02,14.5304;}
	.st79{fill:none;stroke:#2B3990;stroke-width:0.25;stroke-miterlimit:10;stroke-dasharray:37.4722;}
	.st80{fill:none;stroke:#2B3990;stroke-width:0.25;stroke-miterlimit:10;stroke-dasharray:4.0777,2.0388,9.1748,3.0583;}
	.st81{fill:none;stroke:#2B3990;stroke-width:0.25;stroke-miterlimit:10;stroke-dasharray:4.0101,2.005,9.0226,3.0075;}
	.st82{fill:none;stroke:#2B3990;stroke-width:0.25;stroke-miterlimit:10;stroke-dasharray:13.4825,2.8795,1.926077e-02,13.4729;}
	.st83{fill:none;stroke:#2B3990;stroke-width:0.25;stroke-miterlimit:10;stroke-dasharray:3.3705,1.6852,7.5836,2.5279;}
	.st84{fill:none;stroke:#2B3990;stroke-width:0.25;stroke-miterlimit:10;stroke-dasharray:3.1301,1.5651,7.0428,2.3476;}
	.st85{fill:none;stroke:#2B3990;stroke-width:0.25;stroke-miterlimit:10;stroke-dasharray:30.0431;}
	.st86{fill:none;stroke:#2B3990;stroke-width:0.25;stroke-miterlimit:10;stroke-dasharray:11.3635,2.4269,1.623356e-02,11.3554;}
	.st87{fill:none;stroke:#2B3990;stroke-width:0.25;stroke-miterlimit:10;stroke-dasharray:10.9786,2.3447,1.568373e-02,10.9708;}
	.st88{fill:none;stroke:#2B3990;stroke-width:0.25;stroke-miterlimit:10;stroke-dasharray:26.6701;}
	.st89{fill:none;stroke:#2B3990;stroke-width:0.25;stroke-miterlimit:10;stroke-dasharray:2.3799,1.19,5.3548,1.7849;}
	.st90{fill:none;stroke:#2B3990;stroke-width:0.25;stroke-miterlimit:10;stroke-dasharray:2.1821,1.0911,4.9098,1.6366;}
	.st91{fill:none;stroke:#2B3990;stroke-width:0.25;stroke-miterlimit:10;stroke-dasharray:26.0402;}
	.st92{fill:none;stroke:#2B3990;stroke-width:0.25;stroke-miterlimit:10;stroke-dasharray:7.31,1.5612,1.044292e-02,7.3048;}
	.st93{fill:none;stroke:#2B3990;stroke-width:0.25;stroke-miterlimit:10;stroke-dasharray:10.4172,2.2248,1.488169e-02,10.4097;}
	.st94{fill:none;stroke:#2B3990;stroke-width:0.25;stroke-miterlimit:10;stroke-dasharray:8.981,1.9181,1.282996e-02,8.9746;}
	.st95{fill:none;stroke:#2B3990;stroke-width:0.25;stroke-miterlimit:10;stroke-dasharray:8.7718,1.8734,1.253118e-02,8.7656;}
	.st96{fill:none;stroke:#2B3990;stroke-width:0.25;stroke-miterlimit:10;stroke-dasharray:8.4449,1.8036,1.206419e-02,8.4389;}
	.st97{fill:none;stroke:#2B3990;stroke-width:0.25;stroke-miterlimit:10;stroke-dasharray:1.401,0.7005,3.1524,1.0508;}
	.st98{fill:none;stroke:#2B3990;stroke-width:0.25;stroke-miterlimit:10;stroke-dasharray:9.1567,1.9556,1.308096e-02,9.1501;}
	.st99{fill:none;stroke:#2B3990;stroke-width:0.25;stroke-miterlimit:10;stroke-dasharray:8.2816,1.7687,1.183079e-02,8.2756;}
	.st100{fill:none;stroke:#2B3990;stroke-width:0.25;stroke-miterlimit:10;stroke-dasharray:7.3145,1.5622,1.044928e-02,7.3093;}
	.st101{fill:none;stroke:#2B3990;stroke-width:0.25;stroke-miterlimit:10;stroke-dasharray:25.6138;}
	.st102{fill:none;stroke:#2B3990;stroke-width:0.25;stroke-miterlimit:10;stroke-dasharray:4.3174,2.1587,9.7141,3.238;}
	.st103{fill:none;stroke:#2B3990;stroke-width:0.25;stroke-miterlimit:10;stroke-dasharray:39.3202;}
	.st104{fill:none;stroke:#2B3990;stroke-width:0.25;stroke-miterlimit:10;stroke-dasharray:37.6234;}
	.st105{fill:none;stroke:#2B3990;stroke-width:0.25;stroke-miterlimit:10;stroke-dasharray:36.0578;}
	.st106{fill:none;stroke:#2B3990;stroke-width:0.25;stroke-miterlimit:10;stroke-dasharray:34.4399;}
	.st107{fill:none;stroke:#2B3990;stroke-width:0.25;stroke-miterlimit:10;stroke-dasharray:32.9516;}
	.st108{fill:none;stroke:#2B3990;stroke-width:0.25;stroke-miterlimit:10;stroke-dasharray:32.1354;}
	.st109{fill:none;stroke:#2B3990;stroke-width:0.25;stroke-miterlimit:10;stroke-dasharray:3.196,1.598,7.1911,2.397;}
	.st110{fill:none;stroke:#2B3990;stroke-width:0.25;stroke-miterlimit:10;stroke-dasharray:3.0685,1.5342,6.9041,2.3014;}
	.st111{fill:none;stroke:#2B3990;stroke-width:0.25;stroke-miterlimit:10;stroke-dasharray:2.9945,1.4972,6.7376,2.2459;}
	.st112{fill:none;stroke:#2B3990;stroke-width:0.25;stroke-miterlimit:10;stroke-dasharray:2.9388,1.4694,6.6122,2.2041;}
	.st113{fill:none;stroke:#2B3990;stroke-width:0.25;stroke-miterlimit:10;stroke-dasharray:29.5472;}
	.st114{fill:none;stroke:#2B3990;stroke-width:0.25;stroke-miterlimit:10;stroke-dasharray:29.6256;}
	.st115{fill:none;stroke:#2B3990;stroke-width:0.25;stroke-miterlimit:10;stroke-dasharray:30.1374;}
	.st116{fill:none;stroke:#2B3990;stroke-width:0.25;stroke-miterlimit:10;stroke-dasharray:3.1321,1.5661,7.0472,2.3491;}
	.st117{fill:none;stroke:#2B3990;stroke-width:0.25;stroke-miterlimit:10;stroke-dasharray:3.2578,1.6289,7.33,2.4433;}
	.st118{fill:none;stroke:#2B3990;stroke-width:0.25;stroke-miterlimit:10;stroke-dasharray:3.3965,1.6983,7.6422,2.5474;}
	.st119{fill:none;stroke:#2B3990;stroke-width:0.25;stroke-miterlimit:10;stroke-dasharray:3.5905,1.7953,8.0787,2.6929;}
	.st120{fill:none;stroke:#2B3990;stroke-width:0.25;stroke-miterlimit:10;stroke-dasharray:3.7329,1.8664,8.399,2.7997;}
	.st121{fill:none;stroke:#2B3990;stroke-width:0.25;stroke-miterlimit:10;stroke-dasharray:33.6885;}
	.st122{fill:none;stroke:#2B3990;stroke-width:0.25;stroke-miterlimit:10;stroke-dasharray:3.3174,1.6587,7.4641,2.488;}
	.st123{fill:none;stroke:#2B3990;stroke-width:0.25;stroke-miterlimit:10;stroke-dasharray:2.9102,1.4551,6.5479,2.1826;}
	.st124{fill:none;stroke:#2B3990;stroke-width:0.25;stroke-miterlimit:10;stroke-dasharray:2.5908,1.2954,5.8293,1.9431;}
	.st125{fill:none;stroke:#2B3990;stroke-width:0.25;stroke-miterlimit:10;stroke-dasharray:2.2877,1.1438,5.1473,1.7158;}
	.st126{fill:none;stroke:#2B3990;stroke-width:0.25;stroke-miterlimit:10;stroke-dasharray:1.9939,0.9969,4.4863,1.4954;}
	.st127{fill:none;stroke:#2B3990;stroke-width:0.25;stroke-miterlimit:10;stroke-dasharray:22.5578;}
	.st128{fill:none;stroke:#2B3990;stroke-width:0.25;stroke-miterlimit:10;stroke-dasharray:1.5605,0.7803,3.5112,1.1704;}
	.st129{fill:none;stroke:#2B3990;stroke-width:0.25;stroke-miterlimit:10;stroke-dasharray:20.692;}
	.st130{fill:none;stroke:#2B3990;stroke-width:0.25;stroke-miterlimit:10;stroke-dasharray:19.9225;}
	.st131{fill:none;stroke:#2B3990;stroke-width:0.25;stroke-miterlimit:10;stroke-dasharray:19.3949;}
	.st132{fill:none;stroke:#2B3990;stroke-width:0.25;stroke-miterlimit:10;stroke-dasharray:1.1688,0.5844,2.6297,0.8766;}
	.st133{fill:none;stroke:#2B3990;stroke-width:0.25;stroke-miterlimit:10;stroke-dasharray:18.8984;}
	.st134{fill:none;stroke:#2B3990;stroke-width:0.25;stroke-miterlimit:10;stroke-dasharray:4.0056,2.0028,9.0126,3.0042;}
	.st135{fill:none;stroke:#2B3990;stroke-width:0.25;stroke-miterlimit:10;stroke-dasharray:34.2167;}
	.st136{fill:none;stroke:#2B3990;stroke-width:0.25;stroke-miterlimit:10;stroke-dasharray:32.4283;}
	.st137{fill:none;stroke:#2B3990;stroke-width:0.25;stroke-miterlimit:10;stroke-dasharray:3.0672,1.5336,6.9013,2.3004;}
	.st138{fill:none;stroke:#2B3990;stroke-width:0.25;stroke-miterlimit:10;stroke-dasharray:2.9182,1.4591,6.5659,2.1886;}
	.st139{fill:none;stroke:#2B3990;stroke-width:0.25;stroke-miterlimit:10;stroke-dasharray:28.5034;}
	.st140{fill:none;stroke:#2B3990;stroke-width:0.25;stroke-miterlimit:10;stroke-dasharray:2.6226,1.3113,5.9008,1.9669;}
	.st141{fill:none;stroke:#2B3990;stroke-width:0.25;stroke-miterlimit:10;stroke-dasharray:27.581;}
	.st142{fill:none;stroke:#2B3990;stroke-width:0.25;stroke-miterlimit:10;stroke-dasharray:2.3411,1.1705,5.2675,1.7558;}
	.st143{fill:none;stroke:#2B3990;stroke-width:0.25;stroke-miterlimit:10;stroke-dasharray:2.4667,1.2334,5.5501,1.85;}
	.st144{fill:none;stroke:#2B3990;stroke-width:0.25;stroke-miterlimit:10;stroke-dasharray:2.8288,1.4144,6.3647,2.1216;}
	.st145{fill:none;stroke:#2B3990;stroke-width:0.25;stroke-miterlimit:10;stroke-dasharray:2.6294,1.3147,5.9162,1.9721;}
	.st146{fill:none;stroke:#2B3990;stroke-width:0.25;stroke-miterlimit:10;stroke-dasharray:3.1332,1.5666,7.0497,2.3499;}
	.st147{fill:none;stroke:#2B3990;stroke-width:0.25;stroke-miterlimit:10;stroke-dasharray:3.2604,1.6302,7.3358,2.4453;}
	.st148{fill:none;stroke:#2B3990;stroke-width:0.25;stroke-miterlimit:10;stroke-dasharray:32.0761;}
	.st149{fill:none;stroke:#2B3990;stroke-width:0.25;stroke-miterlimit:10;stroke-dasharray:3.4283,1.7142,7.7138,2.5713;}
	.st150{fill:none;stroke:#2B3990;stroke-width:0.25;stroke-miterlimit:10;stroke-dasharray:20.9528;}
	.st151{fill:none;stroke:#2B3990;stroke-width:0.25;stroke-miterlimit:10;stroke-dasharray:1.5356,0.7678,3.4551,1.1517;}
	.st152{fill:none;stroke:#2B3990;stroke-width:0.25;stroke-miterlimit:10;stroke-dasharray:1.903,0.9515,4.2818,1.4273;}
	.st153{fill:none;stroke:#2B3990;stroke-width:0.25;stroke-miterlimit:10;stroke-dasharray:22.6795;}
	.st154{fill:none;stroke:#2B3990;stroke-width:0.25;stroke-miterlimit:10;stroke-dasharray:27.024;}
	.st155{fill:none;stroke:#2B3990;stroke-width:0.25;stroke-miterlimit:10;stroke-dasharray:26.0185;}
	.st156{fill:none;stroke:#2B3990;stroke-width:0.25;stroke-miterlimit:10;stroke-dasharray:1.2371,0.6185,2.7834,0.9278;}
	.st157{fill:none;stroke:#2B3990;stroke-width:0.25;stroke-miterlimit:10;stroke-dasharray:17.9162;}
	.st158{fill:none;stroke:#2B3990;stroke-width:0.25;stroke-miterlimit:10;stroke-dasharray:0.6427,0.3213,1.4461,0.482;}
	.st159{fill:none;stroke:#2B3990;stroke-width:0.25;stroke-miterlimit:10;stroke-dasharray:1.0232,0.5116,2.3021,0.7674;}
	.st160{fill:none;stroke:#2B3990;stroke-width:0.25;stroke-miterlimit:10;stroke-dasharray:1.0093,0.5047,2.2709,0.757;}
	.st161{fill:none;stroke:#2B3990;stroke-width:0.25;stroke-miterlimit:10;stroke-dasharray:30.1092;}
	.st162{fill:none;stroke:#2B3990;stroke-width:0.25;stroke-miterlimit:10;stroke-dasharray:27.3089;}
	.st163{fill:none;stroke:#2B3990;stroke-width:0.25;stroke-miterlimit:10;stroke-dasharray:27.7632;}
	.st164{fill:none;stroke:#2B3990;stroke-width:0.25;stroke-miterlimit:10;stroke-dasharray:1.9818,0.9909,4.4591,1.4864;}
	.st165{fill:none;stroke:#2B3990;stroke-width:0.25;stroke-miterlimit:10;stroke-dasharray:0.9958,0.4979,2.2406,0.7469;}
	.st166{fill:none;stroke:#2B3990;stroke-width:0.25;stroke-miterlimit:10;stroke-dasharray:2.5928,1.2964,5.8339,1.9446;}
	.st167{fill:none;stroke:#2B3990;stroke-width:0.25;stroke-miterlimit:10;stroke-dasharray:2.4475,1.2237,5.5068,1.8356;}
	.st168{fill:none;stroke:#2B3990;stroke-width:0.25;stroke-miterlimit:10;stroke-dasharray:28.6067;}
	.st169{fill:none;stroke:#2B3990;stroke-width:0.25;stroke-miterlimit:10;stroke-dasharray:28.1694;}
	.st170{fill:none;stroke:#2B3990;stroke-width:0.25;stroke-miterlimit:10;stroke-dasharray:28.5354;}
	.st171{fill:none;stroke:#2B3990;stroke-width:0.25;stroke-miterlimit:10;stroke-dasharray:2.5019,1.2509,5.6292,1.8764;}
	.st172{fill:none;stroke:#2B3990;stroke-width:0.25;stroke-miterlimit:10;stroke-dasharray:28.5026;}
	.st173{fill:none;stroke:#2B3990;stroke-width:0.25;stroke-miterlimit:10;stroke-dasharray:30.0529;}
	.st174{fill:none;stroke:#2B3990;stroke-width:0.25;stroke-miterlimit:10;stroke-dasharray:2.6946,1.3473,6.0628,2.0209;}
	.st175{fill:none;stroke:#2B3990;stroke-width:0.25;stroke-miterlimit:10;stroke-dasharray:3.4165,1.7083,7.6872,2.5624;}
	.st176{fill:none;stroke:#2B3990;stroke-width:0.25;stroke-miterlimit:10;stroke-dasharray:3.2689,1.6345,7.3551,2.4517;}
	.st177{fill:none;stroke:#2B3990;stroke-width:0.25;stroke-miterlimit:10;stroke-dasharray:3.8501,1.925,8.6627,2.8876;}
	.st178{fill:none;stroke:#2B3990;stroke-width:0.25;stroke-miterlimit:10;stroke-dasharray:4.226,2.113,9.5086,3.1695;}
	.st179{fill:none;stroke:#2B3990;stroke-width:0.25;stroke-miterlimit:10;stroke-dasharray:4.062,2.031,9.1394,3.0465;}
	.st180{fill:none;stroke:#2B3990;stroke-width:0.25;stroke-miterlimit:10;stroke-dasharray:35.9751;}
	.st181{fill:none;stroke:#2B3990;stroke-width:0.25;stroke-miterlimit:10;stroke-dasharray:32.7593;}
	.st182{fill:none;stroke:#2B3990;stroke-width:0.25;stroke-miterlimit:10;stroke-dasharray:3.353,1.6765,7.5442,2.5147;}
	.st183{fill:none;stroke:#2B3990;stroke-width:0.25;stroke-miterlimit:10;stroke-dasharray:3.1131,1.5565,7.0044,2.3348;}
	.st184{fill:none;stroke:#2B3990;stroke-width:0.25;stroke-miterlimit:10;stroke-dasharray:29.9513;}
	.st185{fill:none;stroke:#2B3990;stroke-width:0.25;stroke-miterlimit:10;stroke-dasharray:2.6754,1.3377,6.0196,2.0065;}
	.st186{fill:none;stroke:#2B3990;stroke-width:0.25;stroke-miterlimit:10;stroke-dasharray:2.5407,1.2703,5.7166,1.9055;}
	.st187{fill:none;stroke:#2B3990;stroke-width:0.25;stroke-miterlimit:10;stroke-dasharray:2.4302,1.2151,5.468,1.8227;}
	.st188{fill:none;stroke:#2B3990;stroke-width:0.25;stroke-miterlimit:10;stroke-dasharray:2.2387,1.1194,5.0371,1.679;}
	.st189{fill:none;stroke:#2B3990;stroke-width:0.25;stroke-miterlimit:10;stroke-dasharray:2.1078,1.0539,4.7426,1.5809;}
	.st190{fill:none;stroke:#2B3990;stroke-width:0.25;stroke-miterlimit:10;stroke-dasharray:25.9303;}
	.st191{fill:none;stroke:#2B3990;stroke-width:0.25;stroke-miterlimit:10;stroke-dasharray:1.2049,0.6025,2.7111,0.9037;}
	.st192{fill:none;stroke:#2B3990;stroke-width:0.25;stroke-miterlimit:10;stroke-dasharray:25.9968;}
	.st193{fill:none;stroke:#2B3990;stroke-width:0.25;stroke-miterlimit:10;stroke-dasharray:1.6588,0.8294,3.7323,1.2441;}
	.st194{fill:none;stroke:#2B3990;stroke-width:0.25;stroke-miterlimit:10;stroke-dasharray:1.3279,0.664,2.9878,0.9959;}
	.st195{fill:none;stroke:#2B3990;stroke-width:0.25;stroke-miterlimit:10;stroke-dasharray:2.4985,1.2493,5.6217,1.8739;}
	.st196{fill:none;stroke:#2B3990;stroke-width:0.25;stroke-miterlimit:10;stroke-dasharray:2.1086,1.0543,4.7443,1.5814;}
	.st197{fill:none;stroke:#2B3990;stroke-width:0.25;stroke-miterlimit:10;stroke-dasharray:1.8708,0.9354,4.2092,1.4031;}
	.st198{fill:none;stroke:#2B3990;stroke-width:0.25;stroke-miterlimit:10;stroke-dasharray:2.1998,1.0999,4.9496,1.6499;}
	.st199{fill:none;stroke:#2B3990;stroke-width:0.25;stroke-miterlimit:10;stroke-dasharray:0.9144,0.4572,2.0575,0.6858;}
	.st200{fill:none;stroke:#2B3990;stroke-width:0.25;stroke-miterlimit:10;stroke-dasharray:20.0061;}
	.st201{fill:none;stroke:#2B3990;stroke-width:0.25;stroke-miterlimit:10;stroke-dasharray:1.5947,0.7973,3.588,1.196;}
	.st202{fill:none;stroke:#2B3990;stroke-width:0.25;stroke-miterlimit:10;stroke-dasharray:1.5406,0.7703,3.4663,1.1554;}
	.st203{fill:none;stroke:#2B3990;stroke-width:0.25;stroke-miterlimit:10;stroke-dasharray:2.0789,1.0394,4.6774,1.5591;}
	.st204{display:none;fill:#7E889D;}
	.st205{fill:#27AAE1;}
</style>
<g class="st0">
	<g class="st1">
		<g>
			<path class="st2" d="M307.6,233c-1.6,0-1.6,0.1-3.2,0.1c-1.6,0-1.6,0-3.2,0c-1.6,0-1.6-0.1-3.2-0.1c-1.6,0-1.6,0.1-3.2,0.1
				c-1.6,0-1.6-0.1-3.2-0.1c-1.6,0-1.6,0.2-3.2,0.2c-1.6,0-1.6,0-3.2,0c-1.6,0-1.6-0.1-3.2-0.1c-1.6,0-1.6,0.1-3.2,0.1
				c-1.6,0-1.6,0.1-3.2,0.1c-1.6,0-1.6-0.1-3.2-0.1c-1.6,0-1.6,0-3.2,0"/>
		</g>
		<g>
			<g>
				<path class="st3" d="M307.6,233.1c-1.5-0.1-1.5-0.2-3-0.3c-1.5-0.1-1.5,0-3-0.1"/>
				<path class="st4" d="M294.8,232.2c-0.8,0-1.1,0.1-2.3,0c-1.5-0.1-1.5-0.2-3-0.3c-1.5-0.1-1.5-0.2-3-0.3c-1.5-0.1-1.5,0-3-0.1
					c-1.5-0.1-1.5,0-3-0.1c-1.5-0.1-1.5-0.3-3-0.4c-0.7,0-1.1,0-1.4,0"/>
				<path class="st3" d="M274.3,231.1c-1.4-0.1-1.5-0.1-3-0.2c-1.5-0.1-1.5-0.3-3-0.4"/>
			</g>
		</g>
		<g>
			<g>
				<path class="st3" d="M270.1,228.7c1.6,0.2,1.6,0,3.1,0.2c1.5,0.2,1.5,0.4,2.8,0.5"/>
				<path class="st5" d="M282.5,230.1c0,0,0.1,0,0.1,0c1.6,0.2,1.6,0.2,3.1,0.3s1.6,0.2,3.1,0.4c1.6,0.2,1.6,0.2,3.1,0.4
					c1.6,0.2,1.6,0,3.1,0.2c1.6,0.2,1.5,0.3,3.1,0.5c0.9,0.1,1.3,0.2,1.8,0.3"/>
				<path class="st3" d="M301.6,232.5c1.3,0.1,1.4,0,2.8,0.2c1.6,0.2,1.6,0.3,3.1,0.5"/>
			</g>
		</g>
		<g>
			<g>
				<path class="st3" d="M272,226.9c1.5,0.3,1.5,0.2,3,0.4c1.5,0.3,1.5,0.4,2.9,0.7"/>
				<path class="st6" d="M283.9,228.8C283.9,228.8,283.9,228.8,283.9,228.8c1.5,0.3,1.5,0.5,2.9,0.7c1.5,0.3,1.5,0.1,3,0.3
					c1.5,0.3,1.5,0.4,2.9,0.7c1.5,0.3,1.5,0.2,3,0.5c1.5,0.3,1.5,0.3,3,0.5c0.8,0.1,1.1,0.2,1.5,0.2"/>
				<path class="st3" d="M301.7,232c1.5,0.3,1.5,0.2,3,0.4c1.5,0.3,1.5,0.3,3,0.5"/>
			</g>
		</g>
		<g>
			<path class="st7" d="M274.1,224.6c1.5,0.4,1.5,0.5,3,0.9c1.5,0.4,1.6,0.2,3.1,0.6c1.5,0.4,1.5,0.5,3,0.8c1.5,0.4,1.5,0.4,3,0.8
				s1.5,0.4,3,0.8c1.5,0.4,1.5,0.3,3,0.7c1.5,0.4,1.5,0.3,3.1,0.7c1.5,0.4,1.5,0.5,3,0.9c1.5,0.4,1.6,0.2,3.1,0.6
				c1.5,0.4,1.5,0.5,3,0.8c1.5,0.4,1.5,0.4,3,0.8"/>
		</g>
		<g>
			<path class="st8" d="M276.2,222.7c1.4,0.5,1.5,0.4,2.9,0.8c1.4,0.5,1.4,0.6,2.8,1.1c1.4,0.5,1.4,0.4,2.9,0.9
				c1.4,0.5,1.5,0.3,2.9,0.8c1.4,0.5,1.4,0.5,2.8,1c1.4,0.5,1.4,0.5,2.8,1c1.4,0.5,1.4,0.5,2.8,1c1.4,0.5,1.4,0.7,2.8,1.2
				c1.4,0.5,1.4,0.4,2.9,0.9c1.4,0.5,1.4,0.4,2.9,0.9c1.4,0.5,1.4,0.5,2.8,1"/>
		</g>
		<g>
			<g>
				<path class="st3" d="M277.7,221c1.5,0.6,1.5,0.6,3,1.2c1.3,0.5,1.4,0.7,2.5,1.2"/>
				<path class="st9" d="M288,225.2c0.5,0.1,0.9,0.2,1.7,0.5c1.5,0.6,1.4,0.8,2.9,1.4c1.5,0.6,1.5,0.5,3,1.1
					c1.5,0.6,1.4,0.8,2.9,1.4c1.2,0.5,1.5,0.5,2.3,0.8"/>
				<path class="st3" d="M302,230.9c1.1,0.4,1.3,0.4,2.6,0.9c1.5,0.6,1.4,0.8,2.9,1.4"/>
			</g>
		</g>
		<g>
			<g>
				<path class="st3" d="M279.6,219.2c1.4,0.7,1.5,0.6,2.9,1.3c1.3,0.7,1.4,0.8,2.5,1.4"/>
				<path class="st10" d="M289.3,224c0.4,0.2,0.7,0.5,1.5,0.8c1.4,0.7,1.5,0.5,2.9,1.2c1.4,0.7,1.4,0.8,2.8,1.5
					c1.4,0.7,1.4,0.6,2.8,1.3c1,0.5,1.3,0.7,1.9,1"/>
				<path class="st3" d="M302.2,230.3c1.2,0.6,1.2,0.6,2.6,1.3c1.4,0.7,1.4,0.8,2.8,1.5"/>
			</g>
		</g>
		<g>
			<path class="st11" d="M281.5,217.4c1.3,0.8,1.3,0.8,2.6,1.6c1.3,0.8,1.3,0.8,2.6,1.5c1.3,0.8,1.3,0.8,2.6,1.5
				c1.3,0.8,1.2,0.9,2.5,1.7c1.3,0.8,1.4,0.6,2.7,1.4c1.3,0.8,1.3,0.8,2.6,1.6c1.3,0.8,1.3,0.7,2.6,1.5c1.3,0.8,1.3,0.8,2.6,1.6
				c1.3,0.8,1.3,0.8,2.6,1.6c1.3,0.8,1.3,0.8,2.6,1.6"/>
		</g>
		<g>
			<path class="st12" d="M283.2,215.6c1.2,0.9,1.2,0.9,2.4,1.8c1.2,0.9,1.1,1,2.3,1.9c1.2,0.9,1.4,0.7,2.6,1.5
				c1.2,0.9,1.2,0.9,2.4,1.7c1.2,0.9,1.1,1,2.3,1.9c1.2,0.9,1.3,0.7,2.5,1.6c1.2,0.9,1.3,0.8,2.5,1.7c1.2,0.9,1.2,0.9,2.4,1.8
				c1.2,0.9,1.2,0.9,2.5,1.7c1.2,0.9,1.1,1,2.3,1.9"/>
		</g>
		<g>
			<g>
				<path class="st3" d="M284.7,214.2c1.3,1,1.4,0.9,2.6,2c1.1,0.9,1.2,1,2.1,1.7"/>
				<path class="st13" d="M292.7,220.9c0.9,0.7,1,0.8,2.2,1.7c1.3,1,1.2,1.1,2.5,2.1c1.3,1,1.4,0.9,2.7,1.9c1.1,0.9,1.2,1.1,2.1,1.9
					"/>
				<path class="st3" d="M302.9,229.3c0.8,0.7,1,0.8,2.1,1.7c1.3,1.1,1.2,1.1,2.5,2.1"/>
			</g>
		</g>
		<g>
			<g>
				<path class="st3" d="M286.6,212.2c1.2,1.2,1.2,1.1,2.4,2.3c1,1,1.2,1.1,2,1.9"/>
				<path class="st14" d="M294,219.5c0.8,0.8,0.9,1,1.9,2c1.2,1.2,1.2,1.2,2.3,2.3c1.2,1.2,1.1,1.3,2.2,2.4c1,1,1.2,1.1,2,1.9"/>
				<path class="st3" d="M303.3,228.8c0.8,0.8,0.9,0.9,1.9,1.9c1.2,1.2,1.2,1.1,2.4,2.3"/>
			</g>
		</g>
		<g>
			<path class="st15" d="M288.6,210.3c1.1,1.3,1,1.3,2.1,2.5c1.1,1.3,1,1.3,2,2.6c1.1,1.3,1.1,1.2,2.2,2.5c1.1,1.3,1,1.3,2.1,2.6
				c1.1,1.3,1.1,1.2,2.2,2.5c1.1,1.3,1.1,1.2,2.2,2.5c1.1,1.3,1.1,1.2,2.2,2.5c1.1,1.3,1.1,1.3,2.1,2.5s1,1.3,2.1,2.6"/>
		</g>
		<g>
			<path class="st16" d="M291,207.9c0.8,1.3,0.8,1.3,1.6,2.5c0.8,1.3,0.9,1.2,1.7,2.5c0.8,1.3,0.9,1.2,1.7,2.5
				c0.8,1.3,0.7,1.3,1.6,2.6c0.8,1.3,0.8,1.3,1.6,2.6c0.8,1.3,0.8,1.3,1.6,2.5c0.8,1.3,1,1.1,1.8,2.4c0.8,1.3,0.8,1.3,1.6,2.6
				c0.8,1.3,0.8,1.3,1.6,2.6c0.8,1.3,0.8,1.3,1.6,2.6"/>
		</g>
		<g>
			<g>
				<path class="st3" d="M292.9,206c0.7,1.4,0.8,1.3,1.5,2.7c0.7,1.3,0.7,1.4,1.4,2.6"/>
				<path class="st17" d="M298,215.4c0.2,0.3,0.5,0.7,0.9,1.4c0.7,1.4,0.6,1.4,1.4,2.8c0.7,1.4,0.7,1.4,1.4,2.7
					c0.7,1.4,0.9,1.3,1.6,2.6c0.5,1,0.7,1.3,1,1.8"/>
				<path class="st3" d="M304.8,227.7c0.6,1.2,0.6,1.3,1.3,2.6c0.7,1.4,0.7,1.4,1.5,2.7"/>
			</g>
		</g>
		<g>
			<g>
				<path class="st3" d="M294.5,204.3c0.7,1.4,0.7,1.4,1.4,2.8c0.6,1.3,0.6,1.4,1.1,2.6"/>
				<path class="st18" d="M299,214.2c0.2,0.4,0.4,0.8,0.7,1.6c0.7,1.4,0.8,1.4,1.4,2.8c0.7,1.4,0.5,1.5,1.1,3
					c0.7,1.4,0.6,1.4,1.3,2.9c0.5,1.1,0.7,1.3,1,2"/>
				<path class="st3" d="M305.1,227.6c0.5,1.1,0.7,1.2,1.3,2.5c0.7,1.4,0.5,1.5,1.1,3"/>
			</g>
		</g>
		<g>
			<g>
				<path class="st3" d="M296.1,202.8c0.6,1.5,0.7,1.5,1.2,3c0.5,1.3,0.6,1.5,1,2.6"/>
				<path class="st19" d="M300,213.2c0.1,0.5,0.2,0.9,0.6,1.8c0.6,1.5,0.7,1.4,1.3,3c0.6,1.5,0.6,1.5,1.2,3c0.6,1.5,0.6,1.5,1.1,3
					c0.5,1.2,0.6,1.4,0.9,2.3"/>
				<path class="st3" d="M305.6,227.4c0.4,1.1,0.4,1.2,1,2.6c0.6,1.5,0.5,1.5,1.1,3"/>
			</g>
		</g>
		<g>
			<g>
				<path class="st3" d="M298,200.9c0.4,1.5,0.4,1.5,0.8,2.9c0.4,1.4,0.4,1.5,0.8,2.8"/>
				<path class="st20" d="M301.3,211.8c0.1,0.2,0.1,0.5,0.2,0.8c0.4,1.5,0.4,1.5,0.9,2.9c0.4,1.5,0.3,1.5,0.8,3
					c0.4,1.5,0.5,1.4,1,2.9c0.4,1.5,0.5,1.4,0.9,2.9c0.3,0.9,0.4,1.3,0.5,1.7"/>
				<path class="st3" d="M306,227.3c0.4,1.4,0.2,1.4,0.7,2.9c0.4,1.5,0.4,1.5,0.8,2.9"/>
			</g>
		</g>
		<g>
			<g>
				<path class="st3" d="M299.1,199.7c0.4,1.5,0.6,1.5,1,3c0.4,1.4,0.2,1.6,0.5,2.8"/>
				<path class="st21" d="M302,210.9c0.1,0.2,0.1,0.5,0.2,0.9c0.4,1.5,0.3,1.5,0.7,3c0.4,1.5,0.5,1.5,0.9,3c0.4,1.5,0.5,1.5,0.9,3
					c0.4,1.5,0.2,1.6,0.6,3.1c0.3,1,0.3,1.4,0.5,1.9"/>
				<path class="st3" d="M306,227.3c0.3,1.3,0.4,1.3,0.7,2.8c0.4,1.5,0.5,1.5,0.9,3"/>
			</g>
		</g>
		<g>
			<path class="st22" d="M301.1,200c0.3,1.5,0.3,1.5,0.6,3c0.3,1.5,0.2,1.5,0.4,3c0.3,1.5,0.4,1.5,0.6,3c0.3,1.5,0.3,1.5,0.6,3
				s0.2,1.5,0.5,3c0.3,1.5,0.3,1.5,0.6,3c0.3,1.5,0.3,1.5,0.6,3c0.3,1.5,0.5,1.5,0.8,3c0.3,1.5,0.4,1.5,0.7,3c0.3,1.5,0.1,1.5,0.4,3
				c0.3,1.5,0.2,1.5,0.5,3"/>
		</g>
		<g>
			<g>
				<path class="st3" d="M302.6,201.6c0.2,1.6,0.2,1.6,0.5,3.2c0.2,1.4,0.3,1.6,0.5,2.8"/>
				<path class="st23" d="M304.3,212.4c0,0.5,0.1,0.9,0.2,1.8c0.2,1.6,0.3,1.6,0.6,3.1c0.2,1.6,0.4,1.6,0.6,3.1
					c0.2,1.6,0.1,1.6,0.4,3.2c0.2,1.2,0.2,1.5,0.3,2.3"/>
				<path class="st3" d="M306.6,227.1c0.2,1.2,0.3,1.3,0.6,2.7c0.2,1.6,0.2,1.6,0.5,3.2"/>
			</g>
		</g>
		<g>
			<g>
				<path class="st3" d="M304.9,203.7c0.2,1.6,0,1.6,0.1,3.3c0.1,1.4,0.2,1.6,0.3,2.7"/>
				<path class="st24" d="M305.8,214c0.1,1.1,0.1,1.3,0.2,2.7c0.2,1.6,0.3,1.6,0.4,3.2c0.2,1.6,0.2,1.6,0.3,3.3
					c0.1,1.4,0,1.6,0.1,2.7"/>
				<path class="st3" d="M307,227.1c0.1,1.1,0.1,1.3,0.3,2.7c0.2,1.6,0.1,1.6,0.3,3.3"/>
			</g>
		</g>
		<g>
			<g>
				<path class="st3" d="M306.5,205.5c0.1,1.5,0.2,1.5,0.3,3c0.1,1.5,0,1.5,0,2.9"/>
				<path class="st25" d="M307.1,215.4c0,0.9-0.1,1.1-0.1,2.3c0.1,1.5,0,1.5,0.1,3.1c0.1,1.5,0.1,1.5,0.2,3.1c0,1.2,0,1.5,0.1,2.2"
					/>
				<path class="st3" d="M307.4,227.1c0,1.4-0.1,1.4,0,2.9c0.1,1.5,0.2,1.5,0.3,3.1"/>
			</g>
		</g>
		<g>
			<g>
				<path class="st3" d="M308.6,207.4c-0.1,1.6,0,1.6-0.1,3.2c0,1.4-0.1,1.6-0.1,2.8"/>
				<path class="st26" d="M308.3,216.8c0,0.1,0,0.1,0,0.2c-0.1,1.6-0.2,1.6-0.3,3.2c-0.1,1.6-0.1,1.6-0.1,3.2c0,1.5,0,1.6,0,2.8"/>
				<path class="st3" d="M307.8,227.1c0,1.2,0,1.3-0.1,2.8c-0.1,1.6-0.1,1.6-0.1,3.2"/>
			</g>
		</g>
		<g>
			<g>
				<path class="st3" d="M310.5,209.3c-0.2,1.5-0.3,1.5-0.5,2.9c-0.2,1.5-0.1,1.5-0.3,3c0,0,0,0,0,0"/>
				<path class="st27" d="M309.3,218.2c-0.2,1.5,0,1.5-0.2,3c-0.2,1.5-0.3,1.5-0.5,2.9c-0.1,1.2-0.1,1.4-0.2,2.2"/>
				<path class="st3" d="M308.3,227.1C308.3,227.1,308.3,227.1,308.3,227.1c-0.2,1.5-0.2,1.5-0.3,3c-0.2,1.5-0.1,1.5-0.2,3"/>
			</g>
		</g>
		<g>
			<g>
				<path class="st3" d="M312,211c-0.3,1.6-0.1,1.6-0.4,3.2c-0.3,1.4-0.4,1.5-0.7,2.7"/>
				<path class="st28" d="M310.5,219.5c0,0.3-0.1,0.6-0.2,1c-0.3,1.6-0.5,1.5-0.8,3.1c-0.3,1.5-0.3,1.6-0.6,2.9"/>
				<path class="st3" d="M308.8,227.2c-0.2,1.2-0.2,1.3-0.5,2.7c-0.3,1.6-0.4,1.6-0.8,3.1"/>
			</g>
		</g>
		<g>
			<g>
				<path class="st3" d="M313.8,212.6c-0.4,1.5-0.4,1.5-0.8,2.9c-0.4,1.4-0.6,1.4-1,2.8"/>
				<path class="st29" d="M311.3,220.6c-0.1,0.2-0.1,0.5-0.2,0.8c-0.4,1.5-0.4,1.5-0.9,2.9c-0.4,1.3-0.4,1.4-0.7,2.5"/>
				<path class="st3" d="M309.3,227.3c-0.4,1.4-0.4,1.4-0.8,2.8c-0.4,1.5-0.4,1.5-0.8,2.9"/>
			</g>
		</g>
		<g>
			<g>
				<path class="st3" d="M314.8,213.7c-0.5,1.4-0.6,1.4-1.1,2.7c-0.5,1.4-0.3,1.4-0.9,2.8c0,0,0,0.1,0,0.1"/>
				<path class="st30" d="M312,221.4c-0.1,0.2-0.1,0.4-0.2,0.6c-0.5,1.4-0.5,1.4-1,2.8c-0.4,1.1-0.5,1.4-0.7,2.2"/>
				<path class="st3" d="M309.8,227.5C309.8,227.5,309.8,227.5,309.8,227.5c-0.5,1.5-0.7,1.4-1.2,2.8c-0.5,1.4-0.6,1.4-1.1,2.7"/>
			</g>
		</g>
		<g>
			<g>
				<path class="st3" d="M316.4,215.2c-0.7,1.5-0.8,1.4-1.6,2.9c-0.6,1.3-0.6,1.5-1.1,2.5"/>
				<path class="st31" d="M312.9,222.4c-0.3,0.5-0.4,0.8-0.9,1.7c-0.7,1.5-0.7,1.5-1.4,3c0,0,0,0.1-0.1,0.1"/>
				<path class="st3" d="M310.3,227.7c-0.5,0.9-0.7,1.1-1.3,2.3c-0.7,1.5-0.6,1.5-1.3,3"/>
			</g>
		</g>
		<g>
			<g>
				<path class="st3" d="M317.6,216.5c-0.8,1.4-0.7,1.4-1.6,2.8c-0.7,1.2-0.9,1.3-1.5,2.3"/>
				<path class="st32" d="M313.6,223.2c-0.2,0.4-0.4,0.8-0.9,1.6c-0.8,1.4-0.8,1.4-1.7,2.8"/>
				<path class="st3" d="M310.8,228c-0.6,1-0.7,1.1-1.5,2.3c-0.8,1.4-0.8,1.4-1.6,2.8"/>
			</g>
		</g>
		<g>
			<g>
				<path class="st3" d="M319.1,218c-1,1.3-1,1.2-1.9,2.5c-0.9,1.2-1.1,1.2-1.8,2.2"/>
				<path class="st33" d="M314.4,224.1c-0.2,0.4-0.4,0.8-0.9,1.5c-0.9,1.2-1.1,1.1-2,2.3"/>
				<path class="st3" d="M311.2,228.2c-0.8,1-0.8,1.1-1.6,2.3c-1,1.3-0.8,1.3-1.8,2.6"/>
			</g>
		</g>
		<g>
			<g>
				<path class="st3" d="M320,218.9c-1,1.2-1.1,1.1-2.2,2.3c-1,1.1-1,1.2-1.9,2.1"/>
				<path class="st34" d="M314.8,224.6c-0.3,0.3-0.5,0.6-1.1,1.3c-1,1.1-0.9,1.3-1.8,2.4"/>
				<path class="st3" d="M311.6,228.6c-0.9,1-1,0.9-2,2.1c-1,1.2-1,1.2-2,2.4"/>
			</g>
		</g>
		<g>
			<g>
				<path class="st3" d="M271.5,234.9c1.5-0.1,1.5,0,3-0.1c1.5-0.1,1.5-0.2,3-0.2"/>
				<path class="st35" d="M283.6,234.4c1.5-0.1,1.5-0.3,3-0.3c1.5-0.1,1.5,0.1,3,0c1.5-0.1,1.5-0.1,3-0.2c1.5-0.1,1.5,0,3-0.1
					c1.5-0.1,1.5-0.1,3-0.2c0.2,0,0.4,0,0.5,0"/>
				<path class="st3" d="M301.6,233.3c1.5-0.1,1.5-0.1,3-0.2c1.5-0.1,1.5,0.1,3,0"/>
			</g>
		</g>
		<g>
			<path class="st36" d="M273.5,236.9c1.5-0.2,1.6,0,3.1-0.2c1.5-0.2,1.5-0.3,3.1-0.5c1.5-0.2,1.6-0.1,3.1-0.3
				c1.5-0.2,1.5-0.2,3.1-0.4c1.5-0.2,1.5-0.2,3.1-0.4c1.5-0.2,1.6-0.1,3.1-0.3c1.5-0.2,1.6-0.1,3.1-0.3c1.5-0.2,1.6,0,3.1-0.2
				c1.5-0.2,1.5-0.2,3.1-0.4c1.6-0.2,1.5-0.3,3.1-0.5c1.6-0.2,1.6-0.1,3.1-0.3"/>
		</g>
		<g>
			<path class="st37" d="M275.7,239.1c1.6-0.3,1.6-0.2,3.2-0.5c1.6-0.3,1.6-0.5,3.1-0.8c1.6-0.3,1.6-0.3,3.2-0.6s1.6-0.3,3.2-0.6
				c1.6-0.3,1.6-0.1,3.2-0.4c1.6-0.3,1.6-0.4,3.2-0.7c1.6-0.3,1.6-0.2,3.2-0.5c1.6-0.3,1.6-0.2,3.2-0.5c1.6-0.3,1.6-0.4,3.2-0.7
				s1.6-0.3,3.2-0.6"/>
		</g>
		<g>
			<g>
				<path class="st3" d="M278.4,241.9c1.5-0.4,1.4-0.6,2.9-1.1c1.4-0.4,1.5-0.5,2.8-0.9"/>
				<path class="st38" d="M288.6,238.8c0.4-0.2,0.7-0.3,1.5-0.6c1.5-0.4,1.5-0.4,2.9-0.8c1.5-0.4,1.4-0.5,2.9-0.9
					c1.5-0.4,1.5-0.3,3-0.7c1-0.3,1.3-0.5,1.9-0.7"/>
				<path class="st3" d="M301.8,234.7c1.4-0.4,1.4-0.5,2.8-0.9c1.5-0.4,1.5-0.4,2.9-0.8"/>
			</g>
		</g>
		<g>
			<g>
				<path class="st3" d="M279.8,243.1c1.5-0.6,1.6-0.3,3.2-0.9c1.3-0.5,1.5-0.6,2.5-1"/>
				<path class="st39" d="M289.6,239.7c1.1-0.4,1.2-0.5,2.6-1c1.5-0.6,1.6-0.4,3.1-1c1.5-0.6,1.5-0.8,3-1.3c1.4-0.5,1.5-0.5,2.6-0.9
					"/>
				<path class="st3" d="M302,235.1c1-0.4,1.2-0.5,2.5-1c1.5-0.6,1.6-0.4,3.2-0.9"/>
			</g>
		</g>
		<g>
			<g>
				<path class="st3" d="M281.7,245.2c1.4-0.7,1.4-0.7,2.9-1.4c1.4-0.7,1.3-0.9,2.8-1.5c0.5-0.2,0.8-0.4,1-0.5"/>
				<path class="st40" d="M290.2,241.1C290.3,241.1,290.3,241.1,290.2,241.1c1.5-0.7,1.5-0.7,3-1.3c1.4-0.7,1.5-0.6,2.9-1.3
					c1.4-0.7,1.4-0.7,2.8-1.4c0.3-0.1,0.5-0.2,0.7-0.3"/>
				<path class="st3" d="M300.8,236.3c0.3-0.1,0.6-0.2,1-0.5c1.4-0.7,1.4-0.8,2.8-1.5c1.4-0.7,1.5-0.7,2.9-1.3"/>
			</g>
		</g>
		<g>
			<path class="st41" d="M283.5,246.9c1.3-0.8,1.4-0.7,2.7-1.4c1.3-0.8,1.3-0.8,2.6-1.6c1.3-0.8,1.3-0.9,2.6-1.7
				c1.3-0.8,1.4-0.7,2.7-1.5c1.3-0.8,1.3-0.8,2.7-1.6c1.3-0.8,1.3-0.8,2.7-1.6c1.3-0.8,1.4-0.6,2.8-1.4c1.3-0.8,1.4-0.7,2.7-1.5
				c1.3-0.8,1.3-0.9,2.6-1.7"/>
		</g>
		<g>
			<g>
				<path class="st3" d="M284.7,248.5c1.3-0.9,1.3-0.8,2.6-1.6c1.2-0.8,1.2-0.9,2.4-1.7"/>
				<path class="st42" d="M292.9,243c0.7-0.5,1-0.6,2-1.3c1.3-0.9,1.2-1,2.5-1.8c1.3-0.9,1.3-0.9,2.5-1.7c1-0.7,1.3-0.7,2-1.1"/>
				<path class="st3" d="M302.7,236.5c1.1-0.8,1.1-1,2.3-1.8c1.3-0.9,1.3-0.9,2.5-1.7"/>
			</g>
		</g>
		<g>
			<path class="st43" d="M286.8,250.2c1.2-1,1.2-0.9,2.4-1.8s1-1.1,2.2-2.1c1.2-0.9,1.2-0.9,2.3-1.9c1.2-1,1.3-0.8,2.4-1.7
				c1.2-1,1.1-1,2.3-2c1.2-1,1.2-0.9,2.3-1.9c1.2-1,1.1-1.1,2.2-2c1.2-1,1.3-0.8,2.4-1.8c1.2-1,1.1-1,2.3-2"/>
		</g>
		<g>
			<g>
				<path class="st3" d="M288.1,251.5c1.1-1,1.2-0.9,2.3-2c1.1-1,1.1-1,2.1-2.1c0,0,0,0,0,0"/>
				<path class="st44" d="M295.2,244.9c0.6-0.5,0.7-0.7,1.6-1.6c1.1-1,1.1-1,2.2-2c1.1-1,0.9-1.2,2-2.2c0.8-0.7,1.1-0.9,1.6-1.3"/>
				<path class="st3" d="M303.3,237.3C303.3,237.2,303.3,237.2,303.3,237.3c1.1-1,1.1-1,2.2-2.1c1.1-1,1.1-1,2.2-2.1"/>
			</g>
		</g>
		<g>
			<path class="st45" d="M290.2,209.8c1,1.3,1.1,1.2,2.1,2.5c1,1.3,0.8,1.4,1.8,2.7c1,1.3,1,1.2,2,2.5c1,1.3,0.9,1.3,1.9,2.6
				c1,1.3,1,1.3,2,2.6c1,1.3,1,1.2,2,2.5c1,1.3,0.9,1.4,1.8,2.6c1,1.3,0.9,1.3,1.9,2.6c1,1.3,1.1,1.2,2,2.5"/>
		</g>
		<g>
			<g>
				<path class="st3" d="M293.3,209.2c0.8,1.3,0.8,1.3,1.6,2.6c0.8,1.3,0.8,1.3,1.5,2.5"/>
				<path class="st46" d="M298.4,217.8c0.5,0.8,0.6,0.9,1.3,2c0.8,1.3,0.6,1.4,1.4,2.8c0.8,1.3,0.9,1.3,1.7,2.6c0.6,1,0.7,1.3,1.2,2
					"/>
				<path class="st3" d="M304.4,228c0.7,1.2,0.8,1.2,1.6,2.4c0.8,1.3,0.8,1.3,1.6,2.6"/>
			</g>
		</g>
		<g>
			<g>
				<path class="st3" d="M292.8,206c0.7,1.4,0.9,1.3,1.6,2.6c0.7,1.3,0.7,1.4,1.4,2.6"/>
				<path class="st47" d="M298.1,215.3c0.2,0.4,0.3,0.7,0.7,1.5c0.7,1.4,0.7,1.4,1.4,2.7c0.7,1.4,0.8,1.3,1.6,2.7
					c0.7,1.4,0.7,1.4,1.4,2.7c0.5,1,0.7,1.2,1,1.8"/>
				<path class="st3" d="M304.8,227.8c0.6,1.2,0.5,1.3,1.2,2.6c0.7,1.4,0.9,1.3,1.6,2.6"/>
			</g>
		</g>
		<g>
			<g>
				<path class="st3" d="M294.6,204.3c0.7,1.4,0.7,1.4,1.4,2.8c0.6,1.3,0.6,1.4,1.2,2.6"/>
				<path class="st48" d="M299,214.2c0.2,0.4,0.4,0.7,0.8,1.5c0.7,1.4,0.6,1.5,1.3,2.9c0.7,1.4,0.6,1.4,1.3,2.9
					c0.7,1.4,0.7,1.4,1.4,2.8c0.5,1.1,0.6,1.4,0.9,2.1"/>
				<path class="st3" d="M305.1,227.6c0.5,1.2,0.6,1.2,1.2,2.6c0.7,1.4,0.7,1.4,1.3,2.9"/>
			</g>
		</g>
		<g>
			<g>
				<path class="st3" d="M297.7,202.5c0.5,1.5,0.5,1.5,1,3.1c0.5,1.4,0.4,1.5,0.7,2.7"/>
				<path class="st49" d="M301,213c0.1,0.5,0.2,0.9,0.5,1.7c0.5,1.5,0.7,1.5,1.2,3c0.5,1.5,0.4,1.5,0.9,3.1c0.5,1.5,0.6,1.5,1.1,3
					c0.4,1.2,0.5,1.5,0.7,2.3"/>
				<path class="st3" d="M305.8,227.3c0.4,1.1,0.4,1.3,0.9,2.6c0.5,1.5,0.5,1.5,1,3"/>
			</g>
		</g>
		<g>
			<g>
				<path class="st3" d="M300,201.4c0.4,1.6,0.5,1.6,0.9,3.1c0.3,1.4,0.4,1.6,0.7,2.7"/>
				<path class="st50" d="M302.7,212.2c0.1,0.5,0.2,0.9,0.4,1.8c0.4,1.6,0.5,1.6,0.8,3.1c0.4,1.6,0.2,1.6,0.6,3.2
					c0.4,1.6,0.3,1.6,0.7,3.2c0.3,1.3,0.4,1.5,0.7,2.4"/>
				<path class="st3" d="M306.3,227.2c0.2,1.1,0.2,1.3,0.6,2.7c0.4,1.6,0.4,1.6,0.8,3.2"/>
			</g>
		</g>
		<g>
			<g>
				<path class="st3" d="M312.8,212.8c-0.2,0.7-0.3,1.1-0.4,1.5"/>
				<path class="st51" d="M312.4,214.2c-0.1,0.4-0.2,0.7-0.4,1.4c-0.4,1.4-0.4,1.4-0.7,2.9c-0.4,1.4-0.3,1.5-0.7,2.9
					c-0.4,1.4-0.5,1.4-0.8,2.9c-0.3,1.2-0.4,1.4-0.6,2.4"/>
				<path class="st3" d="M308,231.6c-0.1,0.4-0.3,0.7-0.4,1.4"/>
			</g>
		</g>
		<g>
			<g>
				<path class="st3" d="M311.1,212.2c-0.2,1.5-0.5,1.5-0.7,2.9c-0.2,1.5-0.1,1.5-0.3,2.9"/>
				<path class="st52" d="M309.7,220.3c0,0.2-0.1,0.5-0.1,0.8c-0.2,1.5-0.3,1.5-0.5,3c-0.2,1.3-0.3,1.5-0.5,2.5"/>
				<path class="st3" d="M308.5,227.1c-0.2,1.4-0.1,1.5-0.4,2.9c-0.2,1.5-0.2,1.5-0.4,3"/>
			</g>
		</g>
		<g>
			<g>
				<path class="st3" d="M309.6,209.7c-0.2,1.7-0.1,1.7-0.2,3.3c-0.1,1.4-0.2,1.6-0.3,2.6"/>
				<path class="st53" d="M308.9,218.6c0,0.3,0,0.7-0.1,1.2c-0.2,1.7-0.2,1.7-0.4,3.3c-0.2,1.7-0.2,1.7-0.4,3.3"/>
				<path class="st3" d="M308,227.1c0,1,0.1,1.3-0.1,2.6c-0.2,1.7-0.2,1.7-0.3,3.3"/>
			</g>
		</g>
		<g>
			<path class="st54" d="M307.4,210.4c0,1.6,0,1.6,0,3.2c0,1.6,0,1.6,0,3.2c0,1.6,0.1,1.6,0.1,3.2c0,1.6-0.1,1.6-0.1,3.2
				c0,1.6,0,1.6,0,3.2c0,1.6,0,1.6,0,3.2c0,1.6,0.2,1.6,0.3,3.2"/>
		</g>
		<g>
			<path class="st55" d="M306.2,206.1c0.1,1.5,0,1.5,0.1,3c0.1,1.5,0.1,1.5,0.2,3c0.1,1.5,0.1,1.5,0.2,3c0.1,1.5,0.1,1.5,0.2,3
				c0.1,1.5-0.1,1.5,0,3c0.1,1.5,0.3,1.5,0.4,3c0.1,1.5,0.1,1.5,0.2,3c0.1,1.5-0.1,1.5,0,3c0.1,1.5,0.1,1.5,0.2,3"/>
		</g>
		<g>
			<g>
				<path class="st3" d="M304.2,207.3c0.1,0.7,0.2,1.1,0.2,1.5"/>
				<path class="st56" d="M304.4,208.8c0.1,0.4,0.2,0.8,0.3,1.7c0.2,1.6,0.1,1.6,0.3,3.2c0.2,1.6,0.3,1.6,0.5,3.2
					c0.2,1.6,0.3,1.6,0.5,3.2c0.2,1.6,0.2,1.6,0.4,3.2c0.1,1.1,0.1,1.5,0.1,2.1"/>
				<path class="st3" d="M307.4,231.6c0.1,0.4,0.2,0.8,0.3,1.5"/>
			</g>
		</g>
		<g>
			<path class="st57" d="M315.1,215.2c-0.6,1.5-0.5,1.5-1.1,3c-0.6,1.5-0.6,1.5-1.2,3c-0.6,1.5-0.6,1.5-1.3,3
				c-0.6,1.5-0.8,1.4-1.4,2.9c-0.6,1.5-0.7,1.5-1.3,3c-0.6,1.5-0.5,1.6-1.1,3"/>
		</g>
		<g>
			<g>
				<path class="st3" d="M316.3,217.4c-0.7,1.3-0.8,1.2-1.6,2.5c-0.7,1.3-0.7,1.3-1.4,2.6c0,0,0,0,0,0"/>
				<path class="st58" d="M312.6,223.9c-0.1,0.3-0.3,0.7-0.6,1.3c-0.6,1.2-0.8,1.3-1.3,2.2"/>
				<path class="st3" d="M310.5,227.8C310.5,227.8,310.5,227.8,310.5,227.8c-0.7,1.3-0.8,1.3-1.5,2.6c-0.7,1.3-0.6,1.4-1.3,2.7"/>
			</g>
		</g>
		<g>
			<g>
				<path class="st3" d="M316.9,220.3c-0.9,1.3-1.1,1.2-2,2.4c-0.8,1.2-0.9,1.3-1.6,2.3"/>
				<path class="st59" d="M312.7,225.8c-0.6,0.8-0.6,1-1.4,2.1c0,0,0,0,0,0.1"/>
				<path class="st3" d="M311.1,228.2c-0.7,1-0.9,1.1-1.7,2.3c-0.9,1.3-0.8,1.3-1.8,2.6"/>
			</g>
		</g>
		<g>
			<g>
				<path class="st3" d="M318.9,219c-0.9,1.2-0.8,1.3-1.7,2.5c-0.9,1.2-1,1.1-2,2.3"/>
				<path class="st60" d="M314.3,224.9c-0.2,0.3-0.5,0.6-1,1.2c-0.9,1.1-0.9,1.2-1.6,2.1"/>
				<path class="st3" d="M311.5,228.5c-0.9,1.1-1,1.1-2,2.2c-0.9,1.2-1,1.1-1.9,2.3"/>
			</g>
		</g>
		<g>
			<g>
				<path class="st3" d="M319.8,219.8c-1,1.1-1,1.1-2,2.2c-1,1.1-1.1,1-2.1,2.1c0,0,0,0,0,0"/>
				<path class="st61" d="M314.7,225.3c-0.2,0.3-0.4,0.6-0.9,1.2c-0.9,1-1,1.1-1.8,2"/>
				<path class="st3" d="M311.7,228.7c-1,1.1-1.2,1-2.2,2.1c-1,1.1-1,1.1-2,2.2"/>
			</g>
		</g>
		<g>
			<g>
				<path class="st3" d="M294,206.2c0.7,1.3,0.7,1.3,1.4,2.7c0.7,1.3,0.6,1.4,1.3,2.7"/>
				<path class="st62" d="M298.8,215.5c0.2,0.3,0.3,0.7,0.7,1.3c0.7,1.3,0.6,1.4,1.2,2.7c0.7,1.3,0.8,1.3,1.5,2.6
					c0.7,1.3,0.6,1.4,1.3,2.7c0.5,0.9,0.6,1.2,0.9,1.7"/>
				<path class="st3" d="M304.9,227.7c0.7,1.3,0.6,1.4,1.2,2.7c0.7,1.3,0.8,1.3,1.5,2.6"/>
			</g>
		</g>
		<g>
			<path class="st63" d="M296.9,207.9c0.6,1.4,0.8,1.3,1.3,2.7c0.6,1.4,0.5,1.4,1.1,2.8c0.6,1.4,0.7,1.3,1.3,2.7
				c0.6,1.4,0.4,1.5,1,2.9c0.6,1.4,0.6,1.4,1.1,2.8c0.6,1.4,0.6,1.4,1.2,2.8c0.6,1.4,0.6,1.4,1.2,2.8c0.6,1.4,0.7,1.3,1.3,2.7
				s0.4,1.5,1,2.9"/>
		</g>
		<g>
			<path class="st64" d="M300.3,206.3c0.4,1.5,0.2,1.5,0.6,3c0.4,1.5,0.6,1.4,1,2.9c0.4,1.5,0.2,1.5,0.6,3c0.4,1.5,0.6,1.4,1,2.9
				c0.4,1.5,0.2,1.5,0.6,3c0.4,1.5,0.7,1.4,1.1,2.9c0.4,1.5,0.3,1.5,0.7,3c0.4,1.5,0.5,1.5,1,2.9s0.3,1.5,0.7,3"/>
		</g>
		<g>
			<g>
				<path class="st3" d="M309.1,209.2c-0.1,1.5,0,1.5-0.1,3s-0.2,1.5-0.3,3c0,0,0,0,0,0"/>
				<path class="st65" d="M308.6,218.2c-0.1,1.5-0.2,1.5-0.3,2.9c-0.1,1.5-0.1,1.5-0.2,3c-0.1,1.2,0,1.4,0,2.2"/>
				<path class="st3" d="M308,227.1C308,227.1,308,227.1,308,227.1c-0.1,1.5-0.2,1.5-0.3,3c-0.1,1.5,0,1.5-0.1,3"/>
			</g>
		</g>
		<g>
			<g>
				<path class="st3" d="M317.5,218.1c-0.8,1.2-0.9,1.2-1.8,2.4c-0.8,1.2-0.7,1.3-1.5,2.6c0,0,0,0,0,0"/>
				<path class="st66" d="M313.3,224.3c-0.2,0.3-0.4,0.6-0.8,1.2c-0.7,1.1-0.8,1.3-1.4,2.2"/>
				<path class="st3" d="M311,228.1C311,228.1,310.9,228.1,311,228.1c-0.8,1.3-0.8,1.3-1.6,2.5c-0.8,1.3-0.9,1.2-1.7,2.5"/>
			</g>
		</g>
		<g>
			<g>
				<path class="st3" d="M291.7,210.5c0.9,1.2,0.8,1.3,1.7,2.6c0.9,1.2,0.9,1.2,1.8,2.3"/>
				<path class="st67" d="M297.3,218.7c0.5,0.7,0.6,0.9,1.3,1.9c0.9,1.3,1,1.1,1.9,2.4c0.9,1.3,0.8,1.3,1.7,2.6
					c0.7,1,0.9,1.1,1.4,1.8"/>
				<path class="st3" d="M304.2,228.1c0.8,1.1,0.9,1.2,1.7,2.4c0.9,1.3,0.8,1.3,1.7,2.6"/>
			</g>
		</g>
		<g>
			<g>
				<path class="st3" d="M290.8,212.2c0.9,1.2,1.1,1,2.1,2.1c0.9,1.2,0.9,1.2,1.8,2.4c0,0,0,0,0,0"/>
				<path class="st68" d="M296.9,219.8c0.5,0.6,0.8,0.7,1.5,1.6c0.9,1.2,0.8,1.3,1.7,2.5c0.9,1.2,1,1.1,1.9,2.3
					c0.7,0.8,0.9,1.1,1.3,1.6"/>
				<path class="st3" d="M303.8,228.4C303.8,228.4,303.8,228.4,303.8,228.4c1,1.2,1,1.2,1.9,2.3s0.8,1.2,1.8,2.4"/>
			</g>
		</g>
		<g>
			<g>
				<path class="st3" d="M288.3,211.9c1.1,1.2,1,1.3,2,2.5c1,1.1,1.1,1.1,2,2"/>
				<path class="st69" d="M295.1,219.4c0.7,0.7,0.9,0.8,1.8,1.8c1.1,1.2,1.1,1.2,2.1,2.4c1.1,1.2,1.1,1.1,2.2,2.3
					c0.9,1,1,1.2,1.7,1.9"/>
				<path class="st3" d="M303.6,228.6c0.8,0.9,0.8,1.1,1.8,2.1c1.1,1.2,1.1,1.2,2.2,2.3"/>
			</g>
		</g>
		<g>
			<path class="st70" d="M286.2,214.7c1.2,1,1.2,1,2.4,2c1.2,1,1.1,1.1,2.3,2.1c1.2,1,1.3,0.9,2.5,1.9c1.2,1,1.1,1.1,2.3,2.1
				c1.2,1,1.2,1,2.4,2.1c1.2,1,1.2,1.1,2.4,2.1c1.2,1,1.2,1,2.4,2c1.2,1,1.2,1,2.4,2c1.2,1,1.2,1,2.4,2.1"/>
		</g>
		<g>
			<g>
				<path class="st3" d="M284.9,215.7c0.6,0.4,0.9,0.7,1.2,0.9"/>
				<path class="st71" d="M286.1,216.6c0.3,0.3,0.6,0.5,1.3,1c1.3,1,1.3,0.9,2.5,1.9c1.3,1,1.4,0.8,2.6,1.8c1.3,1,1.2,1.1,2.4,2.1
					c1.3,1,1.3,0.9,2.5,1.9c1.3,1,1.3,0.9,2.6,1.9c0.5,0.4,0.7,0.6,1,0.8"/>
				<path class="st3" d="M306.4,232.1c0.3,0.2,0.6,0.4,1.2,0.9"/>
			</g>
		</g>
		<g>
			<g>
				<path class="st3" d="M285.1,218c1.2,0.8,1.3,0.8,2.5,1.6c1.2,0.8,1.2,0.9,2.5,1.7"/>
				<path class="st72" d="M293.2,223.5c0.7,0.4,1,0.5,1.9,1.1c1.2,0.8,1.2,0.8,2.5,1.7c1.2,0.8,1.2,0.9,2.5,1.7
					c0.9,0.6,1.2,0.8,1.8,1.1"/>
				<path class="st3" d="M302.6,229.7c1.2,0.8,1.2,0.9,2.5,1.7c1.3,0.8,1.2,0.8,2.5,1.7"/>
			</g>
		</g>
		<g>
			<path class="st73" d="M282.4,219.5c1.4,0.8,1.5,0.5,2.9,1.3c1.4,0.8,1.3,0.9,2.7,1.7c1.4,0.8,1.4,0.8,2.8,1.5
				c1.4,0.8,1.5,0.6,2.9,1.4c1.4,0.8,1.3,0.8,2.7,1.6c1.4,0.8,1.4,0.8,2.8,1.6c1.4,0.8,1.5,0.6,2.9,1.3c1.4,0.8,1.3,0.8,2.7,1.6
				s1.4,0.8,2.8,1.5"/>
		</g>
		<g>
			<g>
				<path class="st3" d="M280.3,220.4c1.4,0.6,1.4,0.7,2.7,1.3c1.4,0.6,1.4,0.6,2.7,1.2"/>
				<path class="st74" d="M289.8,224.9c0.3,0.1,0.7,0.3,1.4,0.6c1.4,0.6,1.4,0.5,2.8,1.2c1.4,0.6,1.4,0.6,2.7,1.3
					c1.4,0.6,1.4,0.7,2.7,1.3c0.9,0.4,1.2,0.6,1.7,0.9"/>
				<path class="st3" d="M302.1,230.6c1.3,0.6,1.4,0.5,2.8,1.1c1.4,0.6,1.3,0.7,2.7,1.3"/>
			</g>
		</g>
		<g>
			<g>
				<path class="st3" d="M281.2,223.1c1.5,0.5,1.4,0.7,2.9,1.2c1.4,0.5,1.5,0.3,2.8,0.8"/>
				<path class="st75" d="M290.6,226.6c0.9,0.4,1,0.6,2.2,1.1c1.5,0.5,1.5,0.5,2.9,1.1c1.5,0.5,1.5,0.3,3,0.9
					c1.2,0.4,1.4,0.5,2.3,0.8"/>
				<path class="st3" d="M302,230.8c1.2,0.5,1.3,0.6,2.6,1.1c1.5,0.5,1.5,0.5,3,1"/>
			</g>
		</g>
		<g>
			<g>
				<path class="st3" d="M276.3,224.1c1.6,0.5,1.6,0.4,3.1,0.9c1.6,0.5,1.6,0.3,3.2,0.7c1.6,0.5,1.5,0.6,3.1,1.1
					c0.1,0,0.2,0,0.2,0.1"/>
				<path class="st76" d="M288.8,227.6c1.5,0.4,1.6,0.4,3.1,0.8c1.6,0.5,1.5,0.5,3.1,1c1.2,0.4,1.5,0.5,2.3,0.7"/>
				<path class="st3" d="M298,230.3c0.1,0,0.1,0,0.2,0.1c1.6,0.5,1.5,0.5,3.1,1c1.6,0.5,1.6,0.4,3.1,0.9s1.6,0.4,3.2,0.8"/>
			</g>
		</g>
		<g>
			<g>
				<path class="st3" d="M276.6,226.6c0.7,0.2,1.1,0.2,1.5,0.3"/>
				<path class="st77" d="M278.1,226.9c0.4,0.1,0.8,0.1,1.6,0.3c1.5,0.3,1.5,0.4,3.1,0.7c1.5,0.3,1.6,0.2,3.1,0.6
					c1.5,0.3,1.5,0.4,3.1,0.8c1.5,0.3,1.6,0.2,3.1,0.6c1.5,0.3,1.5,0.5,3.1,0.8c1.6,0.3,1.6,0.2,3.1,0.5c0.2,0,0.4,0.1,0.5,0.1"/>
				<path class="st3" d="M306.1,232.8c0.4,0.1,0.8,0.1,1.5,0.3"/>
			</g>
		</g>
		<g>
			<g>
				<path class="st3" d="M272.8,228.1c0.7,0.1,1.1,0.1,1.5,0.2"/>
				<path class="st78" d="M274.3,228.3c0.4,0,0.8,0.1,1.7,0.2c1.6,0.2,1.6,0.2,3.2,0.4c1.6,0.2,1.6,0.3,3.1,0.6
					c1.6,0.2,1.6,0.1,3.2,0.3s1.6,0.2,3.2,0.4c1.6,0.2,1.6,0.3,3.1,0.5c1.6,0.2,1.6,0.2,3.2,0.4c1.5,0.2,1.6,0.4,3,0.6"/>
				<path class="st3" d="M306.1,232.8c0.4,0,0.8,0,1.5,0.1"/>
			</g>
		</g>
		<g>
			<path class="st79" d="M270.3,229.8c1.6,0.1,1.6,0,3.1,0.2c1.6,0.1,1.5,0.2,3.1,0.3c1.6,0.1,1.5,0.3,3.1,0.5
				c1.6,0.1,1.6,0.1,3.1,0.3c1.6,0.1,1.6,0,3.1,0.2s1.6,0.1,3.1,0.2c1.6,0.1,1.5,0.2,3.1,0.3c1.6,0.1,1.5,0.2,3.1,0.4
				c1.6,0.1,1.6,0.1,3.1,0.2c1.6,0.1,1.5,0.2,3.1,0.3c1.6,0.1,1.6-0.1,3.1,0.1c1.6,0.1,1.5,0.3,3.1,0.5"/>
		</g>
		<g>
			<g>
				<path class="st3" d="M271.2,232c1.5,0,1.5-0.2,3-0.1c1.5,0,1.5,0.2,2.9,0.2"/>
				<path class="st80" d="M283.3,232.3C283.3,232.3,283.3,232.3,283.3,232.3c1.6,0,1.6,0.1,3.1,0.1c1.5,0,1.5,0.1,3,0.1
					c1.5,0,1.5,0.1,3,0.1c1.5,0,1.5,0,3,0.1c1.5,0,1.5,0,3,0.1c0.8,0,1.2,0,1.6,0.1"/>
				<path class="st3" d="M301.6,232.9c1.4,0,1.5,0.1,3,0.1c1.5,0,1.5,0.1,3,0.1"/>
			</g>
		</g>
		<g>
			<g>
				<path class="st3" d="M271.6,234c1.5,0,1.5-0.1,3-0.1c1.5,0,1.5-0.2,3-0.2"/>
				<path class="st81" d="M283.6,233.6c1.5,0,1.5-0.1,3-0.1c1.5,0,1.5-0.1,3-0.1c1.5,0,1.5,0.2,3,0.2c1.5,0,1.5-0.2,3-0.2
					c1.5,0,1.5-0.1,3-0.1c0.2,0,0.4,0,0.5,0"/>
				<path class="st3" d="M301.6,233.1c1.5,0,1.5-0.1,3-0.1c1.5,0,1.5,0,3,0"/>
			</g>
		</g>
		<g>
			<g>
				<path class="st3" d="M274.9,235.7c0.7-0.1,1.1-0.1,1.5-0.1"/>
				<path class="st82" d="M276.4,235.5c0.5-0.1,0.9-0.1,1.8-0.2c1.6-0.1,1.6-0.2,3.3-0.3c1.6-0.1,1.7,0.1,3.3-0.1
					c1.6-0.1,1.6-0.1,3.3-0.3c1.6-0.1,1.6-0.2,3.3-0.4c1.6-0.1,1.6-0.2,3.3-0.4c1.6-0.1,1.6-0.1,3.3-0.2c0.2,0,0.5,0,0.6,0"/>
				<path class="st3" d="M306.1,233.2c0.4,0,0.8-0.1,1.5-0.1"/>
			</g>
		</g>
		<g>
			<g>
				<path class="st3" d="M275.8,238.1c1.6-0.2,1.6-0.3,3.2-0.6c1.4-0.2,1.6-0.3,2.7-0.5"/>
				<path class="st83" d="M286.7,236.4c0.5-0.1,0.9-0.2,1.8-0.4c1.6-0.2,1.6-0.3,3.2-0.5c1.6-0.2,1.6-0.1,3.2-0.4
					c1.6-0.2,1.6-0.4,3.2-0.6c1.3-0.2,1.5-0.2,2.4-0.4"/>
				<path class="st3" d="M301.7,233.9c1.2-0.2,1.3-0.1,2.7-0.4c1.6-0.2,1.6-0.2,3.2-0.4"/>
			</g>
		</g>
		<g>
			<g>
				<path class="st3" d="M277.6,239.9c1.5-0.3,1.5-0.4,3-0.7c1.4-0.3,1.5-0.2,2.9-0.5"/>
				<path class="st84" d="M288,237.5c0.4-0.1,0.8-0.2,1.6-0.4c1.5-0.3,1.5-0.3,3-0.7c1.5-0.3,1.5-0.4,3-0.8c1.5-0.3,1.6-0.1,3.1-0.4
					c1.1-0.2,1.4-0.3,2-0.5"/>
				<path class="st3" d="M301.8,234.5c1.3-0.3,1.4-0.3,2.8-0.6c1.5-0.3,1.5-0.4,3-0.7"/>
			</g>
		</g>
		<g>
			<path class="st85" d="M278.6,240.8c1.4-0.4,1.4-0.4,2.9-0.8c1.4-0.4,1.4-0.5,2.9-0.8c1.4-0.4,1.5-0.3,2.9-0.7
				c1.4-0.4,1.5-0.3,2.9-0.7c1.4-0.4,1.4-0.5,2.9-0.9c1.4-0.4,1.5-0.3,2.9-0.7c1.4-0.4,1.5-0.3,2.9-0.7c1.5-0.4,1.4-0.5,2.9-0.9
				c1.5-0.4,1.4-0.5,2.9-0.9c1.5-0.4,1.5-0.3,2.9-0.7"/>
		</g>
		<g>
			<g>
				<path class="st3" d="M281.7,243.9c0.7-0.3,1-0.5,1.4-0.6"/>
				<path class="st86" d="M283,243.3c0.4-0.2,0.7-0.4,1.5-0.7c1.4-0.6,1.5-0.5,2.9-1.1c1.4-0.6,1.4-0.6,2.9-1.2
					c1.4-0.6,1.4-0.7,2.9-1.3c1.4-0.6,1.4-0.6,2.9-1.2c1.4-0.6,1.5-0.4,3-1c0.5-0.2,0.8-0.4,1.1-0.5"/>
				<path class="st3" d="M306.2,233.6c0.4-0.1,0.7-0.2,1.4-0.5"/>
			</g>
		</g>
		<g>
			<g>
				<path class="st3" d="M283.4,245.6c0.7-0.3,1-0.5,1.3-0.7"/>
				<path class="st87" d="M284.7,244.9c0.3-0.2,0.7-0.4,1.4-0.7c1.3-0.7,1.3-0.7,2.7-1.4c1.3-0.7,1.4-0.6,2.7-1.3
					c1.3-0.7,1.4-0.7,2.7-1.4c1.3-0.7,1.4-0.7,2.7-1.4c1.3-0.7,1.3-0.8,2.6-1.5c0.5-0.2,0.8-0.4,1-0.5"/>
				<path class="st3" d="M306.3,233.8c0.3-0.2,0.7-0.4,1.3-0.7"/>
			</g>
		</g>
		<g>
			<path class="st88" d="M285.1,247.4c1.2-0.8,1.2-0.9,2.5-1.7c1.2-0.8,1.3-0.7,2.5-1.5c1.2-0.8,1.3-0.7,2.5-1.5
				c1.2-0.8,1.2-0.9,2.4-1.7c1.2-0.8,1.2-0.9,2.4-1.7c1.2-0.8,1.3-0.7,2.6-1.5c1.2-0.8,1.2-0.8,2.5-1.6c1.3-0.8,1.3-0.7,2.6-1.5
				c1.3-0.8,1.2-0.9,2.5-1.7"/>
		</g>
		<g>
			<g>
				<path class="st3" d="M286.7,249c1.3-1,1.3-1,2.6-2c1.1-0.9,1.3-1,2.1-1.7"/>
				<path class="st89" d="M294.3,243.2c0.1-0.1,0.1-0.1,0.2-0.2c1.3-1,1.4-0.9,2.7-1.9c1.3-1,1.3-1.1,2.6-2.1
					c1.2-0.9,1.3-0.9,2.4-1.7"/>
				<path class="st3" d="M302.9,236.7c0.9-0.7,1-0.8,2.1-1.7c1.3-1,1.4-0.9,2.7-1.9"/>
			</g>
		</g>
		<g>
			<g>
				<path class="st3" d="M288.7,249.5c1.2-1,1.1-1.1,2.3-2.1c1.1-1,1.3-0.9,2.3-1.7"/>
				<path class="st90" d="M295.5,243.3c0,0,0.1-0.1,0.1-0.1c1.2-1,1.3-0.8,2.5-1.9c1.2-1,1.2-1,2.4-2.1c1-0.9,1.2-1,2-1.7"/>
				<path class="st3" d="M303.1,237c1-0.9,1-1,2.1-1.9c1.2-1,1.1-1.1,2.3-2.2"/>
			</g>
		</g>
		<g>
			<path class="st91" d="M288.4,215.5c1.2,1.1,1.2,1.1,2.4,2.2c1.2,1.1,1.2,1.1,2.3,2.2c1.2,1.1,1.3,0.9,2.5,2
				c1.2,1.1,1.1,1.2,2.3,2.3c1.2,1.1,1.3,1,2.5,2.1c1.2,1.1,1.1,1.2,2.3,2.3c1.2,1.1,1.4,0.9,2.6,2c1.2,1.1,1,1.3,2.2,2.4"/>
		</g>
		<g>
			<g>
				<path class="st3" d="M313.8,214.9c-0.2,0.7-0.4,1.1-0.6,1.4"/>
				<path class="st92" d="M313.2,216.3c-0.2,0.4-0.4,0.7-0.6,1.6c-0.5,1.5-0.4,1.6-0.9,3.1c-0.5,1.5-0.5,1.5-1,3
					c-0.5,1.5-0.5,1.5-1,3c0,0.1-0.1,0.2-0.1,0.2"/>
				<path class="st3" d="M308.1,231.6c-0.1,0.3-0.3,0.7-0.5,1.4"/>
			</g>
		</g>
		<g>
			<g>
				<path class="st3" d="M288.3,250.5c0.5-0.5,0.8-0.8,1.1-1"/>
				<path class="st93" d="M289.4,249.5c0.3-0.3,0.7-0.6,1.3-1.2c1.2-1.1,1.1-1.2,2.3-2.3c1.2-1.1,1.2-1.1,2.5-2.1
					c1.2-1.1,1.2-1.1,2.4-2.2c1.2-1.1,1.2-1.2,2.4-2.2c0.8-0.7,1.1-0.9,1.6-1.3"/>
				<path class="st3" d="M306.5,234.1c0.3-0.3,0.6-0.5,1.1-1"/>
			</g>
		</g>
		<g>
			<g>
				<path class="st3" d="M285.9,240.3c0.7-0.2,1.1-0.4,1.4-0.5"/>
				<path class="st94" d="M287.3,239.8c0.4-0.1,0.8-0.3,1.7-0.5c1.5-0.5,1.5-0.6,3.1-1.1c1.6-0.5,1.5-0.6,3.1-1.1
					c1.6-0.5,1.6-0.3,3.2-0.8c1.4-0.5,1.5-0.5,2.7-0.9"/>
				<path class="st3" d="M306.2,233.6c0.4-0.1,0.7-0.2,1.4-0.4"/>
			</g>
		</g>
		<g>
			<g>
				<path class="st3" d="M289.4,246.1c0.6-0.4,0.9-0.7,1.2-0.9"/>
				<path class="st95" d="M290.6,245.2c0.4-0.3,0.7-0.5,1.4-1c1.3-0.9,1.3-0.9,2.6-1.9c1.3-0.9,1.4-0.8,2.7-1.8
					c1.3-0.9,1.2-1.1,2.5-2c1.2-0.8,1.4-0.8,2.3-1.4"/>
				<path class="st3" d="M306.4,233.9c0.3-0.3,0.6-0.5,1.2-1"/>
			</g>
		</g>
		<g>
			<g>
				<path class="st3" d="M292.5,217.4c0.5,0.5,0.8,0.8,1.1,1"/>
				<path class="st96" d="M293.7,218.5c0.3,0.2,0.6,0.5,1.2,1.1c1.1,1.1,1,1.2,2.1,2.3c1.1,1.1,1.1,1.1,2.2,2.2c1.1,1.1,1,1.2,2,2.3
					c0.9,1,1,1.1,1.8,1.9"/>
				<path class="st3" d="M306.5,232c0.3,0.3,0.6,0.5,1.1,1.1"/>
			</g>
		</g>
		<g>
			<g>
				<path class="st3" d="M290.4,222c1.2,0.8,1.2,0.8,2.4,1.6c1.2,0.8,1.1,0.9,2.3,1.7c0.1,0,0.1,0.1,0.2,0.1"/>
				<path class="st97" d="M297.2,226.5c0.1,0.1,0.3,0.2,0.5,0.3c1.2,0.8,1.3,0.6,2.6,1.4c1,0.6,1.2,0.8,1.8,1.3"/>
				<path class="st3" d="M302.5,229.8c0,0,0.1,0.1,0.1,0.1c1.2,0.8,1.3,0.7,2.5,1.5s1.3,0.7,2.5,1.5"/>
			</g>
		</g>
		<g>
			<g>
				<path class="st3" d="M286.3,223.8c0.7,0.3,1,0.5,1.3,0.7"/>
				<path class="st98" d="M287.6,224.5c0.4,0.2,0.8,0.5,1.6,0.8c1.5,0.7,1.6,0.6,3.1,1.2c1.5,0.7,1.5,0.7,3,1.4
					c1.5,0.7,1.5,0.6,3.1,1.3c1.4,0.6,1.6,0.6,2.7,1"/>
				<path class="st3" d="M306.2,232.4c0.3,0.2,0.7,0.4,1.4,0.6"/>
			</g>
		</g>
		<g>
			<g>
				<path class="st3" d="M297,214.6c0.4,0.6,0.6,1,0.8,1.3"/>
				<path class="st99" d="M297.7,215.9c0.2,0.3,0.4,0.7,0.8,1.3c0.8,1.3,0.8,1.3,1.5,2.6c0.8,1.3,0.7,1.3,1.5,2.7
					c0.8,1.3,0.7,1.4,1.5,2.7c0.7,1.1,0.7,1.3,1.2,2.2"/>
				<path class="st3" d="M306.9,231.7c0.2,0.3,0.4,0.6,0.8,1.3"/>
			</g>
		</g>
		<g>
			<g>
				<path class="st3" d="M301.1,215c0.2,0.7,0.4,1.1,0.5,1.4"/>
				<path class="st100" d="M301.6,216.4c0.1,0.4,0.2,0.8,0.5,1.6c0.5,1.5,0.7,1.5,1.2,3c0.5,1.5,0.5,1.5,1.1,3
					c0.5,1.5,0.4,1.6,0.9,3.1c0,0.1,0.1,0.2,0.1,0.2"/>
				<path class="st3" d="M307.1,231.6c0.1,0.4,0.2,0.7,0.5,1.4"/>
			</g>
		</g>
		<g>
			<path class="st101" d="M296.5,210c0.7,1.4,0.7,1.4,1.4,2.9c0.7,1.4,0.5,1.5,1.2,3c0.7,1.4,0.7,1.4,1.4,2.9
				c0.7,1.4,0.8,1.4,1.5,2.8c0.7,1.4,0.5,1.5,1.2,3c0.7,1.4,0.7,1.5,1.3,2.9c0.7,1.4,0.8,1.4,1.5,2.8c0.7,1.4,0.6,1.5,1.3,2.9"/>
		</g>
		<g>
			<g>
				<path class="st3" d="M307.6,232.9c1.6,0,1.6,0.1,3.2,0.1c1.5,0,1.6,0,2.8,0"/>
				<path class="st102" d="M320.1,233.1c0,0,0.1,0,0.1,0c1.6,0,1.6-0.1,3.2-0.1s1.6,0.1,3.2,0.1c1.6,0,1.6-0.1,3.2-0.1
					c1.6,0,1.6,0.2,3.2,0.2c1.6,0,1.6-0.2,3.2-0.2c1,0,1.3,0,1.9,0"/>
				<path class="st3" d="M339.5,233c1.3,0,1.4,0,2.8,0c1.6,0,1.6-0.1,3.2-0.1"/>
			</g>
		</g>
		<g>
			<path class="st103" d="M307.6,233.1c1.5,0.1,1.5,0,3,0.1c1.5,0.1,1.5,0,3,0.1c1.5,0.1,1.5,0.3,3,0.4c1.5,0.1,1.5-0.1,3,0
				c1.5,0.1,1.5,0.3,3,0.4c1.5,0.1,1.5,0,3,0.1c1.5,0.1,1.5,0.2,3,0.3c1.5,0.1,1.5,0.1,3,0.2c1.5,0.1,1.5,0.1,3,0.2
				c1.5,0.1,1.5-0.1,3,0c1.5,0.1,1.5,0.1,3,0.2c1.5,0.1,1.5,0.1,3,0.2s1.5,0.3,3,0.4"/>
		</g>
		<g>
			<path class="st104" d="M344.9,237.5c-1.6-0.2-1.5-0.3-3.1-0.5c-1.6-0.2-1.6-0.1-3.1-0.3c-1.6-0.2-1.6-0.1-3.1-0.3
				c-1.6-0.2-1.5-0.3-3.1-0.4c-1.6-0.2-1.5-0.3-3.1-0.5c-1.6-0.2-1.6-0.1-3.1-0.3c-1.6-0.2-1.6-0.2-3.1-0.3
				c-1.6-0.2-1.6-0.1-3.1-0.3c-1.6-0.2-1.5-0.3-3.1-0.5c-1.6-0.2-1.6,0-3.1-0.2c-1.6-0.2-1.5-0.4-3.1-0.5s-1.6-0.1-3.1-0.3"/>
		</g>
		<g>
			<path class="st105" d="M343.1,239.2c-1.5-0.3-1.5-0.2-3-0.4c-1.5-0.3-1.5-0.4-2.9-0.7c-1.5-0.3-1.5-0.2-3-0.5
				c-1.5-0.3-1.5-0.2-3-0.4c-1.5-0.3-1.5-0.3-2.9-0.6c-1.5-0.3-1.5-0.3-3-0.5c-1.5-0.3-1.5-0.4-2.9-0.6c-1.5-0.3-1.5-0.2-3-0.5
				c-1.5-0.3-1.5-0.2-3-0.5c-1.5-0.3-1.5-0.2-3-0.5c-1.5-0.3-1.5-0.3-3-0.6c-1.5-0.3-1.5-0.1-3-0.4"/>
		</g>
		<g>
			<path class="st106" d="M341,241.4c-1.5-0.4-1.5-0.4-3-0.8c-1.5-0.4-1.5-0.4-3-0.8c-1.5-0.4-1.5-0.4-3-0.8
				c-1.5-0.4-1.5-0.3-3.1-0.7c-1.5-0.4-1.5-0.3-3-0.7c-1.5-0.4-1.5-0.5-3-0.9c-1.5-0.4-1.6-0.2-3.1-0.6c-1.5-0.4-1.5-0.5-3-0.9
				c-1.5-0.4-1.5-0.4-3-0.8c-1.5-0.4-1.6-0.2-3.1-0.6s-1.5-0.4-3-0.7"/>
		</g>
		<g>
			<path class="st107" d="M338.8,243.4c-1.4-0.5-1.4-0.5-2.8-1c-1.4-0.5-1.5-0.3-2.9-0.8c-1.4-0.5-1.4-0.5-2.8-0.9
				c-1.4-0.5-1.4-0.5-2.8-1c-1.4-0.5-1.4-0.7-2.8-1.1c-1.4-0.5-1.4-0.5-2.8-0.9c-1.4-0.5-1.4-0.4-2.9-0.9c-1.4-0.5-1.4-0.5-2.8-0.9
				c-1.4-0.5-1.4-0.5-2.8-1c-1.4-0.5-1.4-0.4-2.9-0.9s-1.4-0.4-2.9-0.9"/>
		</g>
		<g>
			<path class="st108" d="M337.4,245c-1.5-0.6-1.5-0.7-2.9-1.3c-1.5-0.6-1.6-0.4-3.1-1c-1.5-0.6-1.4-0.8-2.9-1.4
				c-1.5-0.6-1.5-0.4-3-1c-1.5-0.6-1.5-0.6-3-1.2c-1.5-0.6-1.5-0.5-3-1.1c-1.5-0.6-1.4-0.8-2.9-1.4c-1.5-0.6-1.5-0.7-3-1.2
				c-1.5-0.6-1.5-0.6-3-1.2c-1.5-0.6-1.5-0.5-3-1.1"/>
		</g>
		<g>
			<g>
				<path class="st3" d="M335.6,246.8c-1.4-0.7-1.5-0.5-2.9-1.2c-1.3-0.7-1.4-0.7-2.6-1.3"/>
				<path class="st109" d="M325.9,242.1c-0.4-0.2-0.7-0.4-1.5-0.7c-1.4-0.7-1.4-0.7-2.8-1.4c-1.4-0.7-1.5-0.6-2.9-1.3
					c-1.4-0.7-1.4-0.8-2.8-1.5c-1-0.5-1.3-0.6-2-0.9"/>
				<path class="st3" d="M312.9,235.8c-1.2-0.6-1.2-0.8-2.5-1.5c-1.4-0.7-1.4-0.6-2.8-1.3"/>
			</g>
		</g>
		<g>
			<g>
				<path class="st3" d="M333.7,248.7c-1.3-0.8-1.3-0.8-2.6-1.6c-1.3-0.8-1.3-0.9-2.5-1.6"/>
				<path class="st110" d="M324.6,243.2c-0.3-0.2-0.7-0.4-1.3-0.8c-1.3-0.8-1.3-0.8-2.6-1.6c-1.3-0.8-1.3-0.9-2.6-1.6
					c-1.3-0.8-1.4-0.6-2.7-1.4c-0.9-0.5-1.1-0.8-1.6-1.2"/>
				<path class="st3" d="M312.8,236c-1.2-0.7-1.3-0.6-2.6-1.4c-1.3-0.8-1.3-0.8-2.6-1.6"/>
			</g>
		</g>
		<g>
			<g>
				<path class="st3" d="M331.9,250.5c-1.2-0.9-1.2-0.9-2.4-1.7c-1.2-0.9-1.1-1-2.4-1.8c0,0,0,0,0,0"/>
				<path class="st111" d="M323.4,244.4c-0.3-0.2-0.6-0.4-1.2-0.8c-1.2-0.9-1.2-0.9-2.4-1.7c-1.2-0.9-1.1-1.1-2.3-1.9
					c-1.2-0.9-1.3-0.7-2.5-1.6c-0.8-0.6-1.1-0.7-1.6-1"/>
				<path class="st3" d="M312.4,236.6c-1.2-0.9-1.1-1-2.4-1.9c-1.2-0.9-1.2-0.9-2.5-1.7"/>
			</g>
		</g>
		<g>
			<g>
				<path class="st3" d="M330.3,252c-1.3-1-1.2-1.1-2.5-2.2c-1.1-0.9-1.2-1.1-2-1.8"/>
				<path class="st112" d="M322.4,245.3c-0.9-0.7-1.1-0.8-2.2-1.7c-1.3-1-1.3-1-2.6-2.1c-1.3-1-1.2-1.2-2.4-2.2
					c-1.1-0.9-1.3-0.9-2.2-1.6"/>
				<path class="st3" d="M312.2,236.9c-0.8-0.7-0.9-0.9-2-1.8c-1.3-1.1-1.2-1.1-2.5-2.1"/>
			</g>
		</g>
		<g>
			<path class="st113" d="M328.6,253.8c-1.2-1.2-1.3-1-2.5-2.2c-1.2-1.2-1-1.3-2.2-2.4c-1.2-1.2-1.2-1.1-2.4-2.3
				c-1.2-1.2-1.1-1.2-2.2-2.4c-1.2-1.2-1.2-1.1-2.4-2.3c-1.2-1.2-1.1-1.2-2.2-2.4c-1.2-1.2-1.3-1-2.5-2.2c-1.2-1.2-1.1-1.2-2.3-2.3
				c-1.2-1.2-1.2-1.2-2.3-2.3"/>
		</g>
		<g>
			<path class="st114" d="M326.7,255.7c-1.1-1.3-1.1-1.2-2.1-2.5c-1.1-1.3-1.1-1.2-2.2-2.5c-1.1-1.3-1-1.3-2-2.6
				c-1.1-1.3-1-1.3-2.1-2.5c-1.1-1.3-1.2-1.1-2.3-2.4c-1.1-1.3-1.1-1.3-2.1-2.5c-1.1-1.3-0.9-1.4-2-2.6c-1.1-1.3-1.2-1.2-2.2-2.4
				c-1.1-1.3-1.1-1.2-2.2-2.5"/>
		</g>
		<g>
			<path class="st115" d="M324,258.3c-0.8-1.3-0.8-1.3-1.7-2.5c-0.8-1.3-0.8-1.3-1.6-2.5c-0.8-1.3-0.7-1.4-1.5-2.6
				c-0.8-1.3-0.9-1.2-1.8-2.4c-0.8-1.3-0.8-1.3-1.6-2.5c-0.8-1.3-0.7-1.3-1.5-2.6c-0.8-1.3-1-1.2-1.8-2.4c-0.8-1.3-0.7-1.3-1.5-2.6
				c-0.8-1.3-0.9-1.2-1.7-2.5s-0.8-1.3-1.6-2.5"/>
		</g>
		<g>
			<g>
				<path class="st3" d="M322.2,260.1c-0.7-1.4-0.7-1.4-1.4-2.7c-0.7-1.3-0.8-1.3-1.5-2.5"/>
				<path class="st116" d="M317.1,250.7c-0.2-0.4-0.3-0.7-0.7-1.4c-0.7-1.4-0.8-1.3-1.6-2.7c-0.7-1.4-0.6-1.4-1.4-2.8
					c-0.7-1.4-0.7-1.4-1.4-2.7c-0.5-1-0.7-1.2-1-1.8"/>
				<path class="st3" d="M310.5,238.3c-0.7-1.2-0.7-1.3-1.4-2.6c-0.7-1.4-0.7-1.4-1.4-2.7"/>
			</g>
		</g>
		<g>
			<g>
				<path class="st3" d="M320.5,261.8c-0.6-1.4-0.7-1.4-1.4-2.8c-0.6-1.3-0.5-1.5-1-2.7"/>
				<path class="st117" d="M316,251.9c-0.2-0.4-0.4-0.7-0.7-1.6c-0.6-1.4-0.6-1.4-1.3-2.9c-0.6-1.4-0.7-1.4-1.4-2.8
					c-0.6-1.4-0.6-1.4-1.3-2.9c-0.5-1.1-0.5-1.4-0.8-2.1"/>
				<path class="st3" d="M310.1,238.5c-0.5-1.2-0.6-1.2-1.2-2.6c-0.6-1.4-0.7-1.4-1.3-2.9"/>
			</g>
		</g>
		<g>
			<g>
				<path class="st3" d="M319.1,263.3c-0.6-1.5-0.5-1.5-1.1-3.1c-0.5-1.3-0.7-1.5-1.1-2.5"/>
				<path class="st118" d="M315.1,253c-0.2-0.5-0.3-0.8-0.6-1.7c-0.6-1.5-0.5-1.5-1-3.1c-0.6-1.5-0.7-1.5-1.3-3
					c-0.6-1.5-0.4-1.6-0.9-3.1c-0.5-1.2-0.7-1.4-1.1-2.2"/>
				<path class="st3" d="M309.6,238.7c-0.4-1.1-0.3-1.3-0.9-2.6c-0.6-1.5-0.6-1.5-1.2-3"/>
			</g>
		</g>
		<g>
			<g>
				<path class="st3" d="M317.2,265.2c-0.4-1.5-0.5-1.4-0.9-2.9c-0.4-1.4-0.5-1.4-0.9-2.8"/>
				<path class="st119" d="M313.9,254.3c-0.1-0.2-0.1-0.5-0.2-0.8c-0.4-1.5-0.3-1.5-0.7-3c-0.4-1.5-0.5-1.4-1-2.9
					c-0.4-1.5-0.3-1.5-0.8-2.9c-0.4-1.5-0.4-1.5-0.9-2.9c-0.3-0.9-0.4-1.2-0.6-1.7"/>
				<path class="st3" d="M309.2,238.8c-0.4-1.4-0.4-1.4-0.8-2.8c-0.4-1.5-0.3-1.5-0.7-3"/>
			</g>
		</g>
		<g>
			<g>
				<path class="st3" d="M315.8,266.4c-0.4-1.5-0.3-1.5-0.7-3c-0.4-1.4-0.4-1.5-0.7-2.8"/>
				<path class="st120" d="M313.1,255.2c-0.1-0.2-0.1-0.5-0.2-0.9c-0.4-1.5-0.4-1.5-0.7-3c-0.4-1.5-0.4-1.5-0.8-3
					c-0.4-1.5-0.5-1.5-0.9-3c-0.4-1.5-0.3-1.5-0.7-3.1c-0.3-1-0.3-1.4-0.5-1.9"/>
				<path class="st3" d="M309.1,238.9c-0.3-1.3-0.4-1.3-0.8-2.8c-0.4-1.5-0.4-1.5-0.7-3"/>
			</g>
		</g>
		<g>
			<path class="st121" d="M314,266.1c-0.3-1.5-0.1-1.5-0.4-3c-0.3-1.5-0.4-1.5-0.7-3c-0.3-1.5-0.2-1.5-0.5-3c-0.3-1.5-0.3-1.5-0.6-3
				c-0.3-1.5-0.3-1.5-0.6-3c-0.3-1.5-0.4-1.5-0.7-3c-0.3-1.5-0.2-1.5-0.5-3c-0.3-1.5-0.4-1.5-0.7-3c-0.3-1.5-0.4-1.5-0.7-3
				c-0.3-1.5-0.3-1.5-0.6-3c-0.3-1.5-0.1-1.6-0.3-3.1"/>
		</g>
		<g>
			<g>
				<path class="st3" d="M312.4,264.6c-0.2-1.6-0.2-1.6-0.5-3.2c-0.2-1.4-0.4-1.5-0.6-2.8"/>
				<path class="st122" d="M310.7,253.7c0-0.5,0-0.9-0.1-1.8c-0.2-1.6-0.3-1.6-0.6-3.1c-0.2-1.6-0.2-1.6-0.4-3.2
					c-0.2-1.6-0.4-1.6-0.6-3.1c-0.2-1.2-0.2-1.5-0.2-2.3"/>
				<path class="st3" d="M308.6,239c-0.2-1.2-0.3-1.3-0.5-2.8c-0.2-1.6-0.1-1.6-0.4-3.2"/>
			</g>
		</g>
		<g>
			<g>
				<path class="st3" d="M310.2,262.4c-0.1-1.6-0.1-1.6-0.2-3.3c-0.1-1.4-0.1-1.6-0.2-2.7"/>
				<path class="st123" d="M309.3,252.1c-0.1-1.1-0.1-1.3-0.2-2.7c-0.1-1.6-0.1-1.6-0.3-3.3c-0.1-1.6-0.2-1.6-0.4-3.2
					c-0.1-1.4,0-1.6-0.1-2.7"/>
				<path class="st3" d="M308.2,239c-0.1-1.1-0.1-1.3-0.3-2.7c-0.1-1.6-0.2-1.6-0.3-3.3"/>
			</g>
		</g>
		<g>
			<g>
				<path class="st3" d="M308.6,260.6c0-1.5,0-1.5-0.1-3.1c0-1.5,0-1.5-0.1-2.9"/>
				<path class="st124" d="M308.2,250.7c0-0.9,0-1.1,0-2.3c0-1.5-0.2-1.5-0.2-3.1c0-1.5,0-1.5,0-3.1c0-1.2-0.1-1.4-0.1-2.2"/>
				<path class="st3" d="M307.8,239c0-1.4,0-1.4,0-2.9c0-1.5-0.3-1.5-0.3-3.1"/>
			</g>
		</g>
		<g>
			<g>
				<path class="st3" d="M306.7,258.7c0.1-1.6,0-1.6,0.1-3.2c0.1-1.4,0-1.6,0-2.8"/>
				<path class="st125" d="M306.9,249.3c0-0.1,0-0.1,0-0.2c0.1-1.6,0.2-1.6,0.2-3.2c0.1-1.6,0.2-1.6,0.2-3.2
					c0.1-1.5-0.1-1.6-0.1-2.8"/>
				<path class="st3" d="M307.3,239c0-1.2,0.1-1.3,0.1-2.8c0.1-1.6,0.1-1.6,0.1-3.2"/>
			</g>
		</g>
		<g>
			<g>
				<path class="st3" d="M304.8,256.8c0.2-1.5,0.2-1.5,0.3-3c0.2-1.5,0-1.5,0.2-3c0,0,0,0,0,0"/>
				<path class="st126" d="M305.9,247.9c0.2-1.5,0-1.5,0.2-3c0.2-1.5,0.3-1.5,0.5-3c0.1-1.2,0.1-1.4,0.2-2.2"/>
				<path class="st3" d="M306.9,239c0.2-1.5,0-1.5,0.2-3c0.2-1.5,0.3-1.5,0.5-3"/>
			</g>
		</g>
		<g>
			<path class="st127" d="M303,255.1c0.3-1.6,0.3-1.6,0.7-3.1c0.3-1.6,0.5-1.5,0.8-3.1c0.3-1.6,0.3-1.6,0.7-3.1
				c0.3-1.6,0.1-1.6,0.4-3.2c0.3-1.6,0.6-1.5,0.9-3.1c0.3-1.6,0.1-1.6,0.4-3.2c0.3-1.6,0.4-1.6,0.8-3.1"/>
		</g>
		<g>
			<g>
				<path class="st3" d="M301.3,253.4c0.4-1.5,0.5-1.5,0.9-2.9c0.4-1.4,0.6-1.4,1-2.8"/>
				<path class="st128" d="M303.8,245.5c0.1-0.2,0.1-0.5,0.2-0.8c0.4-1.5,0.4-1.5,0.9-2.9c0.4-1.3,0.6-1.4,0.9-2.4"/>
				<path class="st3" d="M306,238.8c0.4-1.4,0.2-1.4,0.7-2.9c0.4-1.5,0.5-1.5,0.9-2.9"/>
			</g>
		</g>
		<g>
			<path class="st129" d="M300.3,252.4c0.5-1.4,0.6-1.4,1.1-2.7c0.5-1.4,0.5-1.4,1-2.8c0.5-1.4,0.4-1.4,0.9-2.8
				c0.5-1.4,0.7-1.3,1.2-2.7c0.5-1.4,0.3-1.5,0.8-2.8c0.5-1.4,0.5-1.4,1-2.8c0.5-1.4,0.7-1.3,1.2-2.7"/>
		</g>
		<g>
			<path class="st130" d="M298.8,250.9c0.7-1.5,0.7-1.5,1.5-3c0.7-1.5,0.9-1.4,1.6-2.9c0.7-1.5,0.5-1.6,1.2-3.1
				c0.7-1.5,0.7-1.5,1.5-3c0.7-1.5,0.8-1.5,1.5-3c0.7-1.5,0.7-1.5,1.5-3"/>
		</g>
		<g>
			<path class="st131" d="M297.5,249.6c0.8-1.4,0.9-1.3,1.8-2.7c0.8-1.4,0.8-1.4,1.7-2.8c0.8-1.4,0.8-1.4,1.6-2.8
				c0.8-1.4,0.8-1.4,1.6-2.8c0.8-1.4,0.8-1.4,1.7-2.8c0.8-1.4,0.9-1.4,1.7-2.7"/>
		</g>
		<g>
			<g>
				<path class="st3" d="M296.1,248.2c1-1.3,0.9-1.3,1.9-2.6c0.9-1.2,0.9-1.3,1.6-2.3"/>
				<path class="st132" d="M300.7,241.9c0.3-0.4,0.5-0.7,1-1.4c0.9-1.2,1-1.2,1.9-2.4"/>
				<path class="st3" d="M303.9,237.8c0.8-1,0.8-1.1,1.7-2.3c1-1.3,1-1.2,2-2.5"/>
			</g>
		</g>
		<g>
			<path class="st133" d="M295.2,247.3c1-1.2,1-1.2,2-2.4c1-1.2,1.1-1.1,2.2-2.3c1-1.2,0.9-1.3,1.9-2.5c1-1.2,1.1-1.1,2.1-2.3
				c1-1.2,1-1.3,2-2.4c1-1.2,1.1-1.1,2.2-2.3"/>
		</g>
		<g>
			<g>
				<path class="st3" d="M343.6,231.2c-1.5,0.1-1.5,0-3,0.1c-1.5,0.1-1.5,0.2-3,0.3"/>
				<path class="st134" d="M331.6,231.6c-1.5,0.1-1.5,0.3-3,0.3c-1.5,0.1-1.5-0.1-3,0c-1.5,0.1-1.5,0.2-3,0.3
					c-1.5,0.1-1.5,0.2-3,0.3c-1.5,0.1-1.5-0.1-3,0c-0.2,0-0.4,0-0.5,0"/>
				<path class="st3" d="M313.6,232.8c-1.5,0.1-1.5,0-3,0c-1.5,0.1-1.5,0-3,0.1"/>
			</g>
		</g>
		<g>
			<path class="st135" d="M341.5,229.1c-1.5,0.2-1.5,0.4-3.1,0.6c-1.5,0.2-1.6,0-3.1,0.2c-1.5,0.2-1.5,0.3-3.1,0.5
				c-1.5,0.2-1.6,0.1-3.1,0.2c-1.5,0.2-1.5,0.3-3.1,0.5c-1.5,0.2-1.6,0-3.1,0.2c-1.5,0.2-1.5,0.2-3.1,0.4c-1.5,0.2-1.5,0.3-3.1,0.5
				c-1.5,0.2-1.6,0-3.1,0.2c-1.5,0.2-1.5,0.2-3.1,0.4c-1.5,0.2-1.5,0.2-3.1,0.4"/>
		</g>
		<g>
			<path class="st136" d="M339.4,226.9c-1.6,0.3-1.6,0.3-3.2,0.6c-1.6,0.3-1.6,0.5-3.1,0.8c-1.6,0.3-1.6,0.3-3.2,0.6
				s-1.6,0.1-3.2,0.5c-1.6,0.3-1.6,0.4-3.2,0.7c-1.6,0.3-1.6,0.3-3.2,0.6c-1.6,0.3-1.6,0.2-3.2,0.5c-1.6,0.3-1.6,0.2-3.2,0.5
				c-1.6,0.3-1.6,0.5-3.2,0.8c-1.6,0.3-1.6,0.1-3.2,0.4"/>
		</g>
		<g>
			<g>
				<path class="st3" d="M336.7,224.4c-1.5,0.4-1.5,0.2-3,0.7c-1.4,0.4-1.5,0.4-2.8,0.8"/>
				<path class="st137" d="M326.6,227.4c-0.4,0.1-0.7,0.3-1.5,0.5c-1.5,0.4-1.4,0.5-2.9,0.9c-1.5,0.4-1.5,0.2-3,0.7
					c-1.5,0.4-1.4,0.6-2.9,1c-1,0.3-1.3,0.4-1.9,0.5"/>
				<path class="st3" d="M313.3,231.3c-1.4,0.4-1.4,0.5-2.8,0.9c-1.5,0.4-1.5,0.4-2.9,0.8"/>
			</g>
		</g>
		<g>
			<g>
				<path class="st3" d="M335.3,223c-1.5,0.6-1.6,0.4-3.2,0.9c-1.3,0.5-1.5,0.7-2.5,1.1"/>
				<path class="st138" d="M325.6,226.5c-1.1,0.4-1.2,0.5-2.5,1c-1.5,0.6-1.6,0.5-3.1,1.1c-1.5,0.6-1.6,0.5-3.1,1.1
					c-1.4,0.5-1.5,0.6-2.5,1"/>
				<path class="st3" d="M313.2,231c-1,0.4-1.2,0.4-2.6,0.8c-1.5,0.6-1.5,0.6-3.1,1.2"/>
			</g>
		</g>
		<g>
			<path class="st139" d="M333.4,220.9c-1.4,0.7-1.4,0.8-2.8,1.5c-1.4,0.7-1.5,0.6-2.9,1.2c-1.4,0.7-1.5,0.6-2.9,1.2
				c-1.4,0.7-1.4,0.7-2.9,1.3c-1.4,0.7-1.4,0.8-2.8,1.5c-1.4,0.7-1.4,0.7-2.8,1.4c-1.4,0.7-1.5,0.6-2.9,1.3
				c-1.4,0.7-1.4,0.7-2.9,1.3c-1.4,0.7-1.5,0.6-2.9,1.3"/>
		</g>
		<g>
			<g>
				<path class="st3" d="M331.7,219.3c-1.3,0.8-1.4,0.6-2.7,1.4c-1.3,0.7-1.3,0.8-2.5,1.5"/>
				<path class="st140" d="M323,224.1c-0.8,0.5-1,0.6-2,1.2c-1.3,0.8-1.4,0.7-2.7,1.5c-1.3,0.8-1.3,0.9-2.6,1.6
					c-1,0.6-1.3,0.8-2,1.2"/>
				<path class="st3" d="M312.8,230.1c-1.2,0.7-1.2,0.8-2.5,1.6c-1.3,0.8-1.3,0.8-2.7,1.5"/>
			</g>
		</g>
		<g>
			<path class="st141" d="M330.4,217.6c-1.3,0.9-1.3,0.8-2.5,1.7c-1.3,0.9-1.2,0.9-2.5,1.8c-1.3,0.9-1.4,0.7-2.6,1.6
				c-1.3,0.9-1.3,0.8-2.6,1.6c-1.3,0.9-1.1,1.1-2.4,1.9c-1.3,0.9-1.4,0.7-2.6,1.6c-1.3,0.9-1.2,1-2.4,1.9c-1.3,0.9-1.3,0.8-2.6,1.7
				s-1.3,0.8-2.6,1.7"/>
		</g>
		<g>
			<g>
				<path class="st3" d="M328,216.9c-1.3,1-1.3,0.9-2.6,1.9c-1.1,0.9-1.2,1-2.1,1.7"/>
				<path class="st142" d="M320.7,222.9c-0.1,0-0.1,0.1-0.2,0.2c-1.3,1-1.4,0.8-2.7,1.8c-1.3,1-1.2,1.1-2.5,2.1
					c-1.2,0.9-1.2,1.1-2.2,1.9"/>
				<path class="st3" d="M312.3,229.4c-0.9,0.7-1.1,0.8-2.2,1.7c-1.3,1-1.3,0.9-2.6,2"/>
			</g>
		</g>
		<g>
			<g>
				<path class="st3" d="M327,214.6c-1.1,1-1.1,1-2.1,2.1s-1,1.1-2.1,2.1c0,0,0,0,0,0"/>
				<path class="st143" d="M320,221.3c-0.6,0.5-0.7,0.7-1.6,1.5c-1.1,1-1.2,0.9-2.2,2c-1.1,1-1,1.1-2.1,2.1c-0.8,0.7-1,0.9-1.5,1.4"
					/>
				<path class="st3" d="M312,228.9C311.9,228.9,311.9,228.9,312,228.9c-1.1,1-1.2,1-2.3,2c-1.1,1-1,1.1-2.1,2.2"/>
			</g>
		</g>
		<g>
			<g>
				<path class="st3" d="M324.9,256.3c-1-1.3-1-1.3-2-2.5c-0.9-1.2-1-1.3-1.7-2.2"/>
				<path class="st144" d="M318.8,248.1c-0.6-0.8-0.7-1-1.5-2.1c-1-1.3-1.1-1.2-2-2.5c-1-1.3-0.9-1.4-1.8-2.7
					c-0.8-1.1-0.9-1.3-1.5-2.1"/>
				<path class="st3" d="M311.3,237.8c-0.7-0.9-0.9-1-1.7-2.2c-1-1.3-1-1.3-1.9-2.6"/>
			</g>
		</g>
		<g>
			<g>
				<path class="st3" d="M321.9,256.9c-0.8-1.3-0.6-1.4-1.4-2.7c-0.8-1.3-0.8-1.3-1.5-2.5"/>
				<path class="st145" d="M316.7,248.4c-0.5-0.8-0.5-1-1.2-2.1c-0.8-1.3-0.6-1.4-1.4-2.7c-0.8-1.3-0.8-1.3-1.6-2.7
					c-0.6-1-0.8-1.2-1.2-1.9"/>
				<path class="st3" d="M310.7,238.2c-0.7-1.2-0.7-1.2-1.5-2.5c-0.8-1.3-0.8-1.3-1.6-2.7"/>
			</g>
		</g>
		<g>
			<g>
				<path class="st3" d="M322.2,260.2c-0.7-1.4-0.8-1.3-1.5-2.7c-0.7-1.3-0.6-1.4-1.2-2.7"/>
				<path class="st146" d="M317.1,250.8c-0.2-0.4-0.4-0.7-0.8-1.4c-0.7-1.4-0.6-1.4-1.4-2.8c-0.7-1.4-0.8-1.3-1.5-2.7
					c-0.7-1.4-0.9-1.3-1.6-2.6c-0.5-1-0.6-1.3-0.9-1.9"/>
				<path class="st3" d="M310.4,238.3c-0.7-1.2-0.7-1.2-1.4-2.6c-0.7-1.4-0.7-1.3-1.5-2.7"/>
			</g>
		</g>
		<g>
			<g>
				<path class="st3" d="M320.4,261.9c-0.6-1.4-0.6-1.4-1.3-2.9c-0.6-1.3-0.5-1.5-1-2.7"/>
				<path class="st147" d="M316.1,251.9c-0.2-0.4-0.5-0.7-0.8-1.5c-0.6-1.4-0.6-1.5-1.2-2.9c-0.6-1.4-0.5-1.5-1.2-2.9
					c-0.6-1.4-0.9-1.3-1.5-2.8c-0.5-1.1-0.6-1.4-0.8-2.1"/>
				<path class="st3" d="M310,238.5c-0.5-1.2-0.6-1.3-1.2-2.6c-0.6-1.4-0.7-1.4-1.3-2.9"/>
			</g>
		</g>
		<g>
			<path class="st148" d="M317.6,263.5c-0.5-1.5-0.5-1.5-1-3c-0.5-1.5-0.4-1.6-0.9-3.1c-0.5-1.5-0.5-1.5-1-3
				c-0.5-1.5-0.4-1.5-0.9-3.1c-0.5-1.5-0.6-1.5-1.1-3c-0.5-1.5-0.6-1.5-1.1-3c-0.5-1.5-0.4-1.6-0.9-3.1c-0.5-1.5-0.4-1.6-0.9-3.1
				c-0.5-1.5-0.7-1.5-1.2-3c-0.5-1.5-0.5-1.5-1-3.1"/>
		</g>
		<g>
			<g>
				<path class="st3" d="M315,264.7c-0.4-1.6-0.5-1.6-0.9-3.1c-0.3-1.4-0.2-1.6-0.4-2.7"/>
				<path class="st149" d="M312.4,253.9c-0.1-0.5-0.1-0.9-0.4-1.8c-0.4-1.6-0.4-1.6-0.7-3.2c-0.4-1.6-0.5-1.6-0.9-3.1
					c-0.4-1.6-0.3-1.6-0.6-3.2c-0.3-1.3-0.4-1.5-0.6-2.4"/>
				<path class="st3" d="M309,238.9c-0.3-1.1-0.4-1.3-0.7-2.6c-0.4-1.6-0.3-1.6-0.6-3.2"/>
			</g>
		</g>
		<g>
			<path class="st150" d="M302.4,253.3c0.4-1.4,0.2-1.5,0.5-2.9c0.4-1.4,0.5-1.4,0.9-2.9c0.4-1.4,0.4-1.4,0.8-2.9
				c0.4-1.4,0.3-1.5,0.6-2.9c0.4-1.4,0.4-1.4,0.8-2.9c0.4-1.4,0.3-1.5,0.7-2.9c0.4-1.4,0.5-1.4,0.9-2.9"/>
		</g>
		<g>
			<g>
				<path class="st3" d="M304,253.9c0.2-1.5,0.3-1.5,0.6-3c0.2-1.5,0.4-1.5,0.6-2.9"/>
				<path class="st151" d="M305.6,245.8c0-0.2,0.1-0.5,0.1-0.8c0.2-1.5,0.1-1.5,0.3-3c0.2-1.3,0.3-1.5,0.5-2.5"/>
				<path class="st3" d="M306.7,239c0.2-1.4,0.3-1.4,0.5-2.9c0.2-1.5,0.1-1.5,0.3-3"/>
			</g>
		</g>
		<g>
			<g>
				<path class="st3" d="M305.3,256.3c0.2-1.7,0.2-1.7,0.3-3.3c0.1-1.4,0.2-1.6,0.3-2.6"/>
				<path class="st152" d="M306.3,247.5c0-0.3,0.1-0.7,0.1-1.2c0.2-1.7,0.2-1.7,0.4-3.3c0.2-1.7,0.2-1.7,0.3-3.3"/>
				<path class="st3" d="M307.1,239c0.1-1,0-1.3,0.1-2.6c0.2-1.7,0.1-1.7,0.2-3.3"/>
			</g>
		</g>
		<g>
			<path class="st153" d="M307.8,255.7c0-1.6-0.1-1.6-0.1-3.2c0-1.6,0.1-1.6,0.1-3.2c0-1.6,0.1-1.6,0.1-3.2c0-1.6,0-1.6,0-3.2
				c0-1.6-0.2-1.6-0.2-3.2c0-1.6,0.2-1.6,0.1-3.2s-0.1-1.6-0.1-3.2"/>
		</g>
		<g>
			<path class="st154" d="M309.1,260c-0.1-1.5,0-1.5-0.1-3c-0.1-1.5,0-1.5-0.1-3c-0.1-1.5-0.1-1.5-0.2-3c-0.1-1.5-0.3-1.5-0.3-3
				c-0.1-1.5-0.1-1.5-0.1-3c-0.1-1.5,0.2-1.5,0.1-3c-0.1-1.5-0.3-1.5-0.4-3c-0.1-1.5,0.1-1.5,0.1-3c-0.1-1.5-0.1-1.5-0.2-3"/>
		</g>
		<g>
			<path class="st155" d="M310.9,258.8c-0.2-1.6-0.2-1.6-0.4-3.2c-0.2-1.6-0.2-1.6-0.4-3.2c-0.2-1.6-0.4-1.6-0.6-3.2
				c-0.2-1.6-0.2-1.6-0.4-3.2c-0.2-1.6,0-1.6-0.2-3.3c-0.2-1.6-0.4-1.6-0.6-3.2c-0.2-1.6,0-1.6-0.2-3.3c-0.2-1.6-0.2-1.6-0.4-3.2"/>
		</g>
		<g>
			<g>
				<path class="st3" d="M299.9,250.9c0.6-1.5,0.6-1.5,1.2-3c0.6-1.3,0.6-1.5,1-2.6"/>
				<path class="st156" d="M303,243.7c0.2-0.4,0.5-0.8,0.8-1.6c0.6-1.5,0.5-1.5,1.2-3c0,0,0,0,0,0"/>
				<path class="st3" d="M305.2,238.5c0.5-1.1,0.5-1.2,1.1-2.5c0.6-1.5,0.7-1.5,1.3-3"/>
			</g>
		</g>
		<g>
			<path class="st157" d="M298.8,248.7c0.7-1.3,0.8-1.2,1.6-2.5c0.7-1.3,0.6-1.4,1.3-2.7c0.7-1.3,0.7-1.3,1.4-2.6
				c0.7-1.3,0.9-1.2,1.6-2.5c0.7-1.3,0.6-1.4,1.4-2.7c0.7-1.3,0.7-1.3,1.4-2.6"/>
		</g>
		<g>
			<g>
				<path class="st3" d="M298.2,245.8c0.9-1.3,1.1-1.1,2.1-2.4c0.9-1.2,0.9-1.3,1.6-2.3"/>
				<path class="st158" d="M302.5,240.3c0.5-0.8,0.6-1.1,1.3-2.2c0,0,0-0.1,0.1-0.1"/>
				<path class="st3" d="M304,237.8c0.7-1,1-1,1.8-2.2c0.9-1.3,0.9-1.3,1.8-2.6"/>
			</g>
		</g>
		<g>
			<g>
				<path class="st3" d="M296.1,247c1-1.2,1-1.1,2-2.3c0.9-1.2,0.9-1.3,1.8-2.4"/>
				<path class="st159" d="M300.8,241.2c0.2-0.3,0.5-0.6,1-1.2c0.9-1.1,1-1.1,1.8-2"/>
				<path class="st3" d="M303.8,237.6c0.9-1.1,1.1-1,2-2.2c1-1.2,1-1.2,1.9-2.3"/>
			</g>
		</g>
		<g>
			<g>
				<path class="st3" d="M295.3,246.3c1-1.1,1-1.1,2-2.2c1-1.1,0.9-1.2,2-2.3"/>
				<path class="st160" d="M300.3,240.7c0.3-0.3,0.5-0.5,1-1.1c0.9-1,1-1.1,1.8-1.9"/>
				<path class="st3" d="M303.5,237.4c1-1.1,1.1-1,2.1-2.1c1-1.1,1-1.1,2-2.2"/>
			</g>
		</g>
		<g>
			<path class="st161" d="M321,260c-0.7-1.3-0.7-1.3-1.3-2.7c-0.7-1.3-0.7-1.4-1.3-2.7c-0.7-1.3-0.6-1.4-1.3-2.7
				c-0.7-1.3-0.7-1.3-1.4-2.7c-0.7-1.3-0.6-1.4-1.3-2.7c-0.7-1.3-0.8-1.3-1.5-2.6c-0.7-1.3-0.4-1.5-1.1-2.8
				c-0.7-1.3-0.7-1.3-1.4-2.7c-0.7-1.3-0.9-1.3-1.5-2.6c-0.7-1.3-0.5-1.4-1.2-2.8"/>
		</g>
		<g>
			<path class="st162" d="M318.2,258.2c-0.6-1.4-0.6-1.4-1.2-2.8c-0.6-1.4-0.6-1.4-1.2-2.8s-0.7-1.3-1.3-2.7
				c-0.6-1.4-0.5-1.4-1.1-2.8c-0.6-1.4-0.5-1.4-1.1-2.8c-0.6-1.4-0.6-1.4-1.2-2.8c-0.6-1.4-0.5-1.4-1.1-2.8
				c-0.6-1.4-0.6-1.4-1.1-2.8c-0.6-1.4-0.7-1.3-1.3-2.7"/>
		</g>
		<g>
			<path class="st163" d="M314.8,259.8c-0.4-1.5-0.4-1.5-0.8-3c-0.4-1.5-0.4-1.5-0.8-3s-0.4-1.5-0.8-3c-0.4-1.5-0.3-1.5-0.7-3
				c-0.4-1.5-0.6-1.4-1-2.9c-0.4-1.5-0.2-1.5-0.6-3c-0.4-1.5-0.4-1.5-0.8-3c-0.4-1.5-0.4-1.5-0.8-3c-0.4-1.5-0.4-1.5-0.8-3"/>
		</g>
		<g>
			<g>
				<path class="st3" d="M305.8,256.9c0.1-1.5,0.3-1.5,0.4-3c0.1-1.5,0.1-1.5,0.2-3c0,0,0,0,0,0"/>
				<path class="st164" d="M306.5,247.9c0.1-1.5,0-1.5,0.2-3c0.1-1.5,0.2-1.5,0.3-3c0.1-1.2,0.1-1.4,0.2-2.2"/>
				<path class="st3" d="M307.2,239C307.2,239,307.2,239,307.2,239c0.1-1.5,0.1-1.5,0.2-3c0.1-1.5,0-1.5,0.1-3"/>
			</g>
		</g>
		<g>
			<g>
				<path class="st3" d="M297.7,248c0.8-1.2,0.7-1.3,1.6-2.6c0.8-1.2,0.8-1.2,1.7-2.5c0,0,0,0,0,0"/>
				<path class="st165" d="M301.7,241.7c0.2-0.3,0.4-0.6,0.8-1.2c0.8-1.1,0.9-1.2,1.5-2.2"/>
				<path class="st3" d="M304.3,238c0.8-1.3,0.8-1.3,1.6-2.5s0.8-1.2,1.7-2.5"/>
			</g>
		</g>
		<g>
			<g>
				<path class="st3" d="M323.5,255.5c-0.9-1.3-1-1.2-1.9-2.4c-0.9-1.2-0.9-1.2-1.8-2.4"/>
				<path class="st166" d="M317.7,247.5c-0.5-0.7-0.6-0.9-1.3-2c-0.9-1.3-0.9-1.3-1.7-2.5c-0.9-1.3-0.9-1.2-1.8-2.5
					c-0.7-1-0.9-1.2-1.3-1.8"/>
				<path class="st3" d="M311,238c-0.8-1.1-0.8-1.2-1.6-2.4c-0.9-1.3-0.8-1.3-1.7-2.6"/>
			</g>
		</g>
		<g>
			<g>
				<path class="st3" d="M324.2,253.9c-0.9-1.2-1.1-1.1-2-2.2s-0.9-1.2-1.8-2.3c0,0,0,0,0-0.1"/>
				<path class="st167" d="M318.1,246.4c-0.5-0.6-0.6-0.8-1.3-1.7c-0.9-1.2-0.8-1.3-1.7-2.4c-0.9-1.2-1.1-1-2-2.2
					c-0.7-0.8-0.8-1.1-1.1-1.6"/>
				<path class="st3" d="M311.4,237.7C311.3,237.7,311.3,237.7,311.4,237.7c-1-1.2-1.1-1.1-2-2.3c-0.9-1.2-0.9-1.2-1.8-2.3"/>
			</g>
		</g>
		<g>
			<path class="st168" d="M326.8,254.2c-1.1-1.2-1-1.2-2.1-2.4c-1.1-1.2-1.1-1.2-2.1-2.3c-1.1-1.2-1.1-1.1-2.2-2.3
				c-1.1-1.2-1.1-1.2-2.1-2.3c-1.1-1.2-1-1.3-2-2.4c-1.1-1.2-1.1-1.2-2.2-2.3c-1.1-1.2-1-1.3-2.1-2.4c-1.1-1.2-1.1-1.2-2.2-2.3
				c-1.1-1.2-1.2-1-2.3-2.2"/>
		</g>
		<g>
			<path class="st169" d="M328.8,251.6c-1.2-1-1.1-1.1-2.3-2.1c-1.2-1-1.1-1.1-2.3-2.1c-1.2-1-1.3-0.9-2.5-1.9c-1.2-1-1.2-1-2.4-2
				c-1.2-1-1.1-1.1-2.3-2.2c-1.2-1-1.1-1.1-2.3-2.1c-1.2-1-1.2-1-2.4-2c-1.2-1-1.2-1.1-2.3-2.1s-1.2-1-2.4-2"/>
		</g>
		<g>
			<path class="st170" d="M330.2,250.5c-1.3-1-1.2-1.1-2.4-2c-1.3-1-1.3-0.9-2.6-1.8c-1.3-1-1.2-1.1-2.4-2c-1.3-1-1.4-0.8-2.6-1.8
				c-1.3-1-1.2-1-2.5-1.9c-1.3-1-1.2-1.1-2.4-2.1c-1.3-1-1.3-0.9-2.6-1.8c-1.3-1-1.3-0.9-2.5-1.9c-1.3-1-1.3-1-2.5-1.9"/>
		</g>
		<g>
			<g>
				<path class="st3" d="M330,248.1c-1.2-0.8-1.3-0.8-2.5-1.6c-1.2-0.8-1.1-1-2.4-1.8"/>
				<path class="st171" d="M321.9,242.7c-0.7-0.4-0.9-0.5-1.9-1.2c-1.2-0.8-1.2-0.9-2.5-1.7c-1.2-0.8-1.3-0.8-2.5-1.6
					c-0.9-0.6-1.1-0.8-1.7-1.2"/>
				<path class="st3" d="M312.6,236.4c-1.2-0.8-1.3-0.7-2.5-1.6c-1.2-0.8-1.1-1-2.4-1.9"/>
			</g>
		</g>
		<g>
			<path class="st172" d="M332.6,246.8c-1.4-0.8-1.4-0.8-2.7-1.6c-1.4-0.8-1.3-0.9-2.7-1.6s-1.4-0.8-2.8-1.5
				c-1.4-0.8-1.5-0.6-2.9-1.3c-1.4-0.8-1.4-0.8-2.8-1.5c-1.4-0.8-1.4-0.7-2.8-1.5c-1.4-0.8-1.3-0.9-2.7-1.7
				c-1.4-0.8-1.4-0.8-2.8-1.6s-1.4-0.8-2.8-1.6"/>
		</g>
		<g>
			<path class="st173" d="M334.9,245.6c-1.4-0.6-1.3-0.7-2.7-1.3c-1.4-0.6-1.3-0.7-2.7-1.3c-1.4-0.6-1.5-0.4-2.8-1.1
				c-1.4-0.6-1.3-0.7-2.7-1.3c-1.4-0.6-1.3-0.7-2.7-1.3c-1.4-0.6-1.5-0.4-2.8-1.1c-1.4-0.6-1.3-0.8-2.6-1.4
				c-1.4-0.6-1.4-0.6-2.7-1.2c-1.4-0.6-1.3-0.7-2.7-1.3c-1.4-0.6-1.4-0.6-2.8-1.2"/>
		</g>
		<g>
			<g>
				<path class="st3" d="M334,242.9c-1.5-0.5-1.5-0.5-2.9-1c-1.4-0.5-1.4-0.7-2.6-1.2"/>
				<path class="st174" d="M324.5,239.5c-0.9-0.4-1-0.5-2.3-1c-1.5-0.5-1.5-0.4-3-1c-1.5-0.5-1.4-0.6-2.9-1.2
					c-1.2-0.4-1.4-0.5-2.2-0.8"/>
				<path class="st3" d="M313.2,235.1c-1.2-0.5-1.3-0.5-2.7-1c-1.5-0.6-1.5-0.5-2.9-1.1"/>
			</g>
		</g>
		<g>
			<g>
				<path class="st3" d="M338.8,242.1c-1.6-0.5-1.6-0.5-3.1-0.9c-1.4-0.4-1.6-0.4-2.7-0.7"/>
				<path class="st175" d="M328.1,239c-0.5-0.2-0.8-0.4-1.8-0.6c-1.6-0.5-1.6-0.2-3.2-0.7c-1.6-0.5-1.5-0.7-3-1.1
					c-1.6-0.5-1.6-0.4-3.1-0.8c-1.3-0.4-1.5-0.4-2.4-0.7"/>
				<path class="st3" d="M313.4,234.7c-1.1-0.3-1.2-0.4-2.6-0.8c-1.6-0.5-1.6-0.3-3.2-0.8"/>
			</g>
		</g>
		<g>
			<g>
				<path class="st3" d="M338.5,239.6c-1.5-0.3-1.6-0.2-3.1-0.5c-1.4-0.3-1.5-0.4-2.8-0.6"/>
				<path class="st176" d="M327.9,237.2c-0.4-0.1-0.8-0.1-1.7-0.3c-1.5-0.3-1.6-0.1-3.1-0.5c-1.5-0.3-1.5-0.4-3.1-0.7
					c-1.5-0.3-1.5-0.4-3.1-0.7c-1.2-0.3-1.5-0.3-2.2-0.5"/>
				<path class="st3" d="M313.5,234.3c-1.2-0.3-1.3-0.3-2.8-0.6c-1.5-0.3-1.5-0.4-3.1-0.8"/>
			</g>
		</g>
		<g>
			<g>
				<path class="st3" d="M342.3,238.1c-1.6-0.2-1.6-0.1-3.2-0.4c-1.4-0.2-1.6-0.3-2.8-0.5"/>
				<path class="st177" d="M330.7,236.4c-0.3,0-0.6-0.1-1-0.1c-1.6-0.2-1.6-0.3-3.1-0.5c-1.6-0.2-1.6-0.4-3.1-0.6
					c-1.6-0.2-1.6,0-3.2-0.3c-1.6-0.2-1.6-0.2-3.2-0.5c-1.1-0.2-1.5-0.2-2.1-0.3"/>
				<path class="st3" d="M313.5,234c-1.2-0.2-1.3-0.3-2.7-0.6c-1.6-0.2-1.6-0.1-3.2-0.4"/>
			</g>
		</g>
		<g>
			<g>
				<path class="st3" d="M344.8,236.3c-1.5-0.1-1.5-0.1-3.1-0.3c-1.5-0.1-1.6-0.1-2.9-0.2"/>
				<path class="st178" d="M332.5,235.4c0,0-0.1,0-0.1,0c-1.5-0.1-1.5-0.2-3.1-0.3c-1.5-0.1-1.6-0.1-3.1-0.2
					c-1.5-0.1-1.5-0.2-3.1-0.3c-1.5-0.1-1.6-0.1-3.1-0.3c-1.6-0.1-1.5-0.3-3.1-0.4c-0.9-0.1-1.3-0.1-1.8-0.1"/>
				<path class="st3" d="M313.6,233.5c-1.3-0.1-1.4-0.2-2.9-0.3c-1.6-0.1-1.5-0.2-3.1-0.3"/>
			</g>
		</g>
		<g>
			<g>
				<path class="st3" d="M343.9,234c-1.5,0-1.5,0.1-3,0.1c-1.5,0-1.5-0.1-3-0.1"/>
				<path class="st179" d="M331.9,233.7C331.9,233.7,331.8,233.7,331.9,233.7c-1.5,0-1.5,0-3.1,0c-1.5,0-1.5,0.1-3,0
					c-1.5,0-1.5-0.1-3-0.1c-1.5,0-1.5-0.2-3-0.2c-1.5,0-1.5,0.1-3,0c-0.8,0-1.2-0.1-1.6-0.1"/>
				<path class="st3" d="M313.6,233.2c-1.4,0-1.5,0-3-0.1c-1.5,0-1.5,0-3-0.1"/>
			</g>
		</g>
		<g>
			<path class="st180" d="M343.5,232.3c-1.6,0-1.6-0.1-3.3-0.1c-1.6,0-1.6,0.2-3.3,0.3c-1.6,0-1.6,0.1-3.3,0.1
				c-1.6,0-1.6-0.1-3.3-0.1c-1.6,0-1.6,0-3.3,0c-1.6,0-1.6,0.3-3.3,0.3c-1.6,0-1.6-0.1-3.3,0c-1.6,0-1.6,0-3.3,0
				c-1.6,0-1.6,0.1-3.3,0.1c-1.6,0-1.6-0.1-3.3-0.1c-1.6,0-1.6,0.1-3.3,0.1"/>
		</g>
		<g>
			<path class="st181" d="M340.2,230.3c-1.6,0.1-1.6,0.3-3.2,0.5c-1.6,0.1-1.6,0-3.3,0.1c-1.6,0.1-1.6,0.2-3.3,0.4
				c-1.6,0.1-1.6,0-3.3,0.1c-1.6,0.1-1.6,0.1-3.3,0.2c-1.6,0.1-1.6,0.3-3.3,0.4c-1.6,0.1-1.6,0-3.3,0.2c-1.6,0.1-1.6,0.2-3.3,0.3
				c-1.6,0.1-1.6,0.3-3.3,0.4c-1.6,0.1-1.6,0-3.3,0.2"/>
		</g>
		<g>
			<g>
				<path class="st3" d="M339.3,228c-1.6,0.2-1.6,0.2-3.2,0.4c-1.4,0.2-1.6,0.3-2.7,0.5"/>
				<path class="st182" d="M328.4,229.8c-0.5,0.1-0.8,0.2-1.8,0.4c-1.6,0.2-1.6,0.2-3.2,0.5c-1.6,0.2-1.6,0.2-3.2,0.5
					c-1.6,0.2-1.6,0.3-3.2,0.5c-1.3,0.2-1.5,0.2-2.4,0.3"/>
				<path class="st3" d="M313.5,232.1c-1.2,0.2-1.3,0.1-2.8,0.4c-1.6,0.2-1.6,0.4-3.2,0.7"/>
			</g>
		</g>
		<g>
			<g>
				<path class="st3" d="M337.5,226.1c-1.5,0.3-1.5,0.4-3,0.7c-1.5,0.3-1.5,0.3-2.9,0.6"/>
				<path class="st183" d="M327.1,228.6c-0.4,0.1-0.7,0.3-1.5,0.5c-1.5,0.3-1.5,0.2-3,0.5c-1.5,0.3-1.5,0.3-3,0.6
					c-1.5,0.3-1.4,0.5-2.9,0.9c-1.1,0.2-1.4,0.3-2,0.4"/>
				<path class="st3" d="M313.5,231.8c-1.4,0.3-1.4,0.4-2.8,0.7c-1.5,0.3-1.5,0.3-3,0.6"/>
			</g>
		</g>
		<g>
			<path class="st184" d="M336.5,225.4c-1.4,0.4-1.5,0.2-2.9,0.6c-1.4,0.4-1.4,0.4-2.9,0.8c-1.4,0.4-1.4,0.4-2.9,0.8
				c-1.4,0.4-1.4,0.5-2.9,0.9c-1.4,0.4-1.4,0.4-2.9,0.8c-1.4,0.4-1.5,0.2-2.9,0.6c-1.4,0.4-1.4,0.5-2.9,0.8
				c-1.4,0.4-1.4,0.4-2.9,0.8c-1.4,0.4-1.5,0.3-2.9,0.7c-1.4,0.4-1.4,0.4-2.9,0.8"/>
		</g>
		<g>
			<g>
				<path class="st3" d="M333.4,222.1c-1.4,0.6-1.4,0.7-2.8,1.3c-1.4,0.6-1.4,0.6-2.7,1.1"/>
				<path class="st185" d="M324.3,226.2c-0.9,0.3-1.1,0.4-2.3,0.9c-1.4,0.6-1.5,0.5-2.9,1.1c-1.4,0.6-1.4,0.6-2.9,1.2
					c-1.2,0.5-1.4,0.6-2.1,1"/>
				<path class="st3" d="M313.1,230.8c-1.2,0.5-1.3,0.5-2.7,1c-1.4,0.6-1.4,0.7-2.9,1.3"/>
			</g>
		</g>
		<g>
			<g>
				<path class="st3" d="M331.7,220.5c-1.3,0.7-1.3,0.8-2.6,1.5c-1.3,0.7-1.4,0.6-2.7,1.3"/>
				<path class="st186" d="M323,225c-0.7,0.4-0.9,0.5-2,1.1c-1.3,0.7-1.3,0.7-2.7,1.4c-1.3,0.7-1.3,0.7-2.7,1.4
					c-1,0.5-1.3,0.5-2,0.8"/>
				<path class="st3" d="M312.8,230.2c-1.3,0.7-1.2,0.9-2.5,1.6c-1.3,0.7-1.5,0.5-2.8,1.2"/>
			</g>
		</g>
		<g>
			<g>
				<path class="st3" d="M330,218.8c-1.4,0.9-1.5,0.7-2.9,1.6c-1.2,0.8-1.4,0.9-2.2,1.5"/>
				<path class="st187" d="M321.9,223.9c-0.1,0.1-0.2,0.1-0.3,0.2c-1.4,0.9-1.4,0.8-2.8,1.7c-1.4,0.9-1.4,0.9-2.8,1.8
					c-1.3,0.8-1.4,0.9-2.6,1.6"/>
				<path class="st3" d="M312.6,229.8c-0.9,0.6-1,0.7-2.2,1.5c-1.4,0.9-1.3,1-2.7,1.9"/>
			</g>
		</g>
		<g>
			<g>
				<path class="st3" d="M328.1,218c-1.3,0.9-1.4,0.8-2.6,1.8c-1.2,0.9-1.2,1-2.2,1.7"/>
				<path class="st188" d="M320.5,223.5c0,0-0.1,0.1-0.1,0.1c-1.3,0.9-1.3,0.9-2.6,1.8c-1.3,0.9-1.2,1-2.5,1.9
					c-1.1,0.8-1.3,0.9-2.2,1.5"/>
				<path class="st3" d="M312.4,229.4c-1,0.7-1,1-2.1,1.8c-1.3,0.9-1.4,0.8-2.7,1.8"/>
			</g>
		</g>
		<g>
			<g>
				<path class="st3" d="M326.3,217c-1.2,1-1.1,1.1-2.3,2.1c-1.1,1-1.1,1-2.2,1.9"/>
				<path class="st189" d="M319.3,222.9C319.3,222.9,319.3,223,319.3,222.9c-1.2,1-1.2,1.1-2.4,2.1c-1.2,1-1.1,1.1-2.3,2.1
					c-1,0.8-1.2,1-1.9,1.6"/>
				<path class="st3" d="M312.2,229.2c-1,0.9-1.1,0.9-2.2,1.9c-1.2,1-1.1,1.1-2.3,2.1"/>
			</g>
		</g>
		<g>
			<path class="st190" d="M326.6,250.7c-1.2-1.1-1.2-1.1-2.4-2.2c-1.2-1.1-1.2-1.1-2.3-2.2c-1.2-1.1-1.2-1.1-2.3-2.2
				c-1.2-1.1-1.2-1.1-2.4-2.2c-1.2-1.1-1.2-1.1-2.4-2.2c-1.2-1.1-1.2-1.1-2.4-2.2c-1.2-1.1-1.2-1.1-2.4-2.2
				c-1.2-1.1-1.2-1.1-2.4-2.2"/>
		</g>
		<g>
			<g>
				<path class="st3" d="M301.3,251.2c0.5-1.5,0.5-1.5,1-3c0.5-1.4,0.7-1.4,1.1-2.6"/>
				<path class="st191" d="M304,243.9c0.2-0.4,0.3-0.8,0.6-1.7c0.5-1.5,0.5-1.5,1-3"/>
				<path class="st3" d="M305.8,238.8c0.4-1.1,0.3-1.3,0.7-2.7c0.5-1.5,0.7-1.5,1.2-3"/>
			</g>
		</g>
		<g>
			<path class="st192" d="M326.9,215.6c-1.2,1.1-1.3,1-2.5,2.1c-1.2,1.1-1.1,1.2-2.3,2.3c-1.2,1.1-1.3,1-2.5,2.1
				c-1.2,1.1-1.2,1.1-2.4,2.2c-1.2,1.1-1.1,1.2-2.3,2.3c-1.2,1.1-1.3,1-2.5,2.1c-1.2,1.1-1.2,1.2-2.4,2.2c-1.2,1.1-1.2,1.1-2.4,2.2"
				/>
		</g>
		<g>
			<g>
				<path class="st3" d="M323.2,217.6c-1.1,1.1-1.1,1.1-2.2,2.2c-1,1-1.2,1-2.2,1.9"/>
				<path class="st193" d="M317.1,223.5c-0.2,0.2-0.4,0.4-0.6,0.6c-1.1,1.1-1.1,1.1-2.3,2.2c-1,1-1.1,1.1-2,2"/>
				<path class="st3" d="M311.8,228.7c-0.9,0.9-0.9,1.1-1.9,2.1c-1.1,1.1-1.2,1.1-2.3,2.2"/>
			</g>
		</g>
		<g>
			<g>
				<path class="st3" d="M321.6,218.8c-1.2,1.2-1.2,1.2-2.3,2.3c-1,1-1.2,1.1-1.9,1.9"/>
				<path class="st194" d="M315.9,224.5c-0.4,0.4-0.6,0.7-1.4,1.4c-1.2,1.2-1.1,1.2-2.3,2.4c0,0-0.1,0.1-0.1,0.1"/>
				<path class="st3" d="M311.8,228.8c-0.7,0.7-0.9,0.9-1.9,1.9c-1.2,1.2-1.2,1.1-2.4,2.3"/>
			</g>
		</g>
		<g>
			<g>
				<path class="st3" d="M333.1,224.4c-1.4,0.5-1.4,0.5-2.8,0.9c-1.4,0.5-1.4,0.7-2.8,1.1c0,0,0,0,0,0"/>
				<path class="st195" d="M323.9,227.5c-0.8,0.3-1,0.3-2.1,0.7c-1.4,0.5-1.4,0.7-2.8,1.1c-1.4,0.5-1.5,0.3-2.9,0.8
					c-1,0.3-1.3,0.5-1.9,0.7"/>
				<path class="st3" d="M313.3,231.1c-1.4,0.5-1.4,0.4-2.9,0.9c-1.4,0.5-1.4,0.5-2.8,1"/>
			</g>
		</g>
		<g>
			<g>
				<path class="st3" d="M330.1,243c-1.4-0.6-1.4-0.6-2.8-1.2c-1.4-0.6-1.3-0.8-2.6-1.4"/>
				<path class="st196" d="M321.8,239.2C321.8,239.2,321.8,239.2,321.8,239.2c-1.5-0.7-1.5-0.6-2.9-1.2c-1.4-0.6-1.4-0.6-2.8-1.2
					c-1.2-0.5-1.4-0.6-2.3-1"/>
				<path class="st3" d="M313.1,235.5c-1.3-0.6-1.3-0.6-2.7-1.2c-1.4-0.6-1.4-0.8-2.8-1.4"/>
			</g>
		</g>
		<g>
			<g>
				<path class="st3" d="M317.5,254.1c-0.7-1.5-0.7-1.5-1.4-3c-0.6-1.3-0.6-1.5-1.1-2.5"/>
				<path class="st197" d="M313.7,246.1c-0.1-0.3-0.3-0.6-0.5-1c-0.7-1.5-0.8-1.5-1.5-3c-0.7-1.5-0.6-1.5-1.3-3"/>
				<path class="st3" d="M310.1,238.5c-0.5-0.9-0.6-1.1-1.2-2.4c-0.7-1.5-0.6-1.6-1.3-3.1"/>
			</g>
		</g>
		<g>
			<g>
				<path class="st3" d="M316.1,256.8c-0.5-1.5-0.5-1.5-1.1-3c-0.5-1.4-0.7-1.4-1.1-2.6"/>
				<path class="st198" d="M312.9,248c0,0,0-0.1,0-0.1c-0.5-1.5-0.5-1.5-1-3c-0.5-1.5-0.5-1.5-1.1-3c-0.5-1.3-0.5-1.5-0.9-2.5"/>
				<path class="st3" d="M309.6,238.7c-0.4-1.2-0.6-1.3-1.1-2.6c-0.5-1.5-0.4-1.5-0.9-3"/>
			</g>
		</g>
		<g>
			<g>
				<path class="st3" d="M316.2,248.2c-0.7-1.3-0.7-1.3-1.4-2.5c-0.7-1.3-0.9-1.2-1.6-2.4c0-0.1-0.1-0.1-0.1-0.2"/>
				<path class="st199" d="M312.5,241.9c-0.2-0.3-0.4-0.6-0.7-1.2c-0.6-1.1-0.5-1.3-1-2.2"/>
				<path class="st3" d="M310.6,238.2c0,0-0.1-0.1-0.1-0.1c-0.7-1.3-0.9-1.2-1.6-2.5c-0.7-1.3-0.6-1.3-1.4-2.6"/>
			</g>
		</g>
		<g>
			<path class="st200" d="M324.4,243.8c-1.4-0.9-1.4-0.9-2.8-1.8c-1.4-0.9-1.4-0.9-2.8-1.8c-1.4-0.9-1.4-0.9-2.8-1.8
				c-1.4-0.9-1.3-1.1-2.7-2c-1.4-0.9-1.4-0.9-2.8-1.8c-1.4-0.9-1.5-0.8-2.9-1.7"/>
		</g>
		<g>
			<g>
				<path class="st3" d="M322.4,248.7c-1.1-1.1-1.1-1.1-2.1-2.2c-1-1.1-1-1.2-1.9-2.2"/>
				<path class="st201" d="M316.7,242.6c-0.2-0.2-0.3-0.4-0.6-0.6c-1.1-1.1-1-1.2-2.1-2.3c-1-1-1.1-1.1-1.9-1.9"/>
				<path class="st3" d="M311.7,237.4c-0.9-1-1-1-2.1-2c-1.1-1.1-1-1.2-2-2.3"/>
			</g>
		</g>
		<g>
			<g>
				<path class="st3" d="M292.4,247.9c1.1-1.1,1.2-1,2.3-2c1.1-1,1-1.1,2-2.2"/>
				<path class="st202" d="M298.4,242.1c0.2-0.2,0.3-0.3,0.6-0.6c1.1-1.1,1-1.1,2.1-2.2c0.9-0.9,1.1-1,1.9-1.7"/>
				<path class="st3" d="M303.3,237.2c1-1,1-1,2.1-2.1c1.1-1.1,1-1.1,2.1-2.2"/>
			</g>
		</g>
		<g>
			<g>
				<path class="st3" d="M290.5,250.5c1.1-1.1,1.1-1,2.2-2.1c1-1.1,0.9-1.2,1.9-2.2"/>
				<path class="st203" d="M296.8,244C296.8,244,296.8,244,296.8,244c1.1-1.1,1.1-1.1,2.2-2.2c1.1-1.1,1.1-1,2.2-2.1
					c0.9-0.9,1-1.1,1.6-1.8"/>
				<path class="st3" d="M303.4,237.3c1-1,1-1,2-2.1c1.1-1.1,1.1-1,2.2-2.1"/>
			</g>
		</g>
	</g>
</g>
<rect x="222" y="222" class="st204" width="68" height="60.1"/>
<path class="st205" d="M126.8,191.7h53.8c31.4,0,50.5,18.6,50.5,45.6v0.4c0,30.5-23.7,46.3-53.3,46.3h-22v39.5h-29V191.7z
	 M178.7,258.2c14.5,0,23-8.7,23-19.9v-0.4c0-13-9.1-19.9-23.5-19.9h-22.4v40.3H178.7z"/>
<path class="st205" d="M283.8,191.7h29v52.1h53.5v-52.1h29v131.8h-29v-52.9h-53.5v52.9h-29V191.7z"/>
</svg>
