<?xml version="1.0" encoding="utf-8"?>
<!-- Generator: Adobe Illustrator 19.1.0, SVG Export Plug-In . SVG Version: 6.00 Build 0)  -->
<svg version="1.1" id="Layer_1" xmlns="http://www.w3.org/2000/svg" xmlns:xlink="http://www.w3.org/1999/xlink" x="0px" y="0px"
	 viewBox="-187 149.8 56.8 9.2" style="enable-background:new -187 149.8 56.8 9.2;" xml:space="preserve">
<style type="text/css">
	.st0{display:none;}
	.st1{display:inline;}
	.st2{fill:none;stroke:#2B3990;stroke-width:0.25;stroke-miterlimit:10;stroke-dasharray:37.994;}
	.st3{fill:none;stroke:#2B3990;stroke-width:0.25;stroke-miterlimit:10;}
	.st4{fill:none;stroke:#2B3990;stroke-width:0.25;stroke-miterlimit:10;stroke-dasharray:4.5703,2.2852,10.2832,3.4277;}
	.st5{fill:none;stroke:#2B3990;stroke-width:0.25;stroke-miterlimit:10;stroke-dasharray:4.2875,2.1438,9.6469,3.2156;}
	.st6{fill:none;stroke:#2B3990;stroke-width:0.25;stroke-miterlimit:10;stroke-dasharray:4.0285,2.0143,9.0642,3.0214;}
	.st7{fill:none;stroke:#2B3990;stroke-width:0.25;stroke-miterlimit:10;stroke-dasharray:34.5327;}
	.st8{fill:none;stroke:#2B3990;stroke-width:0.25;stroke-miterlimit:10;stroke-dasharray:33.0441;}
	.st9{fill:none;stroke:#2B3990;stroke-width:0.25;stroke-miterlimit:10;stroke-dasharray:3.3715,1.6858,7.586,2.5287;}
	.st10{fill:none;stroke:#2B3990;stroke-width:0.25;stroke-miterlimit:10;stroke-dasharray:3.2092,1.6046,7.2207,2.4069;}
	.st11{fill:none;stroke:#2B3990;stroke-width:0.25;stroke-miterlimit:10;stroke-dasharray:30.477;}
	.st12{fill:none;stroke:#2B3990;stroke-width:0.25;stroke-miterlimit:10;stroke-dasharray:30.0505;}
	.st13{fill:none;stroke:#2B3990;stroke-width:0.25;stroke-miterlimit:10;stroke-dasharray:2.9515,1.4758,6.6409,2.2136;}
	.st14{fill:none;stroke:#2B3990;stroke-width:0.25;stroke-miterlimit:10;stroke-dasharray:2.9324,1.4662,6.598,2.1993;}
	.st15{fill:none;stroke:#2B3990;stroke-width:0.25;stroke-miterlimit:10;stroke-dasharray:29.6664;}
	.st16{fill:none;stroke:#2B3990;stroke-width:0.25;stroke-miterlimit:10;stroke-dasharray:30.183;}
	.st17{fill:none;stroke:#2B3990;stroke-width:0.25;stroke-miterlimit:10;stroke-dasharray:3.14,1.57,7.065,2.355;}
	.st18{fill:none;stroke:#2B3990;stroke-width:0.25;stroke-miterlimit:10;stroke-dasharray:3.2647,1.6324,7.3457,2.4486;}
	.st19{fill:none;stroke:#2B3990;stroke-width:0.25;stroke-miterlimit:10;stroke-dasharray:3.3984,1.6992,7.6464,2.5488;}
	.st20{fill:none;stroke:#2B3990;stroke-width:0.25;stroke-miterlimit:10;stroke-dasharray:3.5937,1.7968,8.0857,2.6953;}
	.st21{fill:none;stroke:#2B3990;stroke-width:0.25;stroke-miterlimit:10;stroke-dasharray:3.7397,1.8699,8.4143,2.8048;}
	.st22{fill:none;stroke:#2B3990;stroke-width:0.25;stroke-miterlimit:10;stroke-dasharray:33.6941;}
	.st23{fill:none;stroke:#2B3990;stroke-width:0.25;stroke-miterlimit:10;stroke-dasharray:3.3175,1.6588,7.4644,2.4881;}
	.st24{fill:none;stroke:#2B3990;stroke-width:0.25;stroke-miterlimit:10;stroke-dasharray:2.911,1.4555,6.5497,2.1832;}
	.st25{fill:none;stroke:#2B3990;stroke-width:0.25;stroke-miterlimit:10;stroke-dasharray:2.592,1.296,5.8319,1.944;}
	.st26{fill:none;stroke:#2B3990;stroke-width:0.25;stroke-miterlimit:10;stroke-dasharray:2.2853,1.1426,5.1419,1.714;}
	.st27{fill:none;stroke:#2B3990;stroke-width:0.25;stroke-miterlimit:10;stroke-dasharray:1.9892,0.9946,4.4758,1.4919;}
	.st28{fill:none;stroke:#2B3990;stroke-width:0.25;stroke-miterlimit:10;stroke-dasharray:1.7532,0.8766,3.9448,1.3149;}
	.st29{fill:none;stroke:#2B3990;stroke-width:0.25;stroke-miterlimit:10;stroke-dasharray:1.5529,0.7764,3.494,1.1647;}
	.st30{fill:none;stroke:#2B3990;stroke-width:0.25;stroke-miterlimit:10;stroke-dasharray:1.4402,0.7201,3.2405,1.0802;}
	.st31{fill:none;stroke:#2B3990;stroke-width:0.25;stroke-miterlimit:10;stroke-dasharray:1.3121,0.6561,2.9523,0.9841;}
	.st32{fill:none;stroke:#2B3990;stroke-width:0.25;stroke-miterlimit:10;stroke-dasharray:1.2233,0.6117,2.7525,0.9175;}
	.st33{fill:none;stroke:#2B3990;stroke-width:0.25;stroke-miterlimit:10;stroke-dasharray:1.1627,0.5813,2.6161,0.872;}
	.st34{fill:none;stroke:#2B3990;stroke-width:0.25;stroke-miterlimit:10;stroke-dasharray:1.1385,0.5693,2.5617,0.8539;}
	.st35{fill:none;stroke:#2B3990;stroke-width:0.25;stroke-miterlimit:10;stroke-dasharray:4.0208,2.0104,9.0467,3.0156;}
	.st36{fill:none;stroke:#2B3990;stroke-width:0.25;stroke-miterlimit:10;stroke-dasharray:34.298;}
	.st37{fill:none;stroke:#2B3990;stroke-width:0.25;stroke-miterlimit:10;stroke-dasharray:32.5189;}
	.st38{fill:none;stroke:#2B3990;stroke-width:0.25;stroke-miterlimit:10;stroke-dasharray:3.0846,1.5423,6.9403,2.3134;}
	.st39{fill:none;stroke:#2B3990;stroke-width:0.25;stroke-miterlimit:10;stroke-dasharray:2.9356,1.4678,6.605,2.2017;}
	
		.st40{fill:none;stroke:#2B3990;stroke-width:0.25;stroke-miterlimit:10;stroke-dasharray:1.3695,0.1956,2.5433,1.4673,1.9564,1.3695;}
	.st41{fill:none;stroke:#2B3990;stroke-width:0.25;stroke-miterlimit:10;stroke-dasharray:27.826;}
	.st42{fill:none;stroke:#2B3990;stroke-width:0.25;stroke-miterlimit:10;stroke-dasharray:2.6096,1.3048,5.8716,1.9572;}
	.st43{fill:none;stroke:#2B3990;stroke-width:0.25;stroke-miterlimit:10;stroke-dasharray:27.0074;}
	.st44{fill:none;stroke:#2B3990;stroke-width:0.25;stroke-miterlimit:10;stroke-dasharray:2.4808,1.2404,5.5818,1.8606;}
	.st45{fill:none;stroke:#2B3990;stroke-width:0.25;stroke-miterlimit:10;stroke-dasharray:29.0323;}
	.st46{fill:none;stroke:#2B3990;stroke-width:0.25;stroke-miterlimit:10;stroke-dasharray:2.6363,1.3182,5.9317,1.9772;}
	.st47{fill:none;stroke:#2B3990;stroke-width:0.25;stroke-miterlimit:10;stroke-dasharray:3.1408,1.5704,7.0669,2.3556;}
	.st48{fill:none;stroke:#2B3990;stroke-width:0.25;stroke-miterlimit:10;stroke-dasharray:3.2629,1.6314,7.3414,2.4471;}
	.st49{fill:none;stroke:#2B3990;stroke-width:0.25;stroke-miterlimit:10;stroke-dasharray:3.35,1.675,7.5375,2.5125;}
	.st50{fill:none;stroke:#2B3990;stroke-width:0.25;stroke-miterlimit:10;stroke-dasharray:3.4293,1.7147,7.716,2.572;}
	.st51{fill:none;stroke:#2B3990;stroke-width:0.25;stroke-miterlimit:10;stroke-dasharray:8.0921,1.7282,1.156011e-02,8.0863;}
	.st52{fill:none;stroke:#2B3990;stroke-width:0.25;stroke-miterlimit:10;stroke-dasharray:1.5331,0.7666,3.4495,1.1498;}
	.st53{fill:none;stroke:#2B3990;stroke-width:0.25;stroke-miterlimit:10;stroke-dasharray:1.901,0.9505,4.2772,1.4257;}
	.st54{fill:none;stroke:#2B3990;stroke-width:0.25;stroke-miterlimit:10;stroke-dasharray:22.6673;}
	.st55{fill:none;stroke:#2B3990;stroke-width:0.25;stroke-miterlimit:10;stroke-dasharray:27.0097;}
	.st56{fill:none;stroke:#2B3990;stroke-width:0.25;stroke-miterlimit:10;stroke-dasharray:10.3915,2.2193,1.484494e-02,10.384;}
	.st57{fill:none;stroke:#2B3990;stroke-width:0.25;stroke-miterlimit:10;stroke-dasharray:19.3793;}
	.st58{fill:none;stroke:#2B3990;stroke-width:0.25;stroke-miterlimit:10;stroke-dasharray:0.9777,0.4889,2.1999,0.7333;}
	.st59{fill:none;stroke:#2B3990;stroke-width:0.25;stroke-miterlimit:10;stroke-dasharray:0.6298,0.3149,1.417,0.4723;}
	.st60{fill:none;stroke:#2B3990;stroke-width:0.25;stroke-miterlimit:10;stroke-dasharray:1.0129,0.5065,2.2791,0.7597;}
	.st61{fill:none;stroke:#2B3990;stroke-width:0.25;stroke-miterlimit:10;stroke-dasharray:0.9989,0.4995,2.2476,0.7492;}
	.st62{fill:none;stroke:#2B3990;stroke-width:0.25;stroke-miterlimit:10;stroke-dasharray:3.0225,1.5112,6.8006,2.2669;}
	.st63{fill:none;stroke:#2B3990;stroke-width:0.25;stroke-miterlimit:10;stroke-dasharray:27.3532;}
	.st64{fill:none;stroke:#2B3990;stroke-width:0.25;stroke-miterlimit:10;stroke-dasharray:27.8257;}
	.st65{fill:none;stroke:#2B3990;stroke-width:0.25;stroke-miterlimit:10;stroke-dasharray:1.9794,0.9897,4.4537,1.4846;}
	.st66{fill:none;stroke:#2B3990;stroke-width:0.25;stroke-miterlimit:10;stroke-dasharray:0.9868,0.4934,2.2203,0.7401;}
	.st67{fill:none;stroke:#2B3990;stroke-width:0.25;stroke-miterlimit:10;stroke-dasharray:2.603,1.3015,5.8569,1.9523;}
	.st68{fill:none;stroke:#2B3990;stroke-width:0.25;stroke-miterlimit:10;stroke-dasharray:2.4591,1.2295,5.5329,1.8443;}
	.st69{fill:none;stroke:#2B3990;stroke-width:0.25;stroke-miterlimit:10;stroke-dasharray:2.777,1.3885,6.2482,2.0827;}
	.st70{fill:none;stroke:#2B3990;stroke-width:0.25;stroke-miterlimit:10;stroke-dasharray:28.2347;}
	.st71{fill:none;stroke:#2B3990;stroke-width:0.25;stroke-miterlimit:10;stroke-dasharray:11.565,2.47,1.652144e-02,11.5567;}
	.st72{fill:none;stroke:#2B3990;stroke-width:0.25;stroke-miterlimit:10;stroke-dasharray:2.5109,1.2554,5.6495,1.8832;}
	.st73{fill:none;stroke:#2B3990;stroke-width:0.25;stroke-miterlimit:10;stroke-dasharray:28.6019;}
	.st74{fill:none;stroke:#2B3990;stroke-width:0.25;stroke-miterlimit:10;stroke-dasharray:3.0213,1.5107,6.798,2.266;}
	.st75{fill:none;stroke:#2B3990;stroke-width:0.25;stroke-miterlimit:10;stroke-dasharray:2.7126,1.3563,6.1033,2.0344;}
	.st76{fill:none;stroke:#2B3990;stroke-width:0.25;stroke-miterlimit:10;stroke-dasharray:1.2173,4.0577,3.0433,1.2173;}
	.st77{fill:none;stroke:#2B3990;stroke-width:0.25;stroke-miterlimit:10;stroke-dasharray:12.9619,2.7683,1.851698e-02,12.9526;}
	.st78{fill:none;stroke:#2B3990;stroke-width:0.25;stroke-miterlimit:10;stroke-dasharray:14.5408,3.1055,2.077258e-02,14.5304;}
	.st79{fill:none;stroke:#2B3990;stroke-width:0.25;stroke-miterlimit:10;stroke-dasharray:37.4722;}
	.st80{fill:none;stroke:#2B3990;stroke-width:0.25;stroke-miterlimit:10;stroke-dasharray:4.0777,2.0388,9.1748,3.0583;}
	.st81{fill:none;stroke:#2B3990;stroke-width:0.25;stroke-miterlimit:10;stroke-dasharray:4.0101,2.005,9.0226,3.0075;}
	.st82{fill:none;stroke:#2B3990;stroke-width:0.25;stroke-miterlimit:10;stroke-dasharray:13.4825,2.8795,1.926077e-02,13.4729;}
	.st83{fill:none;stroke:#2B3990;stroke-width:0.25;stroke-miterlimit:10;stroke-dasharray:3.3705,1.6852,7.5836,2.5279;}
	.st84{fill:none;stroke:#2B3990;stroke-width:0.25;stroke-miterlimit:10;stroke-dasharray:3.1301,1.5651,7.0428,2.3476;}
	.st85{fill:none;stroke:#2B3990;stroke-width:0.25;stroke-miterlimit:10;stroke-dasharray:30.0431;}
	.st86{fill:none;stroke:#2B3990;stroke-width:0.25;stroke-miterlimit:10;stroke-dasharray:11.3635,2.4269,1.623356e-02,11.3554;}
	.st87{fill:none;stroke:#2B3990;stroke-width:0.25;stroke-miterlimit:10;stroke-dasharray:10.9786,2.3447,1.568373e-02,10.9708;}
	.st88{fill:none;stroke:#2B3990;stroke-width:0.25;stroke-miterlimit:10;stroke-dasharray:26.6701;}
	.st89{fill:none;stroke:#2B3990;stroke-width:0.25;stroke-miterlimit:10;stroke-dasharray:2.3799,1.19,5.3548,1.7849;}
	.st90{fill:none;stroke:#2B3990;stroke-width:0.25;stroke-miterlimit:10;stroke-dasharray:2.1821,1.0911,4.9098,1.6366;}
	.st91{fill:none;stroke:#2B3990;stroke-width:0.25;stroke-miterlimit:10;stroke-dasharray:26.0402;}
	.st92{fill:none;stroke:#2B3990;stroke-width:0.25;stroke-miterlimit:10;stroke-dasharray:7.31,1.5612,1.044292e-02,7.3048;}
	.st93{fill:none;stroke:#2B3990;stroke-width:0.25;stroke-miterlimit:10;stroke-dasharray:10.4172,2.2248,1.488169e-02,10.4097;}
	.st94{fill:none;stroke:#2B3990;stroke-width:0.25;stroke-miterlimit:10;stroke-dasharray:8.981,1.9181,1.282996e-02,8.9746;}
	.st95{fill:none;stroke:#2B3990;stroke-width:0.25;stroke-miterlimit:10;stroke-dasharray:8.7718,1.8734,1.253118e-02,8.7656;}
	.st96{fill:none;stroke:#2B3990;stroke-width:0.25;stroke-miterlimit:10;stroke-dasharray:8.4449,1.8036,1.206419e-02,8.4389;}
	.st97{fill:none;stroke:#2B3990;stroke-width:0.25;stroke-miterlimit:10;stroke-dasharray:1.401,0.7005,3.1524,1.0508;}
	.st98{fill:none;stroke:#2B3990;stroke-width:0.25;stroke-miterlimit:10;stroke-dasharray:9.1567,1.9556,1.308096e-02,9.1501;}
	.st99{fill:none;stroke:#2B3990;stroke-width:0.25;stroke-miterlimit:10;stroke-dasharray:8.2816,1.7687,1.183079e-02,8.2756;}
	.st100{fill:none;stroke:#2B3990;stroke-width:0.25;stroke-miterlimit:10;stroke-dasharray:7.3145,1.5622,1.044928e-02,7.3093;}
	.st101{fill:none;stroke:#2B3990;stroke-width:0.25;stroke-miterlimit:10;stroke-dasharray:25.6138;}
	.st102{fill:none;stroke:#2B3990;stroke-width:0.25;stroke-miterlimit:10;stroke-dasharray:4.3174,2.1587,9.7141,3.238;}
	.st103{fill:none;stroke:#2B3990;stroke-width:0.25;stroke-miterlimit:10;stroke-dasharray:39.3202;}
	.st104{fill:none;stroke:#2B3990;stroke-width:0.25;stroke-miterlimit:10;stroke-dasharray:37.6234;}
	.st105{fill:none;stroke:#2B3990;stroke-width:0.25;stroke-miterlimit:10;stroke-dasharray:36.0578;}
	.st106{fill:none;stroke:#2B3990;stroke-width:0.25;stroke-miterlimit:10;stroke-dasharray:34.4399;}
	.st107{fill:none;stroke:#2B3990;stroke-width:0.25;stroke-miterlimit:10;stroke-dasharray:32.9516;}
	.st108{fill:none;stroke:#2B3990;stroke-width:0.25;stroke-miterlimit:10;stroke-dasharray:32.1354;}
	.st109{fill:none;stroke:#2B3990;stroke-width:0.25;stroke-miterlimit:10;stroke-dasharray:3.196,1.598,7.1911,2.397;}
	.st110{fill:none;stroke:#2B3990;stroke-width:0.25;stroke-miterlimit:10;stroke-dasharray:3.0685,1.5342,6.9041,2.3014;}
	.st111{fill:none;stroke:#2B3990;stroke-width:0.25;stroke-miterlimit:10;stroke-dasharray:2.9945,1.4972,6.7376,2.2459;}
	.st112{fill:none;stroke:#2B3990;stroke-width:0.25;stroke-miterlimit:10;stroke-dasharray:2.9388,1.4694,6.6122,2.2041;}
	.st113{fill:none;stroke:#2B3990;stroke-width:0.25;stroke-miterlimit:10;stroke-dasharray:29.5472;}
	.st114{fill:none;stroke:#2B3990;stroke-width:0.25;stroke-miterlimit:10;stroke-dasharray:29.6256;}
	.st115{fill:none;stroke:#2B3990;stroke-width:0.25;stroke-miterlimit:10;stroke-dasharray:30.1374;}
	.st116{fill:none;stroke:#2B3990;stroke-width:0.25;stroke-miterlimit:10;stroke-dasharray:3.1321,1.5661,7.0472,2.3491;}
	.st117{fill:none;stroke:#2B3990;stroke-width:0.25;stroke-miterlimit:10;stroke-dasharray:3.2578,1.6289,7.33,2.4433;}
	.st118{fill:none;stroke:#2B3990;stroke-width:0.25;stroke-miterlimit:10;stroke-dasharray:3.3965,1.6983,7.6422,2.5474;}
	.st119{fill:none;stroke:#2B3990;stroke-width:0.25;stroke-miterlimit:10;stroke-dasharray:3.5905,1.7953,8.0787,2.6929;}
	.st120{fill:none;stroke:#2B3990;stroke-width:0.25;stroke-miterlimit:10;stroke-dasharray:3.7329,1.8664,8.399,2.7997;}
	.st121{fill:none;stroke:#2B3990;stroke-width:0.25;stroke-miterlimit:10;stroke-dasharray:33.6885;}
	.st122{fill:none;stroke:#2B3990;stroke-width:0.25;stroke-miterlimit:10;stroke-dasharray:3.3174,1.6587,7.4641,2.488;}
	.st123{fill:none;stroke:#2B3990;stroke-width:0.25;stroke-miterlimit:10;stroke-dasharray:2.9102,1.4551,6.5479,2.1826;}
	.st124{fill:none;stroke:#2B3990;stroke-width:0.25;stroke-miterlimit:10;stroke-dasharray:2.5908,1.2954,5.8293,1.9431;}
	.st125{fill:none;stroke:#2B3990;stroke-width:0.25;stroke-miterlimit:10;stroke-dasharray:2.2877,1.1438,5.1473,1.7158;}
	.st126{fill:none;stroke:#2B3990;stroke-width:0.25;stroke-miterlimit:10;stroke-dasharray:1.9939,0.9969,4.4863,1.4954;}
	.st127{fill:none;stroke:#2B3990;stroke-width:0.25;stroke-miterlimit:10;stroke-dasharray:22.5578;}
	.st128{fill:none;stroke:#2B3990;stroke-width:0.25;stroke-miterlimit:10;stroke-dasharray:1.5605,0.7803,3.5112,1.1704;}
	.st129{fill:none;stroke:#2B3990;stroke-width:0.25;stroke-miterlimit:10;stroke-dasharray:20.692;}
	.st130{fill:none;stroke:#2B3990;stroke-width:0.25;stroke-miterlimit:10;stroke-dasharray:19.9225;}
	.st131{fill:none;stroke:#2B3990;stroke-width:0.25;stroke-miterlimit:10;stroke-dasharray:19.3949;}
	.st132{fill:none;stroke:#2B3990;stroke-width:0.25;stroke-miterlimit:10;stroke-dasharray:1.1688,0.5844,2.6297,0.8766;}
	.st133{fill:none;stroke:#2B3990;stroke-width:0.25;stroke-miterlimit:10;stroke-dasharray:18.8984;}
	.st134{fill:none;stroke:#2B3990;stroke-width:0.25;stroke-miterlimit:10;stroke-dasharray:4.0056,2.0028,9.0126,3.0042;}
	.st135{fill:none;stroke:#2B3990;stroke-width:0.25;stroke-miterlimit:10;stroke-dasharray:34.2167;}
	.st136{fill:none;stroke:#2B3990;stroke-width:0.25;stroke-miterlimit:10;stroke-dasharray:32.4283;}
	.st137{fill:none;stroke:#2B3990;stroke-width:0.25;stroke-miterlimit:10;stroke-dasharray:3.0672,1.5336,6.9013,2.3004;}
	.st138{fill:none;stroke:#2B3990;stroke-width:0.25;stroke-miterlimit:10;stroke-dasharray:2.9182,1.4591,6.5659,2.1886;}
	.st139{fill:none;stroke:#2B3990;stroke-width:0.25;stroke-miterlimit:10;stroke-dasharray:28.5034;}
	.st140{fill:none;stroke:#2B3990;stroke-width:0.25;stroke-miterlimit:10;stroke-dasharray:2.6226,1.3113,5.9008,1.9669;}
	.st141{fill:none;stroke:#2B3990;stroke-width:0.25;stroke-miterlimit:10;stroke-dasharray:27.581;}
	.st142{fill:none;stroke:#2B3990;stroke-width:0.25;stroke-miterlimit:10;stroke-dasharray:2.3411,1.1705,5.2675,1.7558;}
	.st143{fill:none;stroke:#2B3990;stroke-width:0.25;stroke-miterlimit:10;stroke-dasharray:2.4667,1.2334,5.5501,1.85;}
	.st144{fill:none;stroke:#2B3990;stroke-width:0.25;stroke-miterlimit:10;stroke-dasharray:2.8288,1.4144,6.3647,2.1216;}
	.st145{fill:none;stroke:#2B3990;stroke-width:0.25;stroke-miterlimit:10;stroke-dasharray:2.6294,1.3147,5.9162,1.9721;}
	.st146{fill:none;stroke:#2B3990;stroke-width:0.25;stroke-miterlimit:10;stroke-dasharray:3.1332,1.5666,7.0497,2.3499;}
	.st147{fill:none;stroke:#2B3990;stroke-width:0.25;stroke-miterlimit:10;stroke-dasharray:3.2604,1.6302,7.3358,2.4453;}
	.st148{fill:none;stroke:#2B3990;stroke-width:0.25;stroke-miterlimit:10;stroke-dasharray:32.0761;}
	.st149{fill:none;stroke:#2B3990;stroke-width:0.25;stroke-miterlimit:10;stroke-dasharray:3.4283,1.7142,7.7138,2.5713;}
	.st150{fill:none;stroke:#2B3990;stroke-width:0.25;stroke-miterlimit:10;stroke-dasharray:20.9528;}
	.st151{fill:none;stroke:#2B3990;stroke-width:0.25;stroke-miterlimit:10;stroke-dasharray:1.5356,0.7678,3.4551,1.1517;}
	.st152{fill:none;stroke:#2B3990;stroke-width:0.25;stroke-miterlimit:10;stroke-dasharray:1.903,0.9515,4.2818,1.4273;}
	.st153{fill:none;stroke:#2B3990;stroke-width:0.25;stroke-miterlimit:10;stroke-dasharray:22.6795;}
	.st154{fill:none;stroke:#2B3990;stroke-width:0.25;stroke-miterlimit:10;stroke-dasharray:27.024;}
	.st155{fill:none;stroke:#2B3990;stroke-width:0.25;stroke-miterlimit:10;stroke-dasharray:26.0185;}
	.st156{fill:none;stroke:#2B3990;stroke-width:0.25;stroke-miterlimit:10;stroke-dasharray:1.2371,0.6185,2.7834,0.9278;}
	.st157{fill:none;stroke:#2B3990;stroke-width:0.25;stroke-miterlimit:10;stroke-dasharray:17.9162;}
	.st158{fill:none;stroke:#2B3990;stroke-width:0.25;stroke-miterlimit:10;stroke-dasharray:0.6427,0.3213,1.4461,0.482;}
	.st159{fill:none;stroke:#2B3990;stroke-width:0.25;stroke-miterlimit:10;stroke-dasharray:1.0232,0.5116,2.3021,0.7674;}
	.st160{fill:none;stroke:#2B3990;stroke-width:0.25;stroke-miterlimit:10;stroke-dasharray:1.0093,0.5047,2.2709,0.757;}
	.st161{fill:none;stroke:#2B3990;stroke-width:0.25;stroke-miterlimit:10;stroke-dasharray:30.1092;}
	.st162{fill:none;stroke:#2B3990;stroke-width:0.25;stroke-miterlimit:10;stroke-dasharray:27.3089;}
	.st163{fill:none;stroke:#2B3990;stroke-width:0.25;stroke-miterlimit:10;stroke-dasharray:27.7632;}
	.st164{fill:none;stroke:#2B3990;stroke-width:0.25;stroke-miterlimit:10;stroke-dasharray:1.9818,0.9909,4.4591,1.4864;}
	.st165{fill:none;stroke:#2B3990;stroke-width:0.25;stroke-miterlimit:10;stroke-dasharray:0.9958,0.4979,2.2406,0.7469;}
	.st166{fill:none;stroke:#2B3990;stroke-width:0.25;stroke-miterlimit:10;stroke-dasharray:2.5928,1.2964,5.8339,1.9446;}
	.st167{fill:none;stroke:#2B3990;stroke-width:0.25;stroke-miterlimit:10;stroke-dasharray:2.4475,1.2237,5.5068,1.8356;}
	.st168{fill:none;stroke:#2B3990;stroke-width:0.25;stroke-miterlimit:10;stroke-dasharray:28.6067;}
	.st169{fill:none;stroke:#2B3990;stroke-width:0.25;stroke-miterlimit:10;stroke-dasharray:28.1694;}
	.st170{fill:none;stroke:#2B3990;stroke-width:0.25;stroke-miterlimit:10;stroke-dasharray:28.5354;}
	.st171{fill:none;stroke:#2B3990;stroke-width:0.25;stroke-miterlimit:10;stroke-dasharray:2.5019,1.2509,5.6292,1.8764;}
	.st172{fill:none;stroke:#2B3990;stroke-width:0.25;stroke-miterlimit:10;stroke-dasharray:28.5026;}
	.st173{fill:none;stroke:#2B3990;stroke-width:0.25;stroke-miterlimit:10;stroke-dasharray:30.0529;}
	.st174{fill:none;stroke:#2B3990;stroke-width:0.25;stroke-miterlimit:10;stroke-dasharray:2.6946,1.3473,6.0628,2.0209;}
	.st175{fill:none;stroke:#2B3990;stroke-width:0.25;stroke-miterlimit:10;stroke-dasharray:3.4165,1.7083,7.6872,2.5624;}
	.st176{fill:none;stroke:#2B3990;stroke-width:0.25;stroke-miterlimit:10;stroke-dasharray:3.2689,1.6345,7.3551,2.4517;}
	.st177{fill:none;stroke:#2B3990;stroke-width:0.25;stroke-miterlimit:10;stroke-dasharray:3.8501,1.925,8.6627,2.8876;}
	.st178{fill:none;stroke:#2B3990;stroke-width:0.25;stroke-miterlimit:10;stroke-dasharray:4.226,2.113,9.5086,3.1695;}
	.st179{fill:none;stroke:#2B3990;stroke-width:0.25;stroke-miterlimit:10;stroke-dasharray:4.062,2.031,9.1394,3.0465;}
	.st180{fill:none;stroke:#2B3990;stroke-width:0.25;stroke-miterlimit:10;stroke-dasharray:35.9751;}
	.st181{fill:none;stroke:#2B3990;stroke-width:0.25;stroke-miterlimit:10;stroke-dasharray:32.7593;}
	.st182{fill:none;stroke:#2B3990;stroke-width:0.25;stroke-miterlimit:10;stroke-dasharray:3.353,1.6765,7.5442,2.5147;}
	.st183{fill:none;stroke:#2B3990;stroke-width:0.25;stroke-miterlimit:10;stroke-dasharray:3.1131,1.5565,7.0044,2.3348;}
	.st184{fill:none;stroke:#2B3990;stroke-width:0.25;stroke-miterlimit:10;stroke-dasharray:29.9513;}
	.st185{fill:none;stroke:#2B3990;stroke-width:0.25;stroke-miterlimit:10;stroke-dasharray:2.6754,1.3377,6.0196,2.0065;}
	.st186{fill:none;stroke:#2B3990;stroke-width:0.25;stroke-miterlimit:10;stroke-dasharray:2.5407,1.2703,5.7166,1.9055;}
	.st187{fill:none;stroke:#2B3990;stroke-width:0.25;stroke-miterlimit:10;stroke-dasharray:2.4302,1.2151,5.468,1.8227;}
	.st188{fill:none;stroke:#2B3990;stroke-width:0.25;stroke-miterlimit:10;stroke-dasharray:2.2387,1.1194,5.0371,1.679;}
	.st189{fill:none;stroke:#2B3990;stroke-width:0.25;stroke-miterlimit:10;stroke-dasharray:2.1078,1.0539,4.7426,1.5809;}
	.st190{fill:none;stroke:#2B3990;stroke-width:0.25;stroke-miterlimit:10;stroke-dasharray:25.9303;}
	.st191{fill:none;stroke:#2B3990;stroke-width:0.25;stroke-miterlimit:10;stroke-dasharray:1.2049,0.6025,2.7111,0.9037;}
	.st192{fill:none;stroke:#2B3990;stroke-width:0.25;stroke-miterlimit:10;stroke-dasharray:25.9968;}
	.st193{fill:none;stroke:#2B3990;stroke-width:0.25;stroke-miterlimit:10;stroke-dasharray:1.6588,0.8294,3.7323,1.2441;}
	.st194{fill:none;stroke:#2B3990;stroke-width:0.25;stroke-miterlimit:10;stroke-dasharray:1.3279,0.664,2.9878,0.9959;}
	.st195{fill:none;stroke:#2B3990;stroke-width:0.25;stroke-miterlimit:10;stroke-dasharray:2.4985,1.2493,5.6217,1.8739;}
	.st196{fill:none;stroke:#2B3990;stroke-width:0.25;stroke-miterlimit:10;stroke-dasharray:2.1086,1.0543,4.7443,1.5814;}
	.st197{fill:none;stroke:#2B3990;stroke-width:0.25;stroke-miterlimit:10;stroke-dasharray:1.8708,0.9354,4.2092,1.4031;}
	.st198{fill:none;stroke:#2B3990;stroke-width:0.25;stroke-miterlimit:10;stroke-dasharray:2.1998,1.0999,4.9496,1.6499;}
	.st199{fill:none;stroke:#2B3990;stroke-width:0.25;stroke-miterlimit:10;stroke-dasharray:0.9144,0.4572,2.0575,0.6858;}
	.st200{fill:none;stroke:#2B3990;stroke-width:0.25;stroke-miterlimit:10;stroke-dasharray:20.0061;}
	.st201{fill:none;stroke:#2B3990;stroke-width:0.25;stroke-miterlimit:10;stroke-dasharray:1.5947,0.7973,3.588,1.196;}
	.st202{fill:none;stroke:#2B3990;stroke-width:0.25;stroke-miterlimit:10;stroke-dasharray:1.5406,0.7703,3.4663,1.1554;}
	.st203{fill:none;stroke:#2B3990;stroke-width:0.25;stroke-miterlimit:10;stroke-dasharray:2.0789,1.0394,4.6774,1.5591;}
	.st204{fill:#2B3990;}
	.st205{fill:#ED2626;}
	.st206{fill:none;}
	.st207{display:none;fill:#7E889D;}
	.st208{fill:#27AAE1;}
</style>
<g class="st0">
	<g class="st1">
		<g>
			<path class="st2" d="M-107.9,131.3c-1.6,0-1.6,0.1-3.2,0.1s-1.6,0-3.2,0s-1.6-0.1-3.2-0.1s-1.6,0.1-3.2,0.1s-1.6-0.1-3.2-0.1
				c-1.6,0-1.6,0.2-3.2,0.2c-1.6,0-1.6,0-3.2,0s-1.6-0.1-3.2-0.1c-1.6,0-1.6,0.1-3.2,0.1c-1.6,0-1.6,0.1-3.2,0.1s-1.6-0.1-3.2-0.1
				c-1.6,0-1.6,0-3.2,0"/>
		</g>
		<g>
			<g>
				<path class="st3" d="M-107.9,131.4c-1.5-0.1-1.5-0.2-3-0.3c-1.5-0.1-1.5,0-3-0.1"/>
				<path class="st4" d="M-120.7,130.4c-0.8,0-1.1,0.1-2.3,0c-1.5-0.1-1.5-0.2-3-0.3c-1.5-0.1-1.5-0.2-3-0.3c-1.5-0.1-1.5,0-3-0.1
					c-1.5-0.1-1.5,0-3-0.1s-1.5-0.3-3-0.4c-0.7,0-1.1,0-1.4,0"/>
				<path class="st3" d="M-141.2,129.3c-1.4-0.1-1.5-0.1-3-0.2c-1.5-0.1-1.5-0.3-3-0.4"/>
			</g>
		</g>
		<g>
			<g>
				<path class="st3" d="M-145.4,127c1.6,0.2,1.6,0,3.1,0.2s1.5,0.4,2.8,0.5"/>
				<path class="st5" d="M-133,128.4h0.1c1.6,0.2,1.6,0.2,3.1,0.3c1.5,0.1,1.6,0.2,3.1,0.4c1.6,0.2,1.6,0.2,3.1,0.4
					c1.6,0.2,1.6,0,3.1,0.2c1.6,0.2,1.5,0.3,3.1,0.5c0.9,0.1,1.3,0.2,1.8,0.3"/>
				<path class="st3" d="M-113.9,130.7c1.3,0.1,1.4,0,2.8,0.2c1.6,0.2,1.6,0.3,3.1,0.5"/>
			</g>
		</g>
		<g>
			<g>
				<path class="st3" d="M-143.5,125.2c1.5,0.3,1.5,0.2,3,0.4c1.5,0.3,1.5,0.4,2.9,0.7"/>
				<path class="st6" d="M-131.6,127.1L-131.6,127.1c1.5,0.3,1.5,0.5,2.9,0.7c1.5,0.3,1.5,0.1,3,0.3c1.5,0.3,1.5,0.4,2.9,0.7
					c1.5,0.3,1.5,0.2,3,0.5s1.5,0.3,3,0.5c0.8,0.1,1.1,0.2,1.5,0.2"/>
				<path class="st3" d="M-113.8,130.3c1.5,0.3,1.5,0.2,3,0.4c1.5,0.3,1.5,0.3,3,0.5"/>
			</g>
		</g>
		<g>
			<path class="st7" d="M-141.4,122.9c1.5,0.4,1.5,0.5,3,0.9s1.6,0.2,3.1,0.6s1.5,0.5,3,0.8c1.5,0.4,1.5,0.4,3,0.8
				c1.5,0.4,1.5,0.4,3,0.8c1.5,0.4,1.5,0.3,3,0.7s1.5,0.3,3.1,0.7c1.5,0.4,1.5,0.5,3,0.9c1.5,0.4,1.6,0.2,3.1,0.6
				c1.5,0.4,1.5,0.5,3,0.8c1.5,0.4,1.5,0.4,3,0.8"/>
		</g>
		<g>
			<path class="st8" d="M-139.3,121c1.4,0.5,1.5,0.4,2.9,0.8c1.4,0.5,1.4,0.6,2.8,1.1c1.4,0.5,1.4,0.4,2.9,0.9
				c1.4,0.5,1.5,0.3,2.9,0.8s1.4,0.5,2.8,1c1.4,0.5,1.4,0.5,2.8,1c1.4,0.5,1.4,0.5,2.8,1s1.4,0.7,2.8,1.2s1.4,0.4,2.9,0.9
				c1.4,0.5,1.4,0.4,2.9,0.9s1.4,0.5,2.8,1"/>
		</g>
		<g>
			<g>
				<path class="st3" d="M-137.8,119.3c1.5,0.6,1.5,0.6,3,1.2c1.3,0.5,1.4,0.7,2.5,1.2"/>
				<path class="st9" d="M-127.6,123.5c0.5,0.1,0.9,0.2,1.7,0.5c1.5,0.6,1.4,0.8,2.9,1.4s1.5,0.5,3,1.1c1.5,0.6,1.4,0.8,2.9,1.4
					c1.2,0.5,1.5,0.5,2.3,0.8"/>
				<path class="st3" d="M-113.5,129.1c1.1,0.4,1.3,0.4,2.6,0.9c1.5,0.6,1.4,0.8,2.9,1.4"/>
			</g>
		</g>
		<g>
			<g>
				<path class="st3" d="M-135.9,117.5c1.4,0.7,1.5,0.6,2.9,1.3c1.3,0.7,1.4,0.8,2.5,1.4"/>
				<path class="st10" d="M-126.2,122.2c0.4,0.2,0.7,0.5,1.5,0.8c1.4,0.7,1.5,0.5,2.9,1.2c1.4,0.7,1.4,0.8,2.8,1.5
					c1.4,0.7,1.4,0.6,2.8,1.3c1,0.5,1.3,0.7,1.9,1"/>
				<path class="st3" d="M-113.3,128.6c1.2,0.6,1.2,0.6,2.6,1.3c1.4,0.7,1.4,0.8,2.8,1.5"/>
			</g>
		</g>
		<g>
			<path class="st11" d="M-134,115.6c1.3,0.8,1.3,0.8,2.6,1.6c1.3,0.8,1.3,0.8,2.6,1.5c1.3,0.8,1.3,0.8,2.6,1.5
				c1.3,0.8,1.2,0.9,2.5,1.7c1.3,0.8,1.4,0.6,2.7,1.4c1.3,0.8,1.3,0.8,2.6,1.6c1.3,0.8,1.3,0.7,2.6,1.5c1.3,0.8,1.3,0.8,2.6,1.6
				c1.3,0.8,1.3,0.8,2.6,1.6c1.3,0.8,1.3,0.8,2.6,1.6"/>
		</g>
		<g>
			<path class="st12" d="M-132.3,113.9c1.2,0.9,1.2,0.9,2.4,1.8c1.2,0.9,1.1,1,2.3,1.9c1.2,0.9,1.4,0.7,2.6,1.5
				c1.2,0.9,1.2,0.9,2.4,1.7c1.2,0.9,1.1,1,2.3,1.9c1.2,0.9,1.3,0.7,2.5,1.6s1.3,0.8,2.5,1.7c1.2,0.9,1.2,0.9,2.4,1.8
				c1.2,0.9,1.2,0.9,2.5,1.7c1.2,0.9,1.1,1,2.3,1.9"/>
		</g>
		<g>
			<g>
				<path class="st3" d="M-130.8,112.5c1.3,1,1.4,0.9,2.6,2c1.1,0.9,1.2,1,2.1,1.7"/>
				<path class="st13" d="M-122.9,119.2c0.9,0.7,1,0.8,2.2,1.7c1.3,1,1.2,1.1,2.5,2.1s1.4,0.9,2.7,1.9c1.1,0.9,1.2,1.1,2.1,1.9"/>
				<path class="st3" d="M-112.6,127.5c0.8,0.7,1,0.8,2.1,1.7c1.3,1.1,1.2,1.1,2.5,2.1"/>
			</g>
		</g>
		<g>
			<g>
				<path class="st3" d="M-128.9,110.5c1.2,1.2,1.2,1.1,2.4,2.3c1,1,1.2,1.1,2,1.9"/>
				<path class="st14" d="M-121.5,117.7c0.8,0.8,0.9,1,1.9,2c1.2,1.2,1.2,1.2,2.3,2.3c1.2,1.2,1.1,1.3,2.2,2.4c1,1,1.2,1.1,2,1.9"/>
				<path class="st3" d="M-112.2,127.1c0.8,0.8,0.9,0.9,1.9,1.9c1.2,1.2,1.2,1.1,2.4,2.3"/>
			</g>
		</g>
		<g>
			<path class="st15" d="M-126.9,108.6c1.1,1.3,1,1.3,2.1,2.5c1.1,1.3,1,1.3,2,2.6c1.1,1.3,1.1,1.2,2.2,2.5c1.1,1.3,1,1.3,2.1,2.6
				c1.1,1.3,1.1,1.2,2.2,2.5c1.1,1.3,1.1,1.2,2.2,2.5c1.1,1.3,1.1,1.2,2.2,2.5c1.1,1.3,1.1,1.3,2.1,2.5c1.1,1.3,1,1.3,2.1,2.6"/>
		</g>
		<g>
			<path class="st16" d="M-124.5,106.1c0.8,1.3,0.8,1.3,1.6,2.5c0.8,1.3,0.9,1.2,1.7,2.5c0.8,1.3,0.9,1.2,1.7,2.5
				c0.8,1.3,0.7,1.3,1.6,2.6c0.8,1.3,0.8,1.3,1.6,2.6c0.8,1.3,0.8,1.3,1.6,2.5c0.8,1.3,1,1.1,1.8,2.4c0.8,1.3,0.8,1.3,1.6,2.6
				c0.8,1.3,0.8,1.3,1.6,2.6c0.8,1.3,0.8,1.3,1.6,2.6"/>
		</g>
		<g>
			<g>
				<path class="st3" d="M-122.6,104.2c0.7,1.4,0.8,1.3,1.5,2.7c0.7,1.3,0.7,1.4,1.4,2.6"/>
				<path class="st17" d="M-117.5,113.6c0.2,0.3,0.5,0.7,0.9,1.4c0.7,1.4,0.6,1.4,1.4,2.8c0.7,1.4,0.7,1.4,1.4,2.7
					c0.7,1.4,0.9,1.3,1.6,2.6c0.5,1,0.7,1.3,1,1.8"/>
				<path class="st3" d="M-110.7,126c0.6,1.2,0.6,1.3,1.3,2.6c0.7,1.4,0.7,1.4,1.5,2.7"/>
			</g>
		</g>
		<g>
			<g>
				<path class="st3" d="M-121,102.6c0.7,1.4,0.7,1.4,1.4,2.8c0.6,1.3,0.6,1.4,1.1,2.6"/>
				<path class="st18" d="M-116.5,112.5c0.2,0.4,0.4,0.8,0.7,1.6c0.7,1.4,0.8,1.4,1.4,2.8c0.7,1.4,0.5,1.5,1.1,3
					c0.7,1.4,0.6,1.4,1.3,2.9c0.5,1.1,0.7,1.3,1,2"/>
				<path class="st3" d="M-110.4,125.9c0.5,1.1,0.7,1.2,1.3,2.5c0.7,1.4,0.5,1.5,1.1,3"/>
			</g>
		</g>
		<g>
			<g>
				<path class="st3" d="M-119.5,101.1c0.6,1.5,0.7,1.5,1.2,3c0.5,1.3,0.6,1.5,1,2.6"/>
				<path class="st19" d="M-115.5,111.4c0.1,0.5,0.2,0.9,0.6,1.8c0.6,1.5,0.7,1.4,1.3,3c0.6,1.5,0.6,1.5,1.2,3s0.6,1.5,1.1,3
					c0.5,1.2,0.6,1.4,0.9,2.3"/>
				<path class="st3" d="M-109.9,125.7c0.4,1.1,0.4,1.2,1,2.6c0.6,1.5,0.5,1.5,1.1,3"/>
			</g>
		</g>
		<g>
			<g>
				<path class="st3" d="M-117.5,99.2c0.4,1.5,0.4,1.5,0.8,2.9s0.4,1.5,0.8,2.8"/>
				<path class="st20" d="M-114.2,110.1c0.1,0.2,0.1,0.5,0.2,0.8c0.4,1.5,0.4,1.5,0.9,2.9c0.4,1.5,0.3,1.5,0.8,3
					c0.4,1.5,0.5,1.4,1,2.9c0.4,1.5,0.5,1.4,0.9,2.9c0.3,0.9,0.4,1.3,0.5,1.7"/>
				<path class="st3" d="M-109.5,125.5c0.4,1.4,0.2,1.4,0.7,2.9c0.4,1.5,0.4,1.5,0.8,2.9"/>
			</g>
		</g>
		<g>
			<g>
				<path class="st3" d="M-116.4,98c0.4,1.5,0.6,1.5,1,3c0.4,1.4,0.2,1.6,0.5,2.8"/>
				<path class="st21" d="M-113.5,109.2c0.1,0.2,0.1,0.5,0.2,0.9c0.4,1.5,0.3,1.5,0.7,3c0.4,1.5,0.5,1.5,0.9,3s0.5,1.5,0.9,3
					s0.2,1.6,0.6,3.1c0.3,1,0.3,1.4,0.5,1.9"/>
				<path class="st3" d="M-109.5,125.5c0.3,1.3,0.4,1.3,0.7,2.8c0.4,1.5,0.5,1.5,0.9,3"/>
			</g>
		</g>
		<g>
			<path class="st22" d="M-114.4,98.3c0.3,1.5,0.3,1.5,0.6,3c0.3,1.5,0.2,1.5,0.4,3c0.3,1.5,0.4,1.5,0.6,3c0.3,1.5,0.3,1.5,0.6,3
				c0.3,1.5,0.2,1.5,0.5,3s0.3,1.5,0.6,3c0.3,1.5,0.3,1.5,0.6,3c0.3,1.5,0.5,1.5,0.8,3s0.4,1.5,0.7,3c0.3,1.5,0.1,1.5,0.4,3
				s0.2,1.5,0.5,3"/>
		</g>
		<g>
			<g>
				<path class="st3" d="M-112.9,99.8c0.2,1.6,0.2,1.6,0.5,3.2c0.2,1.4,0.3,1.6,0.5,2.8"/>
				<path class="st23" d="M-111.2,110.7c0,0.5,0.1,0.9,0.2,1.8c0.2,1.6,0.3,1.6,0.6,3.1c0.2,1.6,0.4,1.6,0.6,3.1
					c0.2,1.6,0.1,1.6,0.4,3.2c0.2,1.2,0.2,1.5,0.3,2.3"/>
				<path class="st3" d="M-108.9,125.4c0.2,1.2,0.3,1.3,0.6,2.7c0.2,1.6,0.2,1.6,0.5,3.2"/>
			</g>
		</g>
		<g>
			<g>
				<path class="st3" d="M-110.6,102c0.2,1.6,0,1.6,0.1,3.3c0.1,1.4,0.2,1.6,0.3,2.7"/>
				<path class="st24" d="M-109.7,112.3c0.1,1.1,0.1,1.3,0.2,2.7c0.2,1.6,0.3,1.6,0.4,3.2c0.2,1.6,0.2,1.6,0.3,3.3
					c0.1,1.4,0,1.6,0.1,2.7"/>
				<path class="st3" d="M-108.5,125.4c0.1,1.1,0.1,1.3,0.3,2.7c0.2,1.6,0.1,1.6,0.3,3.3"/>
			</g>
		</g>
		<g>
			<g>
				<path class="st3" d="M-109,103.8c0.1,1.5,0.2,1.5,0.3,3c0.1,1.5,0,1.5,0,2.9"/>
				<path class="st25" d="M-108.4,113.7c0,0.9-0.1,1.1-0.1,2.3c0.1,1.5,0,1.5,0.1,3.1c0.1,1.5,0.1,1.5,0.2,3.1c0,1.2,0,1.5,0.1,2.2"
					/>
				<path class="st3" d="M-108.1,125.3c0,1.4-0.1,1.4,0,2.9c0.1,1.5,0.2,1.5,0.3,3.1"/>
			</g>
		</g>
		<g>
			<g>
				<path class="st3" d="M-106.9,105.6c-0.1,1.6-0.1,1.6-0.1,3.2c0,1.4-0.1,1.6-0.1,2.8"/>
				<path class="st26" d="M-107.3,115c0,0.1,0,0.1,0,0.2c-0.1,1.6-0.2,1.6-0.3,3.2c-0.1,1.6-0.1,1.6-0.1,3.2c0,1.5,0,1.6,0,2.8"/>
				<path class="st3" d="M-107.7,125.3c0,1.2,0,1.3-0.1,2.8c-0.1,1.6-0.1,1.6-0.1,3.2"/>
			</g>
		</g>
		<g>
			<g>
				<path class="st3" d="M-105,107.6c-0.2,1.5-0.3,1.5-0.5,2.9c-0.2,1.5-0.1,1.5-0.3,3l0,0"/>
				<path class="st27" d="M-106.3,116.5c-0.2,1.5,0,1.5-0.2,3s-0.3,1.5-0.5,2.9c-0.1,1.2-0.1,1.4-0.2,2.2"/>
				<path class="st3" d="M-107.2,125.4L-107.2,125.4c-0.2,1.5-0.2,1.5-0.3,3c-0.1,1.5-0.1,1.5-0.2,3"/>
			</g>
		</g>
		<g>
			<g>
				<path class="st3" d="M-103.5,109.3c-0.3,1.6-0.1,1.6-0.4,3.2c-0.3,1.4-0.4,1.5-0.7,2.7"/>
				<path class="st28" d="M-105,117.7c0,0.3-0.1,0.6-0.2,1c-0.3,1.6-0.5,1.5-0.8,3.1c-0.3,1.5-0.3,1.6-0.6,2.9"/>
				<path class="st3" d="M-106.8,125.4c-0.2,1.2-0.2,1.3-0.5,2.7c-0.3,1.6-0.4,1.6-0.8,3.1"/>
			</g>
		</g>
		<g>
			<g>
				<path class="st3" d="M-101.7,110.9c-0.4,1.5-0.4,1.5-0.8,2.9s-0.6,1.4-1,2.8"/>
				<path class="st29" d="M-104.2,118.9c-0.1,0.2-0.1,0.5-0.2,0.8c-0.4,1.5-0.4,1.5-0.9,2.9c-0.4,1.3-0.4,1.4-0.7,2.5"/>
				<path class="st3" d="M-106.2,125.6c-0.4,1.4-0.4,1.4-0.8,2.8c-0.4,1.5-0.4,1.5-0.8,2.9"/>
			</g>
		</g>
		<g>
			<g>
				<path class="st3" d="M-100.7,112c-0.5,1.4-0.6,1.4-1.1,2.7c-0.5,1.4-0.3,1.4-0.9,2.8v0.1"/>
				<path class="st30" d="M-103.5,119.6c-0.1,0.2-0.1,0.4-0.2,0.6c-0.5,1.4-0.5,1.4-1,2.8c-0.4,1.1-0.5,1.4-0.7,2.2"/>
				<path class="st3" d="M-105.7,125.7C-105.7,125.8-105.8,125.8-105.7,125.7c-0.5,1.5-0.7,1.4-1.2,2.8s-0.6,1.4-1.1,2.7"/>
			</g>
		</g>
		<g>
			<g>
				<path class="st3" d="M-99.1,113.5c-0.7,1.5-0.8,1.4-1.6,2.9c-0.6,1.3-0.6,1.5-1.1,2.5"/>
				<path class="st31" d="M-102.7,120.6c-0.3,0.5-0.4,0.8-0.9,1.7c-0.7,1.5-0.7,1.5-1.4,3c0,0,0,0.1-0.1,0.1"/>
				<path class="st3" d="M-105.2,126c-0.5,0.9-0.7,1.1-1.3,2.3c-0.7,1.5-0.6,1.5-1.3,3"/>
			</g>
		</g>
		<g>
			<g>
				<path class="st3" d="M-97.9,114.8c-0.8,1.4-0.7,1.4-1.6,2.8c-0.7,1.2-0.9,1.3-1.5,2.3"/>
				<path class="st32" d="M-101.9,121.5c-0.2,0.4-0.4,0.8-0.9,1.6c-0.8,1.4-0.8,1.4-1.7,2.8"/>
				<path class="st3" d="M-104.7,126.2c-0.6,1-0.7,1.1-1.5,2.3c-0.8,1.4-0.8,1.4-1.6,2.8"/>
			</g>
		</g>
		<g>
			<g>
				<path class="st3" d="M-96.4,116.3c-1,1.3-1,1.2-1.9,2.5c-0.9,1.2-1.1,1.2-1.8,2.2"/>
				<path class="st33" d="M-101.2,122.4c-0.2,0.4-0.4,0.8-0.9,1.5c-0.9,1.2-1.1,1.1-2,2.3"/>
				<path class="st3" d="M-104.4,126.5c-0.8,1-0.8,1.1-1.6,2.3c-1,1.3-0.8,1.3-1.8,2.6"/>
			</g>
		</g>
		<g>
			<g>
				<path class="st3" d="M-95.5,117.2c-1,1.2-1.1,1.1-2.2,2.3c-1,1.1-1,1.2-1.9,2.1"/>
				<path class="st34" d="M-100.7,122.9c-0.3,0.3-0.5,0.6-1.1,1.3c-1,1.1-0.9,1.3-1.8,2.4"/>
				<path class="st3" d="M-103.9,126.9c-0.9,1-1,0.9-2,2.1c-1,1.2-1,1.2-2,2.4"/>
			</g>
		</g>
		<g>
			<g>
				<path class="st3" d="M-144,133.1c1.5-0.1,1.5,0,3-0.1s1.5-0.2,3-0.2"/>
				<path class="st35" d="M-131.9,132.7c1.5-0.1,1.5-0.3,3-0.3c1.5,0,1.5,0.1,3,0c1.5-0.1,1.5-0.1,3-0.2c1.5-0.1,1.5,0,3-0.1
					c1.5-0.1,1.5-0.1,3-0.2c0.2,0,0.4,0,0.5,0"/>
				<path class="st3" d="M-113.9,131.6c1.5-0.1,1.5-0.1,3-0.2c1.5-0.1,1.5,0.1,3,0"/>
			</g>
		</g>
		<g>
			<path class="st36" d="M-142,135.1c1.5-0.2,1.6,0,3.1-0.2c1.5-0.2,1.5-0.3,3.1-0.5c1.5-0.2,1.6-0.1,3.1-0.3s1.5-0.2,3.1-0.4
				c1.6-0.2,1.5-0.2,3.1-0.4c1.5-0.2,1.6-0.1,3.1-0.3s1.6-0.1,3.1-0.3c1.5-0.2,1.6,0,3.1-0.2c1.5-0.2,1.5-0.2,3.1-0.4
				s1.5-0.3,3.1-0.5s1.6-0.1,3.1-0.3"/>
		</g>
		<g>
			<path class="st37" d="M-139.8,137.4c1.6-0.3,1.6-0.2,3.2-0.5c1.6-0.3,1.6-0.5,3.1-0.8c1.6-0.3,1.6-0.3,3.2-0.6
				c1.6-0.3,1.6-0.3,3.2-0.6c1.6-0.3,1.6-0.1,3.2-0.4c1.6-0.3,1.6-0.4,3.2-0.7s1.6-0.2,3.2-0.5s1.6-0.2,3.2-0.5s1.6-0.4,3.2-0.7
				s1.6-0.3,3.2-0.6"/>
		</g>
		<g>
			<g>
				<path class="st3" d="M-137.1,140.2c1.5-0.4,1.4-0.6,2.9-1.1c1.4-0.4,1.5-0.5,2.8-0.9"/>
				<path class="st38" d="M-126.9,137.1c0.4-0.2,0.7-0.3,1.5-0.6c1.5-0.4,1.5-0.4,2.9-0.8c1.5-0.4,1.4-0.5,2.9-0.9s1.5-0.3,3-0.7
					c1-0.3,1.3-0.5,1.9-0.7"/>
				<path class="st3" d="M-113.7,133c1.4-0.4,1.4-0.5,2.8-0.9c1.5-0.4,1.5-0.4,2.9-0.8"/>
			</g>
		</g>
		<g>
			<g>
				<path class="st3" d="M-135.7,141.4c1.5-0.6,1.6-0.3,3.2-0.9c1.3-0.5,1.5-0.6,2.5-1"/>
				<path class="st39" d="M-125.9,138c1.1-0.4,1.2-0.5,2.6-1c1.5-0.6,1.6-0.4,3.1-1c1.5-0.6,1.5-0.8,3-1.3c1.4-0.5,1.5-0.5,2.6-0.9"
					/>
				<path class="st3" d="M-113.5,133.4c1-0.4,1.2-0.5,2.5-1c1.5-0.6,1.6-0.4,3.2-0.9"/>
			</g>
		</g>
		<g>
			<g>
				<path class="st3" d="M-133.8,143.5c1.5-0.7,1.5-0.7,2.9-1.4c1.4-0.7,1.3-0.9,2.8-1.5c0.5-0.2,0.8-0.4,1-0.5"/>
				<path class="st40" d="M-125.3,139.4C-125.2,139.4-125.2,139.3-125.3,139.4c1.5-0.7,1.5-0.7,3-1.3c1.4-0.7,1.5-0.6,2.9-1.3
					s1.4-0.7,2.8-1.4c0.3-0.1,0.5-0.2,0.7-0.3"/>
				<path class="st3" d="M-114.7,134.6c0.3-0.1,0.6-0.2,1-0.5c1.4-0.7,1.4-0.8,2.8-1.5c1.4-0.7,1.5-0.7,2.9-1.3"/>
			</g>
		</g>
		<g>
			<path class="st41" d="M-132,145.2c1.3-0.8,1.4-0.7,2.7-1.4c1.3-0.8,1.3-0.9,2.7-1.7c1.3-0.8,1.3-0.9,2.6-1.7
				c1.3-0.8,1.4-0.7,2.7-1.5c1.3-0.8,1.3-0.8,2.7-1.6c1.3-0.8,1.3-0.8,2.7-1.6c1.3-0.8,1.4-0.6,2.8-1.4c1.3-0.8,1.4-0.7,2.7-1.5
				s1.3-0.9,2.6-1.7"/>
		</g>
		<g>
			<g>
				<path class="st3" d="M-130.8,146.8c1.3-0.9,1.3-0.8,2.6-1.6c1.2-0.9,1.2-1,2.3-1.8"/>
				<path class="st42" d="M-122.6,141.2c0.7-0.5,1-0.6,2-1.3c1.3-0.9,1.2-1,2.5-1.8c1.3-0.9,1.3-0.9,2.5-1.7c1-0.7,1.3-0.7,2-1.1"/>
				<path class="st3" d="M-112.8,134.8c1.1-0.8,1.1-1,2.3-1.8c1.3-0.9,1.3-0.9,2.5-1.7"/>
			</g>
		</g>
		<g>
			<path class="st43" d="M-128.8,148.4c1.2-1,1.2-0.9,2.4-1.8c1.2-0.9,1-1.1,2.2-2.1c1.2-0.9,1.2-0.9,2.3-1.8c1.2-1,1.3-0.8,2.4-1.7
				c1.2-1,1.1-1,2.3-2c1.2-1,1.2-0.9,2.3-1.9c1.2-1,1.1-1.1,2.2-2c1.2-1,1.3-0.8,2.4-1.8c1.2-1,1.1-1,2.3-2"/>
		</g>
		<g>
			<g>
				<path class="st3" d="M-127.4,149.8c1.1-1,1.2-0.9,2.3-2c1.1-1,1.1-1,2.1-2.1l0,0"/>
				<path class="st44" d="M-120.3,143.2c0.6-0.5,0.7-0.7,1.6-1.6c1.1-1,1.1-1,2.2-2s0.9-1.2,2-2.2c0.8-0.7,1.1-0.9,1.6-1.3"/>
				<path class="st3" d="M-112.2,135.5L-112.2,135.5c1.1-1,1.1-1,2.2-2.1c1.1-1,1.1-1,2.2-2.1"/>
			</g>
		</g>
		<g>
			<path class="st45" d="M-125.3,108.1c1,1.3,1.1,1.2,2.1,2.5c1,1.3,0.8,1.4,1.8,2.7s1,1.2,2,2.5s0.9,1.3,1.9,2.6c1,1.3,1,1.3,2,2.6
				c1,1.3,1,1.2,2,2.5c1,1.3,0.9,1.4,1.8,2.6c1,1.3,0.9,1.3,1.9,2.6c1,1.3,1.1,1.2,2,2.5"/>
		</g>
		<g>
			<g>
				<path class="st3" d="M-122.2,107.5c0.8,1.3,0.8,1.3,1.6,2.6c0.8,1.3,0.8,1.3,1.5,2.5"/>
				<path class="st46" d="M-117.1,116c0.5,0.8,0.6,0.9,1.3,2c0.8,1.3,0.6,1.4,1.4,2.8c0.8,1.3,0.9,1.3,1.7,2.6c0.6,1,0.7,1.3,1.2,2"
					/>
				<path class="st3" d="M-111.1,126.2c0.7,1.2,0.8,1.2,1.6,2.4c0.8,1.3,0.8,1.3,1.6,2.6"/>
			</g>
		</g>
		<g>
			<g>
				<path class="st3" d="M-122.7,104.3c0.7,1.4,0.9,1.3,1.6,2.6s0.7,1.4,1.4,2.6"/>
				<path class="st47" d="M-117.4,113.6c0.2,0.4,0.3,0.7,0.7,1.5c0.7,1.4,0.7,1.4,1.4,2.7c0.7,1.4,0.8,1.3,1.6,2.7
					c0.7,1.3,0.7,1.3,1.4,2.7c0.5,1,0.7,1.2,1,1.8"/>
				<path class="st3" d="M-110.7,126c0.6,1.2,0.5,1.3,1.2,2.6c0.7,1.4,0.9,1.3,1.6,2.6"/>
			</g>
		</g>
		<g>
			<g>
				<path class="st3" d="M-120.9,102.6c0.7,1.4,0.7,1.4,1.4,2.8c0.6,1.3,0.6,1.4,1.2,2.6"/>
				<path class="st48" d="M-116.5,112.5c0.2,0.4,0.4,0.7,0.8,1.5c0.7,1.4,0.6,1.5,1.3,2.9c0.7,1.4,0.6,1.4,1.3,2.9
					c0.7,1.4,0.7,1.4,1.4,2.8c0.5,1.1,0.6,1.4,0.9,2.1"/>
				<path class="st3" d="M-110.4,125.8c0.5,1.2,0.6,1.2,1.2,2.6c0.7,1.4,0.7,1.4,1.3,2.9"/>
			</g>
		</g>
		<g>
			<g>
				<path class="st3" d="M-117.8,100.8c0.5,1.5,0.5,1.5,1,3.1c0.5,1.4,0.4,1.5,0.7,2.7"/>
				<path class="st49" d="M-114.5,111.3c0.1,0.5,0.2,0.9,0.5,1.7c0.5,1.5,0.7,1.5,1.2,3s0.4,1.5,0.9,3.1c0.5,1.5,0.6,1.5,1.1,3
					c0.4,1.2,0.5,1.5,0.7,2.3"/>
				<path class="st3" d="M-109.7,125.6c0.4,1.1,0.4,1.3,0.9,2.6c0.5,1.5,0.5,1.5,1,3"/>
			</g>
		</g>
		<g>
			<g>
				<path class="st3" d="M-115.5,99.6c0.4,1.6,0.5,1.6,0.9,3.1c0.3,1.4,0.4,1.6,0.7,2.7"/>
				<path class="st50" d="M-112.8,110.5c0.1,0.5,0.2,0.9,0.4,1.8c0.4,1.6,0.5,1.6,0.8,3.1c0.4,1.6,0.2,1.6,0.6,3.2
					c0.4,1.6,0.3,1.6,0.7,3.2c0.3,1.3,0.4,1.5,0.7,2.4"/>
				<path class="st3" d="M-109.2,125.5c0.2,1.1,0.2,1.3,0.6,2.7c0.4,1.6,0.4,1.6,0.8,3.2"/>
			</g>
		</g>
		<g>
			<g>
				<path class="st3" d="M-102.7,111.1c-0.2,0.7-0.3,1.1-0.4,1.5"/>
				<path class="st51" d="M-103.1,112.5c-0.1,0.4-0.2,0.7-0.4,1.4c-0.4,1.4-0.4,1.4-0.7,2.9c-0.4,1.4-0.3,1.5-0.7,2.9
					c-0.4,1.4-0.5,1.4-0.8,2.9c-0.3,1.2-0.4,1.4-0.6,2.4"/>
				<path class="st3" d="M-107.5,129.9c-0.1,0.4-0.3,0.7-0.4,1.4"/>
			</g>
		</g>
		<g>
			<g>
				<path class="st3" d="M-104.4,110.4c-0.2,1.5-0.5,1.5-0.7,2.9c-0.2,1.5-0.1,1.5-0.3,2.9"/>
				<path class="st52" d="M-105.8,118.6c0,0.2-0.1,0.5-0.1,0.8c-0.2,1.5-0.3,1.5-0.5,3c-0.2,1.3-0.3,1.5-0.5,2.5"/>
				<path class="st3" d="M-107,125.4c-0.2,1.4-0.1,1.5-0.4,2.9c-0.2,1.5-0.2,1.5-0.4,3"/>
			</g>
		</g>
		<g>
			<g>
				<path class="st3" d="M-105.9,108c-0.2,1.7-0.1,1.7-0.2,3.3c-0.1,1.4-0.2,1.6-0.3,2.6"/>
				<path class="st53" d="M-106.6,116.8c0,0.3,0,0.7-0.1,1.2c-0.2,1.7-0.2,1.7-0.4,3.3c-0.2,1.7-0.2,1.7-0.4,3.3"/>
				<path class="st3" d="M-107.5,125.3c0,1,0.1,1.3-0.1,2.6c-0.2,1.7-0.2,1.7-0.3,3.3"/>
			</g>
		</g>
		<g>
			<path class="st54" d="M-108.1,108.7c0,1.6,0,1.6,0,3.2c0,1.6,0,1.6,0,3.2c0,1.6,0.1,1.6,0.1,3.2c0,1.6-0.1,1.6-0.1,3.2
				s0,1.6,0,3.2c0,1.6,0,1.6,0,3.2c0,1.6,0.2,1.6,0.3,3.2"/>
		</g>
		<g>
			<path class="st55" d="M-109.3,104.4c0.1,1.5,0,1.5,0.1,3s0.1,1.5,0.2,3s0.1,1.5,0.2,3s0.1,1.5,0.2,3s-0.1,1.5,0,3s0.3,1.5,0.4,3
				s0.1,1.5,0.2,3s-0.1,1.5,0,3c0.1,1.5,0.1,1.5,0.2,3"/>
		</g>
		<g>
			<g>
				<path class="st3" d="M-111.3,105.5c0.1,0.7,0.2,1.1,0.2,1.5"/>
				<path class="st56" d="M-111.1,107c0.1,0.4,0.2,0.8,0.3,1.7c0.2,1.6,0.1,1.6,0.3,3.2c0.2,1.6,0.3,1.6,0.5,3.2
					c0.2,1.6,0.3,1.6,0.5,3.2c0.2,1.6,0.2,1.6,0.4,3.2c0.1,1.1,0.1,1.5,0.1,2.1"/>
				<path class="st3" d="M-108.1,129.8c0.1,0.4,0.2,0.8,0.3,1.5"/>
			</g>
		</g>
		<g>
			<path class="st57" d="M-100.4,113.5c-0.6,1.5-0.5,1.5-1.1,3s-0.6,1.5-1.2,3s-0.6,1.5-1.3,3c-0.6,1.5-0.8,1.4-1.4,2.9
				s-0.7,1.5-1.3,3c-0.6,1.5-0.5,1.6-1.1,3"/>
		</g>
		<g>
			<g>
				<path class="st3" d="M-99.2,115.7c-0.7,1.3-0.8,1.2-1.6,2.5c-0.7,1.3-0.7,1.3-1.4,2.6l0,0"/>
				<path class="st58" d="M-102.9,122.2c-0.1,0.3-0.3,0.7-0.6,1.3c-0.6,1.2-0.8,1.3-1.3,2.2"/>
				<path class="st3" d="M-105,126.1L-105,126.1c-0.7,1.3-0.8,1.3-1.5,2.6c-0.7,1.3-0.6,1.4-1.3,2.7"/>
			</g>
		</g>
		<g>
			<g>
				<path class="st3" d="M-98.7,118.5c-0.9,1.3-1.1,1.2-2,2.4c-0.8,1.2-0.9,1.3-1.6,2.3"/>
				<path class="st59" d="M-102.8,124.1c-0.6,0.8-0.6,1-1.4,2.1c0,0,0,0,0,0.1"/>
				<path class="st3" d="M-104.4,126.5c-0.7,1-0.9,1.1-1.7,2.3c-0.9,1.3-0.8,1.3-1.8,2.6"/>
			</g>
		</g>
		<g>
			<g>
				<path class="st3" d="M-96.6,117.2c-0.9,1.2-0.8,1.3-1.7,2.5c-0.9,1.2-1,1.1-2,2.3"/>
				<path class="st60" d="M-101.2,123.1c-0.2,0.3-0.5,0.6-1,1.2c-0.9,1.1-0.9,1.2-1.6,2.1"/>
				<path class="st3" d="M-104,126.7c-0.9,1.1-1,1.1-2,2.2c-0.9,1.2-1,1.1-1.9,2.3"/>
			</g>
		</g>
		<g>
			<g>
				<path class="st3" d="M-95.7,118.1c-1,1.1-1,1.1-2,2.2s-1.1,1-2.1,2.1l0,0"/>
				<path class="st61" d="M-100.8,123.6c-0.2,0.3-0.4,0.6-0.9,1.2c-0.9,1-1,1.1-1.8,2"/>
				<path class="st3" d="M-103.8,127c-1,1.1-1.2,1-2.2,2.1s-1,1.1-2,2.2"/>
			</g>
		</g>
		<g>
			<g>
				<path class="st3" d="M-121.5,104.4c0.7,1.3,0.7,1.3,1.4,2.7c0.7,1.3,0.6,1.4,1.3,2.7"/>
				<path class="st62" d="M-116.7,113.8c0.2,0.3,0.3,0.7,0.7,1.3c0.7,1.3,0.6,1.4,1.2,2.7c0.7,1.3,0.8,1.3,1.5,2.6
					c0.7,1.3,0.6,1.4,1.3,2.7c0.5,0.9,0.6,1.2,0.9,1.7"/>
				<path class="st3" d="M-110.6,125.9c0.7,1.3,0.6,1.4,1.2,2.7c0.7,1.3,0.8,1.3,1.5,2.6"/>
			</g>
		</g>
		<g>
			<path class="st63" d="M-118.6,106.2c0.6,1.4,0.8,1.3,1.3,2.7c0.6,1.4,0.5,1.4,1.1,2.8s0.7,1.3,1.3,2.7c0.6,1.4,0.4,1.5,1,2.9
				c0.6,1.4,0.6,1.4,1.1,2.8c0.6,1.4,0.6,1.4,1.2,2.8c0.6,1.4,0.6,1.4,1.2,2.8s0.7,1.3,1.3,2.7c0.6,1.4,0.4,1.5,1,2.9"/>
		</g>
		<g>
			<path class="st64" d="M-115.2,104.5c0.4,1.5,0.2,1.5,0.6,3s0.6,1.4,1,2.9s0.2,1.5,0.6,3s0.6,1.4,1,2.9s0.2,1.5,0.6,3
				s0.7,1.4,1.1,2.9s0.3,1.5,0.7,3c0.4,1.5,0.5,1.5,1,2.9c0.4,1.5,0.3,1.5,0.7,3"/>
		</g>
		<g>
			<g>
				<path class="st3" d="M-106.4,107.5c-0.1,1.5,0,1.5-0.1,3s-0.2,1.5-0.3,3l0,0"/>
				<path class="st65" d="M-106.9,116.5c-0.1,1.5-0.2,1.5-0.3,2.9c-0.1,1.5-0.1,1.5-0.2,3c-0.1,1.2,0,1.4,0,2.2"/>
				<path class="st3" d="M-107.5,125.3C-107.5,125.3-107.5,125.4-107.5,125.3c-0.1,1.5-0.2,1.5-0.3,3c-0.1,1.5,0,1.5-0.1,3"/>
			</g>
		</g>
		<g>
			<g>
				<path class="st3" d="M-98,116.4c-0.8,1.2-0.9,1.2-1.8,2.4c-0.8,1.2-0.7,1.3-1.5,2.6l0,0"/>
				<path class="st66" d="M-102.2,122.6c-0.2,0.3-0.4,0.6-0.8,1.2c-0.7,1.1-0.8,1.3-1.4,2.2"/>
				<path class="st3" d="M-104.6,126.3C-104.6,126.4-104.6,126.4-104.6,126.3c-0.8,1.3-0.8,1.3-1.6,2.5c-0.8,1.3-0.9,1.2-1.7,2.5"/>
			</g>
		</g>
		<g>
			<g>
				<path class="st3" d="M-123.8,108.8c0.9,1.2,0.8,1.3,1.7,2.6c0.9,1.2,0.9,1.2,1.8,2.3"/>
				<path class="st67" d="M-118.2,116.9c0.5,0.7,0.6,0.9,1.3,1.9c0.9,1.3,1,1.1,1.9,2.4c0.9,1.3,0.8,1.3,1.7,2.6
					c0.7,1,0.9,1.1,1.4,1.8"/>
				<path class="st3" d="M-111.3,126.4c0.8,1.1,0.9,1.2,1.7,2.4c0.9,1.3,0.8,1.3,1.7,2.6"/>
			</g>
		</g>
		<g>
			<g>
				<path class="st3" d="M-124.7,110.5c0.9,1.2,1.1,1,2.1,2.1c0.9,1.2,0.9,1.2,1.8,2.4l0,0"/>
				<path class="st68" d="M-118.6,118c0.5,0.6,0.8,0.7,1.5,1.6c0.9,1.2,0.8,1.3,1.7,2.5c0.9,1.2,1,1.1,1.9,2.3
					c0.7,0.8,0.9,1.1,1.3,1.6"/>
				<path class="st3" d="M-111.7,126.7L-111.7,126.7c1,1.2,1,1.2,1.9,2.3c0.9,1.2,0.8,1.2,1.8,2.4"/>
			</g>
		</g>
		<g>
			<g>
				<path class="st3" d="M-127.2,110.1c1.1,1.2,1,1.3,2,2.5c1,1.1,1.1,1.1,2,2"/>
				<path class="st69" d="M-120.4,117.7c0.7,0.7,0.9,0.8,1.8,1.8c1.1,1.2,1.1,1.2,2.1,2.4c1.1,1.2,1.1,1.1,2.2,2.3
					c0.9,1,1,1.2,1.7,1.9"/>
				<path class="st3" d="M-111.9,126.8c0.8,0.9,0.8,1.1,1.8,2.1c1.1,1.2,1.1,1.2,2.2,2.3"/>
			</g>
		</g>
		<g>
			<path class="st70" d="M-129.3,113c1.2,1,1.2,1,2.4,2c1.2,1,1.1,1.1,2.3,2.1s1.3,0.9,2.5,1.9c1.2,1,1.1,1.1,2.3,2.1
				c1.2,1,1.2,1,2.4,2.1c1.2,1,1.2,1.1,2.4,2.1c1.2,1,1.2,1,2.4,2c1.2,1,1.2,1,2.4,2s1.2,1,2.4,2.1"/>
		</g>
		<g>
			<g>
				<path class="st3" d="M-130.6,114c0.6,0.4,0.9,0.7,1.2,0.9"/>
				<path class="st71" d="M-129.5,114.9c0.3,0.3,0.6,0.5,1.3,1c1.3,1,1.3,0.9,2.5,1.9c1.3,1,1.4,0.8,2.6,1.8c1.3,1,1.2,1.1,2.4,2.1
					c1.3,1,1.3,0.9,2.5,1.9c1.3,1,1.3,0.9,2.6,1.9c0.5,0.4,0.7,0.6,1,0.8"/>
				<path class="st3" d="M-109.1,130.4c0.3,0.2,0.6,0.4,1.2,0.9"/>
			</g>
		</g>
		<g>
			<g>
				<path class="st3" d="M-130.4,116.3c1.2,0.8,1.3,0.8,2.5,1.6c1.2,0.8,1.2,0.9,2.5,1.7"/>
				<path class="st72" d="M-122.3,121.8c0.7,0.4,1,0.5,1.9,1.1c1.2,0.8,1.2,0.8,2.5,1.7c1.2,0.8,1.2,0.9,2.5,1.7
					c0.9,0.6,1.2,0.8,1.8,1.1"/>
				<path class="st3" d="M-112.9,127.9c1.2,0.8,1.2,0.9,2.5,1.7s1.2,0.8,2.5,1.7"/>
			</g>
		</g>
		<g>
			<path class="st73" d="M-133.1,117.8c1.4,0.8,1.5,0.5,2.9,1.3c1.4,0.8,1.3,0.9,2.7,1.7c1.4,0.8,1.4,0.8,2.8,1.5
				c1.4,0.8,1.5,0.6,2.9,1.4c1.4,0.8,1.3,0.8,2.7,1.6c1.4,0.8,1.4,0.8,2.8,1.6c1.4,0.8,1.5,0.6,2.9,1.3c1.4,0.8,1.3,0.8,2.7,1.6
				c1.4,0.8,1.4,0.8,2.8,1.5"/>
		</g>
		<g>
			<g>
				<path class="st3" d="M-135.2,118.7c1.4,0.6,1.4,0.7,2.7,1.3c1.4,0.6,1.4,0.6,2.7,1.2"/>
				<path class="st74" d="M-125.7,123.1c0.3,0.1,0.7,0.3,1.4,0.6c1.4,0.6,1.4,0.5,2.8,1.2c1.4,0.6,1.4,0.6,2.7,1.3
					c1.4,0.6,1.4,0.7,2.7,1.3c0.9,0.4,1.2,0.6,1.7,0.9"/>
				<path class="st3" d="M-113.4,128.9c1.3,0.6,1.4,0.5,2.8,1.1c1.4,0.6,1.3,0.7,2.7,1.3"/>
			</g>
		</g>
		<g>
			<g>
				<path class="st3" d="M-134.3,121.4c1.5,0.5,1.4,0.7,2.9,1.2c1.4,0.5,1.5,0.3,2.8,0.8"/>
				<path class="st75" d="M-124.9,124.9c0.9,0.4,1,0.6,2.2,1.1c1.5,0.5,1.5,0.5,2.9,1.1c1.5,0.5,1.5,0.3,3,0.9
					c1.2,0.4,1.4,0.5,2.3,0.8"/>
				<path class="st3" d="M-113.5,129.1c1.2,0.5,1.3,0.6,2.6,1.1c1.5,0.5,1.5,0.5,3,1"/>
			</g>
		</g>
		<g>
			<g>
				<path class="st3" d="M-139.2,122.3c1.6,0.5,1.6,0.4,3.1,0.9c1.6,0.5,1.6,0.3,3.2,0.7c1.6,0.5,1.5,0.6,3.1,1.1
					c0.1,0,0.2,0,0.2,0.1"/>
				<path class="st76" d="M-126.7,125.9c1.5,0.4,1.6,0.4,3.1,0.8c1.6,0.5,1.5,0.5,3.1,1c1.2,0.4,1.5,0.5,2.3,0.7"/>
				<path class="st3" d="M-117.5,128.6c0.1,0,0.1,0,0.2,0.1c1.6,0.5,1.5,0.5,3.1,1s1.6,0.4,3.1,0.9c1.6,0.5,1.6,0.4,3.2,0.8"/>
			</g>
		</g>
		<g>
			<g>
				<path class="st3" d="M-138.9,124.8c0.7,0.2,1.1,0.2,1.5,0.3"/>
				<path class="st77" d="M-137.5,125.1c0.4,0.1,0.8,0.1,1.6,0.3c1.5,0.3,1.5,0.4,3.1,0.7c1.5,0.3,1.6,0.2,3.1,0.6
					c1.5,0.3,1.5,0.4,3.1,0.8c1.5,0.3,1.6,0.2,3.1,0.6c1.5,0.3,1.5,0.5,3.1,0.8c1.6,0.3,1.6,0.2,3.1,0.5c0.2,0,0.4,0.1,0.5,0.1"/>
				<path class="st3" d="M-109.4,131.1c0.4,0.1,0.8,0.1,1.5,0.3"/>
			</g>
		</g>
		<g>
			<g>
				<path class="st3" d="M-142.7,126.4c0.7,0.1,1.1,0.1,1.5,0.2"/>
				<path class="st78" d="M-141.2,126.5c0.4,0,0.8,0.1,1.7,0.2c1.6,0.2,1.6,0.2,3.2,0.4c1.6,0.2,1.6,0.3,3.1,0.6
					c1.6,0.2,1.6,0.1,3.2,0.3c1.6,0.2,1.6,0.2,3.2,0.4c1.6,0.2,1.6,0.3,3.1,0.5c1.6,0.2,1.6,0.2,3.2,0.4c1.5,0.2,1.6,0.4,3,0.6"/>
				<path class="st3" d="M-109.4,131.1c0.4,0,0.8,0,1.5,0.1"/>
			</g>
		</g>
		<g>
			<path class="st79" d="M-145.2,128c1.6,0.1,1.6,0,3.1,0.2c1.6,0.1,1.5,0.2,3.1,0.3c1.6,0.1,1.5,0.3,3.1,0.5
				c1.6,0.1,1.6,0.1,3.1,0.3c1.6,0.1,1.6,0,3.1,0.2c1.5,0.2,1.6,0.1,3.1,0.2c1.6,0.1,1.5,0.2,3.1,0.3c1.6,0.1,1.5,0.2,3.1,0.4
				c1.6,0.1,1.6,0.1,3.1,0.2c1.6,0.1,1.5,0.2,3.1,0.3c1.6,0.1,1.6-0.1,3.1,0.1c1.6,0.1,1.5,0.3,3.1,0.5"/>
		</g>
		<g>
			<g>
				<path class="st3" d="M-144.3,130.3c1.5,0,1.5-0.2,3-0.1c1.5,0,1.5,0.2,2.9,0.2"/>
				<path class="st80" d="M-132.2,130.5L-132.2,130.5c1.6,0,1.6,0.1,3.1,0.1s1.5,0.1,3,0.1s1.5,0.1,3,0.1s1.5,0,3,0.1
					c1.5,0,1.5,0,3,0.1c0.8,0,1.2,0,1.6,0.1"/>
				<path class="st3" d="M-113.9,131.2c1.4,0,1.5,0.1,3,0.1s1.5,0.1,3,0.1"/>
			</g>
		</g>
		<g>
			<g>
				<path class="st3" d="M-143.9,132.2c1.5,0,1.5-0.1,3-0.1s1.5-0.2,3-0.2"/>
				<path class="st81" d="M-131.9,131.9c1.5,0,1.5-0.1,3-0.1c1.5,0,1.5-0.1,3-0.1s1.5,0.2,3,0.2s1.5-0.2,3-0.2s1.5-0.1,3-0.1
					c0.2,0,0.4,0,0.5,0"/>
				<path class="st3" d="M-113.9,131.4c1.5,0,1.5-0.1,3-0.1s1.5,0,3,0"/>
			</g>
		</g>
		<g>
			<g>
				<path class="st3" d="M-140.6,134c0.7-0.1,1.1-0.1,1.5-0.1"/>
				<path class="st82" d="M-139.1,133.8c0.5-0.1,0.9-0.1,1.8-0.2c1.6-0.1,1.6-0.2,3.3-0.3c1.6-0.1,1.7,0.1,3.3-0.1
					c1.6-0.2,1.6-0.1,3.3-0.3c1.6-0.1,1.6-0.2,3.3-0.4c1.6-0.1,1.6-0.2,3.3-0.4c1.6-0.1,1.6-0.1,3.3-0.2c0.2,0,0.5,0,0.6,0"/>
				<path class="st3" d="M-109.4,131.5c0.4,0,0.8-0.1,1.5-0.1"/>
			</g>
		</g>
		<g>
			<g>
				<path class="st3" d="M-139.7,136.4c1.6-0.2,1.6-0.3,3.2-0.6c1.4-0.2,1.6-0.3,2.7-0.5"/>
				<path class="st83" d="M-128.8,134.6c0.5-0.1,0.9-0.2,1.8-0.4c1.6-0.2,1.6-0.3,3.2-0.5c1.6-0.2,1.6-0.1,3.2-0.4
					c1.6-0.2,1.6-0.4,3.2-0.6c1.3-0.2,1.5-0.2,2.4-0.4"/>
				<path class="st3" d="M-113.8,132.2c1.2-0.2,1.3-0.1,2.7-0.4c1.6-0.2,1.6-0.2,3.2-0.4"/>
			</g>
		</g>
		<g>
			<g>
				<path class="st3" d="M-137.9,138.1c1.5-0.3,1.5-0.4,3-0.7c1.4-0.3,1.5-0.2,2.9-0.5"/>
				<path class="st84" d="M-127.5,135.7c0.4-0.1,0.8-0.2,1.6-0.4c1.5-0.3,1.5-0.3,3-0.7c1.5-0.3,1.5-0.4,3-0.8
					c1.5-0.3,1.6-0.1,3.1-0.4c1.1-0.2,1.4-0.3,2-0.5"/>
				<path class="st3" d="M-113.7,132.7c1.3-0.3,1.4-0.3,2.8-0.6c1.5-0.3,1.5-0.4,3-0.7"/>
			</g>
		</g>
		<g>
			<path class="st85" d="M-136.9,139.1c1.4-0.4,1.4-0.4,2.9-0.8c1.4-0.4,1.4-0.5,2.9-0.8c1.4-0.4,1.5-0.3,2.9-0.7
				c1.4-0.4,1.5-0.3,2.9-0.7c1.4-0.4,1.4-0.5,2.9-0.9c1.4-0.4,1.5-0.3,2.9-0.7c1.4-0.4,1.5-0.3,2.9-0.7c1.5-0.4,1.4-0.5,2.9-0.9
				c1.5-0.4,1.4-0.5,2.9-0.9c1.5-0.4,1.5-0.3,2.9-0.7"/>
		</g>
		<g>
			<g>
				<path class="st3" d="M-133.9,142.2c0.7-0.3,1-0.5,1.4-0.6"/>
				<path class="st86" d="M-132.5,141.6c0.4-0.2,0.7-0.4,1.5-0.7c1.4-0.6,1.5-0.5,2.9-1.1c1.4-0.6,1.4-0.6,2.9-1.2
					c1.4-0.6,1.4-0.7,2.9-1.3c1.4-0.6,1.4-0.6,2.9-1.2c1.4-0.6,1.5-0.4,3-1c0.5-0.2,0.8-0.4,1.1-0.5"/>
				<path class="st3" d="M-109.3,131.9c0.4-0.1,0.7-0.2,1.4-0.5"/>
			</g>
		</g>
		<g>
			<g>
				<path class="st3" d="M-132.2,143.9c0.7-0.3,1-0.5,1.3-0.7"/>
				<path class="st87" d="M-130.8,143.2c0.3-0.2,0.7-0.4,1.4-0.7c1.3-0.7,1.3-0.7,2.7-1.4c1.3-0.7,1.4-0.6,2.7-1.3
					c1.3-0.7,1.4-0.7,2.7-1.4c1.3-0.7,1.4-0.7,2.7-1.4c1.3-0.7,1.3-0.8,2.6-1.5c0.5-0.2,0.8-0.4,1-0.5"/>
				<path class="st3" d="M-109.2,132.1c0.3-0.2,0.7-0.4,1.3-0.7"/>
			</g>
		</g>
		<g>
			<path class="st88" d="M-130.4,145.7c1.2-0.8,1.2-0.9,2.5-1.7c1.2-0.8,1.3-0.7,2.5-1.5s1.3-0.7,2.5-1.5c1.2-0.8,1.2-0.9,2.4-1.7
				c1.2-0.8,1.2-0.9,2.4-1.7c1.2-0.8,1.3-0.7,2.6-1.5c1.2-0.8,1.2-0.8,2.5-1.6s1.3-0.7,2.6-1.5c1.3-0.8,1.2-0.9,2.5-1.7"/>
		</g>
		<g>
			<g>
				<path class="st3" d="M-128.8,147.3c1.3-1,1.3-1,2.6-2c1.1-0.9,1.3-1,2.1-1.7"/>
				<path class="st89" d="M-121.2,141.4c0.1-0.1,0.1-0.1,0.2-0.2c1.3-1,1.4-0.9,2.7-1.9c1.3-1,1.3-1.1,2.6-2.1
					c1.2-0.9,1.3-0.9,2.4-1.7"/>
				<path class="st3" d="M-112.7,135c0.9-0.7,1-0.8,2.1-1.7c1.3-1,1.4-0.9,2.7-1.9"/>
			</g>
		</g>
		<g>
			<g>
				<path class="st3" d="M-126.8,147.7c1.2-1,1.1-1.1,2.3-2.1c1.1-1,1.3-0.9,2.3-1.7"/>
				<path class="st90" d="M-120,141.5L-120,141.5c1.3-1.1,1.4-0.9,2.6-2c1.2-1,1.2-1,2.4-2.1c1-0.9,1.2-1,2-1.7"/>
				<path class="st3" d="M-112.4,135.3c1-0.9,1-1,2.1-1.9c1.2-1,1.1-1.1,2.3-2.2"/>
			</g>
		</g>
		<g>
			<path class="st91" d="M-127.1,113.8c1.2,1.1,1.2,1.1,2.4,2.2c1.2,1.1,1.2,1.1,2.3,2.2c1.2,1.1,1.3,0.9,2.5,2s1.1,1.2,2.3,2.3
				c1.2,1.1,1.3,1,2.5,2.1c1.2,1.1,1.1,1.2,2.3,2.3c1.2,1.1,1.4,0.9,2.6,2c1.2,1.1,1,1.3,2.2,2.4"/>
		</g>
		<g>
			<g>
				<path class="st3" d="M-101.7,113.2c-0.2,0.7-0.4,1.1-0.6,1.4"/>
				<path class="st92" d="M-102.3,114.6c-0.2,0.4-0.4,0.7-0.6,1.6c-0.5,1.5-0.4,1.6-0.9,3.1s-0.5,1.5-1,3s-0.5,1.5-1,3
					c0,0.1-0.1,0.2-0.1,0.2"/>
				<path class="st3" d="M-107.4,129.9c-0.1,0.3-0.3,0.7-0.5,1.4"/>
			</g>
		</g>
		<g>
			<g>
				<path class="st3" d="M-127.2,148.8c0.5-0.5,0.8-0.8,1.1-1"/>
				<path class="st93" d="M-126.1,147.8c0.3-0.3,0.7-0.6,1.3-1.2c1.2-1.1,1.1-1.2,2.3-2.3s1.2-1.1,2.5-2.1c1.2-1.1,1.2-1.1,2.4-2.2
					c1.2-1.1,1.2-1.2,2.4-2.2c0.8-0.7,1.1-0.9,1.6-1.3"/>
				<path class="st3" d="M-109,132.3c0.3-0.3,0.6-0.5,1.1-1"/>
			</g>
		</g>
		<g>
			<g>
				<path class="st3" d="M-129.6,138.6c0.7-0.2,1.1-0.4,1.4-0.5"/>
				<path class="st94" d="M-128.2,138.1c0.4-0.1,0.8-0.3,1.7-0.5c1.5-0.5,1.5-0.6,3.1-1.1s1.5-0.6,3.1-1.1s1.6-0.3,3.2-0.8
					c1.4-0.5,1.5-0.5,2.7-0.9"/>
				<path class="st3" d="M-109.3,131.9c0.4-0.1,0.7-0.2,1.4-0.4"/>
			</g>
		</g>
		<g>
			<g>
				<path class="st3" d="M-126.1,144.4c0.6-0.4,0.9-0.7,1.2-0.9"/>
				<path class="st95" d="M-124.9,143.5c0.4-0.3,0.7-0.5,1.4-1c1.3-0.9,1.3-0.9,2.6-1.9c1.3-0.9,1.4-0.8,2.7-1.8
					c1.3-0.9,1.2-1.1,2.5-2c1.2-0.8,1.4-0.8,2.3-1.4"/>
				<path class="st3" d="M-109.1,132.2c0.3-0.3,0.6-0.5,1.2-1"/>
			</g>
		</g>
		<g>
			<g>
				<path class="st3" d="M-123,115.7c0.5,0.5,0.8,0.8,1.1,1"/>
				<path class="st96" d="M-121.8,116.7c0.3,0.2,0.6,0.5,1.2,1.1c1.1,1.1,1,1.2,2.1,2.3s1.1,1.1,2.2,2.2c1.1,1.1,1,1.2,2,2.3
					c0.9,1,1,1.1,1.8,1.9"/>
				<path class="st3" d="M-109,130.3c0.3,0.3,0.6,0.5,1.1,1.1"/>
			</g>
		</g>
		<g>
			<g>
				<path class="st3" d="M-125.1,120.3c1.2,0.8,1.2,0.8,2.4,1.6c1.2,0.8,1.1,0.9,2.3,1.7c0.1,0,0.1,0.1,0.2,0.1"/>
				<path class="st97" d="M-118.3,124.8c0.1,0.1,0.3,0.2,0.5,0.3c1.2,0.8,1.3,0.6,2.6,1.4c1,0.6,1.2,0.8,1.8,1.3"/>
				<path class="st3" d="M-113,128.1L-113,128.1c1.3,0.9,1.4,0.8,2.6,1.6c1.2,0.8,1.3,0.7,2.5,1.5"/>
			</g>
		</g>
		<g>
			<g>
				<path class="st3" d="M-129.3,122.1c0.7,0.3,1,0.5,1.3,0.7"/>
				<path class="st98" d="M-127.9,122.7c0.4,0.2,0.8,0.5,1.6,0.8c1.5,0.7,1.6,0.6,3.1,1.2c1.5,0.7,1.5,0.7,3,1.4
					c1.5,0.7,1.5,0.6,3.1,1.3c1.4,0.6,1.6,0.6,2.7,1"/>
				<path class="st3" d="M-109.3,130.7c0.3,0.2,0.7,0.4,1.4,0.6"/>
			</g>
		</g>
		<g>
			<g>
				<path class="st3" d="M-118.6,112.8c0.4,0.6,0.6,1,0.8,1.3"/>
				<path class="st99" d="M-117.8,114.1c0.2,0.3,0.4,0.7,0.8,1.3c0.8,1.3,0.8,1.3,1.5,2.6c0.8,1.3,0.7,1.3,1.5,2.7
					c0.8,1.3,0.7,1.4,1.5,2.7c0.7,1.1,0.7,1.3,1.2,2.2"/>
				<path class="st3" d="M-108.6,130c0.2,0.3,0.4,0.6,0.8,1.3"/>
			</g>
		</g>
		<g>
			<g>
				<path class="st3" d="M-114.4,113.3c0.2,0.7,0.4,1.1,0.5,1.4"/>
				<path class="st100" d="M-113.9,114.7c0.1,0.4,0.2,0.8,0.5,1.6c0.5,1.5,0.7,1.5,1.2,3s0.5,1.5,1.1,3c0.5,1.5,0.4,1.6,0.9,3.1
					c0,0.1,0.1,0.2,0.1,0.2"/>
				<path class="st3" d="M-108.4,129.9c0.1,0.4,0.2,0.7,0.5,1.4"/>
			</g>
		</g>
		<g>
			<path class="st101" d="M-119,108.2c0.7,1.4,0.7,1.4,1.4,2.9c0.7,1.4,0.5,1.5,1.2,3c0.7,1.4,0.7,1.4,1.4,2.9
				c0.7,1.4,0.8,1.4,1.5,2.8c0.7,1.4,0.5,1.5,1.2,3c0.7,1.4,0.7,1.5,1.3,2.9c0.7,1.4,0.8,1.4,1.5,2.8c0.7,1.4,0.6,1.5,1.3,2.9"/>
		</g>
		<g>
			<g>
				<path class="st3" d="M-107.9,131.2c1.6,0,1.6,0.1,3.2,0.1c1.5,0,1.6,0,2.8,0"/>
				<path class="st102" d="M-95.4,131.4L-95.4,131.4c1.7,0,1.7-0.1,3.3-0.1s1.6,0.1,3.2,0.1s1.6-0.1,3.2-0.1s1.6,0.2,3.2,0.2
					s1.6-0.2,3.2-0.2c1,0,1.3,0,1.9,0"/>
				<path class="st3" d="M-76,131.3c1.3,0,1.4,0,2.8,0c1.6,0,1.6-0.1,3.2-0.1"/>
			</g>
		</g>
		<g>
			<path class="st103" d="M-107.9,131.4c1.5,0.1,1.5,0,3,0.1c1.5,0.1,1.5,0,3,0.1s1.5,0.3,3,0.4c1.5,0.1,1.5-0.1,3,0
				c1.5,0.1,1.5,0.3,3,0.4c1.5,0.1,1.5,0,3,0.1c1.5,0.1,1.5,0.2,3,0.3c1.5,0.1,1.5,0.1,3,0.2c1.5,0.1,1.5,0.1,3,0.2
				c1.5,0.1,1.5-0.1,3,0c1.5,0.1,1.5,0.1,3,0.2c1.5,0.1,1.5,0.1,3,0.2s1.5,0.3,3,0.4"/>
		</g>
		<g>
			<path class="st104" d="M-70.6,135.8c-1.6-0.2-1.5-0.3-3.1-0.5s-1.6-0.1-3.1-0.3c-1.6-0.2-1.6-0.1-3.1-0.3
				c-1.6-0.2-1.5-0.3-3.1-0.4c-1.6-0.2-1.5-0.3-3.1-0.5s-1.6-0.1-3.1-0.3c-1.6-0.2-1.6-0.2-3.1-0.3c-1.6-0.2-1.6-0.1-3.1-0.3
				c-1.6-0.2-1.5-0.3-3.1-0.5s-1.6,0-3.1-0.2c-1.6-0.2-1.5-0.4-3.1-0.5c-1.6-0.2-1.6-0.1-3.1-0.3"/>
		</g>
		<g>
			<path class="st105" d="M-72.4,137.5c-1.5-0.3-1.5-0.2-3-0.4c-1.5-0.3-1.5-0.4-2.9-0.7c-1.5-0.3-1.5-0.2-3-0.5
				c-1.5-0.3-1.5-0.2-3-0.4c-1.5-0.3-1.5-0.3-2.9-0.6c-1.4-0.3-1.5-0.3-3-0.5c-1.5-0.3-1.5-0.4-2.9-0.6c-1.5-0.3-1.5-0.2-3-0.5
				s-1.5-0.2-3-0.5s-1.5-0.2-3-0.5s-1.5-0.3-3-0.6c-1.5-0.3-1.5-0.1-3-0.4"/>
		</g>
		<g>
			<path class="st106" d="M-74.5,139.7c-1.5-0.4-1.5-0.4-3-0.8c-1.5-0.4-1.5-0.4-3-0.8c-1.5-0.4-1.5-0.4-3-0.8s-1.5-0.3-3.1-0.7
				c-1.5-0.4-1.5-0.3-3-0.7c-1.5-0.4-1.5-0.5-3-0.9c-1.5-0.4-1.6-0.2-3.1-0.6c-1.5-0.4-1.5-0.5-3-0.9c-1.5-0.4-1.5-0.4-3-0.8
				c-1.5-0.4-1.6-0.2-3.1-0.6c-1.5-0.4-1.5-0.4-3-0.7"/>
		</g>
		<g>
			<path class="st107" d="M-76.7,141.7c-1.4-0.5-1.4-0.5-2.8-1s-1.5-0.3-2.9-0.8s-1.4-0.5-2.8-0.9c-1.4-0.5-1.4-0.5-2.8-1
				s-1.4-0.7-2.8-1.1c-1.4-0.5-1.4-0.5-2.8-0.9c-1.4-0.5-1.4-0.4-2.9-0.9c-1.4-0.5-1.4-0.5-2.8-0.9c-1.4-0.5-1.4-0.5-2.8-1
				s-1.4-0.4-2.9-0.9s-1.4-0.4-2.9-0.9"/>
		</g>
		<g>
			<path class="st108" d="M-78.1,143.2c-1.5-0.6-1.5-0.7-2.9-1.3c-1.5-0.6-1.6-0.4-3.1-1c-1.5-0.6-1.4-0.8-2.9-1.4
				c-1.5-0.6-1.5-0.4-3-1c-1.5-0.6-1.5-0.6-3-1.2s-1.5-0.5-3-1.1c-1.5-0.6-1.4-0.8-2.9-1.4s-1.5-0.7-3-1.2c-1.5-0.6-1.5-0.6-3-1.2
				c-1.5-0.6-1.5-0.5-3-1.1"/>
		</g>
		<g>
			<g>
				<path class="st3" d="M-80,145.1c-1.4-0.7-1.5-0.5-2.9-1.2c-1.3-0.7-1.4-0.7-2.6-1.3"/>
				<path class="st109" d="M-89.6,140.3c-0.4-0.2-0.7-0.4-1.5-0.7c-1.4-0.7-1.4-0.7-2.8-1.4c-1.4-0.7-1.5-0.6-2.9-1.3
					c-1.4-0.7-1.4-0.8-2.8-1.5c-1-0.5-1.3-0.6-2-0.9"/>
				<path class="st3" d="M-102.6,134c-1.2-0.6-1.2-0.8-2.5-1.5c-1.4-0.7-1.4-0.6-2.8-1.3"/>
			</g>
		</g>
		<g>
			<g>
				<path class="st3" d="M-81.8,146.9c-1.3-0.8-1.3-0.8-2.6-1.6c-1.3-0.8-1.3-0.9-2.5-1.6"/>
				<path class="st110" d="M-91,141.5c-0.3-0.2-0.7-0.4-1.3-0.8c-1.3-0.8-1.3-0.8-2.6-1.6c-1.3-0.8-1.3-0.9-2.6-1.6
					c-1.3-0.8-1.4-0.6-2.7-1.4c-0.9-0.5-1.1-0.8-1.6-1.2"/>
				<path class="st3" d="M-102.7,134.3c-1.2-0.7-1.3-0.6-2.6-1.4c-1.3-0.8-1.3-0.8-2.6-1.6"/>
			</g>
		</g>
		<g>
			<g>
				<path class="st3" d="M-83.6,148.8c-1.2-0.9-1.2-0.9-2.4-1.7c-1.2-0.9-1.1-1-2.4-1.8l0,0"/>
				<path class="st111" d="M-92.1,142.7c-0.3-0.2-0.6-0.4-1.2-0.8c-1.2-0.9-1.2-0.9-2.4-1.7c-1.2-0.9-1.1-1.1-2.3-1.9
					c-1.2-0.9-1.3-0.7-2.5-1.6c-0.8-0.6-1.1-0.7-1.6-1"/>
				<path class="st3" d="M-103.1,134.9c-1.2-0.9-1.1-1-2.4-1.9c-1.2-0.9-1.2-0.9-2.5-1.7"/>
			</g>
		</g>
		<g>
			<g>
				<path class="st3" d="M-85.2,150.3c-1.3-1-1.2-1.1-2.5-2.2c-1.1-0.9-1.2-1.1-2-1.8"/>
				<path class="st112" d="M-93.1,143.6c-0.9-0.7-1.1-0.8-2.2-1.7c-1.3-1-1.3-1-2.6-2.1c-1.3-1-1.2-1.2-2.4-2.2
					c-1.1-0.9-1.3-0.9-2.2-1.6"/>
				<path class="st3" d="M-103.4,135.2c-0.8-0.7-0.9-0.9-2-1.8c-1.3-1.1-1.2-1.1-2.5-2.1"/>
			</g>
		</g>
		<g>
			<path class="st113" d="M-87,152.1c-1.2-1.2-1.3-1-2.5-2.2c-1.2-1.2-1-1.3-2.2-2.4c-1.2-1.2-1.2-1.1-2.4-2.3
				c-1.2-1.2-1.1-1.2-2.2-2.4c-1.2-1.2-1.2-1.1-2.4-2.3c-1.2-1.2-1.1-1.2-2.2-2.4c-1.2-1.2-1.3-1-2.5-2.2c-1.2-1.2-1.1-1.2-2.3-2.3
				c-1.2-1.2-1.2-1.2-2.3-2.3"/>
		</g>
		<g>
			<path class="st114" d="M-88.8,154c-1.1-1.3-1.1-1.2-2.1-2.5c-1.1-1.3-1.1-1.2-2.2-2.5s-1-1.3-2-2.6c-1.1-1.3-1-1.3-2.1-2.5
				c-1.1-1.3-1.2-1.1-2.3-2.4c-1.1-1.3-1.1-1.3-2.1-2.5c-1.1-1.3-0.9-1.4-2-2.6c-1.1-1.3-1.2-1.2-2.2-2.4c-1.1-1.3-1.1-1.2-2.2-2.5"
				/>
		</g>
		<g>
			<path class="st115" d="M-91.5,156.6c-0.8-1.3-0.8-1.3-1.7-2.5c-0.8-1.3-0.8-1.3-1.6-2.6s-0.7-1.4-1.5-2.6
				c-0.8-1.3-0.9-1.2-1.8-2.4c-0.8-1.3-0.8-1.3-1.6-2.5c-0.8-1.3-0.7-1.3-1.5-2.6c-0.8-1.3-1-1.2-1.8-2.4c-0.8-1.3-0.7-1.3-1.5-2.6
				c-0.8-1.3-0.9-1.2-1.7-2.5c-0.8-1.3-0.8-1.3-1.6-2.5"/>
		</g>
		<g>
			<g>
				<path class="st3" d="M-93.3,158.4c-0.7-1.3-0.7-1.3-1.4-2.7c-0.7-1.3-0.8-1.3-1.5-2.5"/>
				<path class="st116" d="M-98.4,149c-0.2-0.4-0.3-0.7-0.7-1.4c-0.7-1.4-0.8-1.3-1.6-2.7c-0.7-1.4-0.6-1.4-1.4-2.8
					c-0.7-1.3-0.6-1.3-1.4-2.7c-0.5-1-0.7-1.2-1-1.8"/>
				<path class="st3" d="M-105,136.6c-0.7-1.2-0.7-1.3-1.4-2.6c-0.7-1.4-0.7-1.4-1.4-2.7"/>
			</g>
		</g>
		<g>
			<g>
				<path class="st3" d="M-95,160.1c-0.6-1.4-0.7-1.4-1.4-2.8c-0.6-1.3-0.5-1.5-1-2.7"/>
				<path class="st117" d="M-99.5,150.2c-0.2-0.4-0.4-0.7-0.7-1.6c-0.6-1.4-0.6-1.4-1.3-2.9c-0.6-1.4-0.7-1.4-1.4-2.8
					c-0.6-1.4-0.6-1.4-1.3-2.9c-0.5-1.1-0.5-1.4-0.8-2.1"/>
				<path class="st3" d="M-105.4,136.8c-0.5-1.2-0.6-1.2-1.2-2.6c-0.7-1.4-0.7-1.4-1.4-2.9"/>
			</g>
		</g>
		<g>
			<g>
				<path class="st3" d="M-96.4,161.6c-0.6-1.5-0.5-1.5-1.1-3.1c-0.5-1.3-0.7-1.5-1.1-2.5"/>
				<path class="st118" d="M-100.5,151.2c-0.2-0.5-0.3-0.8-0.6-1.7c-0.6-1.5-0.5-1.5-1-3.1c-0.6-1.5-0.7-1.5-1.3-3
					c-0.6-1.5-0.4-1.6-0.9-3.1c-0.5-1.2-0.7-1.4-1.1-2.2"/>
				<path class="st3" d="M-105.9,137c-0.4-1.1-0.3-1.3-0.9-2.6c-0.6-1.5-0.6-1.5-1.2-3"/>
			</g>
		</g>
		<g>
			<g>
				<path class="st3" d="M-98.3,163.5c-0.4-1.5-0.5-1.4-0.9-2.9c-0.4-1.4-0.5-1.4-0.9-2.8"/>
				<path class="st119" d="M-101.6,152.6c-0.1-0.2-0.1-0.5-0.2-0.8c-0.4-1.5-0.3-1.5-0.7-3c-0.4-1.5-0.5-1.4-1-2.9
					c-0.4-1.5-0.3-1.5-0.8-2.9c-0.4-1.5-0.4-1.5-0.9-2.9c-0.3-0.9-0.4-1.2-0.6-1.7"/>
				<path class="st3" d="M-106.3,137.1c-0.4-1.4-0.4-1.4-0.8-2.8c-0.4-1.5-0.3-1.5-0.7-3"/>
			</g>
		</g>
		<g>
			<g>
				<path class="st3" d="M-99.7,164.7c-0.4-1.5-0.3-1.5-0.7-3c-0.4-1.4-0.4-1.5-0.7-2.8"/>
				<path class="st120" d="M-102.4,153.4c-0.1-0.2-0.1-0.5-0.2-0.9c-0.4-1.5-0.4-1.5-0.7-3c-0.4-1.5-0.4-1.5-0.8-3s-0.5-1.5-0.9-3
					s-0.3-1.5-0.7-3.1c-0.3-1-0.3-1.4-0.5-1.9"/>
				<path class="st3" d="M-106.4,137.1c-0.3-1.3-0.4-1.3-0.8-2.8s-0.4-1.5-0.7-3"/>
			</g>
		</g>
		<g>
			<path class="st121" d="M-101.5,164.4c-0.3-1.5-0.1-1.5-0.4-3s-0.4-1.5-0.7-3c-0.3-1.5-0.2-1.5-0.5-3s-0.3-1.5-0.6-3
				c-0.3-1.6-0.3-1.6-0.6-3.1s-0.4-1.5-0.7-3c-0.3-1.5-0.2-1.5-0.5-3s-0.4-1.5-0.7-3c-0.3-1.5-0.4-1.5-0.7-3c-0.3-1.5-0.3-1.5-0.6-3
				s-0.1-1.6-0.3-3.1"/>
		</g>
		<g>
			<g>
				<path class="st3" d="M-103.1,162.8c-0.2-1.6-0.2-1.6-0.5-3.2c-0.2-1.4-0.4-1.5-0.6-2.8"/>
				<path class="st122" d="M-104.8,152c0-0.5,0-0.9-0.1-1.8c-0.2-1.6-0.3-1.6-0.6-3.1c-0.2-1.6-0.2-1.6-0.4-3.2
					c-0.2-1.6-0.4-1.6-0.6-3.1c-0.2-1.2-0.2-1.5-0.2-2.3"/>
				<path class="st3" d="M-107,137.2c-0.2-1.2-0.3-1.3-0.5-2.8c-0.2-1.6-0.1-1.6-0.4-3.2"/>
			</g>
		</g>
		<g>
			<g>
				<path class="st3" d="M-105.3,160.7c-0.1-1.6-0.1-1.6-0.2-3.3c-0.1-1.4-0.1-1.6-0.2-2.7"/>
				<path class="st123" d="M-106.2,150.3c-0.1-1.1-0.1-1.3-0.2-2.7c-0.1-1.6-0.1-1.6-0.3-3.3c-0.1-1.6-0.2-1.6-0.4-3.2
					c-0.1-1.4,0-1.6-0.1-2.7"/>
				<path class="st3" d="M-107.3,137.3c-0.1-1.1-0.1-1.3-0.3-2.7c-0.1-1.6-0.2-1.6-0.3-3.3"/>
			</g>
		</g>
		<g>
			<g>
				<path class="st3" d="M-107,158.8c0-1.5,0-1.5,0-3s0-1.5-0.1-2.9"/>
				<path class="st124" d="M-107.3,149c0-0.9,0-1.1,0-2.3c0-1.5-0.2-1.5-0.2-3.1c0-1.5,0-1.5,0-3.1c0-1.2-0.1-1.4-0.1-2.2"/>
				<path class="st3" d="M-107.7,137.3c0-1.4,0-1.4,0-2.9s-0.3-1.5-0.3-3.1"/>
			</g>
		</g>
		<g>
			<g>
				<path class="st3" d="M-108.8,157c0.1-1.6,0-1.6,0.1-3.2c0.1-1.4,0-1.6,0-2.8"/>
				<path class="st125" d="M-108.6,147.6c0-0.1,0-0.1,0-0.2c0.1-1.6,0.2-1.6,0.2-3.2c0.1-1.6,0.2-1.6,0.2-3.2
					c0.1-1.5-0.1-1.6-0.1-2.8"/>
				<path class="st3" d="M-108.2,137.3c0-1.2,0.1-1.3,0.1-2.8c0.1-1.6,0.1-1.6,0.1-3.2"/>
			</g>
		</g>
		<g>
			<g>
				<path class="st3" d="M-110.7,155.1c0.2-1.5,0.2-1.5,0.3-3s0-1.5,0.2-3l0,0"/>
				<path class="st126" d="M-109.6,146.2c0.2-1.5,0-1.5,0.2-3s0.3-1.5,0.5-3c0.1-1.2,0.1-1.4,0.2-2.2"/>
				<path class="st3" d="M-108.6,137.3c0.2-1.5,0-1.5,0.2-3s0.3-1.5,0.5-3"/>
			</g>
		</g>
		<g>
			<path class="st127" d="M-112.6,153.4c0.4-1.6,0.4-1.6,0.7-3.2c0.3-1.6,0.5-1.5,0.8-3.1c0.3-1.6,0.3-1.6,0.7-3.1
				c0.3-1.6,0.1-1.7,0.4-3.2c0.3-1.6,0.6-1.5,0.9-3.1c0.3-1.6,0.1-1.6,0.4-3.2c0.3-1.6,0.4-1.6,0.8-3.1"/>
		</g>
		<g>
			<g>
				<path class="st3" d="M-114.2,151.7c0.4-1.5,0.5-1.5,0.9-2.9s0.6-1.4,1-2.8"/>
				<path class="st128" d="M-111.7,143.8c0.1-0.2,0.1-0.5,0.2-0.8c0.4-1.5,0.4-1.5,0.9-2.9c0.4-1.3,0.6-1.4,0.9-2.4"/>
				<path class="st3" d="M-109.5,137.1c0.4-1.4,0.2-1.4,0.7-2.9c0.4-1.5,0.5-1.5,0.9-2.9"/>
			</g>
		</g>
		<g>
			<path class="st129" d="M-115.2,150.7c0.5-1.4,0.6-1.4,1.1-2.7c0.5-1.4,0.5-1.4,1-2.8c0.5-1.4,0.4-1.4,0.9-2.8
				c0.5-1.4,0.7-1.3,1.2-2.7c0.5-1.4,0.3-1.5,0.8-2.8c0.5-1.4,0.5-1.4,1-2.8c0.5-1.4,0.7-1.3,1.2-2.7"/>
		</g>
		<g>
			<path class="st130" d="M-116.8,149.2c0.7-1.5,0.7-1.5,1.5-3c0.7-1.5,0.9-1.4,1.6-2.9s0.5-1.6,1.2-3.1s0.7-1.5,1.5-3
				c0.7-1.5,0.8-1.5,1.5-3s0.7-1.5,1.5-3"/>
		</g>
		<g>
			<path class="st131" d="M-118,147.9c0.8-1.4,0.9-1.3,1.8-2.7c0.8-1.4,0.8-1.4,1.7-2.8c0.8-1.4,0.8-1.4,1.6-2.8
				c0.8-1.4,0.8-1.4,1.6-2.8c0.8-1.4,0.8-1.4,1.7-2.8c0.9-1.4,0.9-1.4,1.7-2.7"/>
		</g>
		<g>
			<g>
				<path class="st3" d="M-119.4,146.5c1-1.3,0.9-1.3,1.9-2.6c0.9-1.2,0.9-1.3,1.6-2.3"/>
				<path class="st132" d="M-114.8,140.2c0.3-0.4,0.5-0.7,1-1.4c0.9-1.2,1-1.2,1.9-2.4"/>
				<path class="st3" d="M-111.6,136c0.8-1,0.8-1.1,1.7-2.3c1-1.3,1-1.2,2-2.5"/>
			</g>
		</g>
		<g>
			<path class="st133" d="M-120.3,145.6c1-1.2,1-1.2,2-2.4c1-1.2,1.1-1.1,2.2-2.3c1-1.2,0.9-1.3,1.9-2.5c1-1.2,1.1-1.1,2.1-2.3
				s1-1.3,2-2.4c1-1.2,1.1-1.1,2.2-2.3"/>
		</g>
		<g>
			<g>
				<path class="st3" d="M-72,129.5c-1.5,0.1-1.5,0-3,0.1s-1.5,0.2-3,0.3"/>
				<path class="st134" d="M-83.9,129.9c-1.5,0.1-1.5,0.3-3,0.3c-1.5,0.1-1.5-0.1-3,0c-1.5,0.1-1.5,0.2-3,0.3
					c-1.5,0.1-1.5,0.2-3,0.3c-1.5,0.1-1.5-0.1-3,0c-0.2,0-0.4,0-0.5,0"/>
				<path class="st3" d="M-101.9,131c-1.5,0.1-1.5,0-3,0c-1.5,0.1-1.5,0-3,0.1"/>
			</g>
		</g>
		<g>
			<path class="st135" d="M-74,127.3c-1.5,0.2-1.5,0.4-3.1,0.6c-1.5,0.2-1.6,0-3.1,0.2c-1.5,0.2-1.5,0.3-3.1,0.5
				c-1.5,0.2-1.6,0.1-3.1,0.2c-1.5,0.2-1.5,0.3-3.1,0.5c-1.5,0.2-1.6,0-3.1,0.2c-1.5,0.2-1.5,0.2-3.1,0.4c-1.5,0.2-1.5,0.3-3.1,0.5
				c-1.5,0.2-1.6,0-3.1,0.2s-1.5,0.2-3.1,0.4c-1.6,0.2-1.5,0.2-3.1,0.4"/>
		</g>
		<g>
			<path class="st136" d="M-76.1,125.2c-1.6,0.3-1.6,0.3-3.2,0.6s-1.6,0.5-3.1,0.8c-1.6,0.3-1.6,0.3-3.2,0.6
				c-1.6,0.3-1.6,0.1-3.2,0.5c-1.6,0.3-1.6,0.4-3.2,0.7c-1.6,0.3-1.6,0.3-3.2,0.6s-1.6,0.2-3.2,0.5c-1.6,0.3-1.6,0.2-3.2,0.5
				c-1.6,0.3-1.6,0.5-3.2,0.8s-1.6,0.1-3.2,0.4"/>
		</g>
		<g>
			<g>
				<path class="st3" d="M-78.8,122.7c-1.5,0.4-1.5,0.2-3,0.7c-1.4,0.4-1.5,0.4-2.8,0.8"/>
				<path class="st137" d="M-89,125.6c-0.4,0.1-0.7,0.3-1.5,0.5c-1.5,0.4-1.4,0.5-2.9,0.9c-1.5,0.4-1.5,0.2-3,0.7
					c-1.5,0.4-1.4,0.6-2.9,1c-1,0.3-1.3,0.4-1.9,0.5"/>
				<path class="st3" d="M-102.2,129.6c-1.4,0.4-1.4,0.5-2.8,0.9c-1.5,0.4-1.5,0.4-2.9,0.8"/>
			</g>
		</g>
		<g>
			<g>
				<path class="st3" d="M-80.2,121.2c-1.5,0.6-1.6,0.4-3.2,0.9c-1.3,0.5-1.5,0.7-2.5,1.1"/>
				<path class="st138" d="M-90,124.7c-1.1,0.4-1.2,0.5-2.5,1c-1.5,0.6-1.6,0.5-3.1,1.1s-1.6,0.5-3.1,1.1c-1.4,0.5-1.5,0.6-2.5,1"/>
				<path class="st3" d="M-102.3,129.3c-1,0.4-1.2,0.4-2.6,0.8c-1.5,0.6-1.5,0.6-3.1,1.2"/>
			</g>
		</g>
		<g>
			<path class="st139" d="M-82.1,119.2c-1.4,0.7-1.4,0.8-2.8,1.5c-1.4,0.7-1.5,0.6-2.9,1.2c-1.4,0.7-1.5,0.6-2.9,1.2
				c-1.4,0.7-1.4,0.7-2.9,1.3c-1.4,0.7-1.4,0.8-2.8,1.5c-1.4,0.7-1.4,0.7-2.8,1.4s-1.5,0.6-2.9,1.3c-1.4,0.7-1.4,0.7-2.9,1.3
				c-1.5,0.6-1.5,0.6-2.9,1.3"/>
		</g>
		<g>
			<g>
				<path class="st3" d="M-83.9,117.5c-1.3,0.8-1.4,0.6-2.7,1.4c-1.3,0.7-1.3,0.8-2.5,1.5"/>
				<path class="st140" d="M-92.5,122.4c-0.8,0.5-1,0.6-2,1.2c-1.3,0.8-1.4,0.7-2.7,1.5c-1.3,0.8-1.3,0.9-2.6,1.6
					c-1,0.6-1.3,0.8-2,1.2"/>
				<path class="st3" d="M-102.7,128.3c-1.2,0.7-1.2,0.8-2.5,1.6c-1.3,0.8-1.3,0.8-2.7,1.5"/>
			</g>
		</g>
		<g>
			<path class="st141" d="M-85.1,115.8c-1.3,0.9-1.3,0.8-2.5,1.7c-1.3,0.9-1.2,0.9-2.5,1.8s-1.4,0.7-2.6,1.6
				c-1.3,0.9-1.3,0.8-2.6,1.6c-1.3,0.9-1.1,1.1-2.4,1.9c-1.3,0.9-1.4,0.7-2.6,1.6c-1.3,0.9-1.2,1-2.4,1.9c-1.3,0.9-1.4,0.9-2.6,1.8
				c-1.2,0.9-1.3,0.8-2.6,1.7"/>
		</g>
		<g>
			<g>
				<path class="st3" d="M-87.5,115.2c-1.3,1-1.3,0.9-2.6,1.9c-1.1,0.9-1.2,1-2.1,1.7"/>
				<path class="st142" d="M-94.9,121.2c-0.1,0-0.1,0.1-0.2,0.2c-1.3,1-1.4,0.8-2.7,1.8c-1.3,1-1.2,1.1-2.5,2.1
					c-1.2,0.9-1.2,1.1-2.2,1.9"/>
				<path class="st3" d="M-103.2,127.6c-0.9,0.7-1.1,0.8-2.2,1.7c-1.3,1-1.3,0.9-2.6,2"/>
			</g>
		</g>
		<g>
			<g>
				<path class="st3" d="M-88.5,112.9c-1.1,1-1.1,1-2.1,2.1c-1.1,1-1,1.1-2.1,2.1l0,0"/>
				<path class="st143" d="M-95.5,119.6c-0.6,0.5-0.7,0.7-1.6,1.5c-1.1,1-1.2,0.9-2.2,2c-1.1,1-1,1.1-2.1,2.1
					c-0.8,0.7-1,0.9-1.5,1.4"/>
				<path class="st3" d="M-103.6,127.2L-103.6,127.2c-1.1,1-1.2,1-2.3,2c-1.1,1-1,1.1-2.1,2.2"/>
			</g>
		</g>
		<g>
			<g>
				<path class="st3" d="M-90.7,154.6c-1-1.3-1-1.3-2-2.5c-0.9-1.2-1-1.3-1.7-2.2"/>
				<path class="st144" d="M-96.7,146.3c-0.6-0.8-0.7-1-1.5-2.1c-1-1.3-1.1-1.2-2-2.5c-1-1.3-0.9-1.4-1.8-2.7
					c-0.8-1.1-0.9-1.3-1.5-2.1"/>
				<path class="st3" d="M-104.2,136.1c-0.7-0.9-0.9-1-1.7-2.2c-1-1.3-1-1.3-1.9-2.6"/>
			</g>
		</g>
		<g>
			<g>
				<path class="st3" d="M-93.6,155.1c-0.8-1.3-0.6-1.4-1.4-2.7c-0.8-1.3-0.8-1.3-1.5-2.5"/>
				<path class="st145" d="M-98.8,146.6c-0.5-0.8-0.5-1-1.2-2.1c-0.8-1.3-0.6-1.4-1.4-2.7s-0.8-1.3-1.6-2.7c-0.6-1-0.8-1.2-1.2-1.9"
					/>
				<path class="st3" d="M-104.8,136.4c-0.7-1.2-0.7-1.2-1.5-2.5c-0.8-1.3-0.8-1.3-1.6-2.7"/>
			</g>
		</g>
		<g>
			<g>
				<path class="st3" d="M-93.4,158.4c-0.7-1.4-0.8-1.3-1.5-2.7c-0.7-1.3-0.6-1.4-1.2-2.7"/>
				<path class="st146" d="M-98.4,149c-0.2-0.4-0.4-0.7-0.8-1.4c-0.7-1.4-0.6-1.4-1.4-2.8c-0.7-1.4-0.8-1.3-1.5-2.7
					c-0.7-1.4-0.9-1.3-1.6-2.6c-0.5-1-0.6-1.3-0.9-1.9"/>
				<path class="st3" d="M-105.1,136.6c-0.7-1.2-0.7-1.2-1.4-2.6c-0.7-1.4-0.7-1.3-1.5-2.7"/>
			</g>
		</g>
		<g>
			<g>
				<path class="st3" d="M-95.1,160.1c-0.6-1.4-0.6-1.4-1.3-2.9c-0.6-1.3-0.5-1.5-1-2.7"/>
				<path class="st147" d="M-99.4,150.1c-0.2-0.4-0.5-0.7-0.8-1.5c-0.6-1.4-0.6-1.5-1.2-2.9c-0.7-1.4-0.6-1.5-1.2-2.9
					s-0.9-1.3-1.5-2.8c-0.5-1.1-0.6-1.4-0.8-2.1"/>
				<path class="st3" d="M-105.5,136.8c-0.5-1.2-0.6-1.3-1.2-2.6c-0.6-1.4-0.6-1.4-1.3-2.9"/>
			</g>
		</g>
		<g>
			<path class="st148" d="M-98,161.8c-0.5-1.5-0.5-1.5-1-3s-0.4-1.6-0.9-3.1s-0.5-1.5-1-3s-0.4-1.5-0.9-3.1c-0.5-1.5-0.6-1.5-1.1-3
				s-0.6-1.5-1.1-3s-0.4-1.6-0.9-3.1s-0.4-1.6-0.9-3.1s-0.7-1.5-1.2-3s-0.5-1.5-1-3.1"/>
		</g>
		<g>
			<g>
				<path class="st3" d="M-100.5,163c-0.4-1.6-0.5-1.6-0.9-3.1c-0.3-1.4-0.2-1.6-0.4-2.7"/>
				<path class="st149" d="M-103.1,152.2c-0.1-0.5-0.1-0.9-0.4-1.8c-0.4-1.6-0.4-1.6-0.7-3.2c-0.4-1.6-0.5-1.6-0.9-3.1
					c-0.4-1.6-0.3-1.6-0.6-3.2c-0.3-1.3-0.4-1.5-0.6-2.4"/>
				<path class="st3" d="M-106.5,137.2c-0.3-1.1-0.4-1.3-0.7-2.6c-0.4-1.6-0.3-1.6-0.6-3.2"/>
			</g>
		</g>
		<g>
			<path class="st150" d="M-113.1,151.6c0.4-1.4,0.2-1.5,0.5-2.9c0.4-1.5,0.6-1.5,0.9-2.9c0.4-1.4,0.4-1.4,0.8-2.9
				c0.4-1.4,0.3-1.5,0.6-2.9c0.4-1.4,0.4-1.4,0.8-2.9c0.4-1.4,0.3-1.5,0.7-2.9c0.4-1.4,0.5-1.4,0.9-2.9"/>
		</g>
		<g>
			<g>
				<path class="st3" d="M-111.5,152.2c0.2-1.5,0.3-1.5,0.6-3c0.3-1.4,0.4-1.4,0.6-2.9"/>
				<path class="st151" d="M-109.9,144.1c0-0.2,0.1-0.5,0.1-0.8c0.2-1.5,0.1-1.5,0.3-3c0.2-1.3,0.3-1.5,0.5-2.5"/>
				<path class="st3" d="M-108.9,137.2c0.2-1.4,0.3-1.4,0.5-2.9s0.1-1.5,0.3-3"/>
			</g>
		</g>
		<g>
			<g>
				<path class="st3" d="M-110.2,154.6c0.2-1.7,0.2-1.7,0.3-3.3c0.1-1.4,0.2-1.6,0.3-2.6"/>
				<path class="st152" d="M-109.3,145.8c0-0.3,0.1-0.7,0.1-1.2c0.2-1.7,0.2-1.7,0.4-3.3c0.2-1.7,0.2-1.7,0.3-3.3"/>
				<path class="st3" d="M-108.4,137.3c0.1-1,0-1.3,0.1-2.6c0.2-1.7,0.1-1.7,0.2-3.3"/>
			</g>
		</g>
		<g>
			<path class="st153" d="M-107.8,154c0-1.6-0.1-1.6-0.1-3.2s0.1-1.6,0.1-3.2c0-1.6,0.1-1.6,0.1-3.2c0-1.6,0-1.6,0-3.2
				c0-1.6-0.2-1.6-0.2-3.2c0-1.6,0.2-1.6,0.1-3.2c-0.1-1.6-0.1-1.6-0.1-3.2"/>
		</g>
		<g>
			<path class="st154" d="M-106.4,158.3c-0.1-1.5,0-1.5-0.1-3s0-1.5-0.1-3s-0.1-1.5-0.2-3c-0.2-1.5-0.4-1.5-0.4-3
				c-0.1-1.5-0.1-1.5-0.1-3c-0.1-1.5,0.2-1.5,0.1-3s-0.3-1.5-0.4-3s0.1-1.5,0.1-3s-0.1-1.5-0.2-3"/>
		</g>
		<g>
			<path class="st155" d="M-104.6,157.1c-0.2-1.6-0.2-1.6-0.4-3.2c-0.2-1.6-0.2-1.6-0.4-3.2c-0.2-1.6-0.4-1.6-0.6-3.2
				c-0.2-1.7-0.2-1.7-0.4-3.3c-0.2-1.6,0-1.6-0.2-3.3c-0.2-1.6-0.4-1.6-0.6-3.2c-0.2-1.6,0-1.6-0.2-3.3c-0.2-1.6-0.2-1.6-0.4-3.2"/>
		</g>
		<g>
			<g>
				<path class="st3" d="M-115.6,149.2c0.6-1.5,0.6-1.5,1.2-3c0.6-1.3,0.6-1.5,1-2.6"/>
				<path class="st156" d="M-112.5,141.9c0.2-0.4,0.5-0.8,0.8-1.6c0.6-1.5,0.5-1.5,1.2-3l0,0"/>
				<path class="st3" d="M-110.3,136.8c0.5-1.1,0.5-1.2,1.1-2.5c0.6-1.5,0.7-1.5,1.3-3"/>
			</g>
		</g>
		<g>
			<path class="st157" d="M-116.7,146.9c0.7-1.3,0.8-1.2,1.6-2.5c0.7-1.3,0.6-1.4,1.3-2.7c0.7-1.3,0.7-1.3,1.4-2.6
				c0.7-1.3,0.9-1.2,1.6-2.5s0.6-1.4,1.4-2.7c0.8-1.3,0.7-1.3,1.4-2.6"/>
		</g>
		<g>
			<g>
				<path class="st3" d="M-117.3,144.1c0.9-1.3,1.1-1.1,2.1-2.4c0.9-1.2,0.9-1.3,1.6-2.3"/>
				<path class="st158" d="M-113.1,138.6c0.5-0.8,0.6-1.1,1.3-2.2c0,0,0-0.1,0.1-0.1"/>
				<path class="st3" d="M-111.5,136.1c0.7-1,1-1,1.8-2.2c0.9-1.3,0.9-1.3,1.8-2.6"/>
			</g>
		</g>
		<g>
			<g>
				<path class="st3" d="M-119.5,145.3c1-1.2,1-1.1,2-2.3c0.9-1.2,0.9-1.3,1.8-2.4"/>
				<path class="st159" d="M-114.7,139.4c0.2-0.3,0.5-0.6,1-1.2c0.9-1.1,1-1.1,1.8-2"/>
				<path class="st3" d="M-111.8,135.9c0.9-1.1,1.1-1,2-2.2c1-1.2,1-1.2,1.9-2.3"/>
			</g>
		</g>
		<g>
			<g>
				<path class="st3" d="M-120.2,144.5c1-1.1,1-1.1,2-2.2s0.9-1.2,2-2.3"/>
				<path class="st160" d="M-115.2,139c0.3-0.3,0.5-0.5,1-1.1c0.9-1,1-1.1,1.8-1.9"/>
				<path class="st3" d="M-112.1,135.7c1-1.1,1.1-1,2.1-2.1c1-1.1,1-1.1,2-2.2"/>
			</g>
		</g>
		<g>
			<path class="st161" d="M-94.5,158.2c-0.7-1.3-0.7-1.3-1.3-2.7c-0.7-1.3-0.7-1.4-1.3-2.7c-0.7-1.3-0.6-1.4-1.3-2.7
				c-0.7-1.3-0.8-1.3-1.5-2.6c-0.7-1.3-0.6-1.4-1.3-2.7c-0.7-1.3-0.8-1.3-1.5-2.6c-0.7-1.3-0.4-1.5-1.1-2.8
				c-0.7-1.3-0.7-1.3-1.4-2.7c-0.7-1.3-0.9-1.3-1.5-2.6c-0.7-1.3-0.5-1.4-1.2-2.8"/>
		</g>
		<g>
			<path class="st162" d="M-97.4,156.5c-0.6-1.4-0.6-1.4-1.2-2.8c-0.6-1.4-0.6-1.4-1.2-2.8c-0.6-1.4-0.7-1.3-1.2-2.7
				c-0.6-1.4-0.6-1.4-1.2-2.8c-0.6-1.4-0.5-1.4-1.1-2.8c-0.6-1.4-0.6-1.4-1.2-2.8s-0.5-1.4-1.1-2.8c-0.6-1.4-0.6-1.4-1.1-2.8
				c-0.6-1.4-0.7-1.3-1.3-2.7"/>
		</g>
		<g>
			<path class="st163" d="M-100.7,158.1c-0.4-1.5-0.4-1.5-0.8-3s-0.4-1.5-0.8-3s-0.4-1.5-0.8-3s-0.3-1.5-0.7-3
				c-0.4-1.5-0.6-1.4-1-2.9s-0.2-1.5-0.6-3s-0.4-1.5-0.8-3s-0.4-1.5-0.8-3s-0.4-1.5-0.8-3"/>
		</g>
		<g>
			<g>
				<path class="st3" d="M-109.7,155.1c0.1-1.5,0.3-1.5,0.4-3s0.1-1.5,0.2-3l0,0"/>
				<path class="st164" d="M-109,146.2c0.1-1.5,0-1.5,0.2-3c0.1-1.5,0.2-1.5,0.3-3c0.1-1.2,0.1-1.4,0.2-2.2"/>
				<path class="st3" d="M-108.3,137.3L-108.3,137.3c0.1-1.5,0.1-1.5,0.2-3s0-1.5,0.1-3"/>
			</g>
		</g>
		<g>
			<g>
				<path class="st3" d="M-117.8,146.3c0.8-1.2,0.7-1.3,1.6-2.6c0.8-1.2,0.8-1.2,1.7-2.5l0,0"/>
				<path class="st165" d="M-113.8,140c0.2-0.3,0.4-0.6,0.8-1.2c0.8-1.1,0.9-1.2,1.5-2.2"/>
				<path class="st3" d="M-111.3,136.3c0.8-1.3,0.8-1.3,1.6-2.5c0.8-1.3,0.8-1.2,1.7-2.5"/>
			</g>
		</g>
		<g>
			<g>
				<path class="st3" d="M-92,153.8c-0.9-1.3-1-1.2-1.9-2.4c-0.9-1.2-0.9-1.2-1.8-2.4"/>
				<path class="st166" d="M-97.8,145.8c-0.4-0.7-0.5-1-1.2-2c-0.9-1.3-0.9-1.3-1.7-2.5c-0.9-1.3-0.9-1.2-1.8-2.5
					c-0.7-1-0.9-1.2-1.3-1.8"/>
				<path class="st3" d="M-104.5,136.2c-0.8-1.1-0.8-1.2-1.6-2.4c-0.9-1.3-0.8-1.3-1.7-2.6"/>
			</g>
		</g>
		<g>
			<g>
				<path class="st3" d="M-91.3,152.2c-0.9-1.2-1.1-1.1-2-2.2c-0.9-1.1-0.9-1.2-1.8-2.4c0,0,0,0,0-0.1"/>
				<path class="st167" d="M-97.4,144.7c-0.5-0.6-0.6-0.8-1.3-1.7c-0.9-1.2-0.8-1.3-1.7-2.4c-0.9-1.2-1.1-1-2-2.2
					c-0.7-0.8-0.8-1.1-1.1-1.6"/>
				<path class="st3" d="M-104.1,136C-104.2,136-104.2,136-104.1,136c-1-1.2-1.1-1.1-2-2.3c-0.9-1.2-0.9-1.2-1.8-2.3"/>
			</g>
		</g>
		<g>
			<path class="st168" d="M-88.7,152.5c-1.1-1.2-1-1.2-2.1-2.4s-1.1-1.2-2.1-2.3c-1.1-1.2-1.1-1.2-2.2-2.3c-1.1-1.2-1.1-1.2-2.1-2.3
				c-1.1-1.2-1-1.3-2-2.4c-1.1-1.2-1.1-1.2-2.2-2.3c-1.1-1.2-1-1.3-2.1-2.4c-1.1-1.2-1.1-1.2-2.2-2.3c-1.1-1.2-1.2-1-2.3-2.2"/>
		</g>
		<g>
			<path class="st169" d="M-86.7,149.8c-1.2-1-1.1-1.1-2.3-2.1c-1.2-1-1.1-1.1-2.3-2.1c-1.2-1-1.3-0.9-2.5-1.9s-1.2-1-2.4-2
				c-1.2-1-1.1-1.1-2.3-2.2c-1.2-1-1.1-1.1-2.3-2.1c-1.2-1-1.2-1-2.4-2c-1.2-1-1.2-1.1-2.3-2.1c-1.2-1-1.2-1-2.4-2"/>
		</g>
		<g>
			<path class="st170" d="M-85.3,148.7c-1.3-1-1.2-1.1-2.4-2c-1.3-1-1.3-0.9-2.6-1.8c-1.3-1-1.2-1.1-2.4-2c-1.3-1-1.4-0.8-2.6-1.8
				c-1.3-1-1.2-1-2.5-1.9c-1.3-1-1.2-1.1-2.4-2.1c-1.3-1-1.3-0.9-2.6-1.8c-1.3-1-1.3-0.9-2.5-1.9c-1.3-1-1.3-1-2.5-1.9"/>
		</g>
		<g>
			<g>
				<path class="st3" d="M-85.5,146.4c-1.2-0.8-1.3-0.8-2.5-1.6s-1.1-1-2.4-1.8"/>
				<path class="st171" d="M-93.6,140.9c-0.7-0.4-0.9-0.5-1.9-1.2c-1.2-0.8-1.2-0.9-2.5-1.7c-1.2-0.8-1.3-0.8-2.5-1.6
					c-0.9-0.6-1.1-0.8-1.7-1.2"/>
				<path class="st3" d="M-102.9,134.7c-1.2-0.8-1.3-0.7-2.5-1.6c-1.2-0.8-1.1-1-2.4-1.9"/>
			</g>
		</g>
		<g>
			<path class="st172" d="M-83,145.1c-1.4-0.8-1.4-0.8-2.7-1.6c-1.4-0.8-1.3-0.9-2.7-1.6c-1.4-0.7-1.4-0.8-2.8-1.5
				c-1.4-0.8-1.5-0.6-2.9-1.3c-1.4-0.8-1.4-0.8-2.8-1.5c-1.4-0.8-1.4-0.7-2.8-1.5s-1.3-0.9-2.7-1.7c-1.4-0.8-1.4-0.8-2.8-1.6
				s-1.4-0.8-2.8-1.6"/>
		</g>
		<g>
			<path class="st173" d="M-80.6,143.9c-1.4-0.6-1.3-0.7-2.7-1.3c-1.4-0.6-1.3-0.7-2.7-1.3c-1.4-0.6-1.5-0.4-2.8-1.1
				c-1.4-0.6-1.3-0.7-2.7-1.3c-1.4-0.6-1.3-0.7-2.7-1.3c-1.4-0.6-1.5-0.4-2.8-1.1c-1.4-0.6-1.3-0.8-2.6-1.4
				c-1.4-0.6-1.4-0.6-2.7-1.2c-1.4-0.6-1.3-0.7-2.7-1.3c-1.4-0.6-1.4-0.6-2.8-1.2"/>
		</g>
		<g>
			<g>
				<path class="st3" d="M-81.5,141.2c-1.5-0.5-1.5-0.5-2.9-1s-1.4-0.7-2.6-1.2"/>
				<path class="st174" d="M-91,137.7c-0.9-0.4-1-0.5-2.3-1c-1.5-0.5-1.5-0.4-3-1c-1.5-0.5-1.4-0.6-2.9-1.2
					c-1.2-0.4-1.4-0.5-2.2-0.8"/>
				<path class="st3" d="M-102.3,133.4c-1.2-0.5-1.3-0.5-2.7-1c-1.5-0.6-1.5-0.5-2.9-1.1"/>
			</g>
		</g>
		<g>
			<g>
				<path class="st3" d="M-76.7,140.4c-1.6-0.5-1.6-0.5-3.1-0.9c-1.4-0.4-1.6-0.4-2.7-0.7"/>
				<path class="st175" d="M-87.4,137.3c-0.5-0.2-0.8-0.4-1.8-0.6c-1.6-0.5-1.6-0.2-3.2-0.7s-1.5-0.7-3-1.1
					c-1.6-0.5-1.6-0.4-3.1-0.8c-1.3-0.4-1.5-0.4-2.4-0.7"/>
				<path class="st3" d="M-102.1,132.9c-1.1-0.3-1.2-0.4-2.6-0.8c-1.6-0.5-1.6-0.3-3.2-0.8"/>
			</g>
		</g>
		<g>
			<g>
				<path class="st3" d="M-77,137.9c-1.5-0.3-1.6-0.2-3.1-0.5c-1.4-0.3-1.5-0.4-2.8-0.6"/>
				<path class="st176" d="M-87.6,135.5c-0.4-0.1-0.8-0.1-1.7-0.3c-1.5-0.3-1.6-0.1-3.1-0.5c-1.5-0.3-1.5-0.4-3.1-0.7
					c-1.5-0.3-1.5-0.4-3.1-0.7c-1.2-0.3-1.5-0.3-2.2-0.5"/>
				<path class="st3" d="M-102,132.6c-1.2-0.3-1.3-0.3-2.8-0.6s-1.5-0.4-3.1-0.8"/>
			</g>
		</g>
		<g>
			<g>
				<path class="st3" d="M-73.2,136.3c-1.6-0.2-1.6-0.1-3.2-0.4c-1.4-0.2-1.6-0.3-2.8-0.5"/>
				<path class="st177" d="M-84.8,134.7c-0.3,0-0.6-0.1-1-0.1c-1.6-0.2-1.6-0.3-3.1-0.5c-1.6-0.2-1.6-0.4-3.1-0.6
					c-1.6-0.2-1.6,0-3.2-0.3c-1.6-0.2-1.6-0.2-3.2-0.5c-1.1-0.2-1.5-0.2-2.1-0.3"/>
				<path class="st3" d="M-102,132.2c-1.2-0.2-1.3-0.3-2.7-0.6c-1.6-0.2-1.6-0.1-3.2-0.4"/>
			</g>
		</g>
		<g>
			<g>
				<path class="st3" d="M-70.7,134.6c-1.5-0.1-1.5-0.1-3.1-0.3c-1.5-0.1-1.6-0.1-2.9-0.2"/>
				<path class="st178" d="M-83,133.6L-83,133.6c-1.6-0.1-1.6-0.2-3.2-0.3c-1.5-0.1-1.6-0.1-3.1-0.2c-1.5-0.1-1.5-0.2-3.1-0.3
					c-1.5-0.1-1.6-0.1-3.1-0.3c-1.6-0.1-1.5-0.3-3.1-0.4c-0.9-0.1-1.3-0.1-1.8-0.1"/>
				<path class="st3" d="M-101.9,131.8c-1.3-0.1-1.4-0.2-2.9-0.3c-1.6-0.1-1.5-0.2-3.1-0.3"/>
			</g>
		</g>
		<g>
			<g>
				<path class="st3" d="M-71.6,132.3c-1.5,0-1.5,0.1-3,0.1s-1.5-0.1-3-0.1"/>
				<path class="st179" d="M-83.6,132C-83.7,132-83.7,132-83.6,132c-1.5,0-1.5,0-3.1,0c-1.5,0-1.5,0.1-3,0c-1.5,0-1.5-0.1-3-0.1
					s-1.5-0.2-3-0.2s-1.5,0.1-3,0c-0.8,0-1.2-0.1-1.6-0.1"/>
				<path class="st3" d="M-101.9,131.4c-1.4,0-1.5,0-3-0.1c-1.5,0-1.5,0-3-0.1"/>
			</g>
		</g>
		<g>
			<path class="st180" d="M-72,130.6c-1.6,0-1.6-0.1-3.3-0.1c-1.6,0-1.6,0.2-3.3,0.3c-1.6,0-1.6,0.1-3.3,0.1c-1.6,0-1.6-0.1-3.3-0.1
				c-1.6,0-1.6,0-3.3,0c-1.6,0-1.6,0.3-3.3,0.3c-1.6,0-1.6-0.1-3.3,0c-1.6,0-1.6,0-3.3,0c-1.6,0-1.6,0.1-3.3,0.1
				c-1.6,0-1.6-0.1-3.3-0.1c-1.6,0-1.6,0.1-3.3,0.1"/>
		</g>
		<g>
			<path class="st181" d="M-75.3,128.6c-1.6,0.1-1.6,0.3-3.2,0.5c-1.6,0.1-1.6,0-3.3,0.1c-1.6,0.1-1.6,0.2-3.3,0.4s-1.6,0-3.3,0.1
				c-1.6,0.1-1.6,0.1-3.2,0.2c-1.6,0.1-1.6,0.3-3.3,0.4c-1.6,0.1-1.6,0-3.3,0.2c-1.6,0.1-1.6,0.2-3.3,0.3c-1.6,0.1-1.6,0.3-3.3,0.4
				c-1.6,0.1-1.6,0-3.3,0.2"/>
		</g>
		<g>
			<g>
				<path class="st3" d="M-76.2,126.3c-1.6,0.2-1.6,0.2-3.2,0.4c-1.4,0.2-1.6,0.3-2.7,0.5"/>
				<path class="st182" d="M-87.1,128c-0.5,0.1-0.8,0.2-1.8,0.4c-1.6,0.2-1.6,0.2-3.2,0.5c-1.6,0.2-1.6,0.2-3.2,0.5
					c-1.6,0.2-1.6,0.3-3.2,0.5c-1.3,0.2-1.5,0.2-2.4,0.3"/>
				<path class="st3" d="M-102,130.4c-1.2,0.2-1.3,0.1-2.8,0.4c-1.6,0.2-1.6,0.4-3.2,0.7"/>
			</g>
		</g>
		<g>
			<g>
				<path class="st3" d="M-78,124.4c-1.5,0.3-1.5,0.4-3,0.7c-1.5,0.3-1.5,0.3-2.9,0.6"/>
				<path class="st183" d="M-88.4,126.9c-0.4,0.1-0.7,0.3-1.5,0.5c-1.5,0.3-1.5,0.2-3,0.5s-1.5,0.3-3,0.6s-1.4,0.5-2.9,0.9
					c-1.1,0.2-1.4,0.3-2,0.4"/>
				<path class="st3" d="M-102,130.1c-1.4,0.3-1.4,0.4-2.8,0.7c-1.5,0.3-1.5,0.3-3,0.6"/>
			</g>
		</g>
		<g>
			<path class="st184" d="M-79,123.6c-1.4,0.4-1.5,0.2-2.9,0.6s-1.4,0.4-2.9,0.8c-1.4,0.4-1.4,0.4-2.9,0.8c-1.4,0.4-1.4,0.5-2.9,0.9
				c-1.4,0.4-1.4,0.4-2.9,0.8c-1.4,0.4-1.5,0.2-2.9,0.6c-1.4,0.4-1.4,0.5-2.9,0.8c-1.4,0.4-1.4,0.4-2.9,0.8
				c-1.4,0.4-1.5,0.3-2.9,0.7c-1.4,0.4-1.4,0.4-2.9,0.8"/>
		</g>
		<g>
			<g>
				<path class="st3" d="M-82.1,120.4c-1.4,0.6-1.4,0.7-2.8,1.3s-1.4,0.6-2.7,1.1"/>
				<path class="st185" d="M-91.2,124.5c-0.9,0.3-1.1,0.4-2.3,0.9c-1.4,0.6-1.5,0.5-2.9,1.1c-1.4,0.6-1.4,0.6-2.9,1.2
					c-1.2,0.5-1.4,0.6-2.1,1"/>
				<path class="st3" d="M-102.4,129c-1.2,0.5-1.3,0.5-2.7,1c-1.4,0.6-1.4,0.7-2.9,1.3"/>
			</g>
		</g>
		<g>
			<g>
				<path class="st3" d="M-83.8,118.8c-1.3,0.7-1.3,0.8-2.6,1.5c-1.3,0.7-1.4,0.6-2.7,1.3"/>
				<path class="st186" d="M-92.5,123.3c-0.7,0.4-0.9,0.5-2,1.1c-1.3,0.7-1.3,0.7-2.7,1.4c-1.3,0.7-1.3,0.7-2.7,1.4
					c-1,0.5-1.3,0.5-2,0.8"/>
				<path class="st3" d="M-102.7,128.4c-1.3,0.7-1.2,0.9-2.5,1.6c-1.3,0.7-1.5,0.5-2.8,1.2"/>
			</g>
		</g>
		<g>
			<g>
				<path class="st3" d="M-85.5,117.1c-1.4,0.9-1.5,0.7-2.9,1.6c-1.2,0.8-1.4,0.9-2.2,1.5"/>
				<path class="st187" d="M-93.7,122.2c-0.1,0.1-0.2,0.1-0.3,0.2c-1.4,0.9-1.4,0.8-2.8,1.7c-1.4,0.9-1.4,0.9-2.8,1.8
					c-1.3,0.8-1.4,0.9-2.6,1.6"/>
				<path class="st3" d="M-102.9,128c-0.9,0.6-1,0.7-2.2,1.5c-1.4,0.9-1.3,1-2.7,1.9"/>
			</g>
		</g>
		<g>
			<g>
				<path class="st3" d="M-87.4,116.3c-1.3,0.9-1.4,0.8-2.6,1.8c-1.2,0.9-1.2,1-2.2,1.7"/>
				<path class="st188" d="M-95,121.8L-95,121.8c-1.4,1-1.4,1-2.7,1.9c-1.3,0.9-1.2,1-2.5,1.9c-1.1,0.8-1.3,0.9-2.2,1.5"/>
				<path class="st3" d="M-103.2,127.7c-1,0.7-1,1-2.1,1.8c-1.3,0.9-1.4,0.8-2.7,1.8"/>
			</g>
		</g>
		<g>
			<g>
				<path class="st3" d="M-89.2,115.3c-1.2,1-1.1,1.1-2.3,2.1c-1.1,1-1.1,1-2.2,1.9"/>
				<path class="st189" d="M-96.2,121.2L-96.2,121.2c-1.2,1-1.2,1.1-2.4,2.1c-1.2,1-1.1,1.1-2.3,2.1c-1,0.8-1.2,1-1.9,1.6"/>
				<path class="st3" d="M-103.3,127.5c-1,0.9-1.1,0.9-2.2,1.9c-1.2,1-1.1,1.1-2.3,2.1"/>
			</g>
		</g>
		<g>
			<path class="st190" d="M-88.9,148.9c-1.2-1.1-1.2-1.1-2.4-2.2c-1.2-1.1-1.2-1.1-2.3-2.2c-1.2-1.1-1.2-1.1-2.3-2.2
				c-1.2-1.1-1.2-1.1-2.4-2.2c-1.2-1.1-1.2-1.1-2.4-2.2c-1.2-1.1-1.3-1-2.5-2.1s-1.2-1.1-2.4-2.2c-1.2-1.1-1.2-1.1-2.4-2.2"/>
		</g>
		<g>
			<g>
				<path class="st3" d="M-114.2,149.5c0.5-1.5,0.5-1.5,1-3c0.5-1.4,0.7-1.4,1.1-2.6"/>
				<path class="st191" d="M-111.5,142.2c0.2-0.4,0.3-0.8,0.6-1.7c0.5-1.5,0.5-1.5,1-3"/>
				<path class="st3" d="M-109.7,137c0.4-1.1,0.3-1.3,0.7-2.7c0.5-1.5,0.7-1.5,1.2-3"/>
			</g>
		</g>
		<g>
			<path class="st192" d="M-88.6,113.9c-1.2,1.1-1.3,1-2.5,2.1s-1.1,1.2-2.3,2.3c-1.2,1.1-1.3,1-2.5,2.1s-1.2,1.1-2.4,2.2
				c-1.2,1.1-1.1,1.2-2.3,2.3c-1.2,1.1-1.3,1-2.5,2.1c-1.2,1.1-1.2,1.2-2.4,2.2c-1.2,1.1-1.2,1.1-2.4,2.2"/>
		</g>
		<g>
			<g>
				<path class="st3" d="M-92.4,115.8c-1.1,1.1-1.1,1.1-2.2,2.2c-1,1-1.2,1-2.2,1.9"/>
				<path class="st193" d="M-98.4,121.8c-0.2,0.2-0.4,0.4-0.6,0.6c-1.1,1.1-1.1,1.1-2.3,2.2c-1,1-1.1,1.1-2,2"/>
				<path class="st3" d="M-103.7,127c-0.9,0.9-0.9,1.1-1.9,2.1c-1.1,1.1-1.2,1.1-2.3,2.2"/>
			</g>
		</g>
		<g>
			<g>
				<path class="st3" d="M-93.9,117c-1.2,1.2-1.2,1.2-2.3,2.3c-1,1-1.2,1.1-1.9,1.9"/>
				<path class="st194" d="M-99.6,122.7c-0.4,0.4-0.6,0.7-1.4,1.4c-1.2,1.2-1.1,1.2-2.3,2.4l-0.1,0.1"/>
				<path class="st3" d="M-103.7,127.1c-0.7,0.7-0.9,0.9-1.9,1.9c-1.2,1.2-1.2,1.1-2.4,2.3"/>
			</g>
		</g>
		<g>
			<g>
				<path class="st3" d="M-82.4,122.7c-1.4,0.5-1.4,0.5-2.8,0.9c-1.4,0.5-1.4,0.7-2.8,1.1l0,0"/>
				<path class="st195" d="M-91.6,125.7c-0.8,0.3-1,0.3-2.1,0.7c-1.4,0.5-1.4,0.7-2.8,1.1c-1.4,0.5-1.5,0.3-2.9,0.8
					c-1,0.3-1.3,0.5-1.9,0.7"/>
				<path class="st3" d="M-102.2,129.3c-1.4,0.5-1.4,0.4-2.9,0.9s-1.4,0.5-2.8,1"/>
			</g>
		</g>
		<g>
			<g>
				<path class="st3" d="M-85.4,141.3c-1.4-0.6-1.4-0.6-2.8-1.2c-1.4-0.6-1.3-0.8-2.6-1.4"/>
				<path class="st196" d="M-93.7,137.5C-93.7,137.5-93.8,137.5-93.7,137.5c-1.5-0.7-1.5-0.6-2.9-1.2s-1.4-0.6-2.8-1.2
					c-1.2-0.5-1.4-0.6-2.3-1"/>
				<path class="st3" d="M-102.5,133.8c-1.3-0.6-1.3-0.6-2.7-1.2c-1.4-0.6-1.4-0.8-2.8-1.4"/>
			</g>
		</g>
		<g>
			<g>
				<path class="st3" d="M-98,152.3c-0.7-1.5-0.7-1.5-1.4-3c-0.6-1.3-0.6-1.5-1.1-2.4"/>
				<path class="st197" d="M-101.8,144.4c-0.1-0.3-0.3-0.6-0.5-1c-0.7-1.5-0.8-1.5-1.5-3s-0.6-1.5-1.3-3"/>
				<path class="st3" d="M-105.4,136.8c-0.5-0.9-0.6-1.1-1.2-2.4c-0.7-1.5-0.6-1.6-1.3-3.1"/>
			</g>
		</g>
		<g>
			<g>
				<path class="st3" d="M-99.5,155c-0.5-1.5-0.5-1.5-1.1-3c-0.5-1.4-0.7-1.4-1.1-2.6"/>
				<path class="st198" d="M-102.6,146.3v-0.1c-0.5-1.5-0.5-1.5-1-3s-0.5-1.5-1.1-3c-0.5-1.3-0.5-1.5-0.9-2.5"/>
				<path class="st3" d="M-105.9,137c-0.4-1.2-0.6-1.3-1.1-2.6c-0.5-1.5-0.4-1.5-0.9-3"/>
			</g>
		</g>
		<g>
			<g>
				<path class="st3" d="M-99.3,146.5c-0.7-1.3-0.7-1.3-1.4-2.6c-0.7-1.3-0.9-1.2-1.6-2.4c0-0.1-0.1-0.1-0.1-0.2"/>
				<path class="st199" d="M-103.1,140.2c-0.2-0.3-0.4-0.6-0.7-1.2c-0.6-1.1-0.5-1.3-1-2.2"/>
				<path class="st3" d="M-104.9,136.5L-104.9,136.5c-0.8-1.4-1-1.3-1.7-2.6c-0.7-1.3-0.6-1.3-1.4-2.6"/>
			</g>
		</g>
		<g>
			<path class="st200" d="M-91.1,142.1c-1.4-0.9-1.4-0.9-2.8-1.8s-1.4-0.9-2.8-1.8c-1.4-0.9-1.4-0.9-2.8-1.8c-1.4-0.9-1.3-1.1-2.7-2
				c-1.4-0.9-1.4-0.9-2.8-1.8c-1.4-0.9-1.5-0.8-2.9-1.7"/>
		</g>
		<g>
			<g>
				<path class="st3" d="M-93.1,147c-1.1-1.1-1.1-1.1-2.1-2.2s-1-1.2-1.9-2.2"/>
				<path class="st201" d="M-98.8,140.9c-0.2-0.2-0.3-0.4-0.6-0.6c-1.1-1.1-1-1.2-2.1-2.3c-1-1-1.1-1.1-1.9-1.9"/>
				<path class="st3" d="M-103.8,135.7c-0.9-1-1-1-2.1-2c-1.1-1.1-1-1.2-2-2.3"/>
			</g>
		</g>
		<g>
			<g>
				<path class="st3" d="M-123.1,146.2c1.1-1.1,1.2-1,2.3-2c1.1-1,1-1.1,2-2.2"/>
				<path class="st202" d="M-117.2,140.4c0.2-0.2,0.3-0.3,0.6-0.6c1.1-1.1,1-1.1,2.1-2.2c0.9-0.9,1.1-1,1.9-1.7"/>
				<path class="st3" d="M-112.2,135.5c1-1,1-1,2.1-2.1c1.1-1.1,1-1.1,2.1-2.2"/>
			</g>
		</g>
		<g>
			<g>
				<path class="st3" d="M-125,148.8c1.1-1.1,1.1-1,2.2-2.1c1-1.1,0.9-1.2,1.9-2.2"/>
				<path class="st203" d="M-118.7,142.3C-118.7,142.2-118.7,142.2-118.7,142.3c1.1-1.1,1.1-1.1,2.2-2.2c1.1-1.1,1.1-1,2.2-2.1
					c0.9-0.9,1-1.1,1.6-1.8"/>
				<path class="st3" d="M-112.1,135.6c1-1,1-1,2-2.1c1.1-1.1,1.1-1,2.2-2.1"/>
			</g>
		</g>
	</g>
</g>
<g>
	<path class="st204" d="M-103.7,19.1l0.4-0.5c0.2,0.3,0.4,0.4,0.8,0.4s0.6-0.2,0.6-0.7v-2.5h0.7v2.5c0,0.5-0.1,0.8-0.4,1
		c-0.2,0.2-0.5,0.3-0.9,0.3C-103.1,19.7-103.5,19.4-103.7,19.1z"/>
	<path class="st204" d="M-98.2,15.8h0.6l1.7,3.9h-0.7l-0.4-0.9h-1.8l-0.4,0.9h-0.7L-98.2,15.8z M-97.2,18.1l-0.7-1.5l-0.7,1.5H-97.2
		z"/>
	<path class="st204" d="M-94.7,17.7L-94.7,17.7c0-1.1,0.8-2,2-2c0.7,0,1.1,0.2,1.5,0.6l-0.4,0.5c-0.3-0.3-0.6-0.5-1.1-0.5
		c-0.7,0-1.3,0.6-1.3,1.3l0,0c0,0.7,0.5,1.4,1.3,1.4c0.5,0,0.8-0.2,1.1-0.5l0.4,0.4c-0.4,0.4-0.8,0.7-1.6,0.7
		C-93.9,19.7-94.7,18.8-94.7,17.7z"/>
	<path class="st204" d="M-89.6,15.8h0.7v1.9l1.8-1.9h0.8l-1.6,1.6l1.7,2.2H-87l-1.3-1.7l-0.6,0.6v1.1h-0.7V15.8z"/>
	<path class="st204" d="M-84.7,15.8h0.7v3.8h-0.7V15.8z"/>
	<path class="st204" d="M-82.1,15.8h2.8v0.6h-2.2v1h1.9V18h-1.9v1h2.2v0.6h-2.9L-82.1,15.8L-82.1,15.8z"/>
	<path class="st204" d="M-102.4,23.7L-102.4,23.7c0-1.1,0.8-2,2-2c0.7,0,1.1,0.2,1.5,0.5l-0.4,0.5c-0.3-0.3-0.6-0.4-1.1-0.4
		c-0.7,0-1.2,0.6-1.2,1.3l0,0c0,0.8,0.5,1.4,1.3,1.4c0.4,0,0.7-0.1,0.9-0.3V24h-1v-0.6h1.6V25c-0.4,0.3-0.9,0.6-1.6,0.6
		C-101.6,25.7-102.4,24.9-102.4,23.7z"/>
	<path class="st204" d="M-96.9,21.8h0.7v3.8h-0.7V21.8z"/>
	<path class="st204" d="M-93,21.8h0.6l1.7,3.9h-0.7l-0.4-0.9h-1.8l-0.4,0.9h-0.7L-93,21.8z M-92,24.1l-0.7-1.5l-0.7,1.5H-92z"/>
	<path class="st204" d="M-89.1,21.8h0.6l2,2.6v-2.6h0.7v3.8h-0.6l-2.1-2.7v2.7h-0.7L-89.1,21.8L-89.1,21.8z"/>
	<path class="st204" d="M-84.1,23.7L-84.1,23.7c0-1.1,0.8-2,2-2c0.7,0,1.1,0.2,1.5,0.5l-0.4,0.6c-0.3-0.3-0.6-0.4-1.1-0.4
		c-0.7,0-1.2,0.6-1.2,1.3l0,0c0,0.8,0.5,1.4,1.3,1.4c0.4,0,0.7-0.1,0.9-0.3v-0.7h-1v-0.6h1.6v1.6c-0.4,0.3-0.9,0.6-1.6,0.6
		C-83.3,25.7-84.1,24.9-84.1,23.7z"/>
</g>
<g>
	<path class="st204" d="M-137.2,16.4h-1.2v-0.6h3.1v0.6h-1.2v3.2h-0.7C-137.2,19.6-137.2,16.4-137.2,16.4z"/>
	<path class="st204" d="M-133.8,15.8h0.7v1.6h1.8v-1.6h0.7v3.8h-0.7V18h-1.8v1.6h-0.7V15.8z"/>
	<path class="st204" d="M-128.9,17.7L-128.9,17.7c0-1.1,0.8-2,2-2s2,0.9,2,2l0,0c0,1.1-0.8,2-2,2S-128.9,18.8-128.9,17.7z
		 M-125.6,17.7L-125.6,17.7c0-0.8-0.5-1.4-1.3-1.4c-0.8,0-1.3,0.6-1.3,1.3l0,0c0,0.7,0.5,1.4,1.3,1.4
		C-126.1,19.1-125.6,18.5-125.6,17.7z"/>
	<path class="st204" d="M-123.1,15.8h0.7l1.2,1.8l1.2-1.8h0.7v3.8h-0.7v-2.7l-1.2,1.8l0,0l-1.2-1.8v2.7h-0.7
		C-123.1,19.6-123.1,15.8-123.1,15.8z"/>
	<path class="st204" d="M-134.1,21.8h0.7v3.8h-0.7V21.8z"/>
	<path class="st204" d="M-131.9,21.8h0.7l1.2,3l1.1-2.9h0.7l-1.6,3.9h-0.6L-131.9,21.8z"/>
	<path class="st204" d="M-125.2,24.1l-1.5-2.3h0.7l1.1,1.7l1.1-1.7h0.8l-1.5,2.3v1.5h-0.7V24.1z"/>
</g>
<g>
	<path class="st205" d="M-110.9,21.1h-4.3v-0.4h4.3v-4.6h0.4v4.6h4.3v0.4h-4.3v4.6h-0.4V21.1z"/>
</g>
<path class="st206" d="M-11.9-48.9h9v425h-9V-48.9z"/>
<rect x="-193.5" y="120.3" class="st207" width="68" height="60.1"/>
<g>
	<path class="st208" d="M-186,150.7h3c1.7,0,2.8,1,2.8,2.5l0,0c0,1.7-1.3,2.6-3,2.6h-1.2v2.2h-1.6V150.7z M-183.2,154.4
		c0.8,0,1.3-0.5,1.3-1.1l0,0c0-0.7-0.5-1.1-1.3-1.1h-1.2v2.2C-184.4,154.4-183.2,154.4-183.2,154.4z"/>
	<path class="st208" d="M-176.8,150.7h1.6v2.9h3v-2.9h1.6v7.3h-1.6v-2.9h-3v2.9h-1.6C-176.8,158-176.8,150.7-176.8,150.7z"/>
	<path class="st208" d="M-166.5,150.7h5.5v1.4h-3.9v1.5h3.4v1.4h-3.4v1.5h4v1.4h-5.6V150.7z"/>
	<path class="st208" d="M-157.1,150.7h3.3c0.9,0,1.6,0.3,2.1,0.7c0.4,0.4,0.6,1,0.6,1.7l0,0c0,1.2-0.6,1.9-1.6,2.3l1.8,2.6h-1.9
		l-1.6-2.3h-1.3v2.3h-1.6v-7.3H-157.1z M-153.9,154.4c0.8,0,1.2-0.5,1.2-1.1l0,0c0-0.7-0.5-1-1.3-1h-1.6v2.1H-153.9L-153.9,154.4z"
		/>
	<path class="st208" d="M-147.7,154.4L-147.7,154.4c0-2.1,1.6-3.8,3.9-3.8s3.9,1.7,3.9,3.8l0,0c0,2.1-1.6,3.8-3.9,3.8
		S-147.7,156.5-147.7,154.4z M-141.6,154.4L-141.6,154.4c0-1.3-0.9-2.3-2.2-2.3s-2.2,1-2.2,2.3l0,0c0,1.3,0.9,2.3,2.2,2.3
		S-141.6,155.6-141.6,154.4z"/>
	<path class="st208" d="M-136.8,157l0.9-1.2c0.7,0.5,1.3,0.9,2.2,0.9c0.7,0,1.1-0.3,1.1-0.7l0,0c0-0.4-0.2-0.6-1.5-0.9
		c-1.5-0.4-2.4-0.8-2.4-2.2l0,0c0-1.3,1.1-2.2,2.6-2.2c1.1,0,2,0.3,2.7,0.9l-0.9,1.2c-0.6-0.4-1.3-0.7-1.9-0.7s-0.9,0.3-0.9,0.6l0,0
		c0,0.5,0.3,0.6,1.6,1c1.4,0.3,2.3,0.9,2.3,2.1l0,0c0,1.4-1.1,2.3-2.7,2.3C-134.8,158.1-135.9,157.7-136.8,157z"/>
</g>
</svg>
