<?xml version="1.0" encoding="utf-8"?>
<!-- Generator: Adobe Illustrator 19.1.0, SVG Export Plug-In . SVG Version: 6.00 Build 0)  -->
<svg version="1.1" xmlns="http://www.w3.org/2000/svg" xmlns:xlink="http://www.w3.org/1999/xlink" x="0px" y="0px"
	 viewBox="0 0 1879.4 1029.1" style="enable-background:new 0 0 1879.4 1029.1;" xml:space="preserve">
<style type="text/css">
	.st0{opacity:0.4;fill:#503246;}
	.st1{opacity:0.4;fill:#823F3B;}
	.st2{opacity:0.4;fill:#C9CBC0;}
	.st3{opacity:0.4;fill:#004B76;}
	.st4{opacity:0.4;fill:#AA362D;}
	.st5{opacity:0.4;fill:#E29DA3;}
	.st6{opacity:0.4;fill:#ECB880;}
	.st7{opacity:0.4;fill:#765441;}
	.st8{opacity:0.4;fill:#596780;}
	.st9{opacity:0.4;fill:#669457;}
	.st10{opacity:0.4;fill:#FFC000;}
	.st11{opacity:0.4;fill:#2B1A23;}
	.st12{opacity:0.4;fill:#428CAB;}
	.st13{opacity:0.4;fill:#B96237;}
</style>
<g id="Layer_1">
	<rect x="1546" y="380.3" class="st0" width="333.1" height="305.8"/>
	<rect x="1546.3" y="723.3" class="st1" width="333.1" height="305.8"/>
	<rect x="1546.3" y="37.2" class="st2" width="333.1" height="305.8"/>
	<rect x="1168.9" y="380.3" class="st3" width="333.1" height="305.8"/>
	<rect x="1168.9" y="723.3" class="st4" width="333.1" height="305.8"/>
	<rect x="1168.9" y="37.2" class="st5" width="333.1" height="305.8"/>
	<rect x="791.4" y="380.3" class="st6" width="333.1" height="305.8"/>
	<rect x="791.8" y="723.3" class="st7" width="333.1" height="305.8"/>
	<rect x="791.8" y="37.2" class="st8" width="333.1" height="305.8"/>
	<rect x="414" y="380.3" class="st2" width="333.1" height="305.8"/>
	<rect x="414.3" y="723.3" class="st9" width="333.1" height="305.8"/>
	<rect x="414.3" y="37.2" class="st10" width="333.1" height="305.8"/>
	<rect x="36.9" y="380.3" class="st11" width="333.1" height="305.8"/>
	<rect x="37.2" y="723.3" class="st12" width="333.1" height="305.8"/>
	<rect x="37.2" y="37.2" class="st13" width="333.1" height="305.8"/>
</g>
<g id="Isolation_Mode">
</g>
</svg>
