<?xml version="1.0" encoding="utf-8"?>
<!-- Generator: Adobe Illustrator 19.1.0, SVG Export Plug-In . SVG Version: 6.00 Build 0)  -->
<svg version="1.1" xmlns="http://www.w3.org/2000/svg" xmlns:xlink="http://www.w3.org/1999/xlink" x="0px" y="0px"
	 viewBox="0 0 1000 1000" style="enable-background:new 0 0 1000 1000;" xml:space="preserve">
<style type="text/css">
	.st0{opacity:0.6;fill:url(#SVGID_1_);}
	.st1{opacity:0.6;fill:url(#SVGID_2_);}
	.st2{opacity:0.6;fill:url(#SVGID_3_);}
	.st3{opacity:0.5;}
	.st4{clip-path:url(#SVGID_5_);fill:url(#SVGID_6_);}
	.st5{clip-path:url(#SVGID_8_);fill:url(#SVGID_9_);}
	.st6{clip-path:url(#SVGID_11_);fill:url(#SVGID_12_);}
	.st7{clip-path:url(#SVGID_14_);fill:url(#SVGID_15_);}
	.st8{clip-path:url(#SVGID_17_);fill:url(#SVGID_18_);}
	.st9{clip-path:url(#SVGID_20_);fill:url(#SVGID_21_);}
	.st10{clip-path:url(#SVGID_23_);fill:url(#SVGID_24_);}
	.st11{clip-path:url(#SVGID_26_);fill:url(#SVGID_27_);}
	.st12{fill:#FFFFFF;}
	.st13{fill:none;stroke:#4A72B4;stroke-width:3.5972;stroke-miterlimit:10;}
	.st14{fill:none;stroke:#4A72B4;stroke-width:8.993;stroke-miterlimit:10;}
	.st15{opacity:0.4;}
	.st16{fill:#4A72B4;}
	.st17{fill:none;stroke:#4A72B4;stroke-width:5.3958;stroke-miterlimit:10;}
	.st18{opacity:0.4;fill:#F6DF9F;}
	.st19{opacity:0.2;fill:#4A72B4;}
	.st20{opacity:0.3;fill:#57AFDE;}
	.st21{fill:none;stroke:#4A72B4;stroke-width:8;stroke-miterlimit:10;}
	.st22{fill:#FFFFFF;stroke:#4A72B4;stroke-width:4;stroke-miterlimit:10;}
	.st23{fill:#FFFFFF;stroke:#57AFDE;stroke-width:4;stroke-miterlimit:10;}
	.st24{fill:#FFFFFF;stroke:#F6DF9F;stroke-width:4;stroke-miterlimit:10;}
	.st25{fill:#FFFFFF;stroke:#4A72B4;stroke-width:7;stroke-miterlimit:10;}
	.st26{fill:#FFFFFF;stroke:#57AFDE;stroke-width:7;stroke-miterlimit:10;}
	.st27{fill:#FFFFFF;stroke:#F6DF9F;stroke-width:7;stroke-miterlimit:10;}
	.st28{opacity:0.4;fill:#596780;enable-background:new    ;}
	.st29{fill:#ECB880;}
	.st30{opacity:0.4;fill:#FFC000;enable-background:new    ;}
	.st31{opacity:0.4;fill:#C9CBC0;enable-background:new    ;}
	.st32{fill:none;stroke:#4A72B4;stroke-width:6;stroke-linecap:round;stroke-miterlimit:10;}
	.st33{fill:none;stroke:#4A72B4;stroke-width:4;stroke-linecap:round;stroke-miterlimit:10;}
	.st34{opacity:0.2;fill:none;stroke:#4A72B4;stroke-width:2;stroke-linecap:round;stroke-miterlimit:10;}
	.st35{opacity:0.2;fill:none;stroke:#4A72B4;stroke-linecap:round;stroke-miterlimit:10;}
	.st36{opacity:0.2;fill:none;stroke:#4A72B4;stroke-width:0.4;stroke-linecap:round;stroke-miterlimit:10;}
	.st37{fill:none;stroke:#4A72B4;stroke-width:2;stroke-linecap:round;stroke-miterlimit:10;}
	.st38{fill:#C9CBC0;enable-background:new    ;}
	.st39{fill:#ECB880;enable-background:new    ;}
	.st40{fill:#004B76;enable-background:new    ;}
	.st41{fill:#FFC000;enable-background:new    ;}
	.st42{fill:#596780;enable-background:new    ;}
	.st43{fill:#E29DA3;enable-background:new    ;}
	.st44{opacity:0.6;fill:url(#SVGID_28_);}
	.st45{opacity:0.6;fill:url(#SVGID_29_);}
	.st46{opacity:0.6;fill:url(#SVGID_30_);}
	.st47{opacity:0.2;fill:#57AFDE;}
	.st48{opacity:0.2;fill:#F6DF9F;}
</style>
<g id="magnifying_glass">
	<g id="aura_1_">
	</g>
	<g id="text">
	</g>
	<g id="glass">
	</g>
	<g id="hand">
		<g id="Layer_16">
		</g>
	</g>
</g>
<g id="number_1">
	<g id="_x31_">
	</g>
	<g id="hash">
	</g>
	<g id="bubbles">
		<circle class="st22" cx="244.3" cy="842.2" r="22.5"/>
		<circle class="st23" cx="208.3" cy="778.1" r="6.8"/>
		<circle class="st22" cx="329.8" cy="817.8" r="5.2"/>
		<circle class="st22" cx="376" cy="744.4" r="12.5"/>
		<circle class="st24" cx="281.8" cy="783.4" r="19"/>
		<circle class="st23" cx="328.5" cy="754.9" r="10.8"/>
		<circle class="st23" cx="379.3" cy="690.9" r="6.8"/>
		<circle class="st24" cx="292.8" cy="732.1" r="7.7"/>
	</g>
</g>
<g id="pheros">
	<g id="shadows">
		<g id="Layer_11">
		</g>
	</g>
	<g id="lines">
	</g>
	<g id="second_row">
	</g>
	<g id="first_row">
	</g>
</g>
<g id="nose">
	<g id="aura">
		<radialGradient id="SVGID_1_" cx="589.5042" cy="446.0708" r="356.9869" gradientUnits="userSpaceOnUse">
			<stop  offset="0" style="stop-color:#4A72B4"/>
			<stop  offset="0.1105" style="stop-color:#547AB8;stop-opacity:0.8895"/>
			<stop  offset="0.2983" style="stop-color:#6F8FC3;stop-opacity:0.7017"/>
			<stop  offset="0.5407" style="stop-color:#9BB1D5;stop-opacity:0.4593"/>
			<stop  offset="0.8251" style="stop-color:#D7E0EE;stop-opacity:0.1749"/>
			<stop  offset="1" style="stop-color:#FFFFFF;stop-opacity:0"/>
		</radialGradient>
		<circle class="st0" cx="589.5" cy="446.1" r="357"/>
		<radialGradient id="SVGID_2_" cx="178.0202" cy="707.5696" r="117.4936" gradientUnits="userSpaceOnUse">
			<stop  offset="0" style="stop-color:#F7E3AB"/>
			<stop  offset="0.2582" style="stop-color:#F7E4AE;stop-opacity:0.7418"/>
			<stop  offset="0.4648" style="stop-color:#F8E7B8;stop-opacity:0.5352"/>
			<stop  offset="0.6534" style="stop-color:#FAEDC9;stop-opacity:0.3466"/>
			<stop  offset="0.8303" style="stop-color:#FCF5E1;stop-opacity:0.1697"/>
			<stop  offset="1" style="stop-color:#FFFFFF;stop-opacity:0"/>
		</radialGradient>
		<circle class="st1" cx="178" cy="707.6" r="117.5"/>
		<radialGradient id="SVGID_3_" cx="297.3333" cy="501.8928" r="170.9931" gradientUnits="userSpaceOnUse">
			<stop  offset="0" style="stop-color:#86BDDE"/>
			<stop  offset="0.9629" style="stop-color:#FAFCFE;stop-opacity:3.705424e-02"/>
			<stop  offset="1" style="stop-color:#FFFFFF;stop-opacity:0"/>
		</radialGradient>
		<circle class="st2" cx="297.3" cy="501.9" r="171"/>
	</g>
	<g id="reaction">
		<path class="st19" d="M332.2,462.4c1.9-4.5,3.7-9.1,5.5-13.8c10.3-27.1,24.1-53,39.9-77.3c11.6-17.9,26.5-42.6,36.8-62.9
			c10.5-20.7,24.3-55,47.6-64.3c65.2-26.1,103,96.6,76.7,139.4c-13.4,21.7-27.8,31.9-16.1,58.3c10.4,23.4,27.4,43.4,35.4,67.9
			c2.7,8.4,4.3,17.5,1.7,26c-4.6,15-21,21.4-25.5,36.6c-8.2,27.6,11.6,52.2,15,78.7c7.3,57.7-67.5,66.7-108.8,59.5
			c-25.4-4.4-32.2-31.6-16.5-51.5c10.1-12.8,28.8-21.7,16.8-39.9c-7.7-11.6-26-16.3-38.4-20.1c-27.4-8.3-56-8.7-73.8-34.8
			C307.8,534.1,319.5,493.2,332.2,462.4z"/>
		<path class="st47" d="M394.8,709.1c-2.6-0.6-5.1-1.5-7.5-2.7c-9.7-4.8-16.5-13.9-21.9-23.2c-32.3-55.4-22.2-114.8,2.1-171.1
			c6.1-14,15.7-30.2,11.9-46.2c-3.9-16.2-21.9-23.1-24.4-40.3c-4.5-30.4,24-57.2,50.8-65.4c6.9-2.1,14.4-3.3,21.5-1.5
			c10.1,2.6,17.8,10.9,23.3,19.8c19.4,31.5,38.5,61.8,62.4,90.4c6.6,7.8,13.7,16.9,12.3,27c-1.7,12.3-14.8,19.1-26.3,23.8
			c-13.2,5.5-33.6,6.9-43.5,18.2c-17.8,20.2,15.7,34.7,30.5,42c40.7,20.1,59,56,18.2,89.8c-22.8,18.9-51.7,29.1-79.8,37.3
			C414.8,709.9,404.3,711.4,394.8,709.1z"/>
		<path class="st48" d="M414.1,768.1c21.6,9.8,49.1,9.1,68.2-3.2c13.5-8.7,23.7-23,25.4-39c1.6-15.9-6.4-33.1-20.8-40.1
			c-14.5-7.1-34.8-4.8-44-18.2c-9.6-13.9,0.9-32.3,1.6-49.2c0.6-14.9-7.6-29.8-20.5-37.3c-5.3-3.1-11.3-5.1-15.5-9.5
			c-10.5-11.1-3.2-28.9,1.2-43.5c9.4-31,2-66.4-18.8-91.1c-9.9-11.7-25.9-21.6-40-15.4c-6,2.6-10.4,7.7-14.7,12.7
			c-26.1,30.4-52.2,60.7-78.3,91.1c-15.3,17.7-31.5,38.6-28.5,61.8c2.4,18.9,17.5,34,34.5,42.6c31.8,16.2,80.9,13.7,102.4,46.5
			c13.3,20.2,8.6,46.6,20.2,67.5C392.6,754.7,402.5,762.9,414.1,768.1z"/>
	</g>
	<g id="profile">
		<g>
			<path class="st16" d="M414.3,285c0,0-1.1,2-3.1,5.7c-2.1,3.7-5,9.3-8.7,16.2c-3.7,7-8.3,15.5-13.5,25.3
				c-5.2,9.8-11.1,20.8-17.7,32.7c-3.3,6-6.8,12.2-10.5,18.5c-1.8,3.2-3.8,6.4-5.7,9.7c-1.9,3.3-4,6.6-6,9.9
				c-4.1,6.7-8.4,13.5-12.9,20.3c-0.6,0.9-1.1,1.7-1.7,2.6c-0.6,0.9-1.2,1.7-1.7,2.6c-1.2,1.7-2.3,3.4-3.5,5.2
				c-2.4,3.5-4.9,6.9-7.5,10.4c-5.1,6.9-10.5,13.8-16.1,20.6c-5.6,6.8-11.4,13.6-17.3,20.3c-6,6.7-12,13.4-18.2,20.1
				c-3.1,3.3-6.2,6.7-9.3,10c-3.2,3.3-6.4,6.6-9.5,9.8c-6.3,6.5-12.5,12.9-17.7,19.8c-5.2,6.9-9.5,14.2-11.9,22.1
				c-2.4,7.9-2.8,16.1-1.6,24.2l0.1,0.8l0,0.2c0-0.2,0,0.1,0,0.1l0.1,0.4l0.3,1.6l0.3,1.6l0.3,1.4c0.2,1,0.4,1.9,0.8,2.9
				c0.3,1,0.5,1.9,0.9,2.9c1.3,3.8,2.9,7.5,5,10.9c4,6.9,9.3,12.8,15.3,17.8c5.9,5.1,12.6,9.1,19.3,12.6c6.8,3.4,13.7,6.1,20.5,8.4
				c3.4,1.1,6.8,2.2,10.2,3.1c3.4,0.9,6.7,1.7,10,2.5c6.6,1.7,13,3.3,19,5.5c5.9,2.1,11.5,4.6,16.3,7.5c4.9,3,9.2,6.3,12.4,10.1
				c3.2,3.8,5.5,7.8,7,11.5c3,7.6,3.4,14,3.7,18.2c0.2,2.1,0.2,3.8,0.2,4.9c0,1.1,0,1.7,0,1.7s-0.1-0.6-0.2-1.7
				c-0.1-0.5-0.1-1.2-0.2-2c-0.1-0.8-0.2-1.7-0.4-2.8c-0.6-4.2-1.7-10.4-5-17.5c-1.7-3.5-4.1-7.1-7.3-10.4
				c-3.2-3.3-7.4-6.3-12.1-8.7c-9.6-5.1-21.5-8.1-34.8-10.8c-3.3-0.7-6.7-1.3-10.3-2.1c-3.5-0.8-7.1-1.7-10.7-2.7
				c-3.6-1-7.2-2.2-10.9-3.5c-3.6-1.3-7.3-2.8-10.9-4.5c-7.3-3.4-14.5-7.6-21.3-12.9c-6.7-5.3-12.9-11.9-17.6-19.7
				c-2.4-3.9-4.4-8-5.9-12.4c-0.4-1.1-0.7-2.2-1.1-3.3c-0.4-1.1-0.7-2.2-1-3.4l-0.4-1.7l-0.3-1.6l-0.3-1.6l-0.1-0.4l-0.1-0.3l0-0.2
				l-0.1-0.9c-0.7-4.6-1.1-9.3-0.8-14.1c0.2-4.8,1.1-9.6,2.4-14.2c1.4-4.6,3.2-9.1,5.5-13.3c2.3-4.2,4.9-8.2,7.8-12
				c5.7-7.5,12.1-14.3,18.4-20.8c3.2-3.2,6.3-6.5,9.5-9.7c3.1-3.2,6.2-6.5,9.3-9.8c6.2-6.6,12.2-13.2,18.2-19.8
				c5.9-6.6,11.7-13.2,17.4-19.9c5.6-6.6,11-13.3,16.2-20c2.6-3.3,5.1-6.7,7.5-10c1.2-1.6,2.4-3.4,3.6-5c0.6-0.8,1.2-1.7,1.8-2.5
				c0.6-0.8,1.2-1.7,1.8-2.5c4.7-6.7,9.2-13.3,13.5-19.8c2.1-3.2,4.3-6.4,6.3-9.6c2-3.2,4.1-6.3,6-9.4c4-6.2,7.7-12.2,11.3-17.9
				c7.1-11.6,13.6-22.3,19.4-31.7c5.7-9.5,10.8-17.7,15.1-24.4c2.1-3.4,4-6.4,5.7-9c1.7-2.6,3.1-4.8,4.3-6.6
				C413.1,286.9,414.3,285,414.3,285z"/>
		</g>
		<g>
			<path class="st16" d="M437.8,650.2c-2.2-1.6-4.3-3.3-6.5-4.9c-2.1-1.7-4.3-3.3-6.5-4.8c-2.2-1.6-4.3-3.1-6.6-4.6
				c-2.2-1.5-4.5-2.8-6.7-4c-2.3-1.2-4.6-2.3-7-3.1c-2.4-0.9-4.8-1.5-7.3-2c-2.5-0.5-5.1-0.9-7.7-1.3l-3.9-0.5l-3.9-0.4
				c-1.3-0.1-2.5-0.2-3.8-0.3c-1.3-0.1-2.6-0.1-3.9-0.2c-2.6-0.1-5.2-0.1-7.7,0c-1.3,0-2.6,0.1-3.9,0.2c-1.3,0.1-2.6,0.2-3.9,0.3
				c-1.3,0.1-2.6,0.3-3.8,0.4c-1.3,0.1-2.6,0.3-3.8,0.5c-1.3,0.2-2.5,0.4-3.8,0.7c-1.3,0.3-2.5,0.5-3.8,0.8c-2.5,0.5-5,1.2-7.5,1.9
				c-1.2,0.4-2.5,0.7-3.7,1.1l-3.6,1.3l-3.6,1.4l-3.5,1.5l-4.5-9.9c0.5-0.2,1-0.4,1.5-0.5c0.4-0.1,0.7-0.1,1.1-0.2
				c0.4-0.1,0.6,0,0.9,0c0.3,0,0.6,0,0.8,0c0.4,0,0.9,0.1,1.3,0.1c0.4,0.1,0.8,0.1,1.1,0.2c1.4,0.3,2.6,0.6,3.8,1
				c2.3,0.7,4.5,1.5,6.7,2.4c4.3,1.7,8.4,3.5,12.4,5.2c1,0.4,2,0.8,2.9,1.1l0.6,0.2l0.3,0.1l0,0c0,0,0.1,0-0.1,0l0.1,0l0.1,0
				l0.2,0.1l1.6,0.4c1.8,0.4,3.9,0.8,5.9,1c4.1,0.5,8.3,0.5,12.6,0.2c2.1-0.1,4.2-0.4,6.4-0.7c1.1-0.2,2.1-0.3,3.2-0.5l1.6-0.3
				l1-0.2l0.8-0.1c0.6-0.1,1.1-0.2,1.7-0.3l2-0.2c0.7-0.1,1.3-0.1,1.9,0c0.6,0,1.2,0,1.8,0c2.4,0.2,4.8,0.5,7.1,1.2
				c1.2,0.3,2.3,0.7,3.4,1c1.1,0.4,2.2,0.8,3.3,1.3c2.1,0.9,4.2,2,6.1,3.2c2,1.2,3.9,2.5,5.7,3.9c1.8,1.4,3.5,2.8,5.2,4.4
				c-2-1.1-3.9-2.2-6-3.1c-2-1-4-1.9-6.1-2.6c-1-0.4-2.1-0.8-3.1-1.1c-1-0.4-2.1-0.6-3.1-0.9c-1-0.3-2.1-0.5-3.1-0.7
				c-1.1-0.2-2.1-0.4-3.1-0.5l-1.6-0.2L394,639c-1-0.1-2.1,0-3.1,0c-0.5,0-1,0.1-1.5,0.2c-0.5,0.1-1,0.1-1.4,0.2l-1.4,0.3
				c-0.5,0.1-1.1,0.3-1.6,0.4l-0.8,0.2l-0.1,0l-0.1,0l0,0c-0.1,0,0.2,0,0.1,0l-0.2,0.1l-0.4,0.1l-1.7,0.5c-1.1,0.3-2.2,0.7-3.4,0.9
				c-2.3,0.6-4.6,1.1-6.9,1.5c-4.6,0.8-9.4,1.1-14.3,1c-2.4-0.1-4.8-0.4-7.4-0.8l-1.6-0.3l-0.2,0l-0.1,0l-0.2-0.1l-0.5-0.1l-1-0.3
				c-1.2-0.4-2.3-0.8-3.4-1.2l-12.5-4.7c-2-0.7-4.1-1.4-6-2c-1-0.3-1.9-0.5-2.7-0.6c-0.2,0-0.4-0.1-0.5-0.1c-0.2,0-0.3,0-0.4,0
				c-0.1,0-0.1,0-0.1,0c0,0-0.1,0,0,0c0.1,0,0.1,0,0.2,0c0.2,0,0.5-0.1,0.7-0.2l-4.5-9.9l3.9-1.7l4-1.5c2.7-1,5.3-1.8,8.1-2.6
				c2.7-0.8,5.5-1.4,8.2-2c1.4-0.3,2.8-0.5,4.2-0.8c1.4-0.3,2.8-0.4,4.2-0.6c1.4-0.2,2.8-0.3,4.2-0.5l2.1-0.2l2.1-0.1
				c1.4-0.1,2.8-0.1,4.2-0.2c1.4,0,2.8-0.1,4.2,0c2.8,0,5.6,0.2,8.4,0.5c1.4,0.2,2.8,0.3,4.2,0.5c1.4,0.2,2.9,0.4,4.2,0.6l4.1,0.8
				c1.3,0.3,2.7,0.6,4,0.9c2.7,0.6,5.4,1.3,8.1,2.2c2.7,0.9,5.4,1.9,8,3.2c2.6,1.2,5,2.8,7.3,4.4c4.6,3.3,8.6,7.1,12.4,11
				c1.9,2,3.7,4,5.5,6c0.9,1,1.8,2.1,2.6,3.1C436,648.1,436.9,649.1,437.8,650.2z"/>
		</g>
		<g>
			<path class="st16" d="M444.3,549.8c0,0,0.4,0.8,1.3,2.3c0.8,1.5,2.1,3.6,3.9,6.2c1.8,2.5,4.5,5.2,8.2,7.1c3.8,2,8.4,3.4,13.6,4.9
				c2.6,0.8,5.4,1.6,8.1,2.7c2.8,1.1,5.6,2.4,8.4,3.9c5.6,3,11.2,6.9,16.3,11.8c2.5,2.5,4.9,5.2,7,8.2c0.5,0.7,1,1.5,1.5,2.3
				l0.2,0.3l0.1,0.1l0.1,0.1l0,0.1l0.3,0.6l0.7,1.1l0.3,0.6l0.3,0.6l0.6,1.3c0.5,0.9,0.8,1.7,1.2,2.6c2.9,6.9,4.5,14.3,4.9,21.9
				c0.2,3.8,0,7.6-0.6,11.4c-0.3,1.9-0.7,3.8-1.3,5.6l-0.5,1.4l-0.2,0.7l-0.1,0.3c0-0.1-0.1,0.2-0.1,0.2l0,0.1l-0.1,0.2l-1.1,2.4
				c-0.5,0.9-0.9,1.8-1.4,2.6c-0.5,0.9-1,1.6-1.6,2.4c-1.1,1.5-2.3,3-3.6,4.3c-2.6,2.7-5.5,5-8.6,6.8c-3.1,1.9-6.2,3.3-9.5,4.4
				c-1.6,0.6-3.2,1-4.8,1.5c-1.6,0.4-3.2,0.8-4.8,1c-6.3,1.2-12.4,1.2-17.9,0.7c-5.5-0.6-10.5-1.8-14.7-3.3
				c-4.2-1.5-7.7-3.4-10.4-5.1c-1.4-0.8-2.5-1.8-3.4-2.5c-0.9-0.8-1.7-1.5-2.3-2.1c-1.2-1.2-1.8-1.9-1.8-1.9s0.7,0.6,2,1.6
				c0.7,0.5,1.5,1.1,2.5,1.8c1.1,0.6,2.2,1.4,3.6,2.1c2.8,1.4,6.3,2.9,10.4,4c4.2,1.1,9,1.8,14.3,2c2.6,0,5.4,0,8.2-0.3
				c1.4-0.1,2.8-0.3,4.3-0.5c1.4-0.3,2.9-0.5,4.3-0.8c1.5-0.3,2.9-0.7,4.4-1.2c1.4-0.5,2.9-1,4.3-1.6c2.9-1.2,5.7-2.5,8.4-4.3
				c2.7-1.7,5.1-3.8,7.3-6.2c1.1-1.2,2.1-2.5,3-3.8c0.4-0.7,0.9-1.4,1.3-2l1.1-2l1-2.5l0.1-0.2l0-0.1c0-0.1-0.1,0.2,0,0l0.1-0.3
				l0.2-0.6l0.4-1.2c0.4-1.6,0.8-3.2,1.1-4.9c0.5-3.3,0.7-6.7,0.5-10.2c-0.3-6.8-1.7-13.7-4.3-19.9c-0.3-0.8-0.6-1.6-1-2.3l-0.5-1.1
				l-0.3-0.5l-0.3-0.6l-0.6-1.2l-0.3-0.6l0-0.1c0,0,0.1,0.1,0,0l-0.1-0.1l-0.2-0.3c-0.4-0.7-0.9-1.4-1.3-2.1
				c-1.8-2.8-3.9-5.3-6.2-7.6c-4.5-4.7-9.5-8.6-14.7-11.6c-2.6-1.5-5.2-2.9-7.8-4.1c-2.6-1.2-5.2-2.2-7.7-3.2
				c-5.1-1.9-9.8-3.7-13.7-6.2c-1.9-1.2-3.6-2.6-4.9-4.1c-1.3-1.5-2.3-3-3.2-4.3c-1.6-2.8-2.5-5.1-3.2-6.7
				C444.7,550.6,444.3,549.8,444.3,549.8z"/>
		</g>
	</g>
</g>
</svg>
