<?xml version="1.0" encoding="utf-8"?>
<!-- Generator: Adobe Illustrator 19.1.0, SVG Export Plug-In . SVG Version: 6.00 Build 0)  -->
<svg version="1.1" xmlns="http://www.w3.org/2000/svg" xmlns:xlink="http://www.w3.org/1999/xlink" x="0px" y="0px"
	 viewBox="0 0 1000 1000" style="enable-background:new 0 0 1000 1000;" xml:space="preserve">
<style type="text/css">
	.st0{opacity:0.6;fill:url(#SVGID_1_);}
	.st1{opacity:0.6;fill:url(#SVGID_2_);}
	.st2{opacity:0.6;fill:url(#SVGID_3_);}
	.st3{opacity:0.5;}
	.st4{clip-path:url(#SVGID_5_);fill:url(#SVGID_6_);}
	.st5{clip-path:url(#SVGID_8_);fill:url(#SVGID_9_);}
	.st6{clip-path:url(#SVGID_11_);fill:url(#SVGID_12_);}
	.st7{clip-path:url(#SVGID_14_);fill:url(#SVGID_15_);}
	.st8{clip-path:url(#SVGID_17_);fill:url(#SVGID_18_);}
	.st9{clip-path:url(#SVGID_20_);fill:url(#SVGID_21_);}
	.st10{clip-path:url(#SVGID_23_);fill:url(#SVGID_24_);}
	.st11{clip-path:url(#SVGID_26_);fill:url(#SVGID_27_);}
	.st12{fill:#FFFFFF;}
	.st13{fill:none;stroke:#4A72B4;stroke-width:3.5972;stroke-miterlimit:10;}
	.st14{fill:none;stroke:#4A72B4;stroke-width:8.993;stroke-miterlimit:10;}
	.st15{opacity:0.4;}
	.st16{fill:#4A72B4;}
	.st17{fill:none;stroke:#4A72B4;stroke-width:5.3958;stroke-miterlimit:10;}
	.st18{opacity:0.4;fill:#F6DF9F;}
	.st19{opacity:0.2;fill:#4A72B4;}
	.st20{opacity:0.3;fill:#57AFDE;}
	.st21{fill:none;stroke:#4A72B4;stroke-width:8;stroke-miterlimit:10;}
	.st22{fill:#FFFFFF;stroke:#4A72B4;stroke-width:4;stroke-miterlimit:10;}
	.st23{fill:#FFFFFF;stroke:#57AFDE;stroke-width:4;stroke-miterlimit:10;}
	.st24{fill:#FFFFFF;stroke:#F6DF9F;stroke-width:4;stroke-miterlimit:10;}
	.st25{fill:#FFFFFF;stroke:#4A72B4;stroke-width:7;stroke-miterlimit:10;}
	.st26{fill:#FFFFFF;stroke:#57AFDE;stroke-width:7;stroke-miterlimit:10;}
	.st27{fill:#FFFFFF;stroke:#F6DF9F;stroke-width:7;stroke-miterlimit:10;}
	.st28{opacity:0.4;fill:#596780;enable-background:new    ;}
	.st29{fill:#ECB880;}
	.st30{opacity:0.4;fill:#FFC000;enable-background:new    ;}
	.st31{opacity:0.4;fill:#C9CBC0;enable-background:new    ;}
	.st32{fill:none;stroke:#4A72B4;stroke-width:6;stroke-linecap:round;stroke-miterlimit:10;}
	.st33{fill:none;stroke:#4A72B4;stroke-width:4;stroke-linecap:round;stroke-miterlimit:10;}
	.st34{opacity:0.2;fill:none;stroke:#4A72B4;stroke-width:2;stroke-linecap:round;stroke-miterlimit:10;}
	.st35{opacity:0.2;fill:none;stroke:#4A72B4;stroke-linecap:round;stroke-miterlimit:10;}
	.st36{opacity:0.2;fill:none;stroke:#4A72B4;stroke-width:0.4;stroke-linecap:round;stroke-miterlimit:10;}
	.st37{fill:none;stroke:#4A72B4;stroke-width:2;stroke-linecap:round;stroke-miterlimit:10;}
	.st38{fill:#C9CBC0;enable-background:new    ;}
	.st39{fill:#ECB880;enable-background:new    ;}
	.st40{fill:#004B76;enable-background:new    ;}
	.st41{fill:#FFC000;enable-background:new    ;}
	.st42{fill:#596780;enable-background:new    ;}
	.st43{fill:#E29DA3;enable-background:new    ;}
	.st44{opacity:0.6;fill:url(#SVGID_28_);}
	.st45{opacity:0.6;fill:url(#SVGID_29_);}
	.st46{opacity:0.6;fill:url(#SVGID_30_);}
	.st47{opacity:0.2;fill:#57AFDE;}
	.st48{opacity:0.2;fill:#F6DF9F;}
</style>
<g id="magnifying_glass">
	<g id="aura_1_">
	</g>
	<g id="text">
	</g>
	<g id="glass">
	</g>
	<g id="hand">
		<g id="Layer_16">
		</g>
	</g>
</g>
<g id="number_1">
	<g id="_x31_">
	</g>
	<g id="hash">
	</g>
	<g id="bubbles">
	</g>
</g>
<g id="pheros">
	<g id="shadows">
		<g id="Layer_11">
			<rect x="632.3" y="299.9" class="st28" width="38.4" height="202.5"/>
		</g>
		<g id="XMLID_2_" class="st15">
			<g>
				<path class="st29" d="M670.7,522.4v202.5H450.1V522.4H670.7z M611.8,623.6c0-36.7-23.5-64.3-59.6-64.3
					c-36.1,0-59.3,27.6-59.3,64.3c0,36.4,23.2,64.3,59.3,64.3C588.3,687.9,611.8,660,611.8,623.6z"/>
			</g>
		</g>
		<path class="st30" d="M229.5,299.9h220.6v202.5H229.5V299.9z M319.1,337.2h-46.2v56.3h46.2c17.1,0,30-11,30-28.1
			C349.1,348.5,336.2,337.2,319.1,337.2z"/>
		<path class="st31" d="M229.5,522.4h220.6v202.5H229.5V522.4z M317.8,559.4h-45.2v55.9h45.2c17.3,0,30.4-10.9,30.4-27.9
			S335.1,559.4,317.8,559.4z"/>
	</g>
	<g id="lines">
		<line class="st32" x1="128.3" y1="623.6" x2="560.4" y2="187.4"/>
		<line class="st33" x1="330.6" y1="790.1" x2="857.3" y2="258.1"/>
		<line class="st34" x1="163.2" y1="550.5" x2="498" y2="212.5"/>
		<line class="st34" x1="443" y1="693.1" x2="782.5" y2="350.1"/>
		<line class="st35" x1="492.8" y1="658.4" x2="832.4" y2="315.4"/>
		<line class="st36" x1="390.6" y1="774.8" x2="730.2" y2="431.8"/>
		<line class="st37" x1="530.9" y1="791.1" x2="897.3" y2="415.4"/>
		<line class="st35" x1="612.8" y1="731.9" x2="815.4" y2="524.1"/>
		<line class="st36" x1="714.6" y1="639.8" x2="848.6" y2="502.4"/>
		<line class="st35" x1="172.4" y1="521.6" x2="507.2" y2="183.6"/>
		<line class="st36" x1="62.7" y1="619.2" x2="397.5" y2="281.2"/>
	</g>
	<g id="second_row">
		<path class="st38" d="M304.2,652.3h-31.6v72.6h-43.1V522.4h94.7c42.2,0,68,27.6,68,65.3c0,35.8-22.5,55-44.3,60.1l45.5,77.1h-49.5
			L304.2,652.3z M317.8,559.4h-45.2v55.9h45.2c17.3,0,30.4-10.9,30.4-27.9S335.1,559.4,317.8,559.4z"/>
		<path class="st39" d="M552.2,522.4c59.3,0,102.4,42.3,102.4,101.3c0,59-43.1,101.3-102.4,101.3c-59,0-102.1-42.3-102.1-101.3
			C450.1,564.6,493.2,522.4,552.2,522.4z M552.2,559.4c-36.1,0-59.3,27.6-59.3,64.3c0,36.4,23.2,64.3,59.3,64.3s59.6-27.9,59.6-64.3
			C611.8,587,588.3,559.4,552.2,559.4z"/>
		<path class="st40" d="M693.6,662c13.8,14.4,35.3,26.5,62.3,26.5c22.9,0,34.1-10.9,34.1-22c0-14.7-17-19.7-39.7-25
			c-32-7.3-73.2-16.2-73.2-60c0-32.6,28.2-59.1,74.4-59.1c31.2,0,57,9.4,76.4,27.3l-23.2,30.6c-15.9-14.7-37-21.5-56.1-21.5
			c-18.8,0-28.8,8.2-28.8,20c0,13.2,16.5,17.3,39.1,22.6c32.3,7.3,73.5,17,73.5,60.6c0,35.9-25.6,62.9-78.5,62.9
			c-37.6,0-64.7-12.6-83.2-31.2L693.6,662z"/>
	</g>
	<g id="first_row">
		<path class="st41" d="M230.1,299.9h94.7c44,0,68,29.8,68,65.3c0,35.2-24.3,64.7-68,64.7h-51.6v72.6h-43.1V299.9z M319.7,337.2
			h-46.2v56.3h46.2c17.1,0,30-11,30-28.1C349.7,348.5,336.8,337.2,319.7,337.2z"/>
		<polygon class="st42" points="588.8,417.4 493.2,417.4 493.2,502.4 450.1,502.4 450.1,299.9 493.2,299.9 493.2,379.4 588.8,379.4 
			588.8,299.9 632.3,299.9 632.3,502.4 588.8,502.4 		"/>
		<polygon class="st43" points="670.7,299.9 814,299.9 814,336.9 713.8,336.9 713.8,380.9 811.9,380.9 811.9,418 713.8,418 
			713.8,465 814,465 814,502.4 670.7,502.4 		"/>
	</g>
</g>
<g id="nose">
	<g id="aura">
	</g>
	<g id="reaction">
	</g>
	<g id="profile">
	</g>
</g>
</svg>
