<?xml version="1.0" encoding="utf-8"?>
<!-- Generator: Adobe Illustrator 19.1.0, SVG Export Plug-In . SVG Version: 6.00 Build 0)  -->
<svg version="1.1" xmlns="http://www.w3.org/2000/svg" xmlns:xlink="http://www.w3.org/1999/xlink" x="0px" y="0px"
	 viewBox="0 0 1000 1000" style="enable-background:new 0 0 1000 1000;" xml:space="preserve">
<style type="text/css">
	.st0{opacity:0.6;fill:url(#SVGID_1_);}
	.st1{opacity:0.6;fill:url(#SVGID_2_);}
	.st2{opacity:0.6;fill:url(#SVGID_3_);}
	.st3{opacity:0.5;}
	.st4{clip-path:url(#SVGID_5_);fill:url(#SVGID_6_);}
	.st5{clip-path:url(#SVGID_8_);fill:url(#SVGID_9_);}
	.st6{clip-path:url(#SVGID_11_);fill:url(#SVGID_12_);}
	.st7{clip-path:url(#SVGID_14_);fill:url(#SVGID_15_);}
	.st8{clip-path:url(#SVGID_17_);fill:url(#SVGID_18_);}
	.st9{clip-path:url(#SVGID_20_);fill:url(#SVGID_21_);}
	.st10{clip-path:url(#SVGID_23_);fill:url(#SVGID_24_);}
	.st11{clip-path:url(#SVGID_26_);fill:url(#SVGID_27_);}
	.st12{fill:#FFFFFF;}
	.st13{fill:none;stroke:#4A72B4;stroke-width:3.5972;stroke-miterlimit:10;}
	.st14{fill:none;stroke:#4A72B4;stroke-width:8.993;stroke-miterlimit:10;}
	.st15{opacity:0.4;}
	.st16{fill:#4A72B4;}
	.st17{fill:none;stroke:#4A72B4;stroke-width:5.3958;stroke-miterlimit:10;}
	.st18{opacity:0.4;fill:#F6DF9F;}
	.st19{opacity:0.2;fill:#4A72B4;}
	.st20{opacity:0.3;fill:#57AFDE;}
	.st21{fill:none;stroke:#4A72B4;stroke-width:8;stroke-miterlimit:10;}
	.st22{fill:#FFFFFF;stroke:#4A72B4;stroke-width:4;stroke-miterlimit:10;}
	.st23{fill:#FFFFFF;stroke:#57AFDE;stroke-width:4;stroke-miterlimit:10;}
	.st24{fill:#FFFFFF;stroke:#F6DF9F;stroke-width:4;stroke-miterlimit:10;}
	.st25{fill:#FFFFFF;stroke:#4A72B4;stroke-width:7;stroke-miterlimit:10;}
	.st26{fill:#FFFFFF;stroke:#57AFDE;stroke-width:7;stroke-miterlimit:10;}
	.st27{fill:#FFFFFF;stroke:#F6DF9F;stroke-width:7;stroke-miterlimit:10;}
	.st28{opacity:0.4;fill:#596780;enable-background:new    ;}
	.st29{fill:#ECB880;}
	.st30{opacity:0.4;fill:#FFC000;enable-background:new    ;}
	.st31{opacity:0.4;fill:#C9CBC0;enable-background:new    ;}
	.st32{fill:none;stroke:#4A72B4;stroke-width:6;stroke-linecap:round;stroke-miterlimit:10;}
	.st33{fill:none;stroke:#4A72B4;stroke-width:4;stroke-linecap:round;stroke-miterlimit:10;}
	.st34{opacity:0.2;fill:none;stroke:#4A72B4;stroke-width:2;stroke-linecap:round;stroke-miterlimit:10;}
	.st35{opacity:0.2;fill:none;stroke:#4A72B4;stroke-linecap:round;stroke-miterlimit:10;}
	.st36{opacity:0.2;fill:none;stroke:#4A72B4;stroke-width:0.4;stroke-linecap:round;stroke-miterlimit:10;}
	.st37{fill:none;stroke:#4A72B4;stroke-width:2;stroke-linecap:round;stroke-miterlimit:10;}
	.st38{fill:#C9CBC0;enable-background:new    ;}
	.st39{fill:#ECB880;enable-background:new    ;}
	.st40{fill:#004B76;enable-background:new    ;}
	.st41{fill:#FFC000;enable-background:new    ;}
	.st42{fill:#596780;enable-background:new    ;}
	.st43{fill:#E29DA3;enable-background:new    ;}
	.st44{opacity:0.6;fill:url(#SVGID_28_);}
	.st45{opacity:0.6;fill:url(#SVGID_29_);}
	.st46{opacity:0.6;fill:url(#SVGID_30_);}
	.st47{opacity:0.2;fill:#57AFDE;}
	.st48{opacity:0.2;fill:#F6DF9F;}
</style>
<g id="magnifying_glass">
	<g id="aura_1_">
	</g>
	<g id="text">
	</g>
	<g id="glass">
	</g>
	<g id="hand">
		<g id="Layer_16">
		</g>
	</g>
</g>
<g id="number_1">
	<g id="_x31_">
		<path class="st19" d="M424.5,300.2c0.1,34.8,0.1,56.3,0.1,84.8c0,0,96.9,0,96.9,0v295.6H399.7v111.8h342.8V680.6H630.7V222.3
			c0,0-111.7,0-111.8,0C501.5,270.2,477.8,290.4,424.5,300.2z"/>
		<path class="st20" d="M416.5,296.2c0.1,34.8,0.1,56.3,0.1,84.8c0,0,96.9,0,96.9,0v295.6H391.7v111.8h342.8V676.6H622.7V218.3
			c0,0-111.7,0-111.8,0C493.5,266.2,469.8,286.4,416.5,296.2z"/>
		<path class="st21" d="M404.5,300.2c0.1,34.8,0.1,56.3,0.1,84.8c0,0,96.9,0,96.9,0v295.6H379.7v111.8h342.8V680.6H610.7V222.3
			c0,0-111.7,0-111.8,0C481.5,270.2,457.8,290.4,404.5,300.2z"/>
	</g>
	<g id="hash">
		<path class="st19" d="M250.7,465.5l35.9-7.2l7.2,35.9l-36,7.2L250.7,465.5z M341.3,525.9l42.7-8.6l-7.7-39.7l-43,8.7l-7.1-35.9
			l43.8-8.8l-7.7-39.7l-44.1,8.9l-8.5-41.6l-39.5,8l8.4,41.7l-35.9,7.2l-8.6-42.6l-39.7,7.7l8.6,42.9l-40.4,8.1l7.9,39.5l40.5-8.1
			l7.2,36l-41.7,8.4l7.9,39.5l41.7-8.4l8.4,41.8l39.5-7.9l-8.4-41.8l36-7.2l8.7,43l39.5-7.9L341.3,525.9z"/>
		<path class="st20" d="M242.7,463.5l35.9-7.2l7.2,35.9l-36,7.2L242.7,463.5z M333.3,523.9l42.7-8.6l-7.7-39.7l-43,8.7l-7.1-35.9
			l43.8-8.8l-7.7-39.7l-44.1,8.9l-8.5-41.6l-39.5,8l8.4,41.7l-35.9,7.2l-8.6-42.6l-39.7,7.7l8.6,42.9l-40.4,8.1l7.9,39.5l40.5-8.1
			l7.2,36l-41.7,8.4l7.9,39.5l41.7-8.4l8.4,41.8l39.5-7.9l-8.4-41.8l36-7.2l8.7,43l39.5-7.9L333.3,523.9z"/>
		<polygon class="st21" points="241.5,497.8 277.5,490.5 270.3,454.6 234.4,461.8 		"/>
		<polygon class="st21" points="325,522.2 367.7,513.6 360,473.9 317,482.6 309.9,446.7 353.7,437.9 346,398.2 301.9,407.1 
			293.4,365.4 253.9,373.4 262.3,415.1 226.4,422.3 217.9,379.7 178.2,387.4 186.8,430.3 146.4,438.4 154.3,477.9 194.8,469.8 
			202,505.8 160.3,514.1 168.3,553.6 210,545.2 218.4,587 257.8,579.1 249.5,537.3 285.5,530.1 294.1,573.1 333.6,565.1 		"/>
	</g>
	<g id="bubbles">
		<circle class="st25" cx="687.7" cy="554.3" r="41.9"/>
		<circle class="st26" cx="588.6" cy="466.7" r="12.7"/>
		<circle class="st25" cx="847" cy="508.6" r="9.6"/>
		<circle class="st25" cx="275.8" cy="672.2" r="23.3"/>
		<circle class="st27" cx="757.5" cy="444.7" r="35.4"/>
		<circle class="st26" cx="844.5" cy="391.6" r="20.2"/>
		<circle class="st26" cx="406.3" cy="571.1" r="12.7"/>
		<circle class="st27" cx="778" cy="349" r="14.3"/>
		<circle class="st27" cx="373.5" cy="509.8" r="14.3"/>
	</g>
</g>
<g id="pheros">
	<g id="shadows">
		<g id="Layer_11">
		</g>
	</g>
	<g id="lines">
	</g>
	<g id="second_row">
	</g>
	<g id="first_row">
	</g>
</g>
<g id="nose">
	<g id="aura">
	</g>
	<g id="reaction">
	</g>
	<g id="profile">
	</g>
</g>
</svg>
