<?xml version="1.0" encoding="utf-8"?>
<!-- Generator: Adobe Illustrator 19.1.0, SVG Export Plug-In . SVG Version: 6.00 Build 0)  -->
<svg version="1.1" xmlns="http://www.w3.org/2000/svg" xmlns:xlink="http://www.w3.org/1999/xlink" x="0px" y="0px"
	 viewBox="0 0 1000 1000" style="enable-background:new 0 0 1000 1000;" xml:space="preserve">
<style type="text/css">
	.st0{opacity:0.6;fill:url(#SVGID_1_);}
	.st1{opacity:0.6;fill:url(#SVGID_2_);}
	.st2{opacity:0.6;fill:url(#SVGID_3_);}
	.st3{opacity:0.5;}
	.st4{clip-path:url(#SVGID_5_);fill:url(#SVGID_6_);}
	.st5{clip-path:url(#SVGID_8_);fill:url(#SVGID_9_);}
	.st6{clip-path:url(#SVGID_11_);fill:url(#SVGID_12_);}
	.st7{clip-path:url(#SVGID_14_);fill:url(#SVGID_15_);}
	.st8{clip-path:url(#SVGID_17_);fill:url(#SVGID_18_);}
	.st9{clip-path:url(#SVGID_20_);fill:url(#SVGID_21_);}
	.st10{clip-path:url(#SVGID_23_);fill:url(#SVGID_24_);}
	.st11{clip-path:url(#SVGID_26_);fill:url(#SVGID_27_);}
	.st12{fill:#FFFFFF;}
	.st13{fill:none;stroke:#4A72B4;stroke-width:3.5972;stroke-miterlimit:10;}
	.st14{fill:none;stroke:#4A72B4;stroke-width:8.993;stroke-miterlimit:10;}
	.st15{opacity:0.4;}
	.st16{fill:#4A72B4;}
	.st17{fill:none;stroke:#4A72B4;stroke-width:5.3958;stroke-miterlimit:10;}
	.st18{opacity:0.4;fill:#F6DF9F;}
	.st19{opacity:0.2;fill:#4A72B4;}
	.st20{opacity:0.3;fill:#57AFDE;}
	.st21{fill:none;stroke:#4A72B4;stroke-width:8;stroke-miterlimit:10;}
	.st22{fill:#FFFFFF;stroke:#4A72B4;stroke-width:4;stroke-miterlimit:10;}
	.st23{fill:#FFFFFF;stroke:#57AFDE;stroke-width:4;stroke-miterlimit:10;}
	.st24{fill:#FFFFFF;stroke:#F6DF9F;stroke-width:4;stroke-miterlimit:10;}
	.st25{fill:#FFFFFF;stroke:#4A72B4;stroke-width:7;stroke-miterlimit:10;}
	.st26{fill:#FFFFFF;stroke:#57AFDE;stroke-width:7;stroke-miterlimit:10;}
	.st27{fill:#FFFFFF;stroke:#F6DF9F;stroke-width:7;stroke-miterlimit:10;}
	.st28{opacity:0.4;fill:#596780;enable-background:new    ;}
	.st29{fill:#ECB880;}
	.st30{opacity:0.4;fill:#FFC000;enable-background:new    ;}
	.st31{opacity:0.4;fill:#C9CBC0;enable-background:new    ;}
	.st32{fill:none;stroke:#4A72B4;stroke-width:6;stroke-linecap:round;stroke-miterlimit:10;}
	.st33{fill:none;stroke:#4A72B4;stroke-width:4;stroke-linecap:round;stroke-miterlimit:10;}
	.st34{opacity:0.2;fill:none;stroke:#4A72B4;stroke-width:2;stroke-linecap:round;stroke-miterlimit:10;}
	.st35{opacity:0.2;fill:none;stroke:#4A72B4;stroke-linecap:round;stroke-miterlimit:10;}
	.st36{opacity:0.2;fill:none;stroke:#4A72B4;stroke-width:0.4;stroke-linecap:round;stroke-miterlimit:10;}
	.st37{fill:none;stroke:#4A72B4;stroke-width:2;stroke-linecap:round;stroke-miterlimit:10;}
	.st38{fill:#C9CBC0;enable-background:new    ;}
	.st39{fill:#ECB880;enable-background:new    ;}
	.st40{fill:#004B76;enable-background:new    ;}
	.st41{fill:#FFC000;enable-background:new    ;}
	.st42{fill:#596780;enable-background:new    ;}
	.st43{fill:#E29DA3;enable-background:new    ;}
	.st44{opacity:0.6;fill:url(#SVGID_28_);}
	.st45{opacity:0.6;fill:url(#SVGID_29_);}
	.st46{opacity:0.6;fill:url(#SVGID_30_);}
	.st47{opacity:0.2;fill:#57AFDE;}
	.st48{opacity:0.2;fill:#F6DF9F;}
</style>
<g id="magnifying_glass">
	<g id="aura_1_">
		<radialGradient id="SVGID_1_" cx="543.9091" cy="384.0716" r="356.9869" gradientUnits="userSpaceOnUse">
			<stop  offset="0" style="stop-color:#86BDDE"/>
			<stop  offset="0.9629" style="stop-color:#FAFCFE;stop-opacity:3.705424e-02"/>
			<stop  offset="1" style="stop-color:#FFFFFF;stop-opacity:0"/>
		</radialGradient>
		<circle class="st0" cx="543.9" cy="384.1" r="357"/>
		<radialGradient id="SVGID_2_" cx="521.8938" cy="793.2524" r="117.4936" gradientUnits="userSpaceOnUse">
			<stop  offset="0" style="stop-color:#F7E3AB"/>
			<stop  offset="0.2582" style="stop-color:#F7E4AE;stop-opacity:0.7418"/>
			<stop  offset="0.4648" style="stop-color:#F8E7B8;stop-opacity:0.5352"/>
			<stop  offset="0.6534" style="stop-color:#FAEDC9;stop-opacity:0.3466"/>
			<stop  offset="0.8303" style="stop-color:#FCF5E1;stop-opacity:0.1697"/>
			<stop  offset="1" style="stop-color:#FFFFFF;stop-opacity:0"/>
		</radialGradient>
		<circle class="st1" cx="521.9" cy="793.3" r="117.5"/>
		<radialGradient id="SVGID_3_" cx="349.7365" cy="544.8922" r="170.9931" gradientUnits="userSpaceOnUse">
			<stop  offset="0" style="stop-color:#4A72B4"/>
			<stop  offset="0.1105" style="stop-color:#547AB8;stop-opacity:0.8895"/>
			<stop  offset="0.2983" style="stop-color:#6F8FC3;stop-opacity:0.7017"/>
			<stop  offset="0.5407" style="stop-color:#9BB1D5;stop-opacity:0.4593"/>
			<stop  offset="0.8251" style="stop-color:#D7E0EE;stop-opacity:0.1749"/>
			<stop  offset="1" style="stop-color:#FFFFFF;stop-opacity:0"/>
		</radialGradient>
		<circle class="st2" cx="349.7" cy="544.9" r="171"/>
	</g>
	<g id="text">
		<g class="st3">
			<defs>
				<path id="SVGID_4_" class="st3" d="M767.5,415.9c4.7,4.9,12,9,21.1,9c7.8,0,11.6-3.7,11.6-7.5c0-5-5.8-6.7-13.5-8.5
					c-10.9-2.5-24.8-5.5-24.8-20.3c0-11.1,9.6-20,25.2-20c10.6,0,19.4,3.2,25.9,9.3l-7.9,10.4c-5.4-5-12.6-7.3-19.1-7.3
					c-6.4,0-9.8,2.8-9.8,6.8c0,4.5,5.6,5.9,13.3,7.7c11,2.5,24.9,5.8,24.9,20.5c0,12.2-8.7,21.3-26.6,21.3
					c-12.8,0-21.9-4.3-28.2-10.6L767.5,415.9z"/>
			</defs>
			<clipPath id="SVGID_5_">
				<use xlink:href="#SVGID_4_"  style="overflow:visible;"/>
			</clipPath>
			
				<linearGradient id="SVGID_6_" gradientUnits="userSpaceOnUse" x1="-3993.6365" y1="-4320.105" x2="-3562.9856" y2="-4320.105" gradientTransform="matrix(-0.883 0.6786 -1.3214 -0.117 -8466.6631 2439.2856)">
				<stop  offset="0" style="stop-color:#FFE3E5"/>
				<stop  offset="0.1245" style="stop-color:#D6D1DE"/>
				<stop  offset="0.3686" style="stop-color:#8BAFD2"/>
				<stop  offset="0.5869" style="stop-color:#4F94C9"/>
				<stop  offset="0.7714" style="stop-color:#2481C2"/>
				<stop  offset="0.915" style="stop-color:#0A75BE"/>
				<stop  offset="1" style="stop-color:#0071BC"/>
			</linearGradient>
			<polygon class="st4" points="103.6,501.6 483.8,209.3 1052.9,259.7 672.6,552 			"/>
		</g>
		<g class="st3">
			<defs>
				<path id="SVGID_7_" class="st3" d="M279.4,370.3h31c14.4,0,22.3,9.7,22.3,21.4c0,11.5-8,21.2-22.3,21.2h-16.9v23.8h-14.1V370.3z
					 M308.6,382.5h-15v18.3h15c5.6,0,9.7-3.6,9.7-9.2C318.3,386.1,314.1,382.5,308.6,382.5z"/>
			</defs>
			<clipPath id="SVGID_8_">
				<use xlink:href="#SVGID_7_"  style="overflow:visible;"/>
			</clipPath>
			
				<linearGradient id="SVGID_9_" gradientUnits="userSpaceOnUse" x1="-3993.6365" y1="-4320.105" x2="-3562.9856" y2="-4320.105" gradientTransform="matrix(-0.883 0.6786 -1.3214 -0.117 -8466.6631 2439.2856)">
				<stop  offset="0" style="stop-color:#FFE3E5"/>
				<stop  offset="0.1245" style="stop-color:#D6D1DE"/>
				<stop  offset="0.3686" style="stop-color:#8BAFD2"/>
				<stop  offset="0.5869" style="stop-color:#4F94C9"/>
				<stop  offset="0.7714" style="stop-color:#2481C2"/>
				<stop  offset="0.915" style="stop-color:#0A75BE"/>
				<stop  offset="1" style="stop-color:#0071BC"/>
			</linearGradient>
			<polygon class="st5" points="103.6,501.6 483.8,209.3 1052.9,259.7 672.6,552 			"/>
		</g>
		<g>
			<defs>
				<polygon id="SVGID_10_" points="472.9,342.1 540.2,342.1 540.2,359.5 493.1,359.5 493.1,380.2 539.2,380.2 539.2,397.6 
					493.1,397.6 493.1,419.7 540.2,419.7 540.2,437.3 472.9,437.3 				"/>
			</defs>
			<clipPath id="SVGID_11_">
				<use xlink:href="#SVGID_10_"  style="overflow:visible;"/>
			</clipPath>
			
				<linearGradient id="SVGID_12_" gradientUnits="userSpaceOnUse" x1="-3981.1768" y1="-4317.7646" x2="-3577.1345" y2="-4317.7646" gradientTransform="matrix(-0.883 0.6786 -1.3214 -0.117 -8466.6631 2439.2856)">
				<stop  offset="0" style="stop-color:#FFE3E5"/>
				<stop  offset="0.1245" style="stop-color:#D6D1DE"/>
				<stop  offset="0.3686" style="stop-color:#8BAFD2"/>
				<stop  offset="0.5869" style="stop-color:#4F94C9"/>
				<stop  offset="0.7714" style="stop-color:#2481C2"/>
				<stop  offset="0.915" style="stop-color:#0A75BE"/>
				<stop  offset="1" style="stop-color:#0071BC"/>
			</linearGradient>
			<polygon class="st6" points="130.5,493.3 487.3,219.1 1021.2,266.3 664.4,540.5 			"/>
		</g>
		<g>
			<defs>
				<path id="SVGID_13_" d="M600.5,403.2h-14.8v34.1h-20.3v-95.2h44.5c19.8,0,32,13,32,30.7c0,16.8-10.6,25.8-20.8,28.3l21.4,36.2
					h-23.3L600.5,403.2z M606.9,359.5h-21.3v26.3h21.3c8.1,0,14.3-5.1,14.3-13.1S615,359.5,606.9,359.5z"/>
			</defs>
			<clipPath id="SVGID_14_">
				<use xlink:href="#SVGID_13_"  style="overflow:visible;"/>
			</clipPath>
			
				<linearGradient id="SVGID_15_" gradientUnits="userSpaceOnUse" x1="-3981.4106" y1="-4319.1216" x2="-3577.3687" y2="-4319.1216" gradientTransform="matrix(-0.883 0.6786 -1.3214 -0.117 -8466.6631 2439.2856)">
				<stop  offset="0" style="stop-color:#FFE3E5"/>
				<stop  offset="0.1245" style="stop-color:#D6D1DE"/>
				<stop  offset="0.3686" style="stop-color:#8BAFD2"/>
				<stop  offset="0.5869" style="stop-color:#4F94C9"/>
				<stop  offset="0.7714" style="stop-color:#2481C2"/>
				<stop  offset="0.915" style="stop-color:#0A75BE"/>
				<stop  offset="1" style="stop-color:#0071BC"/>
			</linearGradient>
			<polygon class="st7" points="132.5,493.3 489.3,219.1 1023.2,266.3 666.4,540.5 			"/>
		</g>
		<g>
			<defs>
				<path id="SVGID_16_" d="M376.9,437.3c-1.3-3.9-2.5-7.9-3.6-11.9c-7.4-28.3-7.7-56.7-1.8-83.4h8.1v37.5h45v-37.5H445v95.3h-20.4
					v-40h-45v40L376.9,437.3"/>
			</defs>
			<clipPath id="SVGID_17_">
				<use xlink:href="#SVGID_16_"  style="overflow:visible;"/>
			</clipPath>
			
				<linearGradient id="SVGID_18_" gradientUnits="userSpaceOnUse" x1="-3981.1768" y1="-4317.7646" x2="-3577.1345" y2="-4317.7646" gradientTransform="matrix(-0.883 0.6786 -1.3214 -0.117 -8466.6631 2439.2856)">
				<stop  offset="0" style="stop-color:#FFE3E5"/>
				<stop  offset="0.1245" style="stop-color:#D6D1DE"/>
				<stop  offset="0.3686" style="stop-color:#8BAFD2"/>
				<stop  offset="0.5869" style="stop-color:#4F94C9"/>
				<stop  offset="0.7714" style="stop-color:#2481C2"/>
				<stop  offset="0.915" style="stop-color:#0A75BE"/>
				<stop  offset="1" style="stop-color:#0071BC"/>
			</linearGradient>
			<polygon class="st8" points="130.5,493.3 487.3,219.1 1021.2,266.3 664.4,540.5 			"/>
		</g>
		<g>
			<defs>
				<path id="SVGID_19_" d="M720,417c-1.5,6.8-3.3,13.5-5.5,20l-4.5,0.6c-25.3,1.8-46.4-14.1-51.3-40c-5.3-28.2,11.5-52.3,39.6-57.6
					c7.4-1.4,14.5-1.3,21.1,0.1l0,0c1.7,7.3,2.9,14.5,3.6,21.8l0,0c-5.8-4-13.2-5.7-21.4-4.2c-17.2,3.3-25.8,18.5-22.5,36.1
					c3.3,17.4,16.9,28.6,34.1,25.4C714.5,418.9,718.9,417.4,720,417"/>
			</defs>
			<clipPath id="SVGID_20_">
				<use xlink:href="#SVGID_19_"  style="overflow:visible;"/>
			</clipPath>
			
				<linearGradient id="SVGID_21_" gradientUnits="userSpaceOnUse" x1="-3981.1768" y1="-4317.7646" x2="-3577.1345" y2="-4317.7646" gradientTransform="matrix(-0.883 0.6786 -1.3214 -0.117 -8466.6631 2439.2856)">
				<stop  offset="0" style="stop-color:#FFE3E5"/>
				<stop  offset="0.1245" style="stop-color:#D6D1DE"/>
				<stop  offset="0.3686" style="stop-color:#8BAFD2"/>
				<stop  offset="0.5869" style="stop-color:#4F94C9"/>
				<stop  offset="0.7714" style="stop-color:#2481C2"/>
				<stop  offset="0.915" style="stop-color:#0A75BE"/>
				<stop  offset="1" style="stop-color:#0071BC"/>
			</linearGradient>
			<polygon class="st9" points="130.5,493.3 487.3,219.1 1021.2,266.3 664.4,540.5 			"/>
		</g>
		<g class="st3">
			<defs>
				<path id="SVGID_22_" class="st3" d="M369.7,408.8c-0.7-4.1-1.2-8.3-1.6-12.4l0,0h-1.7v-26.1h-8.1h-6.1v66.3h14.1v-27.8
					L369.7,408.8"/>
			</defs>
			<clipPath id="SVGID_23_">
				<use xlink:href="#SVGID_22_"  style="overflow:visible;"/>
			</clipPath>
			
				<linearGradient id="SVGID_24_" gradientUnits="userSpaceOnUse" x1="-3993.6365" y1="-4320.105" x2="-3562.9856" y2="-4320.105" gradientTransform="matrix(-0.883 0.6786 -1.3214 -0.117 -8466.6631 2439.2856)">
				<stop  offset="0" style="stop-color:#FFE3E5"/>
				<stop  offset="0.1245" style="stop-color:#D6D1DE"/>
				<stop  offset="0.3686" style="stop-color:#8BAFD2"/>
				<stop  offset="0.5869" style="stop-color:#4F94C9"/>
				<stop  offset="0.7714" style="stop-color:#2481C2"/>
				<stop  offset="0.915" style="stop-color:#0A75BE"/>
				<stop  offset="1" style="stop-color:#0071BC"/>
			</linearGradient>
			<polygon class="st10" points="103.6,501.6 483.8,209.3 1052.9,259.7 672.6,552 			"/>
		</g>
		<g class="st3">
			<defs>
				<path id="SVGID_25_" class="st3" d="M718.6,423.3c8.4-3,13-11.6,13-20.5c0-7-2.1-13.2-7.8-16.1c0.2-5.1,0.2-10.2-0.1-15.3
					c14.5,2.9,22.4,17.4,22.4,31.5c0,19-13.1,32.9-31.7,34.3C716.2,432.3,717.3,428.3,718.6,423.3z"/>
			</defs>
			<clipPath id="SVGID_26_">
				<use xlink:href="#SVGID_25_"  style="overflow:visible;"/>
			</clipPath>
			
				<linearGradient id="SVGID_27_" gradientUnits="userSpaceOnUse" x1="-3993.6365" y1="-4320.105" x2="-3562.9856" y2="-4320.105" gradientTransform="matrix(-0.883 0.6786 -1.3214 -0.117 -8466.6631 2439.2856)">
				<stop  offset="0" style="stop-color:#FFE3E5"/>
				<stop  offset="0.1245" style="stop-color:#D6D1DE"/>
				<stop  offset="0.3686" style="stop-color:#8BAFD2"/>
				<stop  offset="0.5869" style="stop-color:#4F94C9"/>
				<stop  offset="0.7714" style="stop-color:#2481C2"/>
				<stop  offset="0.915" style="stop-color:#0A75BE"/>
				<stop  offset="1" style="stop-color:#0071BC"/>
			</linearGradient>
			<polygon class="st11" points="103.6,501.6 483.8,209.3 1052.9,259.7 672.6,552 			"/>
		</g>
	</g>
	<path id="hand_filled" class="st12" d="M379.3,622c-1.9-11.1-14.4-11-23.5-8.8c-17.2,4.1-34.2,8.8-51.2,13.9
		c-7.8,2.4-16.3,4.2-23.5,8c-3.9,2-7.8,8.5-12.6,8.6c-37.9,0.5-33.1,26.5-42,55.8c-14.5,47.8-24.3,94.5-49.3,141.3l56.4,32.9
		l49.1,33.3l28.2-40.3c24.5-16,35-35.6,46.5-61.5c0,0,12.6-35.6,12.8-36.2c13.5-38.1,29.9-71.7,51.2-106c8.9-12.5,17-25.3,16-41.4
		c-0.5-8-4.1-16.2-10.9-20.4c-22.2-13.6-46,24.9-55.2,39.5c-17,27-27.9,55.6-55.3,74.5"/>
	<g id="glass">
		<line class="st13" x1="446.1" y1="588.4" x2="468.2" y2="548.1"/>
		<circle class="st14" cx="545.6" cy="379.9" r="178.3"/>
		<g class="st15">
			<path class="st16" d="M686.2,431.3c0,0-0.4,1-1.1,2.7c-0.4,0.9-0.8,2-1.4,3.3c-0.3,0.6-0.5,1.4-0.9,2.1c-0.4,0.7-0.7,1.5-1.1,2.3
				c-0.8,1.6-1.7,3.4-2.7,5.4c-1.1,1.9-2.3,4-3.5,6.1c-1.3,2.2-2.8,4.4-4.4,6.8c-0.8,1.2-1.7,2.4-2.5,3.6c-0.9,1.2-1.8,2.4-2.8,3.7
				c-0.9,1.3-2,2.4-3,3.7c-1.1,1.2-2.1,2.5-3.2,3.8c-1.1,1.2-2.3,2.5-3.5,3.7c-1.2,1.2-2.4,2.6-3.7,3.8c-2.6,2.4-5.3,5.1-8.2,7.4
				c-1.5,1.2-2.9,2.5-4.4,3.6c-1.6,1.1-3.1,2.3-4.7,3.5c-0.8,0.6-1.6,1.2-2.4,1.7c-0.8,0.5-1.7,1.1-2.5,1.6
				c-1.7,1.1-3.3,2.2-5.1,3.3c-1.8,1-3.5,2-5.3,3c-0.9,0.5-1.8,1-2.7,1.5c-0.9,0.5-1.8,0.9-2.8,1.4c-1.9,0.9-3.7,1.9-5.6,2.7
				c-1.9,0.8-3.8,1.6-5.8,2.4c-1,0.4-1.9,0.8-2.9,1.2l-3,1.1c-2,0.7-3.9,1.4-5.9,2.1l-6,1.8l-1.5,0.4l-0.8,0.2l-0.4,0.1l-0.1,0
				l-0.2,0l-0.2,0l-3,0.7l-3,0.7c-1,0.2-2,0.5-3,0.6c-2.1,0.4-4.1,0.8-6.2,1.1c-4.1,0.6-8.1,1.2-12.2,1.4c-1,0.1-2,0.2-3,0.2
				l-1.5,0.1l-1.5,0c-2,0.1-4,0.1-5.9,0.2c-7.9,0-15.4-0.5-22.6-1.6c-1.8-0.2-3.5-0.6-5.2-0.9c-1.7-0.3-3.4-0.5-5.1-1
				c-3.3-0.8-6.5-1.5-9.5-2.4c-1.5-0.4-3-0.8-4.4-1.3c-1.4-0.5-2.8-1-4.1-1.4c-2.7-0.9-5.2-2-7.5-2.9c-2.4-0.9-4.5-2-6.5-2.9
				c-1-0.5-2-0.9-2.8-1.4c-0.9-0.5-1.7-0.9-2.5-1.3c-1.6-0.9-3.1-1.6-4.3-2.3c-1.2-0.7-2.2-1.3-3.1-1.8c-1.7-1-2.5-1.5-2.5-1.5
				s0.9,0.4,2.7,1.3c0.9,0.4,1.9,0.9,3.2,1.5c1.3,0.6,2.8,1.2,4.4,1.9c0.8,0.4,1.7,0.7,2.6,1.1c0.9,0.4,1.9,0.7,2.9,1.1
				c2,0.7,4.2,1.7,6.6,2.4c2.4,0.8,4.9,1.7,7.6,2.3c1.3,0.4,2.7,0.8,4.1,1.2c1.4,0.4,2.9,0.7,4.4,1c6,1.4,12.5,2.4,19.5,3.2
				c1.7,0.2,3.5,0.3,5.3,0.5c1.8,0.2,3.6,0.2,5.4,0.3c0.9,0,1.8,0.1,2.8,0.1c0.9,0,1.9,0,2.8,0c1.9,0,3.8,0,5.7,0
				c7.6-0.2,15.5-1.1,23.4-2.4c1.9-0.4,3.9-0.7,5.9-1.1c1-0.2,2-0.4,3-0.6l3-0.7l3-0.7l0.2,0c0,0,0.1,0,0,0l0.1,0l0.4-0.1l0.7-0.2
				l1.5-0.4l5.8-1.7c1.9-0.6,3.8-1.3,5.8-2l2.9-1c1-0.3,1.9-0.8,2.8-1.1c1.9-0.8,3.7-1.6,5.6-2.3c1.8-0.8,3.6-1.7,5.4-2.6
				c0.9-0.4,1.8-0.9,2.7-1.3c0.9-0.5,1.7-1,2.6-1.4c1.7-0.9,3.5-1.9,5.2-2.8c1.7-1,3.3-2.1,5-3.1c0.8-0.5,1.6-1,2.5-1.5
				c0.8-0.5,1.6-1.1,2.4-1.6c1.6-1.1,3.1-2.2,4.6-3.3c1.5-1.1,2.9-2.3,4.4-3.4c3-2.2,5.6-4.6,8.3-6.9c1.4-1.1,2.5-2.4,3.8-3.5
				c1.2-1.2,2.4-2.4,3.6-3.5c1.1-1.2,2.2-2.4,3.3-3.6c1.1-1.2,2.2-2.3,3.2-3.5c1-1.2,1.9-2.3,2.9-3.5c0.9-1.1,1.9-2.2,2.7-3.3
				c1.7-2.2,3.3-4.3,4.8-6.4c1.4-2.1,2.7-4,3.9-5.8c1.2-1.8,2.1-3.5,3.1-5.1c0.5-0.8,0.9-1.5,1.3-2.2c0.4-0.7,0.7-1.4,1.1-2
				c0.7-1.2,1.2-2.3,1.7-3.1C685.8,432.2,686.2,431.3,686.2,431.3z"/>
		</g>
		<g class="st15">
			<path class="st16" d="M405.2,426.8c0,0-0.5-1.8-1.4-5.2c-0.2-0.8-0.5-1.8-0.7-2.8c-0.2-1.1-0.5-2.2-0.7-3.4
				c-0.3-1.2-0.6-2.6-0.9-4c-0.2-1.4-0.5-3-0.7-4.6c-0.6-3.2-0.9-6.8-1.3-10.8c-0.3-3.9-0.6-8.2-0.6-12.8
				c-0.1-9.1,0.6-19.5,2.7-30.6c0.4-2.8,1.2-5.6,1.8-8.4c0.3-1.4,0.7-2.9,1.1-4.3c0.4-1.4,0.8-2.9,1.2-4.4c1.9-5.8,4-11.8,6.7-17.6
				c5.2-11.9,12.4-23.7,21.5-34.6c4.5-5.5,9.6-10.7,15-15.6c5.5-4.9,11.3-9.4,17.6-13.5c6.3-4,12.9-7.6,19.8-10.7
				c6.9-3,14.1-5.5,21.4-7.6l5.5-1.3c1.8-0.5,3.7-0.8,5.6-1.1c3.8-0.8,7.5-1.1,11.3-1.6c7.5-0.7,15.1-0.8,22.5-0.4
				c7.5,0.5,14.8,1.5,22,3.1c7.1,1.6,14.1,3.7,20.7,6.2c13.3,5.1,25.3,11.8,35.7,19.6c5.3,3.8,10,7.9,14.5,12
				c1.1,1.1,2.2,2.1,3.2,3.2c1.1,1.1,2.1,2.1,3.1,3.2c2,2.2,4,4.2,5.8,6.4c7.3,8.6,13,17.3,17.4,25.3c2.3,4,4.1,7.8,5.8,11.4
				c1.5,3.6,3.1,6.9,4.1,10c0.6,1.5,1.1,3,1.6,4.3c0.4,1.4,0.8,2.7,1.2,3.9c0.4,1.2,0.7,2.3,1,3.4c0.3,1,0.5,2,0.7,2.8
				c0.9,3.4,1.3,5.2,1.3,5.2s-0.6-1.8-1.6-5.1c-0.3-0.8-0.5-1.8-0.9-2.8c-0.4-1-0.8-2.1-1.2-3.3c-0.4-1.2-0.9-2.5-1.4-3.8
				c-0.6-1.3-1.2-2.8-1.8-4.3c-1.2-3-2.8-6.2-4.5-9.8c-1.8-3.5-3.8-7.2-6.2-11c-4.7-7.7-10.6-16-18-24.2c-1.8-2.1-3.8-4.1-5.8-6.1
				c-1-1.1-2.1-2-3.1-3c-1.1-1-2.1-2-3.2-3c-4.5-3.9-9.2-7.9-14.4-11.4c-10.3-7.3-22.2-13.6-35.1-18.4c-6.5-2.3-13.2-4.2-20.1-5.7
				c-6.9-1.4-14-2.3-21.2-2.8c-7.2-0.4-14.5-0.2-21.7,0.5c-3.6,0.5-7.3,0.9-10.8,1.6c-1.8,0.3-3.5,0.6-5.4,1.1l-5.4,1.3
				c-7.1,1.9-14,4.3-20.7,7.2c-6.6,3-13.1,6.4-19.1,10.3c-6,4-11.7,8.2-17.1,12.9c-5.3,4.7-10.2,9.7-14.7,14.9
				c-8.8,10.5-16.1,21.8-21.4,33.3c-2.8,5.7-4.9,11.5-6.9,17.1c-0.4,1.4-0.9,2.8-1.3,4.2c-0.4,1.4-0.9,2.8-1.2,4.2
				c-0.7,2.8-1.5,5.5-2,8.2c-2.4,10.8-3.4,21-3.7,30c-0.2,4.5,0,8.7,0.1,12.7c0.3,3.9,0.4,7.5,0.9,10.7c0.2,1.6,0.4,3.1,0.5,4.6
				c0.2,1.4,0.4,2.8,0.6,4c0.2,1.2,0.4,2.4,0.6,3.5c0.2,1.1,0.4,2,0.6,2.9C404.8,425,405.2,426.8,405.2,426.8z"/>
		</g>
		<polyline class="st17" points="403.4,602.9 420.1,573.7 452.8,593.3 438.3,617.5 		"/>
		<polyline class="st17" points="449.3,533 447,537.8 470.8,550.9 473.3,546.1 		"/>
		<line class="st13" x1="428" y1="578.5" x2="450.2" y2="539.1"/>
	</g>
	<g id="hand">
		<g id="Layer_16">
			<path class="st18" d="M184.9,835.8c27.2-48.6,48.4-101.5,59.2-156.3c1.3-6.6,2.5-13.3,5.5-19.2c7.5-14.7,20.7-10.3,33.3-16.4
				c5.8-2.8,10.8-6.8,16.1-10.4c11.8-8,25.2-13.9,39.1-17.2c6.3-1.5,12.8-3.6,19.2-4c5-0.3,10.2,0.6,14.3,3.3
				c5,3.4,8.1,13.5,14.9,13.8c2.9,0.1,5.4-2,6.9-4.5c5.4-8.5,9.7-17.8,16.1-25.7c7.4-9.1,23.2-10.6,31-0.6c9.9,12.6,0,36.6-6.7,48.7
				c-8.9,15.8-22.7,27.4-32.9,42.2c-16.4,23.5-25.4,52.2-34.3,79.1c-8.5,26-3.7,56.1-19,79.8c-8.9,13.9-23.1,21.3-35.4,31.6
				c-2.7,2.3-19.9,20.6-23.4,18.5C288.9,898.4,184.9,835.8,184.9,835.8z"/>
		</g>
		<g>
			<path class="st16" d="M378.9,622.1c-0.4-1.8-1-3.4-2-4.9c-1.1-1.4-2.5-2.5-4.1-3.2c-1.6-0.8-3.4-1.1-5.1-1.3
				c-1.8-0.2-3.6-0.2-5.4,0c-3.6,0.3-7.1,1.3-10.6,2.1c-3.5,0.9-7.1,1.8-10.6,2.8c-7.1,1.9-14.1,3.8-21.1,5.9c-3.5,1-7,2.1-10.5,3.1
				c-3.5,1.1-7,2.2-10.5,3.2c-3.5,1-7,2-10.4,3.3c-1.7,0.6-3.4,1.3-5,2c-0.4,0.2-0.8,0.4-1.2,0.6l-0.6,0.3c-0.1,0-0.2,0.1-0.3,0.1
				l-0.3,0.2c-0.4,0.2-0.7,0.5-1,0.7c-0.3,0.3-0.7,0.5-1,0.8c-1.3,1.2-2.6,2.5-4,3.8c-0.7,0.6-1.4,1.2-2.3,1.8
				c-0.8,0.6-1.7,1-2.8,1.3c-0.5,0.2-1.1,0.2-1.6,0.3l-1.3,0.1c-0.9,0.1-1.8,0-2.7,0.1c-0.9,0.1-1.8,0.2-2.7,0.3l-2.6,0.4
				c-3.5,0.6-6.9,1.6-10,3.2c-3.1,1.6-5.8,3.8-7.8,6.6c-2.1,2.7-3.6,6-4.8,9.3c-1.2,3.4-2,6.9-2.8,10.4c-1.5,7.1-2.8,14.3-4.7,21.5
				l-6,21.1l-5.8,21.1c-1.9,7-3.9,14.1-6,21.1c-1,3.5-2.1,7-3.2,10.5c-1.1,3.5-2.2,7-3.3,10.5c-2.3,7-4.7,13.9-7.3,20.8l-2,5.1
				l-2.1,5.1c-1.3,3.4-2.9,6.8-4.3,10.1c-0.7,1.7-1.5,3.4-2.3,5l-2.3,5c-1.6,3.3-3.3,6.6-5,9.9l-0.9-3.3l54,31.1l1.7,1l0.8,0.5
				l0.3,0.2l0.1,0.1l0.2,0.1l0.4,0.3l3.2,2.2l6.5,4.3l12.9,8.7l25.9,17.4l-4.3,0.8l28-40.4l0.3-0.5l0.6-0.4l3.9-2.7
				c1.3-0.9,2.5-1.9,3.8-2.9c1.3-1,2.4-2,3.6-3c1.2-1,2.3-2.1,3.5-3.2c1.2-1.1,2.2-2.2,3.3-3.4c1.1-1.1,2.1-2.4,3.1-3.5
				c1-1.2,2-2.5,3-3.7c1-1.3,1.9-2.6,2.8-3.8l2.6-4l2.5-4.1c0.8-1.4,1.6-2.8,2.3-4.2c0.7-1.4,1.5-2.8,2.2-4.3
				c1.4-2.9,2.8-5.8,4.2-8.7c1.3-2.9,2.7-5.9,4-8.9l-0.1,0.3l8.1-23.3c2.7-7.7,5.4-15.5,8.3-23.3c2.9-7.8,5.9-15.5,9.2-23.1
				c3.2-7.6,6.7-15.1,10.4-22.6c3.6-7.4,7.5-14.8,11.4-22c4-7.2,8.1-14.4,12.4-21.5l3.3-5.3l0.8-1.3l0.4-0.7l0.1-0.1l0.2-0.3
				l0.1-0.2l0.2-0.3l1.8-2.5c2.3-3.3,4.5-6.6,6.5-10c1.9-3.4,3.6-6.9,4.8-10.5c1.2-3.6,2-7.3,2.2-11.1l0.1-1.4c0-0.5,0-0.9,0-1.4
				l0-1.4l-0.1-1.4l-0.2-1.3l-0.2-1.3l-0.3-1.3l-0.4-1.3c-1-3.5-2.8-6.6-5.3-9c-0.6-0.6-1.3-1.1-2-1.6l-0.5-0.4l-0.1-0.1
				c0.3,0.2,0,0,0.1,0l-0.1,0l-0.3-0.2l-1.3-0.7c-0.2-0.1-0.4-0.2-0.6-0.3l-0.5-0.2c-0.4-0.1-0.7-0.3-1.1-0.4l-1.2-0.3l-1.2-0.2
				c-1.7-0.2-3.4-0.2-5.1,0.2l-0.6,0.1l-0.6,0.2c-0.4,0.1-0.9,0.2-1.3,0.4c-0.8,0.3-1.7,0.6-2.5,1c-3.4,1.6-6.5,3.8-9.5,6.4
				c-3,2.6-5.7,5.4-8.4,8.4c-5.3,6.1-10,12.7-14.4,19.5c-1.1,1.7-2.3,3.4-3.3,5.1c-1.1,1.7-2.2,3.5-3.3,5.2c-2.1,3.4-4.2,7-6.3,10.5
				c-4.2,7.1-8.3,14.2-12.9,21.1c-4.5,6.9-9.4,13.6-15,19.7c-5.6,6.1-11.9,11.6-18.8,16.1l-0.5-0.7c6.6-4.8,12.5-10.5,17.7-16.7
				c5.2-6.2,9.8-13,14-20c4.2-7,8-14.2,12-21.4c2-3.6,4-7.2,6-10.8c1-1.8,2.1-3.5,3.1-5.3c1.1-1.8,2.1-3.5,3.2-5.3
				c4.3-7,9-14,14.3-20.5c2.7-3.2,5.5-6.4,8.7-9.3c3.2-2.9,6.6-5.6,10.7-7.6c1-0.5,2.1-0.9,3.1-1.4c0.5-0.2,1.1-0.4,1.7-0.5l0.8-0.3
				l0.9-0.2c2.3-0.6,4.7-0.7,7.1-0.4c0.6,0.1,1.2,0.1,1.8,0.3l1.8,0.4c0.6,0.1,1.2,0.4,1.8,0.6l0.9,0.4c0.3,0.1,0.6,0.2,0.8,0.4
				l1.4,0.7l0.3,0.2l0.1,0l0.3,0.1l0.2,0.1l0.8,0.5c1,0.7,1.9,1.4,2.8,2.2c3.5,3.3,5.9,7.5,7.3,11.8l0.5,1.6l0.4,1.7l0.3,1.7
				l0.2,1.8l0.1,0.8l0,0.4l0,0.2l0,0.3l0.1,1.7c0,0.6,0,1.1,0,1.7l-0.1,1.7c-0.2,4.4-1,8.9-2.4,13c-1.4,4.2-3.2,8.1-5.2,11.9
				c-2.1,3.8-4.3,7.3-6.7,10.8l-1.8,2.6l-0.2,0.3l-0.1,0.2c0,0.1,0.2-0.3,0.1-0.1l0,0.1l-0.4,0.7l-0.8,1.3l-3.1,5.3
				c-4.2,7-8.2,14.1-12.1,21.3c-3.9,7.2-7.6,14.4-11.1,21.7c-3.5,7.3-6.9,14.8-10.1,22.2c-3.3,7.5-6.3,15-9.2,22.6
				c-2.9,7.6-5.6,15.4-8.4,23.1l-8.4,23.2l-0.1,0.2l0,0.1c-1.4,3-2.7,6-4.1,9c-1.4,3-2.9,5.9-4.4,8.9c-0.8,1.5-1.6,2.9-2.4,4.4
				c-0.8,1.5-1.7,2.9-2.5,4.3c-0.9,1.4-1.8,2.8-2.7,4.3l-2.8,4.2c-1,1.4-2,2.7-3,4.1c-1.1,1.3-2.1,2.6-3.2,3.9
				c-1.1,1.2-2.2,2.5-3.4,3.8c-1.2,1.2-2.3,2.4-3.6,3.6c-1.3,1.1-2.5,2.3-3.8,3.4c-1.3,1.1-2.6,2.2-3.9,3.2c-1.4,1-2.7,2-4.1,3
				l-4.2,2.8l0.9-0.9l-28.4,40.1l-1.8,2.5l-2.5-1.7L255.4,892l-12.8-8.8l-6.4-4.4l-3.2-2.2l-0.4-0.3l-0.2-0.1l-0.1-0.1l0,0
				c-0.2-0.1,0.2,0.1,0.1,0.1l-0.1,0l-0.8-0.5l-1.7-1L176.1,843l-2-1.2l1.1-2.1c1.7-3.2,3.4-6.4,5-9.7l2.4-4.9
				c0.8-1.6,1.6-3.3,2.3-4.9c1.5-3.3,3-6.6,4.4-10l2.1-5l2-5.1c2.7-6.8,5.1-13.6,7.4-20.5c1.2-3.4,2.3-6.9,3.4-10.4
				c1.1-3.5,2.2-6.9,3.2-10.4c4.2-13.9,8.2-28,12.3-42l6.3-21c2-6.9,3.3-14.1,5-21.3c0.8-3.6,1.7-7.2,3-10.7c1.3-3.5,2.9-7,5.3-10
				c1.1-1.5,2.5-2.9,4-4.2c0.8-0.6,1.5-1.2,2.3-1.7c0.4-0.3,0.8-0.5,1.2-0.8l1.3-0.7c3.4-1.8,7.1-2.8,10.8-3.4l2.8-0.4
				c0.9-0.1,1.9-0.2,2.8-0.2c0.9-0.1,1.8-0.1,2.8-0.1l1.4,0c0.4,0,0.7,0,1.1-0.2c0.7-0.2,1.4-0.5,2.1-1c0.7-0.4,1.4-1,2-1.6
				c1.3-1.2,2.6-2.5,4-3.7c0.3-0.3,0.7-0.6,1.1-0.9c0.4-0.3,0.9-0.6,1.3-0.8l0.3-0.2c0.2-0.1,0.2-0.1,0.4-0.2l0.6-0.3
				c0.4-0.2,0.8-0.4,1.3-0.6c1.7-0.8,3.4-1.4,5.2-2c3.5-1.2,7-2.2,10.6-3.2c3.5-0.9,7-2,10.5-3c3.5-1,7-2,10.5-3
				c7-2,14.1-3.8,21.2-5.6c3.5-0.9,7.1-1.8,10.6-2.6c3.5-0.8,7.1-1.8,10.8-2c1.8-0.1,3.7-0.2,5.6,0.1c1.8,0.2,3.7,0.6,5.4,1.5
				c1.7,0.8,3.2,2,4.4,3.5c1.1,1.5,1.7,3.5,2.1,5.2L378.9,622.1z"/>
		</g>
	</g>
</g>
<g id="number_1">
	<g id="_x31_">
	</g>
	<g id="hash">
	</g>
	<g id="bubbles">
	</g>
</g>
<g id="pheros">
	<g id="shadows">
		<g id="Layer_11">
		</g>
	</g>
	<g id="lines">
	</g>
	<g id="second_row">
	</g>
	<g id="first_row">
	</g>
</g>
<g id="nose">
	<g id="aura">
	</g>
	<g id="reaction">
	</g>
	<g id="profile">
	</g>
</g>
</svg>
